%FSLAX25Y25*%
%MOIN*%
G70*
G01*
G75*
G04 Layer_Color=255*
%ADD10C,0.00591*%
%ADD11R,0.11024X0.04921*%
%ADD12R,0.01378X0.02165*%
%ADD13R,0.12992X0.17323*%
%ADD14R,0.15354X0.24410*%
%ADD15R,0.04724X0.07087*%
%ADD16R,0.05906X0.07087*%
%ADD17R,0.04724X0.04724*%
%ADD18R,0.04724X0.13386*%
%ADD19R,0.01969X0.02362*%
%ADD20R,0.06693X0.09843*%
%ADD21R,0.06890X0.04724*%
%ADD22R,0.03543X0.02362*%
%ADD23R,0.06693X0.07874*%
%ADD24R,0.05315X0.01772*%
%ADD25R,0.06299X0.22441*%
%ADD26R,0.02362X0.01969*%
%ADD27R,0.12992X0.09843*%
%ADD28C,0.01772*%
%ADD29C,0.00100*%
%ADD30C,0.15748*%
%ADD31C,0.07874*%
D11*
X456693Y-26673D02*
D03*
Y-20571D02*
D03*
X-456693Y-256791D02*
D03*
Y-262894D02*
D03*
X456693Y256791D02*
D03*
Y262894D02*
D03*
X-456693Y26673D02*
D03*
Y20571D02*
D03*
X456693Y-73917D02*
D03*
Y-67815D02*
D03*
X-456693Y-209547D02*
D03*
Y-215650D02*
D03*
X456693Y209547D02*
D03*
Y215650D02*
D03*
X-456693Y73917D02*
D03*
Y67815D02*
D03*
X456693Y-121161D02*
D03*
Y-115059D02*
D03*
X-456693Y-162303D02*
D03*
Y-168405D02*
D03*
X456693Y162303D02*
D03*
Y168405D02*
D03*
X-456693Y121161D02*
D03*
Y115059D02*
D03*
X456693Y-168405D02*
D03*
Y-162303D02*
D03*
X-456693Y-115059D02*
D03*
Y-121161D02*
D03*
X456693Y115059D02*
D03*
Y121161D02*
D03*
X-456693Y168405D02*
D03*
Y162303D02*
D03*
X456693Y-215650D02*
D03*
Y-209547D02*
D03*
X-456693Y-67815D02*
D03*
Y-73917D02*
D03*
X456693Y67815D02*
D03*
Y73917D02*
D03*
X-456693Y215650D02*
D03*
Y209547D02*
D03*
X456693Y-262894D02*
D03*
Y-256791D02*
D03*
X-456693Y-20571D02*
D03*
Y-26673D02*
D03*
X456693Y20571D02*
D03*
Y26673D02*
D03*
X-456693Y262894D02*
D03*
Y256791D02*
D03*
X377953Y-26673D02*
D03*
Y-20571D02*
D03*
X-377953Y-256791D02*
D03*
Y-262894D02*
D03*
X377953Y256791D02*
D03*
Y262894D02*
D03*
X-377953Y26673D02*
D03*
Y20571D02*
D03*
X377953Y-73917D02*
D03*
Y-67815D02*
D03*
X-377953Y-209547D02*
D03*
Y-215650D02*
D03*
X377953Y209547D02*
D03*
Y215650D02*
D03*
X-377953Y73917D02*
D03*
Y67815D02*
D03*
X377953Y-121161D02*
D03*
Y-115059D02*
D03*
X-377953Y-162303D02*
D03*
Y-168405D02*
D03*
X377953Y162303D02*
D03*
Y168405D02*
D03*
X-377953Y121161D02*
D03*
Y115059D02*
D03*
X377953Y-168405D02*
D03*
Y-162303D02*
D03*
X-377953Y-115059D02*
D03*
Y-121161D02*
D03*
X377953Y115059D02*
D03*
Y121161D02*
D03*
X-377953Y168405D02*
D03*
Y162303D02*
D03*
X377953Y-215650D02*
D03*
Y-209547D02*
D03*
X-377953Y-67815D02*
D03*
Y-73917D02*
D03*
X377953Y67815D02*
D03*
Y73917D02*
D03*
X-377953Y215650D02*
D03*
Y209547D02*
D03*
X377953Y-262894D02*
D03*
Y-256791D02*
D03*
X-377953Y-20571D02*
D03*
Y-26673D02*
D03*
X377953Y20571D02*
D03*
Y26673D02*
D03*
X-377953Y262894D02*
D03*
Y256791D02*
D03*
X299213Y-26673D02*
D03*
Y-20571D02*
D03*
X-299213Y-256791D02*
D03*
Y-262894D02*
D03*
X299213Y256791D02*
D03*
Y262894D02*
D03*
X-299213Y26673D02*
D03*
Y20571D02*
D03*
X299213Y-73917D02*
D03*
Y-67815D02*
D03*
X-299213Y-209547D02*
D03*
Y-215650D02*
D03*
X299213Y209547D02*
D03*
Y215650D02*
D03*
X-299213Y73917D02*
D03*
Y67815D02*
D03*
X299213Y-121161D02*
D03*
Y-115059D02*
D03*
X-299213Y-162303D02*
D03*
Y-168405D02*
D03*
X299213Y162303D02*
D03*
Y168405D02*
D03*
X-299213Y121161D02*
D03*
Y115059D02*
D03*
X299213Y-168405D02*
D03*
Y-162303D02*
D03*
X-299213Y-115059D02*
D03*
Y-121161D02*
D03*
X299213Y115059D02*
D03*
Y121161D02*
D03*
X-299213Y168405D02*
D03*
Y162303D02*
D03*
X299213Y-215650D02*
D03*
Y-209547D02*
D03*
X-299213Y-67815D02*
D03*
Y-73917D02*
D03*
X299213Y67815D02*
D03*
Y73917D02*
D03*
X-299213Y215650D02*
D03*
Y209547D02*
D03*
X299213Y-262894D02*
D03*
Y-256791D02*
D03*
X-299213Y-20571D02*
D03*
Y-26673D02*
D03*
X299213Y20571D02*
D03*
Y26673D02*
D03*
X-299213Y262894D02*
D03*
Y256791D02*
D03*
X220472Y-26673D02*
D03*
Y-20571D02*
D03*
X-220472Y-256791D02*
D03*
Y-262894D02*
D03*
X220472Y256791D02*
D03*
Y262894D02*
D03*
X-220472Y26673D02*
D03*
Y20571D02*
D03*
X220472Y-73917D02*
D03*
Y-67815D02*
D03*
X-220472Y-209547D02*
D03*
Y-215650D02*
D03*
X220472Y209547D02*
D03*
Y215650D02*
D03*
X-220472Y73917D02*
D03*
Y67815D02*
D03*
X220472Y-121161D02*
D03*
Y-115059D02*
D03*
X-220472Y-162303D02*
D03*
Y-168405D02*
D03*
X220472Y162303D02*
D03*
Y168405D02*
D03*
X-220472Y121161D02*
D03*
Y115059D02*
D03*
X220472Y-168405D02*
D03*
Y-162303D02*
D03*
X-220472Y-115059D02*
D03*
Y-121161D02*
D03*
X220472Y115059D02*
D03*
Y121161D02*
D03*
X-220472Y168405D02*
D03*
Y162303D02*
D03*
X220472Y-215650D02*
D03*
Y-209547D02*
D03*
X-220472Y-67815D02*
D03*
Y-73917D02*
D03*
X220472Y67815D02*
D03*
Y73917D02*
D03*
X-220472Y215650D02*
D03*
Y209547D02*
D03*
X220472Y-262894D02*
D03*
Y-256791D02*
D03*
X-220472Y-20571D02*
D03*
Y-26673D02*
D03*
X220472Y20571D02*
D03*
Y26673D02*
D03*
X-220472Y262894D02*
D03*
Y256791D02*
D03*
X141732Y-26673D02*
D03*
Y-20571D02*
D03*
X-141732Y-256791D02*
D03*
Y-262894D02*
D03*
X141732Y256791D02*
D03*
Y262894D02*
D03*
X-141732Y26673D02*
D03*
Y20571D02*
D03*
X141732Y-73917D02*
D03*
Y-67815D02*
D03*
X-141732Y-209547D02*
D03*
Y-215650D02*
D03*
X141732Y209547D02*
D03*
Y215650D02*
D03*
X-141732Y73917D02*
D03*
Y67815D02*
D03*
X141732Y-121161D02*
D03*
Y-115059D02*
D03*
X-141732Y-162303D02*
D03*
Y-168405D02*
D03*
X141732Y162303D02*
D03*
Y168405D02*
D03*
X-141732Y121161D02*
D03*
Y115059D02*
D03*
X141732Y-168405D02*
D03*
Y-162303D02*
D03*
X-141732Y-115059D02*
D03*
Y-121161D02*
D03*
X141732Y115059D02*
D03*
Y121161D02*
D03*
X-141732Y168405D02*
D03*
Y162303D02*
D03*
X141732Y-215650D02*
D03*
Y-209547D02*
D03*
X-141732Y-67815D02*
D03*
Y-73917D02*
D03*
X141732Y67815D02*
D03*
Y73917D02*
D03*
X-141732Y215650D02*
D03*
Y209547D02*
D03*
X141732Y-262894D02*
D03*
Y-256791D02*
D03*
X-141732Y-20571D02*
D03*
Y-26673D02*
D03*
X141732Y20571D02*
D03*
Y26673D02*
D03*
X-141732Y262894D02*
D03*
Y256791D02*
D03*
X62992Y-26673D02*
D03*
Y-20571D02*
D03*
X-62992Y-256791D02*
D03*
Y-262894D02*
D03*
X62992Y256791D02*
D03*
Y262894D02*
D03*
X-62992Y26673D02*
D03*
Y20571D02*
D03*
X62992Y-73917D02*
D03*
Y-67815D02*
D03*
X-62992Y-209547D02*
D03*
Y-215650D02*
D03*
X62992Y209547D02*
D03*
Y215650D02*
D03*
X-62992Y73917D02*
D03*
Y67815D02*
D03*
X62992Y-121161D02*
D03*
Y-115059D02*
D03*
X-62992Y-162303D02*
D03*
Y-168405D02*
D03*
X62992Y162303D02*
D03*
Y168405D02*
D03*
X-62992Y121161D02*
D03*
Y115059D02*
D03*
X62992Y-168405D02*
D03*
Y-162303D02*
D03*
X-62992Y-115059D02*
D03*
Y-121161D02*
D03*
X62992Y115059D02*
D03*
Y121161D02*
D03*
X-62992Y168405D02*
D03*
Y162303D02*
D03*
X62992Y-215650D02*
D03*
Y-209547D02*
D03*
X-62992Y-67815D02*
D03*
Y-73917D02*
D03*
X62992Y67815D02*
D03*
Y73917D02*
D03*
X-62992Y215650D02*
D03*
Y209547D02*
D03*
X62992Y-262894D02*
D03*
Y-256791D02*
D03*
X-62992Y-20571D02*
D03*
Y-26673D02*
D03*
X62992Y20571D02*
D03*
Y26673D02*
D03*
X-62992Y262894D02*
D03*
Y256791D02*
D03*
D12*
X462894Y-28051D02*
D03*
X450492D02*
D03*
X462894Y-19193D02*
D03*
X450492D02*
D03*
X-462894Y-255413D02*
D03*
X-450492D02*
D03*
X-462894Y-264272D02*
D03*
X-450492D02*
D03*
X462894Y255413D02*
D03*
X450492D02*
D03*
X462894Y264272D02*
D03*
X450492D02*
D03*
X-462894Y28051D02*
D03*
X-450492D02*
D03*
X-462894Y19193D02*
D03*
X-450492D02*
D03*
X462894Y-75295D02*
D03*
X450492D02*
D03*
X462894Y-66437D02*
D03*
X450492D02*
D03*
X-462894Y-208169D02*
D03*
X-450492D02*
D03*
X-462894Y-217027D02*
D03*
X-450492D02*
D03*
X462894Y208169D02*
D03*
X450492D02*
D03*
X462894Y217027D02*
D03*
X450492D02*
D03*
X-462894Y75295D02*
D03*
X-450492D02*
D03*
X-462894Y66437D02*
D03*
X-450492D02*
D03*
X462894Y-122539D02*
D03*
X450492D02*
D03*
X462894Y-113681D02*
D03*
X450492D02*
D03*
X-462894Y-160925D02*
D03*
X-450492D02*
D03*
X-462894Y-169783D02*
D03*
X-450492D02*
D03*
X462894Y160925D02*
D03*
X450492D02*
D03*
X462894Y169783D02*
D03*
X450492D02*
D03*
X-462894Y122539D02*
D03*
X-450492D02*
D03*
X-462894Y113681D02*
D03*
X-450492D02*
D03*
X462894Y-169783D02*
D03*
X450492D02*
D03*
X462894Y-160925D02*
D03*
X450492D02*
D03*
X-462894Y-113681D02*
D03*
X-450492D02*
D03*
X-462894Y-122539D02*
D03*
X-450492D02*
D03*
X462894Y113681D02*
D03*
X450492D02*
D03*
X462894Y122539D02*
D03*
X450492D02*
D03*
X-462894Y169783D02*
D03*
X-450492D02*
D03*
X-462894Y160925D02*
D03*
X-450492D02*
D03*
X462894Y-217028D02*
D03*
X450492D02*
D03*
X462894Y-208169D02*
D03*
X450492D02*
D03*
X-462894Y-66437D02*
D03*
X-450492D02*
D03*
X-462894Y-75295D02*
D03*
X-450492D02*
D03*
X462894Y66437D02*
D03*
X450492D02*
D03*
X462894Y75295D02*
D03*
X450492D02*
D03*
X-462894Y217028D02*
D03*
X-450492D02*
D03*
X-462894Y208169D02*
D03*
X-450492D02*
D03*
X462894Y-264272D02*
D03*
X450492D02*
D03*
X462894Y-255413D02*
D03*
X450492D02*
D03*
X-462894Y-19193D02*
D03*
X-450492D02*
D03*
X-462894Y-28051D02*
D03*
X-450492D02*
D03*
X462894Y19193D02*
D03*
X450492D02*
D03*
X462894Y28051D02*
D03*
X450492D02*
D03*
X-462894Y264272D02*
D03*
X-450492D02*
D03*
X-462894Y255413D02*
D03*
X-450492D02*
D03*
X384154Y-28051D02*
D03*
X371752D02*
D03*
X384154Y-19193D02*
D03*
X371752D02*
D03*
X-384154Y-255413D02*
D03*
X-371752D02*
D03*
X-384154Y-264272D02*
D03*
X-371752D02*
D03*
X384154Y255413D02*
D03*
X371752D02*
D03*
X384154Y264272D02*
D03*
X371752D02*
D03*
X-384154Y28051D02*
D03*
X-371752D02*
D03*
X-384154Y19193D02*
D03*
X-371752D02*
D03*
X384154Y-75295D02*
D03*
X371752D02*
D03*
X384154Y-66437D02*
D03*
X371752D02*
D03*
X-384154Y-208169D02*
D03*
X-371752D02*
D03*
X-384154Y-217027D02*
D03*
X-371752D02*
D03*
X384154Y208169D02*
D03*
X371752D02*
D03*
X384154Y217027D02*
D03*
X371752D02*
D03*
X-384154Y75295D02*
D03*
X-371752D02*
D03*
X-384154Y66437D02*
D03*
X-371752D02*
D03*
X384154Y-122539D02*
D03*
X371752D02*
D03*
X384154Y-113681D02*
D03*
X371752D02*
D03*
X-384154Y-160925D02*
D03*
X-371752D02*
D03*
X-384154Y-169783D02*
D03*
X-371752D02*
D03*
X384154Y160925D02*
D03*
X371752D02*
D03*
X384154Y169783D02*
D03*
X371752D02*
D03*
X-384154Y122539D02*
D03*
X-371752D02*
D03*
X-384154Y113681D02*
D03*
X-371752D02*
D03*
X384154Y-169783D02*
D03*
X371752D02*
D03*
X384154Y-160925D02*
D03*
X371752D02*
D03*
X-384154Y-113681D02*
D03*
X-371752D02*
D03*
X-384154Y-122539D02*
D03*
X-371752D02*
D03*
X384154Y113681D02*
D03*
X371752D02*
D03*
X384154Y122539D02*
D03*
X371752D02*
D03*
X-384154Y169783D02*
D03*
X-371752D02*
D03*
X-384154Y160925D02*
D03*
X-371752D02*
D03*
X384154Y-217028D02*
D03*
X371752D02*
D03*
X384154Y-208169D02*
D03*
X371752D02*
D03*
X-384154Y-66437D02*
D03*
X-371752D02*
D03*
X-384154Y-75295D02*
D03*
X-371752D02*
D03*
X384154Y66437D02*
D03*
X371752D02*
D03*
X384154Y75295D02*
D03*
X371752D02*
D03*
X-384154Y217028D02*
D03*
X-371752D02*
D03*
X-384154Y208169D02*
D03*
X-371752D02*
D03*
X384154Y-264272D02*
D03*
X371752D02*
D03*
X384154Y-255413D02*
D03*
X371752D02*
D03*
X-384154Y-19193D02*
D03*
X-371752D02*
D03*
X-384154Y-28051D02*
D03*
X-371752D02*
D03*
X384154Y19193D02*
D03*
X371752D02*
D03*
X384154Y28051D02*
D03*
X371752D02*
D03*
X-384154Y264272D02*
D03*
X-371752D02*
D03*
X-384154Y255413D02*
D03*
X-371752D02*
D03*
X305413Y-28051D02*
D03*
X293012D02*
D03*
X305413Y-19193D02*
D03*
X293012D02*
D03*
X-305413Y-255413D02*
D03*
X-293012D02*
D03*
X-305413Y-264272D02*
D03*
X-293012D02*
D03*
X305413Y255413D02*
D03*
X293012D02*
D03*
X305413Y264272D02*
D03*
X293012D02*
D03*
X-305413Y28051D02*
D03*
X-293012D02*
D03*
X-305413Y19193D02*
D03*
X-293012D02*
D03*
X305413Y-75295D02*
D03*
X293012D02*
D03*
X305413Y-66437D02*
D03*
X293012D02*
D03*
X-305413Y-208169D02*
D03*
X-293012D02*
D03*
X-305413Y-217027D02*
D03*
X-293012D02*
D03*
X305413Y208169D02*
D03*
X293012D02*
D03*
X305413Y217027D02*
D03*
X293012D02*
D03*
X-305413Y75295D02*
D03*
X-293012D02*
D03*
X-305413Y66437D02*
D03*
X-293012D02*
D03*
X305413Y-122539D02*
D03*
X293012D02*
D03*
X305413Y-113681D02*
D03*
X293012D02*
D03*
X-305413Y-160925D02*
D03*
X-293012D02*
D03*
X-305413Y-169783D02*
D03*
X-293012D02*
D03*
X305413Y160925D02*
D03*
X293012D02*
D03*
X305413Y169783D02*
D03*
X293012D02*
D03*
X-305413Y122539D02*
D03*
X-293012D02*
D03*
X-305413Y113681D02*
D03*
X-293012D02*
D03*
X305413Y-169783D02*
D03*
X293012D02*
D03*
X305413Y-160925D02*
D03*
X293012D02*
D03*
X-305413Y-113681D02*
D03*
X-293012D02*
D03*
X-305413Y-122539D02*
D03*
X-293012D02*
D03*
X305413Y113681D02*
D03*
X293012D02*
D03*
X305413Y122539D02*
D03*
X293012D02*
D03*
X-305413Y169783D02*
D03*
X-293012D02*
D03*
X-305413Y160925D02*
D03*
X-293012D02*
D03*
X305413Y-217028D02*
D03*
X293012D02*
D03*
X305413Y-208169D02*
D03*
X293012D02*
D03*
X-305413Y-66437D02*
D03*
X-293012D02*
D03*
X-305413Y-75295D02*
D03*
X-293012D02*
D03*
X305413Y66437D02*
D03*
X293012D02*
D03*
X305413Y75295D02*
D03*
X293012D02*
D03*
X-305413Y217028D02*
D03*
X-293012D02*
D03*
X-305413Y208169D02*
D03*
X-293012D02*
D03*
X305413Y-264272D02*
D03*
X293012D02*
D03*
X305413Y-255413D02*
D03*
X293012D02*
D03*
X-305413Y-19193D02*
D03*
X-293012D02*
D03*
X-305413Y-28051D02*
D03*
X-293012D02*
D03*
X305413Y19193D02*
D03*
X293012D02*
D03*
X305413Y28051D02*
D03*
X293012D02*
D03*
X-305413Y264272D02*
D03*
X-293012D02*
D03*
X-305413Y255413D02*
D03*
X-293012D02*
D03*
X226673Y-28051D02*
D03*
X214272D02*
D03*
X226673Y-19193D02*
D03*
X214272D02*
D03*
X-226673Y-255413D02*
D03*
X-214272D02*
D03*
X-226673Y-264272D02*
D03*
X-214272D02*
D03*
X226673Y255413D02*
D03*
X214272D02*
D03*
X226673Y264272D02*
D03*
X214272D02*
D03*
X-226673Y28051D02*
D03*
X-214272D02*
D03*
X-226673Y19193D02*
D03*
X-214272D02*
D03*
X226673Y-75295D02*
D03*
X214272D02*
D03*
X226673Y-66437D02*
D03*
X214272D02*
D03*
X-226673Y-208169D02*
D03*
X-214272D02*
D03*
X-226673Y-217027D02*
D03*
X-214272D02*
D03*
X226673Y208169D02*
D03*
X214272D02*
D03*
X226673Y217027D02*
D03*
X214272D02*
D03*
X-226673Y75295D02*
D03*
X-214272D02*
D03*
X-226673Y66437D02*
D03*
X-214272D02*
D03*
X226673Y-122539D02*
D03*
X214272D02*
D03*
X226673Y-113681D02*
D03*
X214272D02*
D03*
X-226673Y-160925D02*
D03*
X-214272D02*
D03*
X-226673Y-169783D02*
D03*
X-214272D02*
D03*
X226673Y160925D02*
D03*
X214272D02*
D03*
X226673Y169783D02*
D03*
X214272D02*
D03*
X-226673Y122539D02*
D03*
X-214272D02*
D03*
X-226673Y113681D02*
D03*
X-214272D02*
D03*
X226673Y-169783D02*
D03*
X214272D02*
D03*
X226673Y-160925D02*
D03*
X214272D02*
D03*
X-226673Y-113681D02*
D03*
X-214272D02*
D03*
X-226673Y-122539D02*
D03*
X-214272D02*
D03*
X226673Y113681D02*
D03*
X214272D02*
D03*
X226673Y122539D02*
D03*
X214272D02*
D03*
X-226673Y169783D02*
D03*
X-214272D02*
D03*
X-226673Y160925D02*
D03*
X-214272D02*
D03*
X226673Y-217028D02*
D03*
X214272D02*
D03*
X226673Y-208169D02*
D03*
X214272D02*
D03*
X-226673Y-66437D02*
D03*
X-214272D02*
D03*
X-226673Y-75295D02*
D03*
X-214272D02*
D03*
X226673Y66437D02*
D03*
X214272D02*
D03*
X226673Y75295D02*
D03*
X214272D02*
D03*
X-226673Y217028D02*
D03*
X-214272D02*
D03*
X-226673Y208169D02*
D03*
X-214272D02*
D03*
X226673Y-264272D02*
D03*
X214272D02*
D03*
X226673Y-255413D02*
D03*
X214272D02*
D03*
X-226673Y-19193D02*
D03*
X-214272D02*
D03*
X-226673Y-28051D02*
D03*
X-214272D02*
D03*
X226673Y19193D02*
D03*
X214272D02*
D03*
X226673Y28051D02*
D03*
X214272D02*
D03*
X-226673Y264272D02*
D03*
X-214272D02*
D03*
X-226673Y255413D02*
D03*
X-214272D02*
D03*
X147933Y-28051D02*
D03*
X135531D02*
D03*
X147933Y-19193D02*
D03*
X135531D02*
D03*
X-147933Y-255413D02*
D03*
X-135531D02*
D03*
X-147933Y-264272D02*
D03*
X-135531D02*
D03*
X147933Y255413D02*
D03*
X135531D02*
D03*
X147933Y264272D02*
D03*
X135531D02*
D03*
X-147933Y28051D02*
D03*
X-135531D02*
D03*
X-147933Y19193D02*
D03*
X-135531D02*
D03*
X147933Y-75295D02*
D03*
X135531D02*
D03*
X147933Y-66437D02*
D03*
X135531D02*
D03*
X-147933Y-208169D02*
D03*
X-135531D02*
D03*
X-147933Y-217027D02*
D03*
X-135531D02*
D03*
X147933Y208169D02*
D03*
X135531D02*
D03*
X147933Y217027D02*
D03*
X135531D02*
D03*
X-147933Y75295D02*
D03*
X-135531D02*
D03*
X-147933Y66437D02*
D03*
X-135531D02*
D03*
X147933Y-122539D02*
D03*
X135531D02*
D03*
X147933Y-113681D02*
D03*
X135531D02*
D03*
X-147933Y-160925D02*
D03*
X-135531D02*
D03*
X-147933Y-169783D02*
D03*
X-135531D02*
D03*
X147933Y160925D02*
D03*
X135531D02*
D03*
X147933Y169783D02*
D03*
X135531D02*
D03*
X-147933Y122539D02*
D03*
X-135531D02*
D03*
X-147933Y113681D02*
D03*
X-135531D02*
D03*
X147933Y-169783D02*
D03*
X135531D02*
D03*
X147933Y-160925D02*
D03*
X135531D02*
D03*
X-147933Y-113681D02*
D03*
X-135531D02*
D03*
X-147933Y-122539D02*
D03*
X-135531D02*
D03*
X147933Y113681D02*
D03*
X135531D02*
D03*
X147933Y122539D02*
D03*
X135531D02*
D03*
X-147933Y169783D02*
D03*
X-135531D02*
D03*
X-147933Y160925D02*
D03*
X-135531D02*
D03*
X147933Y-217028D02*
D03*
X135531D02*
D03*
X147933Y-208169D02*
D03*
X135531D02*
D03*
X-147933Y-66437D02*
D03*
X-135531D02*
D03*
X-147933Y-75295D02*
D03*
X-135531D02*
D03*
X147933Y66437D02*
D03*
X135531D02*
D03*
X147933Y75295D02*
D03*
X135531D02*
D03*
X-147933Y217028D02*
D03*
X-135531D02*
D03*
X-147933Y208169D02*
D03*
X-135531D02*
D03*
X147933Y-264272D02*
D03*
X135531D02*
D03*
X147933Y-255413D02*
D03*
X135531D02*
D03*
X-147933Y-19193D02*
D03*
X-135531D02*
D03*
X-147933Y-28051D02*
D03*
X-135531D02*
D03*
X147933Y19193D02*
D03*
X135531D02*
D03*
X147933Y28051D02*
D03*
X135531D02*
D03*
X-147933Y264272D02*
D03*
X-135531D02*
D03*
X-147933Y255413D02*
D03*
X-135531D02*
D03*
X69193Y-28051D02*
D03*
X56791D02*
D03*
X69193Y-19193D02*
D03*
X56791D02*
D03*
X-69193Y-255413D02*
D03*
X-56791D02*
D03*
X-69193Y-264272D02*
D03*
X-56791D02*
D03*
X69193Y255413D02*
D03*
X56791D02*
D03*
X69193Y264272D02*
D03*
X56791D02*
D03*
X-69193Y28051D02*
D03*
X-56791D02*
D03*
X-69193Y19193D02*
D03*
X-56791D02*
D03*
X69193Y-75295D02*
D03*
X56791D02*
D03*
X69193Y-66437D02*
D03*
X56791D02*
D03*
X-69193Y-208169D02*
D03*
X-56791D02*
D03*
X-69193Y-217027D02*
D03*
X-56791D02*
D03*
X69193Y208169D02*
D03*
X56791D02*
D03*
X69193Y217027D02*
D03*
X56791D02*
D03*
X-69193Y75295D02*
D03*
X-56791D02*
D03*
X-69193Y66437D02*
D03*
X-56791D02*
D03*
X69193Y-122539D02*
D03*
X56791D02*
D03*
X69193Y-113681D02*
D03*
X56791D02*
D03*
X-69193Y-160925D02*
D03*
X-56791D02*
D03*
X-69193Y-169783D02*
D03*
X-56791D02*
D03*
X69193Y160925D02*
D03*
X56791D02*
D03*
X69193Y169783D02*
D03*
X56791D02*
D03*
X-69193Y122539D02*
D03*
X-56791D02*
D03*
X-69193Y113681D02*
D03*
X-56791D02*
D03*
X69193Y-169783D02*
D03*
X56791D02*
D03*
X69193Y-160925D02*
D03*
X56791D02*
D03*
X-69193Y-113681D02*
D03*
X-56791D02*
D03*
X-69193Y-122539D02*
D03*
X-56791D02*
D03*
X69193Y113681D02*
D03*
X56791D02*
D03*
X69193Y122539D02*
D03*
X56791D02*
D03*
X-69193Y169783D02*
D03*
X-56791D02*
D03*
X-69193Y160925D02*
D03*
X-56791D02*
D03*
X69193Y-217028D02*
D03*
X56791D02*
D03*
X69193Y-208169D02*
D03*
X56791D02*
D03*
X-69193Y-66437D02*
D03*
X-56791D02*
D03*
X-69193Y-75295D02*
D03*
X-56791D02*
D03*
X69193Y66437D02*
D03*
X56791D02*
D03*
X69193Y75295D02*
D03*
X56791D02*
D03*
X-69193Y217028D02*
D03*
X-56791D02*
D03*
X-69193Y208169D02*
D03*
X-56791D02*
D03*
X69193Y-264272D02*
D03*
X56791D02*
D03*
X69193Y-255413D02*
D03*
X56791D02*
D03*
X-69193Y-19193D02*
D03*
X-56791D02*
D03*
X-69193Y-28051D02*
D03*
X-56791D02*
D03*
X69193Y19193D02*
D03*
X56791D02*
D03*
X69193Y28051D02*
D03*
X56791D02*
D03*
X-69193Y264272D02*
D03*
X-56791D02*
D03*
X-69193Y255413D02*
D03*
X-56791D02*
D03*
D13*
X10138Y233071D02*
D03*
D14*
X38091Y268307D02*
D03*
X-12697D02*
D03*
D15*
X-31594Y261910D02*
D03*
X-41437D02*
D03*
D16*
X-31594Y289862D02*
D03*
X-41437D02*
D03*
D17*
X-0Y-289567D02*
D03*
X-3937Y-277362D02*
D03*
X3937D02*
D03*
D18*
X10433Y138681D02*
D03*
X34055D02*
D03*
X-41361Y209679D02*
D03*
X-17739D02*
D03*
X17717Y77362D02*
D03*
X41339D02*
D03*
X-41335Y-73976D02*
D03*
X-17713D02*
D03*
X17739Y-202691D02*
D03*
X41361D02*
D03*
X-40748Y148819D02*
D03*
X-17126D02*
D03*
X17717Y60532D02*
D03*
X41339D02*
D03*
D19*
X-25197Y228445D02*
D03*
X-21260D02*
D03*
X-25197Y222638D02*
D03*
X-21260D02*
D03*
D20*
X3744Y-164157D02*
D03*
Y-179905D02*
D03*
X-3718Y-112509D02*
D03*
Y-96761D02*
D03*
X3721Y115895D02*
D03*
Y100147D02*
D03*
X-3744Y171146D02*
D03*
Y186894D02*
D03*
D21*
X1283Y-201840D02*
D03*
Y-190423D02*
D03*
X9274Y-74826D02*
D03*
Y-86243D02*
D03*
X1261Y78213D02*
D03*
Y89630D02*
D03*
X-1280Y212402D02*
D03*
Y200984D02*
D03*
D22*
X9865Y-202691D02*
D03*
Y-196785D02*
D03*
X47244Y-182579D02*
D03*
Y-188484D02*
D03*
X689Y-79035D02*
D03*
Y-84941D02*
D03*
X-47218Y-94087D02*
D03*
Y-88182D02*
D03*
X9843Y77362D02*
D03*
Y83268D02*
D03*
X47221Y97474D02*
D03*
Y91568D02*
D03*
X-9865Y209679D02*
D03*
Y203773D02*
D03*
X-47244Y189567D02*
D03*
Y195472D02*
D03*
D23*
X25518Y-185820D02*
D03*
X-25492Y-90846D02*
D03*
X25495Y94233D02*
D03*
X-25518Y192808D02*
D03*
D24*
X17742Y-181981D02*
D03*
Y-184540D02*
D03*
Y-187099D02*
D03*
Y-189658D02*
D03*
X33294Y-181981D02*
D03*
Y-184540D02*
D03*
Y-187099D02*
D03*
Y-189658D02*
D03*
X-17717Y-94685D02*
D03*
Y-92126D02*
D03*
Y-89567D02*
D03*
Y-87008D02*
D03*
X-33268Y-94685D02*
D03*
Y-92126D02*
D03*
Y-89567D02*
D03*
Y-87008D02*
D03*
X17720Y98072D02*
D03*
Y95513D02*
D03*
Y92953D02*
D03*
Y90395D02*
D03*
X33271Y98072D02*
D03*
Y95513D02*
D03*
Y92953D02*
D03*
Y90395D02*
D03*
X-17742Y188969D02*
D03*
Y191528D02*
D03*
Y194087D02*
D03*
Y196646D02*
D03*
X-33294Y188969D02*
D03*
Y191528D02*
D03*
Y194087D02*
D03*
Y196646D02*
D03*
D25*
X34967Y-164166D02*
D03*
X16463D02*
D03*
X-34941Y-112500D02*
D03*
X-16437D02*
D03*
X34944Y115887D02*
D03*
X16440D02*
D03*
X-34967Y171154D02*
D03*
X-16463D02*
D03*
D26*
X41444Y-179363D02*
D03*
Y-183300D02*
D03*
Y-187663D02*
D03*
Y-191600D02*
D03*
X-41418Y-97303D02*
D03*
Y-93366D02*
D03*
Y-89003D02*
D03*
Y-85066D02*
D03*
X41421Y100690D02*
D03*
Y96753D02*
D03*
Y92390D02*
D03*
Y88453D02*
D03*
X-41444Y186351D02*
D03*
Y190288D02*
D03*
Y194651D02*
D03*
Y198588D02*
D03*
X35531Y-289370D02*
D03*
Y-285433D02*
D03*
X35630Y-277067D02*
D03*
Y-281004D02*
D03*
D27*
X20768Y210433D02*
D03*
Y183268D02*
D03*
D30*
X255906Y0D02*
D03*
X-255906D02*
D03*
X-413681Y236122D02*
D03*
X413091Y-236319D02*
D03*
X-413681D02*
D03*
X413386Y236221D02*
D03*
X98425Y98425D02*
D03*
Y-98425D02*
D03*
X-98425D02*
D03*
Y98425D02*
D03*
X0Y0D02*
D03*
D31*
X12697Y283268D02*
D03*
M02*
