%FSLAX25Y25*%
%MOIN*%
G70*
G01*
G75*
G04 Layer_Color=8388736*
%ADD10C,0.00591*%
%ADD11R,0.11024X0.04921*%
%ADD12R,0.01378X0.02165*%
%ADD13R,0.12992X0.17323*%
%ADD14R,0.15354X0.24410*%
%ADD15R,0.04724X0.07087*%
%ADD16R,0.05906X0.07087*%
%ADD17R,0.04724X0.04724*%
%ADD18R,0.04724X0.13386*%
%ADD19R,0.01969X0.02362*%
%ADD20R,0.06693X0.09843*%
%ADD21R,0.06890X0.04724*%
%ADD22R,0.03543X0.02362*%
%ADD23R,0.06693X0.07874*%
%ADD24R,0.05315X0.01772*%
%ADD25R,0.06299X0.22441*%
%ADD26R,0.02362X0.01969*%
%ADD27R,0.12992X0.09843*%
%ADD28C,0.01772*%
%ADD29C,0.00100*%
%ADD30C,0.15748*%
%ADD31C,0.07874*%
%ADD32C,0.00984*%
%ADD33C,0.00787*%
%ADD34C,0.01000*%
%ADD35R,0.10630X0.04528*%
%ADD36R,0.00984X0.01772*%
%ADD37R,0.11417X0.05315*%
%ADD38R,0.01772X0.02559*%
%ADD39R,0.13792X0.18123*%
%ADD40R,0.16154X0.25210*%
%ADD41R,0.05524X0.07887*%
%ADD42R,0.06706X0.07887*%
%ADD43R,0.05524X0.05524*%
%ADD44R,0.05118X0.05118*%
%ADD45R,0.05524X0.14186*%
%ADD46R,0.02756X0.03150*%
%ADD47R,0.07493X0.10642*%
%ADD48R,0.07690X0.05524*%
%ADD49R,0.04331X0.03150*%
%ADD50R,0.07087X0.08268*%
%ADD51R,0.05709X0.02165*%
%ADD52R,0.07099X0.23241*%
%ADD53R,0.03150X0.02756*%
%ADD54R,0.13792X0.10642*%
%ADD55C,0.16548*%
%ADD56C,0.08674*%
D29*
X-2022Y-229161D02*
X4678D01*
X2178Y-217761D02*
X2278D01*
X2178Y-217861D02*
X2278D01*
X2178Y-217961D02*
X2278D01*
X2178Y-218061D02*
X2278D01*
X2078Y-218161D02*
X2378D01*
X2078Y-218261D02*
X2378D01*
X1978Y-218361D02*
X2378D01*
X1978Y-218461D02*
X2478D01*
X1978Y-218561D02*
X2478D01*
X1878Y-218661D02*
X2478D01*
X1878Y-218761D02*
X2478D01*
X5378D02*
X5478D01*
X1978Y-218861D02*
X2578D01*
X1878Y-218961D02*
X2578D01*
X5278D02*
X5378D01*
X1778Y-219061D02*
X2478D01*
X5278D02*
X5378D01*
X-1922Y-219161D02*
X-1822D01*
X1778D02*
X2478D01*
X5078D02*
X5378D01*
X-1922Y-219261D02*
X-1722D01*
X1778D02*
X2578D01*
X5078D02*
X5378D01*
X-1922Y-219361D02*
X-1622D01*
X1778D02*
X2578D01*
X4978D02*
X5278D01*
X-1922Y-219461D02*
X-1522D01*
X1678D02*
X2578D01*
X4978D02*
X5378D01*
X-1822Y-219561D02*
X-1522D01*
X1678D02*
X2578D01*
X4978D02*
X5278D01*
X-1822Y-219661D02*
X-1522D01*
X1678D02*
X2578D01*
X4778D02*
X5278D01*
X-1822Y-219761D02*
X-1322D01*
X1778D02*
X2678D01*
X4778D02*
X5278D01*
X-1822Y-219861D02*
X-1222D01*
X1578D02*
X2678D01*
X4578D02*
X5278D01*
X-1722Y-219961D02*
X-1222D01*
X1678D02*
X2678D01*
X4578D02*
X5278D01*
X-1722Y-220061D02*
X-1022D01*
X1678D02*
X2678D01*
X4578D02*
X5178D01*
X-1722Y-220161D02*
X-1022D01*
X1678D02*
X2778D01*
X4378D02*
X5178D01*
X-1622Y-220261D02*
X-922D01*
X1578D02*
X2778D01*
X4378D02*
X5278D01*
X-1622Y-220361D02*
X-822D01*
X1678D02*
X2678D01*
X4378D02*
X5278D01*
X-1622Y-220461D02*
X-722D01*
X1678D02*
X2678D01*
X4378D02*
X5178D01*
X-1522Y-220561D02*
X-722D01*
X1678D02*
X2778D01*
X4178D02*
X5178D01*
X-1522Y-220661D02*
X-722D01*
X1478D02*
X2778D01*
X4178D02*
X5078D01*
X-1522Y-220761D02*
X-522D01*
X1578D02*
X2778D01*
X4078D02*
X5078D01*
X-1522Y-220861D02*
X-522D01*
X1578D02*
X2678D01*
X3978D02*
X5178D01*
X-1322Y-220961D02*
X-422D01*
X1678D02*
X2678D01*
X3978D02*
X5078D01*
X-1322Y-221061D02*
X-222D01*
X1678D02*
X2678D01*
X3978D02*
X4978D01*
X-1322Y-221161D02*
X-222D01*
X1478D02*
X2778D01*
X3778D02*
X4978D01*
X-1322Y-221261D02*
X-122D01*
X1578D02*
X2778D01*
X3778D02*
X4978D01*
X-1222Y-221361D02*
X-22D01*
X1578D02*
X2678D01*
X3778D02*
X4878D01*
X-1122Y-221461D02*
X-22D01*
X1578D02*
X2678D01*
X3778D02*
X4878D01*
X-1022Y-221561D02*
X78D01*
X1578D02*
X2678D01*
X3778D02*
X4778D01*
X-1022Y-221661D02*
X78D01*
X1478D02*
X2778D01*
X3478D02*
X4778D01*
X-1022Y-221761D02*
X178D01*
X1578D02*
X2678D01*
X3478D02*
X4778D01*
X-922Y-221861D02*
X278D01*
X1578D02*
X2678D01*
X3478D02*
X4678D01*
X-822Y-221961D02*
X278D01*
X1678D02*
X2578D01*
X3478D02*
X4678D01*
X-922Y-222061D02*
X478D01*
X1578D02*
X2678D01*
X3278D02*
X4678D01*
X-822Y-222161D02*
X478D01*
X1578D02*
X2778D01*
X3278D02*
X4578D01*
X-622Y-222261D02*
X478D01*
X1578D02*
X2678D01*
X3278D02*
X4478D01*
X6978D02*
X7178D01*
X-622Y-222361D02*
X478D01*
X1678D02*
X2578D01*
X3278D02*
X4478D01*
X6678D02*
X7078D01*
X-622Y-222461D02*
X678D01*
X1678D02*
X2578D01*
X3178D02*
X4478D01*
X6478D02*
X6978D01*
X-522Y-222561D02*
X678D01*
X1678D02*
X2678D01*
X3178D02*
X4278D01*
X6178D02*
X6878D01*
X-3122Y-222661D02*
X-2922D01*
X-422D02*
X678D01*
X1578D02*
X2678D01*
X3178D02*
X4278D01*
X6078D02*
X6778D01*
X-3022Y-222761D02*
X-2722D01*
X-422D02*
X778D01*
X1578D02*
X2578D01*
X3078D02*
X4278D01*
X5678D02*
X6778D01*
X-2922Y-222861D02*
X-2422D01*
X-422D02*
X778D01*
X1678D02*
X2578D01*
X3078D02*
X4178D01*
X5578D02*
X6578D01*
X-2822Y-222961D02*
X-2122D01*
X-322D02*
X878D01*
X1678D02*
X2578D01*
X2978D02*
X4078D01*
X5278D02*
X6478D01*
X-2822Y-223061D02*
X-1822D01*
X-122D02*
X978D01*
X1678D02*
X2578D01*
X2978D02*
X3978D01*
X5178D02*
X6478D01*
X-2622Y-223161D02*
X-1722D01*
X-122D02*
X978D01*
X1678D02*
X2578D01*
X2978D02*
X3978D01*
X4878D02*
X4978D01*
X5078D02*
X6278D01*
X-2522Y-223261D02*
X-1322D01*
X-122D02*
X1078D01*
X1678D02*
X2478D01*
X2978D02*
X3978D01*
X4878D02*
X6278D01*
X-2522Y-223361D02*
X-1222D01*
X-22D02*
X1078D01*
X1678D02*
X2478D01*
X2978D02*
X3878D01*
X4778D02*
X6178D01*
X-2322Y-223461D02*
X-1122D01*
X-1022D02*
X-922D01*
X178D02*
X1078D01*
X1778D02*
X2478D01*
X2778D02*
X3778D01*
X4478D02*
X5978D01*
X-2222Y-223561D02*
X-822D01*
X178D02*
X1278D01*
X1778D02*
X2578D01*
X2778D02*
X3678D01*
X4478D02*
X5978D01*
X-2222Y-223661D02*
X-822D01*
X278D02*
X1278D01*
X1778D02*
X2478D01*
X2778D02*
X3678D01*
X4378D02*
X5878D01*
X-2022Y-223761D02*
X-522D01*
X378D02*
X1278D01*
X1778D02*
X2478D01*
X2778D02*
X3578D01*
X4178D02*
X5578D01*
X-1922Y-223861D02*
X-422D01*
X478D02*
X1278D01*
X1778D02*
X2478D01*
X2778D02*
X3478D01*
X4078D02*
X5578D01*
X-1922Y-223961D02*
X-122D01*
X578D02*
X1278D01*
X1878D02*
X2478D01*
X2678D02*
X3378D01*
X3978D02*
X5578D01*
X-1622Y-224061D02*
X-22D01*
X578D02*
X1378D01*
X1878D02*
X3378D01*
X3878D02*
X5278D01*
X-1522Y-224161D02*
X78D01*
X678D02*
X1478D01*
X1878D02*
X2478D01*
X2578D02*
X3378D01*
X3778D02*
X5178D01*
X-1522Y-224261D02*
X278D01*
X778D02*
X1478D01*
X1878D02*
X2378D01*
X2678D02*
X3178D01*
X3778D02*
X5178D01*
X-1222Y-224361D02*
X378D01*
X978D02*
X1578D01*
X1878D02*
X2378D01*
X2678D02*
X3178D01*
X3578D02*
X4978D01*
X-1122Y-224461D02*
X478D01*
X1078D02*
X1578D01*
X1878D02*
X2378D01*
X2578D02*
X3078D01*
X3478D02*
X4778D01*
X-1122Y-224561D02*
X678D01*
X1078D02*
X1578D01*
X1978D02*
X2378D01*
X2578D02*
X2978D01*
X3478D02*
X4778D01*
X-822Y-224661D02*
X678D01*
X1178D02*
X1578D01*
X1978D02*
X2878D01*
X3378D02*
X4578D01*
X-722Y-224761D02*
X778D01*
X1278D02*
X1678D01*
X1978D02*
X2878D01*
X3278D02*
X4278D01*
X-622Y-224861D02*
X878D01*
X1378D02*
X1678D01*
X1978D02*
X2778D01*
X3178D02*
X4178D01*
X-322Y-224961D02*
X1078D01*
X1478D02*
X1678D01*
X2078D02*
X2678D01*
X3078D02*
X3878D01*
X-222Y-225061D02*
X1178D01*
X1578D02*
X1778D01*
X2078D02*
X2578D01*
X2978D02*
X3778D01*
X278Y-225161D02*
X1278D01*
X1678D02*
X1878D01*
X2078D02*
X2478D01*
X2978D02*
X3478D01*
X478Y-225261D02*
X1378D01*
X1778D02*
X1878D01*
X2078D02*
X2478D01*
X2878D02*
X3278D01*
X778Y-225361D02*
X1478D01*
X1778D02*
X2378D01*
X2778D02*
X3078D01*
X1178Y-225461D02*
X1578D01*
X1878D02*
X2378D01*
X2678D02*
X2778D01*
X1378Y-225561D02*
X1678D01*
X1878D02*
X2378D01*
X4078D02*
X4178D01*
X4378D02*
X4478D01*
X1578Y-225661D02*
X2478D01*
X3178D02*
X4878D01*
X1578Y-225761D02*
X2578D01*
X2778D02*
X5478D01*
X378Y-225861D02*
X2178D01*
X2578D02*
X5778D01*
X278Y-225961D02*
X1878D01*
X2878D02*
X5978D01*
X-22Y-226061D02*
X1678D01*
X3178D02*
X5578D01*
X-222Y-226161D02*
X1578D01*
X3578D02*
X5278D01*
X-322Y-226261D02*
X1378D01*
X4078D02*
X4778D01*
X-422Y-226361D02*
X978D01*
X-622Y-226461D02*
X478D01*
X-622Y-226561D02*
X78D01*
X178D02*
X278D01*
X-822Y-226661D02*
X-422D01*
X-21222Y-227061D02*
X-18322D01*
X-21822Y-227161D02*
X-17522D01*
X-22222Y-227261D02*
X-17122D01*
X-22522Y-227361D02*
X-16722D01*
X-22722Y-227461D02*
X-16322D01*
X-23022Y-227561D02*
X-15922D01*
X-23222Y-227661D02*
X-15622D01*
X-23322Y-227761D02*
X-15322D01*
X17778D02*
X25078D01*
X-23522Y-227861D02*
X-15322D01*
X17878D02*
X25678D01*
X-23622Y-227961D02*
X-15422D01*
X17878D02*
X26178D01*
X-23822Y-228061D02*
X-15422D01*
X17878D02*
X26478D01*
X-23922Y-228161D02*
X-15422D01*
X17878D02*
X26678D01*
X-24022Y-228261D02*
X-15522D01*
X17878D02*
X26878D01*
X-24122Y-228361D02*
X-15522D01*
X17878D02*
X27078D01*
X-24222Y-228461D02*
X-15522D01*
X17878D02*
X27278D01*
X-24322Y-228561D02*
X-15622D01*
X17878D02*
X27378D01*
X-24422Y-228661D02*
X-15622D01*
X17878D02*
X27578D01*
X-24422Y-228761D02*
X-15622D01*
X17878D02*
X27678D01*
X-24522Y-228861D02*
X-15722D01*
X17878D02*
X27778D01*
X-24622Y-228961D02*
X-15722D01*
X17878D02*
X27878D01*
X-24622Y-229061D02*
X-15722D01*
X-14322D02*
X-9822D01*
X-7222D02*
X-2922D01*
X-2022D02*
X3878D01*
X8278D02*
X16678D01*
X17878D02*
X27978D01*
X-24722Y-229161D02*
X-15822D01*
X-14322D02*
X-9822D01*
X-7222D02*
X-2922D01*
X8278D02*
X16578D01*
X17878D02*
X28078D01*
X-24722Y-229261D02*
X-15822D01*
X-14322D02*
X-9822D01*
X-7222D02*
X-2922D01*
X-2022D02*
X5078D01*
X8278D02*
X16578D01*
X17878D02*
X28178D01*
X-24822Y-229361D02*
X-15822D01*
X-14322D02*
X-9822D01*
X-7222D02*
X-2922D01*
X-2022D02*
X5378D01*
X8278D02*
X16578D01*
X17878D02*
X28178D01*
X-24822Y-229461D02*
X-15822D01*
X-14322D02*
X-9822D01*
X-7222D02*
X-2922D01*
X-2022D02*
X5578D01*
X8278D02*
X16578D01*
X17878D02*
X28278D01*
X-24822Y-229561D02*
X-15922D01*
X-14322D02*
X-9822D01*
X-7222D02*
X-2922D01*
X-2022D02*
X5778D01*
X8278D02*
X16578D01*
X17878D02*
X28378D01*
X-24922Y-229661D02*
X-15922D01*
X-14322D02*
X-9822D01*
X-7222D02*
X-2922D01*
X-2022D02*
X5978D01*
X8278D02*
X16578D01*
X17878D02*
X28378D01*
X-24922Y-229761D02*
X-15922D01*
X-14322D02*
X-9822D01*
X-7222D02*
X-2922D01*
X-2022D02*
X6178D01*
X8278D02*
X16578D01*
X17878D02*
X28478D01*
X-24922Y-229861D02*
X-16022D01*
X-14322D02*
X-9822D01*
X-7222D02*
X-2922D01*
X-2022D02*
X6278D01*
X8278D02*
X16578D01*
X17878D02*
X28478D01*
X-24922Y-229961D02*
X-19522D01*
X-18922D02*
X-16022D01*
X-14322D02*
X-9822D01*
X-7222D02*
X-2922D01*
X-2022D02*
X6378D01*
X8278D02*
X16578D01*
X17878D02*
X28478D01*
X-25022Y-230061D02*
X-20022D01*
X-18122D02*
X-16022D01*
X-14322D02*
X-9822D01*
X-7222D02*
X-2922D01*
X-2022D02*
X6478D01*
X8278D02*
X16578D01*
X17878D02*
X28578D01*
X-25022Y-230161D02*
X-20222D01*
X-17722D02*
X-16122D01*
X-14322D02*
X-9822D01*
X-7222D02*
X-2922D01*
X-2022D02*
X6578D01*
X8278D02*
X16578D01*
X17878D02*
X28578D01*
X-25022Y-230261D02*
X-20322D01*
X-17322D02*
X-16122D01*
X-14322D02*
X-9822D01*
X-7222D02*
X-2922D01*
X-2022D02*
X6678D01*
X8278D02*
X16578D01*
X17878D02*
X28578D01*
X-25022Y-230361D02*
X-20422D01*
X-17022D02*
X-16122D01*
X-14322D02*
X-9822D01*
X-7222D02*
X-2922D01*
X-2022D02*
X6778D01*
X8278D02*
X16578D01*
X17878D02*
X28678D01*
X-25022Y-230461D02*
X-20522D01*
X-16722D02*
X-16222D01*
X-14322D02*
X-9822D01*
X-7222D02*
X-2922D01*
X-2022D02*
X6878D01*
X8278D02*
X16578D01*
X17878D02*
X18778D01*
X18878D02*
X28678D01*
X-25022Y-230561D02*
X-20622D01*
X-16422D02*
X-16222D01*
X-14322D02*
X-9822D01*
X-7222D02*
X-2922D01*
X-2022D02*
X6978D01*
X8278D02*
X16578D01*
X18978D02*
X28678D01*
X-25022Y-230661D02*
X-20622D01*
X-14322D02*
X-9822D01*
X-7222D02*
X-2922D01*
X-2022D02*
X6978D01*
X8278D02*
X16578D01*
X18978D02*
X22578D01*
X24078D02*
X28678D01*
X-25022Y-230761D02*
X-20622D01*
X-14322D02*
X-9822D01*
X-7222D02*
X-2922D01*
X-2022D02*
X7078D01*
X8278D02*
X16578D01*
X18978D02*
X22578D01*
X24378D02*
X28778D01*
X-25022Y-230861D02*
X-20622D01*
X-14322D02*
X-9822D01*
X-7222D02*
X-2922D01*
X-2022D02*
X7078D01*
X8278D02*
X16578D01*
X18978D02*
X22578D01*
X24578D02*
X28778D01*
X-25022Y-230961D02*
X-20522D01*
X-14322D02*
X-9822D01*
X-7222D02*
X-2922D01*
X-2022D02*
X7178D01*
X8278D02*
X16578D01*
X18978D02*
X22578D01*
X24678D02*
X28778D01*
X-25022Y-231061D02*
X-20522D01*
X-14322D02*
X-9822D01*
X-7222D02*
X-2922D01*
X-2022D02*
X7178D01*
X8278D02*
X16578D01*
X18978D02*
X22578D01*
X24678D02*
X28778D01*
X-25022Y-231161D02*
X-20422D01*
X-14322D02*
X-9822D01*
X-7222D02*
X-2922D01*
X-2022D02*
X7278D01*
X8278D02*
X16578D01*
X18978D02*
X22578D01*
X24778D02*
X28778D01*
X-25022Y-231261D02*
X-20322D01*
X-14322D02*
X-9822D01*
X-7222D02*
X-2922D01*
X-2022D02*
X7278D01*
X8278D02*
X16578D01*
X18978D02*
X22578D01*
X24778D02*
X28778D01*
X-25022Y-231361D02*
X-20122D01*
X-14322D02*
X-9822D01*
X-7222D02*
X-2922D01*
X-2022D02*
X7278D01*
X8278D02*
X16578D01*
X18978D02*
X22578D01*
X24878D02*
X28778D01*
X-25022Y-231461D02*
X-19922D01*
X-13322D02*
X-9822D01*
X-7222D02*
X-3922D01*
X-1022D02*
X7278D01*
X9278D02*
X16578D01*
X18978D02*
X22578D01*
X24878D02*
X28778D01*
X-25022Y-231561D02*
X-19622D01*
X-13322D02*
X-9822D01*
X-7222D02*
X-3922D01*
X-1022D02*
X7378D01*
X9278D02*
X16678D01*
X18978D02*
X22578D01*
X24878D02*
X28778D01*
X-25022Y-231661D02*
X-19422D01*
X-13322D02*
X-9822D01*
X-7222D02*
X-3922D01*
X-1022D02*
X2178D01*
X3478D02*
X7378D01*
X9278D02*
X12678D01*
X18978D02*
X22578D01*
X24878D02*
X28778D01*
X-24922Y-231761D02*
X-19122D01*
X-13322D02*
X-9822D01*
X-7222D02*
X-3922D01*
X-1022D02*
X2178D01*
X3778D02*
X7378D01*
X9278D02*
X12678D01*
X18978D02*
X22578D01*
X24878D02*
X28778D01*
X-24922Y-231861D02*
X-18822D01*
X-13322D02*
X-9822D01*
X-7222D02*
X-3922D01*
X-1022D02*
X2178D01*
X3978D02*
X7378D01*
X9278D02*
X12678D01*
X18978D02*
X22578D01*
X24878D02*
X28778D01*
X-24922Y-231961D02*
X-18522D01*
X-13322D02*
X-9822D01*
X-7222D02*
X-3922D01*
X-1022D02*
X2178D01*
X3978D02*
X7378D01*
X9278D02*
X12678D01*
X18978D02*
X22578D01*
X24778D02*
X28778D01*
X-24922Y-232061D02*
X-18222D01*
X-13322D02*
X-9822D01*
X-7222D02*
X-3922D01*
X-1022D02*
X2178D01*
X4078D02*
X7378D01*
X9278D02*
X12678D01*
X18978D02*
X22578D01*
X24778D02*
X28778D01*
X-24822Y-232161D02*
X-17922D01*
X-13322D02*
X-9822D01*
X-7222D02*
X-3922D01*
X-1022D02*
X2178D01*
X4178D02*
X7478D01*
X9278D02*
X12678D01*
X18978D02*
X22578D01*
X24678D02*
X28778D01*
X-24822Y-232261D02*
X-17622D01*
X-13322D02*
X-9822D01*
X-7222D02*
X-3922D01*
X-1022D02*
X2178D01*
X4178D02*
X7478D01*
X9278D02*
X12678D01*
X18978D02*
X22578D01*
X24678D02*
X28678D01*
X-24822Y-232361D02*
X-17422D01*
X-13322D02*
X-9822D01*
X-7222D02*
X-3922D01*
X-1022D02*
X2178D01*
X4178D02*
X7478D01*
X9278D02*
X12678D01*
X18978D02*
X22578D01*
X24578D02*
X28678D01*
X-24722Y-232461D02*
X-17222D01*
X-13322D02*
X-9822D01*
X-7222D02*
X-3922D01*
X-1022D02*
X2178D01*
X4178D02*
X7478D01*
X9278D02*
X12678D01*
X18978D02*
X22578D01*
X24378D02*
X28678D01*
X-24722Y-232561D02*
X-17022D01*
X-13322D02*
X-9822D01*
X-7222D02*
X-3922D01*
X-1022D02*
X2178D01*
X4178D02*
X7478D01*
X9278D02*
X12678D01*
X18978D02*
X22578D01*
X24078D02*
X28678D01*
X-24622Y-232661D02*
X-16822D01*
X-13322D02*
X-9822D01*
X-7222D02*
X-3922D01*
X-1022D02*
X2178D01*
X4178D02*
X7478D01*
X9278D02*
X12678D01*
X18978D02*
X28578D01*
X-24622Y-232761D02*
X-16622D01*
X-13322D02*
X-9822D01*
X-7222D02*
X-3922D01*
X-1022D02*
X2178D01*
X4178D02*
X7478D01*
X9278D02*
X12678D01*
X18978D02*
X28578D01*
X-24522Y-232861D02*
X-16522D01*
X-13322D02*
X-9822D01*
X-7222D02*
X-3922D01*
X-1022D02*
X2178D01*
X4178D02*
X7378D01*
X9278D02*
X16078D01*
X18978D02*
X28578D01*
X-24522Y-232961D02*
X-16422D01*
X-13322D02*
X-9822D01*
X-7222D02*
X-3922D01*
X-1022D02*
X2178D01*
X4078D02*
X7378D01*
X9278D02*
X16078D01*
X18978D02*
X28478D01*
X-24422Y-233061D02*
X-16222D01*
X-13322D02*
X-9822D01*
X-7222D02*
X-3922D01*
X-1022D02*
X2178D01*
X4078D02*
X7378D01*
X9278D02*
X16078D01*
X18978D02*
X28478D01*
X-24322Y-233161D02*
X-16122D01*
X-13322D02*
X-9822D01*
X-7222D02*
X-3922D01*
X-1022D02*
X2178D01*
X3978D02*
X7378D01*
X9278D02*
X16078D01*
X18978D02*
X28378D01*
X-24222Y-233261D02*
X-16022D01*
X-13322D02*
X-9822D01*
X-7222D02*
X-3922D01*
X-1022D02*
X2178D01*
X3878D02*
X7378D01*
X9278D02*
X16078D01*
X18978D02*
X28278D01*
X-24122Y-233361D02*
X-15922D01*
X-13322D02*
X-9822D01*
X-7222D02*
X-3922D01*
X-1022D02*
X2178D01*
X3678D02*
X7378D01*
X9278D02*
X16078D01*
X18978D02*
X28178D01*
X-24022Y-233461D02*
X-15822D01*
X-13322D02*
X-9822D01*
X-7222D02*
X-3922D01*
X-1022D02*
X7378D01*
X9278D02*
X16078D01*
X18978D02*
X28178D01*
X-23922Y-233561D02*
X-15822D01*
X-13322D02*
X-9822D01*
X-7222D02*
X-3922D01*
X-1022D02*
X7278D01*
X9278D02*
X16078D01*
X18978D02*
X28078D01*
X-23822Y-233661D02*
X-15722D01*
X-13322D02*
X-9822D01*
X-7222D02*
X-3922D01*
X-1022D02*
X7278D01*
X9278D02*
X16078D01*
X18978D02*
X27878D01*
X-23622Y-233761D02*
X-15622D01*
X-13322D02*
X-9822D01*
X-7222D02*
X-3922D01*
X-1022D02*
X7278D01*
X9278D02*
X16078D01*
X18978D02*
X27778D01*
X-23522Y-233861D02*
X-15622D01*
X-13322D02*
X-9822D01*
X-7222D02*
X-3922D01*
X-1022D02*
X7278D01*
X9278D02*
X16078D01*
X18978D02*
X27678D01*
X-23322Y-233961D02*
X-15522D01*
X-13322D02*
X-9822D01*
X-7222D02*
X-3922D01*
X-1022D02*
X7178D01*
X9278D02*
X16078D01*
X18978D02*
X27478D01*
X-23222Y-234061D02*
X-15522D01*
X-13322D02*
X-9822D01*
X-7222D02*
X-3922D01*
X-1022D02*
X7178D01*
X9278D02*
X16078D01*
X18978D02*
X27378D01*
X-23022Y-234161D02*
X-15422D01*
X-13322D02*
X-9822D01*
X-7222D02*
X-3922D01*
X-1022D02*
X7078D01*
X9278D02*
X16078D01*
X18978D02*
X27178D01*
X-22722Y-234261D02*
X-15422D01*
X-13322D02*
X-9822D01*
X-7222D02*
X-3922D01*
X-1022D02*
X7078D01*
X9278D02*
X16078D01*
X18978D02*
X27178D01*
X-22522Y-234361D02*
X-15322D01*
X-13322D02*
X-9822D01*
X-7222D02*
X-3922D01*
X-1022D02*
X6978D01*
X9278D02*
X16078D01*
X18978D02*
X27278D01*
X-22222Y-234461D02*
X-15322D01*
X-13322D02*
X-9822D01*
X-7222D02*
X-3922D01*
X-1022D02*
X6978D01*
X9278D02*
X16078D01*
X18978D02*
X27378D01*
X-22022Y-234561D02*
X-15322D01*
X-13322D02*
X-9822D01*
X-7222D02*
X-3922D01*
X-1022D02*
X6878D01*
X9278D02*
X16078D01*
X18978D02*
X27478D01*
X-21722Y-234661D02*
X-15322D01*
X-13322D02*
X-9822D01*
X-7222D02*
X-3922D01*
X-1022D02*
X6778D01*
X9278D02*
X16078D01*
X18978D02*
X27578D01*
X-21422Y-234761D02*
X-15222D01*
X-13322D02*
X-9822D01*
X-7222D02*
X-3922D01*
X-1022D02*
X6778D01*
X9278D02*
X16078D01*
X18978D02*
X27578D01*
X-21122Y-234861D02*
X-15222D01*
X-13322D02*
X-9822D01*
X-7222D02*
X-3922D01*
X-1022D02*
X6678D01*
X9278D02*
X16078D01*
X18978D02*
X27678D01*
X-20822Y-234961D02*
X-15222D01*
X-13322D02*
X-9822D01*
X-7222D02*
X-3922D01*
X-1022D02*
X6578D01*
X9278D02*
X16078D01*
X18978D02*
X27778D01*
X-20522Y-235061D02*
X-15222D01*
X-13322D02*
X-9822D01*
X-7222D02*
X-3922D01*
X-1022D02*
X6378D01*
X9278D02*
X16078D01*
X18978D02*
X27778D01*
X-20322Y-235161D02*
X-15222D01*
X-13322D02*
X-9822D01*
X-7222D02*
X-3922D01*
X-1022D02*
X6278D01*
X9278D02*
X16078D01*
X18978D02*
X22578D01*
X23478D02*
X27878D01*
X-20122Y-235261D02*
X-15222D01*
X-13322D02*
X-9822D01*
X-7222D02*
X-3922D01*
X-1022D02*
X6078D01*
X9278D02*
X16078D01*
X18978D02*
X22578D01*
X23578D02*
X27878D01*
X-20022Y-235361D02*
X-15222D01*
X-13322D02*
X-9822D01*
X-7222D02*
X-3922D01*
X-1022D02*
X5878D01*
X9278D02*
X16078D01*
X18978D02*
X22578D01*
X23678D02*
X27978D01*
X-19922Y-235461D02*
X-15222D01*
X-13222D02*
X-9822D01*
X-7222D02*
X-3922D01*
X-1022D02*
X5678D01*
X9278D02*
X12678D01*
X18978D02*
X22578D01*
X23778D02*
X27978D01*
X-19822Y-235561D02*
X-15222D01*
X-13222D02*
X-9822D01*
X-7222D02*
X-3922D01*
X-1022D02*
X5378D01*
X9278D02*
X12678D01*
X18978D02*
X22578D01*
X23778D02*
X27978D01*
X-19722Y-235661D02*
X-15222D01*
X-13222D02*
X-9822D01*
X-7222D02*
X-3922D01*
X-1022D02*
X5078D01*
X9278D02*
X12678D01*
X18978D02*
X22578D01*
X23878D02*
X28078D01*
X-24922Y-235761D02*
X-24822D01*
X-19722D02*
X-15222D01*
X-13222D02*
X-9822D01*
X-7222D02*
X-3922D01*
X-1022D02*
X4478D01*
X9278D02*
X12678D01*
X18978D02*
X22578D01*
X23878D02*
X28078D01*
X-24922Y-235861D02*
X-24522D01*
X-19722D02*
X-15222D01*
X-13222D02*
X-9822D01*
X-7322D02*
X-3922D01*
X-1022D02*
X2178D01*
X9278D02*
X12678D01*
X18978D02*
X22578D01*
X23978D02*
X28178D01*
X-24922Y-235961D02*
X-24222D01*
X-19722D02*
X-15222D01*
X-13222D02*
X-9722D01*
X-7322D02*
X-3922D01*
X-1022D02*
X2178D01*
X9278D02*
X12678D01*
X18978D02*
X22578D01*
X24078D02*
X28178D01*
X-24922Y-236061D02*
X-24022D01*
X-19722D02*
X-15222D01*
X-13222D02*
X-9722D01*
X-7322D02*
X-3922D01*
X-1022D02*
X2178D01*
X9278D02*
X12678D01*
X18978D02*
X22578D01*
X24078D02*
X28278D01*
X-24922Y-236161D02*
X-23722D01*
X-19722D02*
X-15222D01*
X-13222D02*
X-9722D01*
X-7422D02*
X-4022D01*
X-1022D02*
X2178D01*
X9278D02*
X12678D01*
X18978D02*
X22578D01*
X24178D02*
X28278D01*
X-24922Y-236261D02*
X-23422D01*
X-19822D02*
X-15222D01*
X-13222D02*
X-9622D01*
X-7422D02*
X-4022D01*
X-1022D02*
X2178D01*
X9278D02*
X12678D01*
X18978D02*
X22578D01*
X24178D02*
X28378D01*
X-24922Y-236361D02*
X-23022D01*
X-19922D02*
X-15222D01*
X-13222D02*
X-9622D01*
X-7522D02*
X-4022D01*
X-1022D02*
X2178D01*
X9278D02*
X12678D01*
X18978D02*
X22578D01*
X24178D02*
X28478D01*
X-24922Y-236461D02*
X-22722D01*
X-20022D02*
X-15222D01*
X-13122D02*
X-9522D01*
X-7522D02*
X-4022D01*
X-1022D02*
X2178D01*
X9278D02*
X12678D01*
X18978D02*
X22578D01*
X24278D02*
X28578D01*
X-24922Y-236561D02*
X-22222D01*
X-20222D02*
X-15222D01*
X-13122D02*
X-9422D01*
X-7622D02*
X-4022D01*
X-1022D02*
X2178D01*
X9278D02*
X12678D01*
X18978D02*
X22578D01*
X24278D02*
X28678D01*
X-24922Y-236661D02*
X-15222D01*
X-13122D02*
X-9322D01*
X-7822D02*
X-4022D01*
X-1022D02*
X2178D01*
X9278D02*
X12678D01*
X18978D02*
X22578D01*
X24378D02*
X28778D01*
X-24922Y-236761D02*
X-15322D01*
X-13122D02*
X-9022D01*
X-8122D02*
X-4022D01*
X-1022D02*
X2178D01*
X9278D02*
X12678D01*
X17878D02*
X23578D01*
X24378D02*
X29678D01*
X-24922Y-236861D02*
X-15322D01*
X-13122D02*
X-4122D01*
X-1022D02*
X2178D01*
X9278D02*
X12678D01*
X16778D02*
X16878D01*
X17878D02*
X23578D01*
X24378D02*
X29678D01*
X-24922Y-236961D02*
X-15322D01*
X-13022D02*
X-4122D01*
X-1022D02*
X2178D01*
X9278D02*
X16878D01*
X17878D02*
X23578D01*
X24478D02*
X29678D01*
X-24922Y-237061D02*
X-15322D01*
X-13022D02*
X-4122D01*
X-2022D02*
X3278D01*
X8278D02*
X16878D01*
X17878D02*
X23578D01*
X24478D02*
X29678D01*
X-24922Y-237161D02*
X-15422D01*
X-13022D02*
X-4122D01*
X-2022D02*
X3278D01*
X8278D02*
X16878D01*
X17878D02*
X23578D01*
X24578D02*
X29678D01*
X-24922Y-237261D02*
X-15422D01*
X-13022D02*
X-4222D01*
X-2022D02*
X3278D01*
X8278D02*
X16878D01*
X17878D02*
X23578D01*
X24578D02*
X29678D01*
X-24922Y-237361D02*
X-15422D01*
X-12922D02*
X-4222D01*
X-2022D02*
X3278D01*
X8278D02*
X16878D01*
X17878D02*
X23578D01*
X24578D02*
X29678D01*
X-24922Y-237461D02*
X-15522D01*
X-12922D02*
X-4222D01*
X-2022D02*
X3278D01*
X8278D02*
X16878D01*
X17878D02*
X23578D01*
X24678D02*
X29678D01*
X-24922Y-237561D02*
X-15522D01*
X-12822D02*
X-4322D01*
X-2022D02*
X3278D01*
X8278D02*
X16878D01*
X17878D02*
X23578D01*
X24678D02*
X29678D01*
X-24922Y-237661D02*
X-15622D01*
X-12822D02*
X-4322D01*
X-2022D02*
X3278D01*
X8278D02*
X16878D01*
X17878D02*
X23578D01*
X24678D02*
X29678D01*
X-24922Y-237761D02*
X-15622D01*
X-12822D02*
X-4422D01*
X-2022D02*
X3278D01*
X8278D02*
X16878D01*
X17878D02*
X23578D01*
X24778D02*
X29678D01*
X-24922Y-237861D02*
X-15722D01*
X-12722D02*
X-4422D01*
X-2022D02*
X3278D01*
X8278D02*
X16878D01*
X17878D02*
X23578D01*
X24778D02*
X29678D01*
X-24922Y-237961D02*
X-15722D01*
X-12622D02*
X-4522D01*
X-2022D02*
X3278D01*
X8278D02*
X16878D01*
X17878D02*
X23578D01*
X24878D02*
X29678D01*
X-24922Y-238061D02*
X-15822D01*
X-12622D02*
X-4522D01*
X-2022D02*
X3278D01*
X8278D02*
X16878D01*
X17878D02*
X23578D01*
X24878D02*
X29678D01*
X-24922Y-238161D02*
X-15922D01*
X-12522D02*
X-4622D01*
X-2022D02*
X3278D01*
X8278D02*
X16878D01*
X17878D02*
X23578D01*
X24978D02*
X29678D01*
X-24922Y-238261D02*
X-15922D01*
X-12522D02*
X-4722D01*
X-2022D02*
X3278D01*
X8278D02*
X16878D01*
X17878D02*
X23578D01*
X24978D02*
X29678D01*
X-24922Y-238361D02*
X-16022D01*
X-12422D02*
X-4722D01*
X-2022D02*
X3278D01*
X8278D02*
X16878D01*
X17878D02*
X23578D01*
X25078D02*
X29678D01*
X-24922Y-238461D02*
X-16122D01*
X-12322D02*
X-4822D01*
X-2022D02*
X3278D01*
X8278D02*
X16878D01*
X17878D02*
X23578D01*
X25078D02*
X29678D01*
X-24922Y-238561D02*
X-16222D01*
X-12222D02*
X-4922D01*
X-2022D02*
X3278D01*
X8278D02*
X16878D01*
X17878D02*
X23578D01*
X25178D02*
X29678D01*
X-24922Y-238661D02*
X-16322D01*
X-12122D02*
X-5022D01*
X-2022D02*
X3278D01*
X8278D02*
X16878D01*
X17878D02*
X23578D01*
X25278D02*
X29678D01*
X-24922Y-238761D02*
X-16522D01*
X-12022D02*
X-5122D01*
X-2022D02*
X3278D01*
X8278D02*
X16878D01*
X17878D02*
X23578D01*
X25378D02*
X29678D01*
X-24922Y-238861D02*
X-16622D01*
X-11922D02*
X-5222D01*
X-2022D02*
X3278D01*
X8278D02*
X16878D01*
X17878D02*
X23578D01*
X25478D02*
X29678D01*
X-24922Y-238961D02*
X-16722D01*
X-11722D02*
X-5422D01*
X-2022D02*
X3278D01*
X8278D02*
X16878D01*
X17878D02*
X23578D01*
X25578D02*
X29678D01*
X-24822Y-239061D02*
X-16922D01*
X-11622D02*
X-5522D01*
X-2022D02*
X3278D01*
X8278D02*
X16878D01*
X17878D02*
X23578D01*
X25678D02*
X29678D01*
X-24522Y-239161D02*
X-17122D01*
X-11422D02*
X-5722D01*
X-2022D02*
X3278D01*
X8278D02*
X16878D01*
X17878D02*
X23578D01*
X25778D02*
X29678D01*
X-24222Y-239261D02*
X-17322D01*
X-11222D02*
X-5922D01*
X-2022D02*
X3278D01*
X8278D02*
X16878D01*
X17878D02*
X23578D01*
X25978D02*
X29678D01*
X-23822Y-239361D02*
X-17522D01*
X-11022D02*
X-6122D01*
X-2022D02*
X3278D01*
X8278D02*
X16878D01*
X17878D02*
X23578D01*
X26178D02*
X29678D01*
X-23422Y-239461D02*
X-17822D01*
X-10722D02*
X-6422D01*
X-2022D02*
X3278D01*
X8278D02*
X16878D01*
X17878D02*
X23578D01*
X26578D02*
X29678D01*
X-22922Y-239561D02*
X-18222D01*
X-10322D02*
X-6722D01*
X-22222Y-239661D02*
X-18722D01*
X-9822D02*
X-7322D01*
X-21222Y-239761D02*
X-19522D01*
X-28622Y-240261D02*
X-25822D01*
X-29322Y-240361D02*
X-25122D01*
X-29822Y-240461D02*
X-24622D01*
X-30222Y-240561D02*
X-24222D01*
X-30522Y-240661D02*
X-23822D01*
X-30822Y-240761D02*
X-23522D01*
X-31122Y-240861D02*
X-23222D01*
X-31322Y-240961D02*
X-22922D01*
X-31622Y-241061D02*
X-22622D01*
X-31822Y-241161D02*
X-22422D01*
X-32022Y-241261D02*
X-22222D01*
X-32222Y-241361D02*
X-21922D01*
X-32322Y-241461D02*
X-21722D01*
X-32522Y-241561D02*
X-21522D01*
X-32722Y-241661D02*
X-21322D01*
X21178D02*
X27678D01*
X31678D02*
X37678D01*
X-32822Y-241761D02*
X-21222D01*
X21178D02*
X27778D01*
X31678D02*
X37678D01*
X-32922Y-241861D02*
X-21322D01*
X21178D02*
X27778D01*
X31678D02*
X37678D01*
X-33122Y-241961D02*
X-21422D01*
X21178D02*
X27878D01*
X31678D02*
X37678D01*
X-33222Y-242061D02*
X-21422D01*
X21178D02*
X27878D01*
X31678D02*
X37678D01*
X-33322Y-242161D02*
X-21522D01*
X21178D02*
X27978D01*
X31678D02*
X37678D01*
X-33422Y-242261D02*
X-21522D01*
X21178D02*
X27978D01*
X31678D02*
X37678D01*
X-33522Y-242361D02*
X-21522D01*
X21178D02*
X28078D01*
X31678D02*
X37678D01*
X-33722Y-242461D02*
X-21622D01*
X21178D02*
X28078D01*
X31678D02*
X37678D01*
X-33822Y-242561D02*
X-21622D01*
X21178D02*
X28178D01*
X31678D02*
X37678D01*
X-33922Y-242661D02*
X-21722D01*
X-19022D02*
X-10522D01*
X21178D02*
X28178D01*
X31678D02*
X37678D01*
X-34022Y-242761D02*
X-21722D01*
X-19022D02*
X-9722D01*
X21178D02*
X28278D01*
X31678D02*
X37678D01*
X-34022Y-242861D02*
X-21822D01*
X-19022D02*
X-9322D01*
X21178D02*
X28278D01*
X31678D02*
X37678D01*
X-34122Y-242961D02*
X-21822D01*
X-19022D02*
X-8922D01*
X21178D02*
X28378D01*
X31678D02*
X37678D01*
X-34222Y-243061D02*
X-21922D01*
X-19022D02*
X-8622D01*
X-3722D02*
X7178D01*
X8678D02*
X19578D01*
X21178D02*
X28378D01*
X31678D02*
X37678D01*
X-34322Y-243161D02*
X-21922D01*
X-19022D02*
X-8422D01*
X-3722D02*
X7178D01*
X8678D02*
X19578D01*
X21178D02*
X28478D01*
X31678D02*
X37678D01*
X-34422Y-243261D02*
X-21922D01*
X-19022D02*
X-8222D01*
X-3722D02*
X7178D01*
X8678D02*
X19578D01*
X21178D02*
X28478D01*
X31678D02*
X37678D01*
X-34422Y-243361D02*
X-22022D01*
X-19022D02*
X-8022D01*
X-3722D02*
X7178D01*
X8678D02*
X19578D01*
X21178D02*
X28578D01*
X31678D02*
X37678D01*
X-34522Y-243461D02*
X-22022D01*
X-19022D02*
X-7822D01*
X-3722D02*
X7178D01*
X8678D02*
X19578D01*
X21178D02*
X28578D01*
X31678D02*
X37678D01*
X-34622Y-243561D02*
X-22122D01*
X-19022D02*
X-7622D01*
X-3722D02*
X7178D01*
X8678D02*
X19578D01*
X21178D02*
X28678D01*
X31678D02*
X37678D01*
X-34722Y-243661D02*
X-22122D01*
X-19022D02*
X-7522D01*
X-3722D02*
X7178D01*
X8678D02*
X19578D01*
X21178D02*
X28678D01*
X31678D02*
X37678D01*
X-34722Y-243761D02*
X-22222D01*
X-19022D02*
X-7422D01*
X-3722D02*
X7178D01*
X8678D02*
X19578D01*
X21178D02*
X28778D01*
X31678D02*
X37678D01*
X-34822Y-243861D02*
X-22222D01*
X-19022D02*
X-7322D01*
X-3722D02*
X7178D01*
X8678D02*
X19578D01*
X21178D02*
X28778D01*
X31678D02*
X37678D01*
X-34822Y-243961D02*
X-22322D01*
X-19022D02*
X-7122D01*
X-3722D02*
X7178D01*
X8678D02*
X19578D01*
X21178D02*
X28878D01*
X31678D02*
X37678D01*
X-34922Y-244061D02*
X-22322D01*
X-19022D02*
X-7022D01*
X-3722D02*
X7178D01*
X8678D02*
X19578D01*
X21178D02*
X28978D01*
X31678D02*
X37678D01*
X-35022Y-244161D02*
X-22422D01*
X-19022D02*
X-7022D01*
X-3722D02*
X7178D01*
X8678D02*
X19578D01*
X21178D02*
X28978D01*
X31678D02*
X37678D01*
X-35022Y-244261D02*
X-22422D01*
X-19022D02*
X-6922D01*
X-3722D02*
X7178D01*
X8678D02*
X19578D01*
X21178D02*
X29078D01*
X31678D02*
X37678D01*
X-35122Y-244361D02*
X-22422D01*
X-19022D02*
X-6822D01*
X-3722D02*
X7178D01*
X8678D02*
X19578D01*
X21178D02*
X29078D01*
X31678D02*
X37678D01*
X-35122Y-244461D02*
X-26922D01*
X-25922D02*
X-22522D01*
X-19022D02*
X-6722D01*
X-3722D02*
X7178D01*
X8678D02*
X19578D01*
X21178D02*
X29178D01*
X31678D02*
X37678D01*
X-35222Y-244561D02*
X-27522D01*
X-25222D02*
X-22522D01*
X-19022D02*
X-6622D01*
X-3722D02*
X7178D01*
X8678D02*
X19578D01*
X21178D02*
X29178D01*
X31678D02*
X37678D01*
X-35222Y-244661D02*
X-27922D01*
X-24822D02*
X-22622D01*
X-19022D02*
X-6622D01*
X-3722D02*
X7178D01*
X8678D02*
X19578D01*
X21178D02*
X29278D01*
X31678D02*
X37678D01*
X-35322Y-244761D02*
X-28122D01*
X-24522D02*
X-22622D01*
X-19022D02*
X-6522D01*
X-3722D02*
X7178D01*
X8678D02*
X19578D01*
X21178D02*
X29278D01*
X31678D02*
X37678D01*
X-35322Y-244861D02*
X-28322D01*
X-24222D02*
X-22722D01*
X-19022D02*
X-6422D01*
X-3722D02*
X7178D01*
X8678D02*
X19578D01*
X21178D02*
X29378D01*
X31678D02*
X37678D01*
X-35322Y-244961D02*
X-28522D01*
X-24022D02*
X-22722D01*
X-19022D02*
X-6422D01*
X-3722D02*
X7178D01*
X8678D02*
X19578D01*
X21178D02*
X29378D01*
X31678D02*
X37678D01*
X-35422Y-245061D02*
X-28722D01*
X-23822D02*
X-22822D01*
X-19022D02*
X-6322D01*
X-3722D02*
X7178D01*
X8678D02*
X19578D01*
X21178D02*
X29478D01*
X31678D02*
X37678D01*
X-35422Y-245161D02*
X-28822D01*
X-23622D02*
X-22822D01*
X-19022D02*
X-6322D01*
X-3722D02*
X7178D01*
X8678D02*
X19578D01*
X22578D02*
X29478D01*
X31678D02*
X36178D01*
X-35522Y-245261D02*
X-28922D01*
X-23422D02*
X-22822D01*
X-19022D02*
X-6322D01*
X-3722D02*
X7178D01*
X8678D02*
X19578D01*
X22578D02*
X29578D01*
X31678D02*
X36178D01*
X-35522Y-245361D02*
X-29022D01*
X-23222D02*
X-22922D01*
X-19022D02*
X-6222D01*
X-3722D02*
X7178D01*
X8678D02*
X19578D01*
X22578D02*
X29578D01*
X31678D02*
X36178D01*
X-35522Y-245461D02*
X-29122D01*
X-23122D02*
X-22922D01*
X-19022D02*
X-6222D01*
X-3722D02*
X7178D01*
X8678D02*
X19578D01*
X22578D02*
X29678D01*
X31678D02*
X36178D01*
X-35622Y-245561D02*
X-29222D01*
X-19022D02*
X-6122D01*
X-3722D02*
X7178D01*
X8678D02*
X19578D01*
X22578D02*
X29678D01*
X31678D02*
X36178D01*
X-35622Y-245661D02*
X-29322D01*
X-19022D02*
X-6122D01*
X-3722D02*
X7178D01*
X8678D02*
X19578D01*
X22578D02*
X29778D01*
X31678D02*
X36178D01*
X-35622Y-245761D02*
X-29422D01*
X-19022D02*
X-6122D01*
X-3722D02*
X7178D01*
X8678D02*
X19578D01*
X22578D02*
X29778D01*
X31678D02*
X36178D01*
X-35722Y-245861D02*
X-29522D01*
X-19022D02*
X-6122D01*
X-3722D02*
X7178D01*
X8678D02*
X19578D01*
X22578D02*
X29878D01*
X31678D02*
X36178D01*
X-35722Y-245961D02*
X-29522D01*
X-17622D02*
X-6022D01*
X-3722D02*
X7178D01*
X8678D02*
X19578D01*
X22578D02*
X29878D01*
X31678D02*
X36178D01*
X-35722Y-246061D02*
X-29622D01*
X-17622D02*
X-6022D01*
X-3722D02*
X7178D01*
X8678D02*
X19578D01*
X22578D02*
X29978D01*
X31678D02*
X36178D01*
X-35722Y-246161D02*
X-29622D01*
X-17622D02*
X-13322D01*
X-11522D02*
X-6022D01*
X-3722D02*
X7178D01*
X8678D02*
X19578D01*
X22578D02*
X30078D01*
X31678D02*
X36178D01*
X-35822Y-246261D02*
X-29722D01*
X-17622D02*
X-13322D01*
X-11222D02*
X-6022D01*
X-2422D02*
X7178D01*
X9978D02*
X19578D01*
X22578D02*
X30078D01*
X31678D02*
X36178D01*
X-35822Y-246361D02*
X-29722D01*
X-17622D02*
X-13322D01*
X-11022D02*
X-6022D01*
X-2422D02*
X7178D01*
X9978D02*
X19578D01*
X22578D02*
X30178D01*
X31678D02*
X36178D01*
X-35822Y-246461D02*
X-29822D01*
X-17622D02*
X-13322D01*
X-10922D02*
X-6022D01*
X-2422D02*
X1978D01*
X9978D02*
X14478D01*
X22578D02*
X30178D01*
X31678D02*
X36178D01*
X-35822Y-246561D02*
X-29822D01*
X-17622D02*
X-13322D01*
X-10822D02*
X-5922D01*
X-2422D02*
X1978D01*
X9978D02*
X14478D01*
X22578D02*
X30278D01*
X31678D02*
X36178D01*
X-35822Y-246661D02*
X-29922D01*
X-17622D02*
X-13322D01*
X-10822D02*
X-5922D01*
X-2422D02*
X1978D01*
X9978D02*
X14478D01*
X22578D02*
X30278D01*
X31678D02*
X36178D01*
X-35922Y-246761D02*
X-29922D01*
X-17622D02*
X-13322D01*
X-10722D02*
X-5922D01*
X-2422D02*
X1978D01*
X9978D02*
X14478D01*
X22578D02*
X30378D01*
X31678D02*
X36178D01*
X-35922Y-246861D02*
X-30022D01*
X-17622D02*
X-13322D01*
X-10722D02*
X-5922D01*
X-2422D02*
X1978D01*
X9978D02*
X14478D01*
X22578D02*
X30378D01*
X31678D02*
X36178D01*
X-35922Y-246961D02*
X-30022D01*
X-17622D02*
X-13322D01*
X-10722D02*
X-5922D01*
X-2422D02*
X1978D01*
X9978D02*
X14478D01*
X22578D02*
X30478D01*
X31678D02*
X36178D01*
X-35922Y-247061D02*
X-30022D01*
X-17622D02*
X-13322D01*
X-10622D02*
X-5922D01*
X-2422D02*
X1978D01*
X9978D02*
X14478D01*
X22578D02*
X30478D01*
X31678D02*
X36178D01*
X-35922Y-247161D02*
X-30022D01*
X-17622D02*
X-13322D01*
X-10622D02*
X-5922D01*
X-2422D02*
X1978D01*
X9978D02*
X14478D01*
X22578D02*
X30578D01*
X31678D02*
X36178D01*
X-35922Y-247261D02*
X-30122D01*
X-17622D02*
X-13322D01*
X-10622D02*
X-5922D01*
X-2422D02*
X1978D01*
X9978D02*
X14478D01*
X22578D02*
X30578D01*
X31678D02*
X36178D01*
X-35922Y-247361D02*
X-30122D01*
X-27322D02*
X-21022D01*
X-17622D02*
X-13322D01*
X-10622D02*
X-5922D01*
X-2422D02*
X1978D01*
X9978D02*
X14478D01*
X22578D02*
X30678D01*
X31678D02*
X36178D01*
X-36022Y-247461D02*
X-30122D01*
X-27322D02*
X-21022D01*
X-17622D02*
X-13322D01*
X-10622D02*
X-5922D01*
X-2422D02*
X1978D01*
X9978D02*
X14478D01*
X22578D02*
X30678D01*
X31678D02*
X36178D01*
X-36022Y-247561D02*
X-30122D01*
X-27322D02*
X-21022D01*
X-17622D02*
X-13322D01*
X-10622D02*
X-5922D01*
X-2422D02*
X1978D01*
X9978D02*
X14478D01*
X22578D02*
X30778D01*
X31678D02*
X36178D01*
X-36022Y-247661D02*
X-30122D01*
X-27322D02*
X-21022D01*
X-17622D02*
X-13322D01*
X-10722D02*
X-5922D01*
X-2422D02*
X1978D01*
X9978D02*
X14478D01*
X22578D02*
X30778D01*
X31678D02*
X36178D01*
X-36022Y-247761D02*
X-30222D01*
X-27322D02*
X-21022D01*
X-17622D02*
X-13322D01*
X-10722D02*
X-6022D01*
X-2422D02*
X1978D01*
X9978D02*
X14478D01*
X22578D02*
X30878D01*
X31678D02*
X36178D01*
X-36022Y-247861D02*
X-30222D01*
X-27322D02*
X-21022D01*
X-17622D02*
X-13322D01*
X-10722D02*
X-6022D01*
X-2422D02*
X1978D01*
X9978D02*
X14478D01*
X22578D02*
X30878D01*
X31678D02*
X36178D01*
X-36022Y-247961D02*
X-30222D01*
X-27322D02*
X-21022D01*
X-17622D02*
X-13322D01*
X-10822D02*
X-6022D01*
X-2422D02*
X6478D01*
X9978D02*
X18978D01*
X22578D02*
X30978D01*
X31678D02*
X36178D01*
X-36022Y-248061D02*
X-30222D01*
X-27322D02*
X-21022D01*
X-17622D02*
X-13322D01*
X-10922D02*
X-6022D01*
X-2422D02*
X6478D01*
X9978D02*
X18878D01*
X22578D02*
X30978D01*
X31678D02*
X36178D01*
X-36022Y-248161D02*
X-30222D01*
X-27322D02*
X-21022D01*
X-17622D02*
X-13322D01*
X-11022D02*
X-6022D01*
X-2422D02*
X6478D01*
X9978D02*
X18878D01*
X22578D02*
X31078D01*
X31678D02*
X36178D01*
X-36022Y-248261D02*
X-30222D01*
X-27322D02*
X-21022D01*
X-17622D02*
X-13322D01*
X-11122D02*
X-6022D01*
X-2422D02*
X6478D01*
X9978D02*
X18878D01*
X22578D02*
X31078D01*
X31678D02*
X36178D01*
X-36022Y-248361D02*
X-30222D01*
X-27322D02*
X-21022D01*
X-17622D02*
X-13322D01*
X-11422D02*
X-6122D01*
X-2422D02*
X6478D01*
X9978D02*
X18878D01*
X22578D02*
X31178D01*
X31678D02*
X36178D01*
X-36022Y-248461D02*
X-30222D01*
X-27322D02*
X-21022D01*
X-17622D02*
X-6122D01*
X-2422D02*
X6478D01*
X9978D02*
X18878D01*
X22578D02*
X31278D01*
X31678D02*
X36178D01*
X-36022Y-248561D02*
X-30222D01*
X-27322D02*
X-21022D01*
X-17622D02*
X-6122D01*
X-2422D02*
X6478D01*
X9978D02*
X18878D01*
X22578D02*
X31278D01*
X31678D02*
X36178D01*
X-36022Y-248661D02*
X-30222D01*
X-27322D02*
X-21022D01*
X-17622D02*
X-6222D01*
X-2422D02*
X6478D01*
X9978D02*
X18878D01*
X22578D02*
X31378D01*
X31678D02*
X36178D01*
X-36022Y-248761D02*
X-30222D01*
X-27322D02*
X-21022D01*
X-17622D02*
X-6222D01*
X-2422D02*
X6478D01*
X9978D02*
X18878D01*
X22578D02*
X31378D01*
X31678D02*
X36178D01*
X-36022Y-248861D02*
X-30222D01*
X-27322D02*
X-21022D01*
X-17622D02*
X-6322D01*
X-2422D02*
X6478D01*
X9978D02*
X18878D01*
X22578D02*
X31478D01*
X31678D02*
X36178D01*
X-36022Y-248961D02*
X-30222D01*
X-27322D02*
X-21022D01*
X-17622D02*
X-6322D01*
X-2422D02*
X6478D01*
X9978D02*
X18878D01*
X22578D02*
X31478D01*
X31678D02*
X36178D01*
X-36022Y-249061D02*
X-30222D01*
X-27322D02*
X-21022D01*
X-17622D02*
X-6422D01*
X-2422D02*
X6478D01*
X9978D02*
X18878D01*
X22578D02*
X31478D01*
X31678D02*
X36178D01*
X-36022Y-249161D02*
X-30222D01*
X-27322D02*
X-21022D01*
X-17622D02*
X-6422D01*
X-2422D02*
X6478D01*
X9978D02*
X18878D01*
X22578D02*
X26978D01*
X27178D02*
X36178D01*
X-36022Y-249261D02*
X-30222D01*
X-27322D02*
X-21022D01*
X-17622D02*
X-6522D01*
X-2422D02*
X6478D01*
X9978D02*
X18878D01*
X22578D02*
X27078D01*
X27278D02*
X36178D01*
X-36022Y-249361D02*
X-30222D01*
X-27322D02*
X-21022D01*
X-17622D02*
X-6622D01*
X-2422D02*
X6478D01*
X9978D02*
X18878D01*
X22578D02*
X27078D01*
X27278D02*
X36178D01*
X-36022Y-249461D02*
X-30222D01*
X-27322D02*
X-21022D01*
X-17622D02*
X-6722D01*
X-2422D02*
X6478D01*
X9978D02*
X18878D01*
X22578D02*
X27078D01*
X27378D02*
X36178D01*
X-36022Y-249561D02*
X-30222D01*
X-27322D02*
X-21022D01*
X-17622D02*
X-6822D01*
X-2422D02*
X6478D01*
X9978D02*
X18878D01*
X22578D02*
X27078D01*
X27378D02*
X36178D01*
X-36022Y-249661D02*
X-30222D01*
X-27322D02*
X-21022D01*
X-17622D02*
X-6922D01*
X-2422D02*
X6478D01*
X9978D02*
X18878D01*
X22578D02*
X27078D01*
X27478D02*
X36178D01*
X-36022Y-249761D02*
X-30122D01*
X-27322D02*
X-21022D01*
X-17622D02*
X-7022D01*
X-2422D02*
X6478D01*
X9978D02*
X18878D01*
X22578D02*
X27078D01*
X27478D02*
X36178D01*
X-36022Y-249861D02*
X-30122D01*
X-27322D02*
X-21022D01*
X-17622D02*
X-7122D01*
X-2422D02*
X6478D01*
X9978D02*
X18878D01*
X22578D02*
X27078D01*
X27578D02*
X36178D01*
X-35922Y-249961D02*
X-30122D01*
X-27322D02*
X-21022D01*
X-17622D02*
X-7322D01*
X-2422D02*
X6478D01*
X9978D02*
X18878D01*
X22578D02*
X27078D01*
X27578D02*
X36178D01*
X-35922Y-250061D02*
X-30122D01*
X-27322D02*
X-21022D01*
X-17622D02*
X-7422D01*
X-2422D02*
X6478D01*
X9978D02*
X18878D01*
X22578D02*
X27078D01*
X27678D02*
X36178D01*
X-35922Y-250161D02*
X-30122D01*
X-27322D02*
X-21022D01*
X-17622D02*
X-7622D01*
X-2422D02*
X6478D01*
X9978D02*
X18878D01*
X22578D02*
X27078D01*
X27778D02*
X36178D01*
X-35922Y-250261D02*
X-30022D01*
X-27322D02*
X-21022D01*
X-17622D02*
X-7722D01*
X-2422D02*
X6478D01*
X9978D02*
X18878D01*
X22578D02*
X27078D01*
X27778D02*
X36178D01*
X-35922Y-250361D02*
X-30022D01*
X-25622D02*
X-21022D01*
X-17622D02*
X-7922D01*
X-2422D02*
X6478D01*
X9978D02*
X18878D01*
X22578D02*
X27078D01*
X27878D02*
X36178D01*
X-35922Y-250461D02*
X-30022D01*
X-25622D02*
X-21022D01*
X-17622D02*
X-7922D01*
X-2422D02*
X6478D01*
X9978D02*
X18878D01*
X22578D02*
X27078D01*
X27878D02*
X36178D01*
X-35922Y-250561D02*
X-29922D01*
X-25622D02*
X-21022D01*
X-17622D02*
X-7722D01*
X-2422D02*
X6478D01*
X9978D02*
X18878D01*
X22578D02*
X27078D01*
X27978D02*
X36178D01*
X-35822Y-250661D02*
X-29922D01*
X-25622D02*
X-21022D01*
X-17622D02*
X-7622D01*
X-2422D02*
X6478D01*
X9978D02*
X18878D01*
X22578D02*
X27078D01*
X27978D02*
X36178D01*
X-35822Y-250761D02*
X-29922D01*
X-25622D02*
X-21022D01*
X-17622D02*
X-7522D01*
X-2422D02*
X6478D01*
X9978D02*
X18878D01*
X22578D02*
X27078D01*
X28078D02*
X36178D01*
X-35822Y-250861D02*
X-29822D01*
X-25622D02*
X-21022D01*
X-17622D02*
X-7422D01*
X-2422D02*
X6478D01*
X9978D02*
X18878D01*
X22578D02*
X27078D01*
X28078D02*
X36178D01*
X-35822Y-250961D02*
X-29822D01*
X-25622D02*
X-21022D01*
X-17622D02*
X-7422D01*
X-2422D02*
X6478D01*
X9978D02*
X18878D01*
X22578D02*
X27078D01*
X28178D02*
X36178D01*
X-35822Y-251061D02*
X-29722D01*
X-25622D02*
X-21022D01*
X-17622D02*
X-7322D01*
X-2422D02*
X6478D01*
X9978D02*
X18878D01*
X22578D02*
X27078D01*
X28278D02*
X36178D01*
X-35722Y-251161D02*
X-29722D01*
X-25622D02*
X-21022D01*
X-17622D02*
X-7222D01*
X-2422D02*
X6478D01*
X9978D02*
X18878D01*
X22578D02*
X27078D01*
X28278D02*
X36178D01*
X-35722Y-251261D02*
X-29622D01*
X-25622D02*
X-21022D01*
X-17622D02*
X-7222D01*
X-2422D02*
X6478D01*
X9978D02*
X18878D01*
X22578D02*
X27078D01*
X28378D02*
X36178D01*
X-35722Y-251361D02*
X-29622D01*
X-25622D02*
X-21022D01*
X-17622D02*
X-7122D01*
X-2422D02*
X6478D01*
X9978D02*
X18978D01*
X22578D02*
X27078D01*
X28378D02*
X36178D01*
X-35722Y-251461D02*
X-29522D01*
X-25622D02*
X-21022D01*
X-17622D02*
X-13322D01*
X-12422D02*
X-7122D01*
X-2422D02*
X1978D01*
X9978D02*
X14478D01*
X22578D02*
X27078D01*
X28478D02*
X36178D01*
X-35722Y-251561D02*
X-29422D01*
X-25622D02*
X-21022D01*
X-17622D02*
X-13322D01*
X-12322D02*
X-7022D01*
X-2422D02*
X1978D01*
X9978D02*
X14478D01*
X22578D02*
X27078D01*
X28478D02*
X36178D01*
X-35622Y-251661D02*
X-29322D01*
X-25622D02*
X-21022D01*
X-17622D02*
X-13322D01*
X-12222D02*
X-7022D01*
X-2422D02*
X1978D01*
X9978D02*
X14478D01*
X22578D02*
X27078D01*
X28578D02*
X36178D01*
X-35622Y-251761D02*
X-29222D01*
X-25622D02*
X-21022D01*
X-17622D02*
X-13322D01*
X-12122D02*
X-6922D01*
X-2422D02*
X1978D01*
X9978D02*
X14478D01*
X22578D02*
X27078D01*
X28578D02*
X36178D01*
X-35622Y-251861D02*
X-29222D01*
X-25622D02*
X-21022D01*
X-17622D02*
X-13322D01*
X-12022D02*
X-6922D01*
X-2422D02*
X1978D01*
X9978D02*
X14478D01*
X22578D02*
X27078D01*
X28678D02*
X36178D01*
X-35522Y-251961D02*
X-29122D01*
X-25622D02*
X-21022D01*
X-17622D02*
X-13322D01*
X-11922D02*
X-6822D01*
X-2422D02*
X1978D01*
X9978D02*
X14478D01*
X22578D02*
X27078D01*
X28778D02*
X36178D01*
X-35522Y-252061D02*
X-28922D01*
X-25622D02*
X-21022D01*
X-17622D02*
X-13322D01*
X-11822D02*
X-6822D01*
X-2422D02*
X1978D01*
X9978D02*
X14478D01*
X22578D02*
X27078D01*
X28778D02*
X36178D01*
X-35522Y-252161D02*
X-28822D01*
X-25622D02*
X-21022D01*
X-17622D02*
X-13322D01*
X-11822D02*
X-6822D01*
X-2422D02*
X1978D01*
X9978D02*
X14478D01*
X22578D02*
X27078D01*
X28878D02*
X36178D01*
X-35422Y-252261D02*
X-28722D01*
X-25622D02*
X-21022D01*
X-17622D02*
X-13322D01*
X-11722D02*
X-6722D01*
X-2422D02*
X1978D01*
X9978D02*
X14478D01*
X22578D02*
X27078D01*
X28878D02*
X36178D01*
X-35422Y-252361D02*
X-28522D01*
X-25622D02*
X-21022D01*
X-17622D02*
X-13322D01*
X-11722D02*
X-6722D01*
X-2422D02*
X1978D01*
X9978D02*
X14478D01*
X22578D02*
X27078D01*
X28978D02*
X36178D01*
X-35422Y-252461D02*
X-28322D01*
X-25622D02*
X-21022D01*
X-17622D02*
X-13322D01*
X-11622D02*
X-6622D01*
X-2422D02*
X1978D01*
X9978D02*
X14478D01*
X22578D02*
X27078D01*
X28978D02*
X36178D01*
X-35322Y-252561D02*
X-28122D01*
X-25622D02*
X-21022D01*
X-17622D02*
X-13322D01*
X-11622D02*
X-6622D01*
X-2422D02*
X1978D01*
X9978D02*
X14478D01*
X22578D02*
X27078D01*
X29078D02*
X36178D01*
X-35322Y-252661D02*
X-27822D01*
X-26022D02*
X-21022D01*
X-17622D02*
X-13322D01*
X-11522D02*
X-6522D01*
X-2422D02*
X1978D01*
X9978D02*
X14478D01*
X22578D02*
X27078D01*
X29078D02*
X36178D01*
X-35222Y-252761D02*
X-21022D01*
X-17622D02*
X-13322D01*
X-11522D02*
X-6422D01*
X-2422D02*
X1978D01*
X9978D02*
X14478D01*
X22578D02*
X27078D01*
X29178D02*
X36178D01*
X-35222Y-252861D02*
X-21022D01*
X-17622D02*
X-13322D01*
X-11422D02*
X-6422D01*
X-2422D02*
X1978D01*
X9978D02*
X14478D01*
X22578D02*
X27078D01*
X29278D02*
X36178D01*
X-35122Y-252961D02*
X-21022D01*
X-17622D02*
X-13322D01*
X-11422D02*
X-6322D01*
X-2422D02*
X1978D01*
X9978D02*
X14478D01*
X22578D02*
X27078D01*
X29278D02*
X36178D01*
X-35122Y-253061D02*
X-21022D01*
X-17622D02*
X-13322D01*
X-11322D02*
X-6222D01*
X-2422D02*
X1978D01*
X9978D02*
X14478D01*
X22578D02*
X27078D01*
X29378D02*
X36178D01*
X-35022Y-253161D02*
X-21022D01*
X-17622D02*
X-13322D01*
X-11322D02*
X-6122D01*
X-2422D02*
X1978D01*
X9978D02*
X14478D01*
X21178D02*
X27078D01*
X29378D02*
X36178D01*
X-35022Y-253261D02*
X-21022D01*
X-17622D02*
X-13322D01*
X-11322D02*
X-6022D01*
X-2422D02*
X7578D01*
X9978D02*
X19978D01*
X21178D02*
X27078D01*
X29478D02*
X36178D01*
X-34922Y-253361D02*
X-21022D01*
X-17622D02*
X-13322D01*
X-11222D02*
X-5722D01*
X-2422D02*
X7578D01*
X9978D02*
X19978D01*
X21178D02*
X27078D01*
X29478D02*
X36178D01*
X-34922Y-253461D02*
X-21022D01*
X-19022D02*
X-12122D01*
X-11222D02*
X-4822D01*
X-2422D02*
X7578D01*
X9978D02*
X19978D01*
X21178D02*
X27078D01*
X29578D02*
X36178D01*
X-34822Y-253561D02*
X-21022D01*
X-19022D02*
X-12122D01*
X-11122D02*
X-4822D01*
X-3722D02*
X7578D01*
X8678D02*
X19978D01*
X21178D02*
X27078D01*
X29578D02*
X36178D01*
X-34822Y-253661D02*
X-21022D01*
X-19022D02*
X-12122D01*
X-11122D02*
X-4822D01*
X-3722D02*
X7578D01*
X8678D02*
X19978D01*
X21178D02*
X27078D01*
X29678D02*
X36178D01*
X-34722Y-253761D02*
X-21022D01*
X-19022D02*
X-12122D01*
X-11122D02*
X-4822D01*
X-3722D02*
X7578D01*
X8678D02*
X19978D01*
X21178D02*
X27078D01*
X29778D02*
X36178D01*
X-34622Y-253861D02*
X-21022D01*
X-19022D02*
X-12122D01*
X-11022D02*
X-4822D01*
X-3722D02*
X7578D01*
X8678D02*
X19978D01*
X21178D02*
X27078D01*
X29778D02*
X36178D01*
X-34622Y-253961D02*
X-21022D01*
X-19022D02*
X-12122D01*
X-11022D02*
X-4822D01*
X-3722D02*
X7578D01*
X8678D02*
X19978D01*
X21178D02*
X27078D01*
X29878D02*
X36178D01*
X-34522Y-254061D02*
X-21022D01*
X-19022D02*
X-12122D01*
X-11022D02*
X-4822D01*
X-3722D02*
X7578D01*
X8678D02*
X19978D01*
X21178D02*
X27078D01*
X29878D02*
X36178D01*
X-34422Y-254161D02*
X-21022D01*
X-19022D02*
X-12122D01*
X-10922D02*
X-4822D01*
X-3722D02*
X7578D01*
X8678D02*
X19978D01*
X21178D02*
X27078D01*
X29978D02*
X36178D01*
X-34322Y-254261D02*
X-21022D01*
X-19022D02*
X-12122D01*
X-10922D02*
X-4822D01*
X-3722D02*
X7578D01*
X8678D02*
X19978D01*
X21178D02*
X27078D01*
X29978D02*
X36178D01*
X-34322Y-254361D02*
X-21022D01*
X-19022D02*
X-12122D01*
X-10822D02*
X-4822D01*
X-3722D02*
X7578D01*
X8678D02*
X19978D01*
X21178D02*
X27078D01*
X30078D02*
X36178D01*
X-34222Y-254461D02*
X-21022D01*
X-19022D02*
X-12122D01*
X-10822D02*
X-4822D01*
X-3722D02*
X7578D01*
X8678D02*
X19978D01*
X21178D02*
X27078D01*
X30078D02*
X36178D01*
X-34122Y-254561D02*
X-21022D01*
X-19022D02*
X-12122D01*
X-10822D02*
X-4822D01*
X-3722D02*
X7578D01*
X8678D02*
X19978D01*
X21178D02*
X27078D01*
X30178D02*
X36178D01*
X-34022Y-254661D02*
X-21022D01*
X-19022D02*
X-12122D01*
X-10722D02*
X-4822D01*
X-3722D02*
X7578D01*
X8678D02*
X19978D01*
X21178D02*
X27078D01*
X30278D02*
X36178D01*
X-33922Y-254761D02*
X-21022D01*
X-19022D02*
X-12122D01*
X-10722D02*
X-4822D01*
X-3722D02*
X7578D01*
X8678D02*
X19978D01*
X21178D02*
X27078D01*
X30278D02*
X36178D01*
X-33822Y-254861D02*
X-21022D01*
X-19022D02*
X-12122D01*
X-10622D02*
X-4822D01*
X-3722D02*
X7578D01*
X8678D02*
X19978D01*
X21178D02*
X27078D01*
X30378D02*
X36178D01*
X-33722Y-254961D02*
X-21022D01*
X-19022D02*
X-12122D01*
X-10622D02*
X-4822D01*
X-3722D02*
X7578D01*
X8678D02*
X19978D01*
X21178D02*
X27078D01*
X30378D02*
X36178D01*
X-33622Y-255061D02*
X-21022D01*
X-19022D02*
X-12122D01*
X-10522D02*
X-4822D01*
X-3722D02*
X7578D01*
X8678D02*
X19978D01*
X21178D02*
X27078D01*
X30478D02*
X36178D01*
X-33522Y-255161D02*
X-21022D01*
X-19022D02*
X-12122D01*
X-10522D02*
X-4822D01*
X-3722D02*
X7578D01*
X8678D02*
X19978D01*
X21178D02*
X27078D01*
X30478D02*
X36178D01*
X-33422Y-255261D02*
X-21022D01*
X-19022D02*
X-12122D01*
X-10422D02*
X-4822D01*
X-3722D02*
X7578D01*
X8678D02*
X19978D01*
X21178D02*
X27078D01*
X30578D02*
X36178D01*
X-33322Y-255361D02*
X-21022D01*
X-19022D02*
X-12122D01*
X-10422D02*
X-4822D01*
X-3722D02*
X7578D01*
X8678D02*
X19978D01*
X21178D02*
X27078D01*
X30578D02*
X36178D01*
X-33122Y-255461D02*
X-21022D01*
X-19022D02*
X-12122D01*
X-10322D02*
X-4822D01*
X-3722D02*
X7578D01*
X8678D02*
X19978D01*
X21178D02*
X27078D01*
X30678D02*
X36178D01*
X-33022Y-255561D02*
X-21122D01*
X-19022D02*
X-12122D01*
X-10222D02*
X-4822D01*
X-3722D02*
X7578D01*
X8678D02*
X19978D01*
X21178D02*
X27078D01*
X30778D02*
X36178D01*
X-32922Y-255661D02*
X-21322D01*
X-19022D02*
X-12122D01*
X-10222D02*
X-4822D01*
X-3722D02*
X7578D01*
X8678D02*
X19978D01*
X21178D02*
X27078D01*
X30778D02*
X36178D01*
X-32722Y-255761D02*
X-21522D01*
X-19022D02*
X-12122D01*
X-10122D02*
X-4822D01*
X-3722D02*
X7578D01*
X8678D02*
X19978D01*
X21178D02*
X27078D01*
X30878D02*
X36178D01*
X-32522Y-255861D02*
X-21722D01*
X-19022D02*
X-12122D01*
X-10022D02*
X-4822D01*
X-3722D02*
X7578D01*
X8678D02*
X19978D01*
X21178D02*
X27078D01*
X30878D02*
X36178D01*
X-32422Y-255961D02*
X-21922D01*
X-19022D02*
X-12122D01*
X-9922D02*
X-4822D01*
X-3722D02*
X7578D01*
X8678D02*
X19978D01*
X21178D02*
X27078D01*
X30978D02*
X36178D01*
X-32222Y-256061D02*
X-22122D01*
X-19022D02*
X-12122D01*
X-9822D02*
X-4822D01*
X-3722D02*
X7578D01*
X8678D02*
X19978D01*
X21178D02*
X27078D01*
X30978D02*
X36178D01*
X-32022Y-256161D02*
X-22322D01*
X-19022D02*
X-12122D01*
X-9722D02*
X-4822D01*
X-3722D02*
X7578D01*
X8678D02*
X19978D01*
X21178D02*
X27078D01*
X31078D02*
X36178D01*
X-31822Y-256261D02*
X-22522D01*
X-19022D02*
X-12122D01*
X-9622D02*
X-4822D01*
X-3722D02*
X7578D01*
X8678D02*
X19978D01*
X21178D02*
X27078D01*
X31078D02*
X36178D01*
X-31622Y-256361D02*
X-22822D01*
X-19022D02*
X-12122D01*
X-9422D02*
X-4822D01*
X-3722D02*
X7578D01*
X8678D02*
X19978D01*
X21178D02*
X27078D01*
X31178D02*
X36178D01*
X-31322Y-256461D02*
X-23122D01*
X-19022D02*
X-12122D01*
X-9222D02*
X-4822D01*
X-3722D02*
X7578D01*
X8678D02*
X19978D01*
X21178D02*
X27078D01*
X31278D02*
X36178D01*
X-31122Y-256561D02*
X-23422D01*
X-19022D02*
X-12122D01*
X-9022D02*
X-4822D01*
X-3722D02*
X7578D01*
X8678D02*
X19978D01*
X21178D02*
X27078D01*
X31278D02*
X36178D01*
X-30722Y-256661D02*
X-23822D01*
X-19022D02*
X-12122D01*
X-8522D02*
X-4822D01*
X-3722D02*
X7578D01*
X8678D02*
X19978D01*
X21178D02*
X27078D01*
X31378D02*
X36178D01*
X-30422Y-256761D02*
X-24222D01*
X-30022Y-256861D02*
X-24822D01*
X-29422Y-256961D02*
X-25422D01*
X-28522Y-257061D02*
X-26622D01*
X-20122Y-257861D02*
X-12022D01*
X8278D02*
X17778D01*
X-20122Y-257961D02*
X-12022D01*
X8378D02*
X18478D01*
X-20122Y-258061D02*
X-12022D01*
X8378D02*
X18878D01*
X-20122Y-258161D02*
X-12022D01*
X8378D02*
X19278D01*
X-20122Y-258261D02*
X-12022D01*
X8378D02*
X19578D01*
X-20122Y-258361D02*
X-12022D01*
X8378D02*
X19778D01*
X-20122Y-258461D02*
X-12022D01*
X8378D02*
X19978D01*
X-20122Y-258561D02*
X-12022D01*
X8378D02*
X20178D01*
X-20122Y-258661D02*
X-12022D01*
X8378D02*
X20378D01*
X-20122Y-258761D02*
X-12022D01*
X8378D02*
X20578D01*
X-20122Y-258861D02*
X-12022D01*
X8378D02*
X20678D01*
X-20122Y-258961D02*
X-12022D01*
X8378D02*
X20778D01*
X-20122Y-259061D02*
X-12022D01*
X8378D02*
X20878D01*
X-20122Y-259161D02*
X-12022D01*
X8378D02*
X20978D01*
X-20122Y-259261D02*
X-12022D01*
X8378D02*
X21078D01*
X-20122Y-259361D02*
X-12022D01*
X8378D02*
X21178D01*
X-20122Y-259461D02*
X-12022D01*
X8378D02*
X21278D01*
X-20122Y-259561D02*
X-12022D01*
X8378D02*
X21278D01*
X-20122Y-259661D02*
X-12022D01*
X8378D02*
X21378D01*
X-20122Y-259761D02*
X-12022D01*
X8378D02*
X21478D01*
X-20122Y-259861D02*
X-12022D01*
X8378D02*
X21478D01*
X-20122Y-259961D02*
X-12022D01*
X8378D02*
X21578D01*
X-20122Y-260061D02*
X-12022D01*
X8378D02*
X21578D01*
X-20122Y-260161D02*
X-12022D01*
X8378D02*
X21578D01*
X-20122Y-260261D02*
X-12022D01*
X8378D02*
X21678D01*
X-20122Y-260361D02*
X-12022D01*
X-2622D02*
X2978D01*
X8378D02*
X21678D01*
X-20122Y-260461D02*
X-12022D01*
X-2622D02*
X2978D01*
X8378D02*
X21678D01*
X-20122Y-260561D02*
X-12022D01*
X-2622D02*
X2978D01*
X8378D02*
X21778D01*
X-20122Y-260661D02*
X-12022D01*
X-2622D02*
X3078D01*
X8378D02*
X21778D01*
X-20122Y-260761D02*
X-12022D01*
X-2722D02*
X3078D01*
X8378D02*
X21778D01*
X-20122Y-260861D02*
X-12022D01*
X-2722D02*
X3078D01*
X8378D02*
X21778D01*
X-20122Y-260961D02*
X-12022D01*
X-2722D02*
X3178D01*
X8378D02*
X21778D01*
X-20122Y-261061D02*
X-12022D01*
X-2822D02*
X3178D01*
X8378D02*
X21878D01*
X-20122Y-261161D02*
X-12022D01*
X-2822D02*
X3178D01*
X8378D02*
X21878D01*
X-20122Y-261261D02*
X-12022D01*
X-2822D02*
X3278D01*
X8278D02*
X21878D01*
X-18722Y-261361D02*
X-13622D01*
X-2922D02*
X3278D01*
X9778D02*
X14478D01*
X16278D02*
X21878D01*
X-18722Y-261461D02*
X-13622D01*
X-2922D02*
X3278D01*
X9778D02*
X14478D01*
X16578D02*
X21878D01*
X-18722Y-261561D02*
X-13622D01*
X-2922D02*
X3378D01*
X9778D02*
X14478D01*
X16678D02*
X21878D01*
X-18722Y-261661D02*
X-13622D01*
X-3022D02*
X3378D01*
X9778D02*
X14478D01*
X16778D02*
X21878D01*
X-18722Y-261761D02*
X-13622D01*
X-3022D02*
X3378D01*
X9778D02*
X14478D01*
X16878D02*
X21878D01*
X-18722Y-261861D02*
X-13622D01*
X-3022D02*
X3478D01*
X9778D02*
X14478D01*
X16978D02*
X21878D01*
X-18722Y-261961D02*
X-13622D01*
X-3122D02*
X3478D01*
X9778D02*
X14478D01*
X16978D02*
X21878D01*
X-18722Y-262061D02*
X-13622D01*
X-3122D02*
X3478D01*
X9778D02*
X14478D01*
X17078D02*
X21878D01*
X-18722Y-262161D02*
X-13622D01*
X-3122D02*
X3478D01*
X9778D02*
X14478D01*
X17078D02*
X21878D01*
X-18722Y-262261D02*
X-13622D01*
X-3222D02*
X3578D01*
X9778D02*
X14478D01*
X17078D02*
X21878D01*
X-18722Y-262361D02*
X-13622D01*
X-3222D02*
X3578D01*
X9778D02*
X14478D01*
X17078D02*
X21778D01*
X-18722Y-262461D02*
X-13622D01*
X-3222D02*
X3578D01*
X9778D02*
X14478D01*
X17078D02*
X21778D01*
X-18722Y-262561D02*
X-13622D01*
X-3322D02*
X3678D01*
X9778D02*
X14478D01*
X17078D02*
X21778D01*
X-18722Y-262661D02*
X-13622D01*
X-3322D02*
X3678D01*
X9778D02*
X14478D01*
X17078D02*
X21778D01*
X-18722Y-262761D02*
X-13622D01*
X-3322D02*
X3678D01*
X9778D02*
X14478D01*
X17078D02*
X21678D01*
X-18722Y-262861D02*
X-13622D01*
X-3422D02*
X3778D01*
X9778D02*
X14478D01*
X16978D02*
X21678D01*
X-18722Y-262961D02*
X-13622D01*
X-3422D02*
X3778D01*
X9778D02*
X14478D01*
X16978D02*
X21678D01*
X-18722Y-263061D02*
X-13622D01*
X-3422D02*
X3778D01*
X9778D02*
X14478D01*
X16978D02*
X21578D01*
X-18722Y-263161D02*
X-13622D01*
X-3522D02*
X3878D01*
X9778D02*
X14478D01*
X16878D02*
X21578D01*
X-18722Y-263261D02*
X-13622D01*
X-3522D02*
X3878D01*
X9778D02*
X14478D01*
X16778D02*
X21578D01*
X-18722Y-263361D02*
X-13622D01*
X-3522D02*
X3878D01*
X9778D02*
X14478D01*
X16678D02*
X21478D01*
X-18722Y-263461D02*
X-13622D01*
X-3622D02*
X3978D01*
X9778D02*
X14478D01*
X16578D02*
X21378D01*
X-18722Y-263561D02*
X-13622D01*
X-3622D02*
X3978D01*
X9778D02*
X14478D01*
X16378D02*
X21378D01*
X-18722Y-263661D02*
X-13622D01*
X-3622D02*
X3978D01*
X9778D02*
X21278D01*
X-18722Y-263761D02*
X-13622D01*
X-3722D02*
X-122D01*
X178D02*
X4078D01*
X9778D02*
X21178D01*
X-18722Y-263861D02*
X-13622D01*
X-3722D02*
X-122D01*
X178D02*
X4078D01*
X9778D02*
X21078D01*
X-18722Y-263961D02*
X-13622D01*
X-3722D02*
X-122D01*
X178D02*
X4078D01*
X9778D02*
X20978D01*
X-18722Y-264061D02*
X-13622D01*
X-3822D02*
X-122D01*
X178D02*
X4178D01*
X9778D02*
X20878D01*
X-18722Y-264161D02*
X-13622D01*
X-3822D02*
X-122D01*
X178D02*
X4178D01*
X9778D02*
X20778D01*
X-18722Y-264261D02*
X-13622D01*
X-3822D02*
X-222D01*
X278D02*
X4178D01*
X9778D02*
X20678D01*
X-18722Y-264361D02*
X-13622D01*
X-3922D02*
X-222D01*
X278D02*
X4278D01*
X9778D02*
X20578D01*
X-18722Y-264461D02*
X-13622D01*
X-3922D02*
X-222D01*
X278D02*
X4278D01*
X9778D02*
X20378D01*
X-18722Y-264561D02*
X-13622D01*
X-3922D02*
X-322D01*
X378D02*
X4278D01*
X9778D02*
X20278D01*
X-18722Y-264661D02*
X-13622D01*
X-4022D02*
X-322D01*
X378D02*
X4378D01*
X9778D02*
X20078D01*
X-18722Y-264761D02*
X-13622D01*
X-4022D02*
X-322D01*
X378D02*
X4378D01*
X9778D02*
X19878D01*
X-18722Y-264861D02*
X-13622D01*
X-4022D02*
X-322D01*
X378D02*
X4378D01*
X9778D02*
X19878D01*
X-18722Y-264961D02*
X-13622D01*
X-4022D02*
X-422D01*
X478D02*
X4478D01*
X9778D02*
X20178D01*
X-18722Y-265061D02*
X-13622D01*
X-4122D02*
X-422D01*
X478D02*
X4478D01*
X9778D02*
X20378D01*
X-18722Y-265161D02*
X-13622D01*
X-4122D02*
X-422D01*
X478D02*
X4478D01*
X9778D02*
X20578D01*
X-18722Y-265261D02*
X-13622D01*
X-4122D02*
X-522D01*
X578D02*
X4578D01*
X9778D02*
X20778D01*
X-18722Y-265361D02*
X-13622D01*
X-4222D02*
X-522D01*
X578D02*
X4578D01*
X9778D02*
X20978D01*
X-18722Y-265461D02*
X-13622D01*
X-4222D02*
X-522D01*
X578D02*
X4578D01*
X9778D02*
X21078D01*
X-18722Y-265561D02*
X-13622D01*
X-4222D02*
X-622D01*
X578D02*
X4578D01*
X9778D02*
X21278D01*
X-18722Y-265661D02*
X-13622D01*
X-4322D02*
X-622D01*
X678D02*
X4678D01*
X9778D02*
X21378D01*
X-18722Y-265761D02*
X-13622D01*
X-4322D02*
X-622D01*
X678D02*
X4678D01*
X9778D02*
X21478D01*
X-18722Y-265861D02*
X-13622D01*
X-4322D02*
X-622D01*
X678D02*
X4678D01*
X9778D02*
X21578D01*
X-18722Y-265961D02*
X-13622D01*
X-4422D02*
X-722D01*
X778D02*
X4778D01*
X9778D02*
X21678D01*
X-18722Y-266061D02*
X-13622D01*
X-4422D02*
X-722D01*
X778D02*
X4778D01*
X9778D02*
X21778D01*
X-18722Y-266161D02*
X-13622D01*
X-4422D02*
X-722D01*
X778D02*
X4778D01*
X9778D02*
X21878D01*
X-18722Y-266261D02*
X-13622D01*
X-4522D02*
X-822D01*
X778D02*
X4878D01*
X9778D02*
X21978D01*
X-18722Y-266361D02*
X-13622D01*
X-4522D02*
X-822D01*
X878D02*
X4878D01*
X9778D02*
X21978D01*
X-18722Y-266461D02*
X-13622D01*
X-4522D02*
X-822D01*
X878D02*
X4878D01*
X9778D02*
X22078D01*
X-18722Y-266561D02*
X-13622D01*
X-4622D02*
X-822D01*
X878D02*
X4978D01*
X9778D02*
X22178D01*
X-18722Y-266661D02*
X-13622D01*
X-4622D02*
X-922D01*
X978D02*
X4978D01*
X9778D02*
X14478D01*
X16478D02*
X22178D01*
X-18722Y-266761D02*
X-13622D01*
X-4622D02*
X-922D01*
X978D02*
X4978D01*
X9778D02*
X14478D01*
X16778D02*
X22278D01*
X-18722Y-266861D02*
X-13622D01*
X-4722D02*
X-922D01*
X978D02*
X5078D01*
X9778D02*
X14478D01*
X16978D02*
X22278D01*
X-18722Y-266961D02*
X-13622D01*
X-4722D02*
X-1022D01*
X1078D02*
X5078D01*
X9778D02*
X14478D01*
X17078D02*
X22378D01*
X-18722Y-267061D02*
X-13622D01*
X-4722D02*
X-1022D01*
X1078D02*
X5078D01*
X9778D02*
X14478D01*
X17178D02*
X22378D01*
X-18722Y-267161D02*
X-13622D01*
X-4822D02*
X-1022D01*
X1078D02*
X5178D01*
X9778D02*
X14478D01*
X17278D02*
X22378D01*
X-18722Y-267261D02*
X-13622D01*
X-4822D02*
X-1022D01*
X1078D02*
X5178D01*
X9778D02*
X14478D01*
X17278D02*
X22478D01*
X-18722Y-267361D02*
X-13622D01*
X-4822D02*
X5178D01*
X9778D02*
X14478D01*
X17378D02*
X22478D01*
X-18722Y-267461D02*
X-13622D01*
X-4922D02*
X5278D01*
X9778D02*
X14478D01*
X17378D02*
X22478D01*
X-18722Y-267561D02*
X-13622D01*
X-4922D02*
X5278D01*
X9778D02*
X14478D01*
X17478D02*
X22578D01*
X-18722Y-267661D02*
X-13622D01*
X-4922D02*
X5278D01*
X9778D02*
X14478D01*
X17478D02*
X22578D01*
X-18722Y-267761D02*
X-13622D01*
X-5022D02*
X5378D01*
X9778D02*
X14478D01*
X17478D02*
X22578D01*
X-18722Y-267861D02*
X-13622D01*
X-5022D02*
X5378D01*
X9778D02*
X14478D01*
X17478D02*
X22578D01*
X-18722Y-267961D02*
X-13622D01*
X-5022D02*
X5378D01*
X9778D02*
X14478D01*
X17478D02*
X22578D01*
X-18722Y-268061D02*
X-13622D01*
X-5122D02*
X5478D01*
X9778D02*
X14478D01*
X17478D02*
X22578D01*
X-18722Y-268161D02*
X-13622D01*
X-5122D02*
X5478D01*
X9778D02*
X14478D01*
X17478D02*
X22678D01*
X-18722Y-268261D02*
X-13622D01*
X-5122D02*
X5478D01*
X9778D02*
X14478D01*
X17478D02*
X22678D01*
X-18722Y-268361D02*
X-13622D01*
X-5222D02*
X5578D01*
X9778D02*
X14478D01*
X17378D02*
X22678D01*
X-18722Y-268461D02*
X-13622D01*
X-5222D02*
X5578D01*
X9778D02*
X14478D01*
X17378D02*
X22678D01*
X-18722Y-268561D02*
X-13622D01*
X-5222D02*
X5578D01*
X9778D02*
X14478D01*
X17378D02*
X22678D01*
X-18722Y-268661D02*
X-13622D01*
X-5322D02*
X5678D01*
X9778D02*
X14478D01*
X17278D02*
X22678D01*
X-18722Y-268761D02*
X-13622D01*
X-5322D02*
X5678D01*
X9778D02*
X14478D01*
X17178D02*
X22678D01*
X-18722Y-268861D02*
X-13622D01*
X-5322D02*
X5678D01*
X9778D02*
X14478D01*
X17078D02*
X22678D01*
X-18722Y-268961D02*
X-13622D01*
X-5322D02*
X5678D01*
X9778D02*
X14478D01*
X16978D02*
X22578D01*
X-18722Y-269061D02*
X-7922D01*
X-5422D02*
X5778D01*
X9778D02*
X14478D01*
X16878D02*
X22578D01*
X-18722Y-269161D02*
X-7922D01*
X-5422D02*
X5778D01*
X9778D02*
X14478D01*
X16678D02*
X22578D01*
X-18722Y-269261D02*
X-8022D01*
X-5422D02*
X5778D01*
X9778D02*
X14478D01*
X16278D02*
X22578D01*
X-20122Y-269361D02*
X-8022D01*
X-5522D02*
X5878D01*
X8378D02*
X22578D01*
X-20122Y-269461D02*
X-8022D01*
X-5522D02*
X5878D01*
X8378D02*
X22578D01*
X-20122Y-269561D02*
X-8022D01*
X-5522D02*
X5878D01*
X8378D02*
X22578D01*
X-20122Y-269661D02*
X-8022D01*
X-5622D02*
X5978D01*
X8378D02*
X22478D01*
X-20122Y-269761D02*
X-8022D01*
X-5622D02*
X5978D01*
X8378D02*
X22478D01*
X-20122Y-269861D02*
X-8022D01*
X-5622D02*
X5978D01*
X8378D02*
X22478D01*
X-20122Y-269961D02*
X-8022D01*
X-5722D02*
X6078D01*
X8378D02*
X22478D01*
X-20122Y-270061D02*
X-8022D01*
X-6822D02*
X7178D01*
X8378D02*
X22378D01*
X-20122Y-270161D02*
X-8022D01*
X-6822D02*
X7178D01*
X8378D02*
X22378D01*
X-20122Y-270261D02*
X-8022D01*
X-6822D02*
X7178D01*
X8378D02*
X22378D01*
X-20122Y-270361D02*
X-8022D01*
X-6822D02*
X7178D01*
X8378D02*
X22278D01*
X-20122Y-270461D02*
X-8022D01*
X-6822D02*
X7178D01*
X8378D02*
X22278D01*
X-20122Y-270561D02*
X-8022D01*
X-6822D02*
X-2022D01*
X2078D02*
X7178D01*
X8378D02*
X22178D01*
X-20122Y-270661D02*
X-8022D01*
X-6822D02*
X-2022D01*
X2078D02*
X7178D01*
X8378D02*
X22178D01*
X-20122Y-270761D02*
X-8022D01*
X-6822D02*
X-2122D01*
X2078D02*
X7178D01*
X8378D02*
X22078D01*
X-20122Y-270861D02*
X-8022D01*
X-6822D02*
X-2122D01*
X2178D02*
X7178D01*
X8378D02*
X22078D01*
X-20122Y-270961D02*
X-8022D01*
X-6822D02*
X-2122D01*
X2178D02*
X7178D01*
X8378D02*
X21978D01*
X-20122Y-271061D02*
X-8022D01*
X-6822D02*
X-2122D01*
X2178D02*
X7178D01*
X8378D02*
X21878D01*
X-20122Y-271161D02*
X-8022D01*
X-6822D02*
X-2222D01*
X2278D02*
X7178D01*
X8378D02*
X21778D01*
X-20122Y-271261D02*
X-8022D01*
X-6822D02*
X-2222D01*
X2278D02*
X7178D01*
X8378D02*
X21778D01*
X-20122Y-271361D02*
X-8022D01*
X-6822D02*
X-2222D01*
X2278D02*
X7178D01*
X8378D02*
X21678D01*
X-20122Y-271461D02*
X-8022D01*
X-6822D02*
X-2322D01*
X2278D02*
X7178D01*
X8378D02*
X21578D01*
X-20122Y-271561D02*
X-8022D01*
X-6822D02*
X-2322D01*
X2378D02*
X7178D01*
X8378D02*
X21478D01*
X-20122Y-271661D02*
X-8022D01*
X-6822D02*
X-2322D01*
X2378D02*
X7178D01*
X8378D02*
X21378D01*
X-20122Y-271761D02*
X-8022D01*
X-6822D02*
X-2322D01*
X2378D02*
X7178D01*
X8378D02*
X21278D01*
X-20122Y-271861D02*
X-8022D01*
X-6822D02*
X-2422D01*
X2478D02*
X7178D01*
X8378D02*
X21078D01*
X-20122Y-271961D02*
X-8022D01*
X-6822D02*
X-2422D01*
X2478D02*
X7178D01*
X8378D02*
X20978D01*
X-20122Y-272061D02*
X-8022D01*
X-6822D02*
X-2422D01*
X2478D02*
X7178D01*
X8378D02*
X20778D01*
X-20122Y-272161D02*
X-8022D01*
X-6822D02*
X-2522D01*
X2478D02*
X7178D01*
X8378D02*
X20678D01*
X-20122Y-272261D02*
X-8022D01*
X-6822D02*
X-2522D01*
X2578D02*
X7178D01*
X8378D02*
X20478D01*
X-20122Y-272361D02*
X-8022D01*
X-6822D02*
X-2522D01*
X2578D02*
X7178D01*
X8378D02*
X20178D01*
X-20122Y-272461D02*
X-8022D01*
X-6822D02*
X-2522D01*
X2578D02*
X7178D01*
X8378D02*
X19978D01*
X-20122Y-272561D02*
X-8022D01*
X-6822D02*
X-2622D01*
X2678D02*
X7178D01*
X8378D02*
X19678D01*
X-20122Y-272661D02*
X-8022D01*
X-6822D02*
X-2622D01*
X2678D02*
X7178D01*
X8378D02*
X19278D01*
X-20122Y-272761D02*
X-8022D01*
X-6822D02*
X-2622D01*
X2678D02*
X7178D01*
X8378D02*
X18878D01*
X-20122Y-272861D02*
X-7922D01*
X-6822D02*
X-2622D01*
X2678D02*
X7178D01*
X8278D02*
X18078D01*
D37*
X456693Y-26673D02*
D03*
Y-20571D02*
D03*
X-456693Y-256791D02*
D03*
Y-262894D02*
D03*
X456693Y256791D02*
D03*
Y262894D02*
D03*
X-456693Y26673D02*
D03*
Y20571D02*
D03*
X456693Y-73917D02*
D03*
Y-67815D02*
D03*
X-456693Y-209547D02*
D03*
Y-215650D02*
D03*
X456693Y209547D02*
D03*
Y215650D02*
D03*
X-456693Y73917D02*
D03*
Y67815D02*
D03*
X456693Y-121161D02*
D03*
Y-115059D02*
D03*
X-456693Y-162303D02*
D03*
Y-168405D02*
D03*
X456693Y162303D02*
D03*
Y168405D02*
D03*
X-456693Y121161D02*
D03*
Y115059D02*
D03*
X456693Y-168405D02*
D03*
Y-162303D02*
D03*
X-456693Y-115059D02*
D03*
Y-121161D02*
D03*
X456693Y115059D02*
D03*
Y121161D02*
D03*
X-456693Y168405D02*
D03*
Y162303D02*
D03*
X456693Y-215650D02*
D03*
Y-209547D02*
D03*
X-456693Y-67815D02*
D03*
Y-73917D02*
D03*
X456693Y67815D02*
D03*
Y73917D02*
D03*
X-456693Y215650D02*
D03*
Y209547D02*
D03*
X456693Y-262894D02*
D03*
Y-256791D02*
D03*
X-456693Y-20571D02*
D03*
Y-26673D02*
D03*
X456693Y20571D02*
D03*
Y26673D02*
D03*
X-456693Y262894D02*
D03*
Y256791D02*
D03*
X377953Y-26673D02*
D03*
Y-20571D02*
D03*
X-377953Y-256791D02*
D03*
Y-262894D02*
D03*
X377953Y256791D02*
D03*
Y262894D02*
D03*
X-377953Y26673D02*
D03*
Y20571D02*
D03*
X377953Y-73917D02*
D03*
Y-67815D02*
D03*
X-377953Y-209547D02*
D03*
Y-215650D02*
D03*
X377953Y209547D02*
D03*
Y215650D02*
D03*
X-377953Y73917D02*
D03*
Y67815D02*
D03*
X377953Y-121161D02*
D03*
Y-115059D02*
D03*
X-377953Y-162303D02*
D03*
Y-168405D02*
D03*
X377953Y162303D02*
D03*
Y168405D02*
D03*
X-377953Y121161D02*
D03*
Y115059D02*
D03*
X377953Y-168405D02*
D03*
Y-162303D02*
D03*
X-377953Y-115059D02*
D03*
Y-121161D02*
D03*
X377953Y115059D02*
D03*
Y121161D02*
D03*
X-377953Y168405D02*
D03*
Y162303D02*
D03*
X377953Y-215650D02*
D03*
Y-209547D02*
D03*
X-377953Y-67815D02*
D03*
Y-73917D02*
D03*
X377953Y67815D02*
D03*
Y73917D02*
D03*
X-377953Y215650D02*
D03*
Y209547D02*
D03*
X377953Y-262894D02*
D03*
Y-256791D02*
D03*
X-377953Y-20571D02*
D03*
Y-26673D02*
D03*
X377953Y20571D02*
D03*
Y26673D02*
D03*
X-377953Y262894D02*
D03*
Y256791D02*
D03*
X299213Y-26673D02*
D03*
Y-20571D02*
D03*
X-299213Y-256791D02*
D03*
Y-262894D02*
D03*
X299213Y256791D02*
D03*
Y262894D02*
D03*
X-299213Y26673D02*
D03*
Y20571D02*
D03*
X299213Y-73917D02*
D03*
Y-67815D02*
D03*
X-299213Y-209547D02*
D03*
Y-215650D02*
D03*
X299213Y209547D02*
D03*
Y215650D02*
D03*
X-299213Y73917D02*
D03*
Y67815D02*
D03*
X299213Y-121161D02*
D03*
Y-115059D02*
D03*
X-299213Y-162303D02*
D03*
Y-168405D02*
D03*
X299213Y162303D02*
D03*
Y168405D02*
D03*
X-299213Y121161D02*
D03*
Y115059D02*
D03*
X299213Y-168405D02*
D03*
Y-162303D02*
D03*
X-299213Y-115059D02*
D03*
Y-121161D02*
D03*
X299213Y115059D02*
D03*
Y121161D02*
D03*
X-299213Y168405D02*
D03*
Y162303D02*
D03*
X299213Y-215650D02*
D03*
Y-209547D02*
D03*
X-299213Y-67815D02*
D03*
Y-73917D02*
D03*
X299213Y67815D02*
D03*
Y73917D02*
D03*
X-299213Y215650D02*
D03*
Y209547D02*
D03*
X299213Y-262894D02*
D03*
Y-256791D02*
D03*
X-299213Y-20571D02*
D03*
Y-26673D02*
D03*
X299213Y20571D02*
D03*
Y26673D02*
D03*
X-299213Y262894D02*
D03*
Y256791D02*
D03*
X220472Y-26673D02*
D03*
Y-20571D02*
D03*
X-220472Y-256791D02*
D03*
Y-262894D02*
D03*
X220472Y256791D02*
D03*
Y262894D02*
D03*
X-220472Y26673D02*
D03*
Y20571D02*
D03*
X220472Y-73917D02*
D03*
Y-67815D02*
D03*
X-220472Y-209547D02*
D03*
Y-215650D02*
D03*
X220472Y209547D02*
D03*
Y215650D02*
D03*
X-220472Y73917D02*
D03*
Y67815D02*
D03*
X220472Y-121161D02*
D03*
Y-115059D02*
D03*
X-220472Y-162303D02*
D03*
Y-168405D02*
D03*
X220472Y162303D02*
D03*
Y168405D02*
D03*
X-220472Y121161D02*
D03*
Y115059D02*
D03*
X220472Y-168405D02*
D03*
Y-162303D02*
D03*
X-220472Y-115059D02*
D03*
Y-121161D02*
D03*
X220472Y115059D02*
D03*
Y121161D02*
D03*
X-220472Y168405D02*
D03*
Y162303D02*
D03*
X220472Y-215650D02*
D03*
Y-209547D02*
D03*
X-220472Y-67815D02*
D03*
Y-73917D02*
D03*
X220472Y67815D02*
D03*
Y73917D02*
D03*
X-220472Y215650D02*
D03*
Y209547D02*
D03*
X220472Y-262894D02*
D03*
Y-256791D02*
D03*
X-220472Y-20571D02*
D03*
Y-26673D02*
D03*
X220472Y20571D02*
D03*
Y26673D02*
D03*
X-220472Y262894D02*
D03*
Y256791D02*
D03*
X141732Y-26673D02*
D03*
Y-20571D02*
D03*
X-141732Y-256791D02*
D03*
Y-262894D02*
D03*
X141732Y256791D02*
D03*
Y262894D02*
D03*
X-141732Y26673D02*
D03*
Y20571D02*
D03*
X141732Y-73917D02*
D03*
Y-67815D02*
D03*
X-141732Y-209547D02*
D03*
Y-215650D02*
D03*
X141732Y209547D02*
D03*
Y215650D02*
D03*
X-141732Y73917D02*
D03*
Y67815D02*
D03*
X141732Y-121161D02*
D03*
Y-115059D02*
D03*
X-141732Y-162303D02*
D03*
Y-168405D02*
D03*
X141732Y162303D02*
D03*
Y168405D02*
D03*
X-141732Y121161D02*
D03*
Y115059D02*
D03*
X141732Y-168405D02*
D03*
Y-162303D02*
D03*
X-141732Y-115059D02*
D03*
Y-121161D02*
D03*
X141732Y115059D02*
D03*
Y121161D02*
D03*
X-141732Y168405D02*
D03*
Y162303D02*
D03*
X141732Y-215650D02*
D03*
Y-209547D02*
D03*
X-141732Y-67815D02*
D03*
Y-73917D02*
D03*
X141732Y67815D02*
D03*
Y73917D02*
D03*
X-141732Y215650D02*
D03*
Y209547D02*
D03*
X141732Y-262894D02*
D03*
Y-256791D02*
D03*
X-141732Y-20571D02*
D03*
Y-26673D02*
D03*
X141732Y20571D02*
D03*
Y26673D02*
D03*
X-141732Y262894D02*
D03*
Y256791D02*
D03*
X62992Y-26673D02*
D03*
Y-20571D02*
D03*
X-62992Y-256791D02*
D03*
Y-262894D02*
D03*
X62992Y256791D02*
D03*
Y262894D02*
D03*
X-62992Y26673D02*
D03*
Y20571D02*
D03*
X62992Y-73917D02*
D03*
Y-67815D02*
D03*
X-62992Y-209547D02*
D03*
Y-215650D02*
D03*
X62992Y209547D02*
D03*
Y215650D02*
D03*
X-62992Y73917D02*
D03*
Y67815D02*
D03*
X62992Y-121161D02*
D03*
Y-115059D02*
D03*
X-62992Y-162303D02*
D03*
Y-168405D02*
D03*
X62992Y162303D02*
D03*
Y168405D02*
D03*
X-62992Y121161D02*
D03*
Y115059D02*
D03*
X62992Y-168405D02*
D03*
Y-162303D02*
D03*
X-62992Y-115059D02*
D03*
Y-121161D02*
D03*
X62992Y115059D02*
D03*
Y121161D02*
D03*
X-62992Y168405D02*
D03*
Y162303D02*
D03*
X62992Y-215650D02*
D03*
Y-209547D02*
D03*
X-62992Y-67815D02*
D03*
Y-73917D02*
D03*
X62992Y67815D02*
D03*
Y73917D02*
D03*
X-62992Y215650D02*
D03*
Y209547D02*
D03*
X62992Y-262894D02*
D03*
Y-256791D02*
D03*
X-62992Y-20571D02*
D03*
Y-26673D02*
D03*
X62992Y20571D02*
D03*
Y26673D02*
D03*
X-62992Y262894D02*
D03*
Y256791D02*
D03*
D38*
X462894Y-28051D02*
D03*
X450492D02*
D03*
X462894Y-19193D02*
D03*
X450492D02*
D03*
X-462894Y-255413D02*
D03*
X-450492D02*
D03*
X-462894Y-264272D02*
D03*
X-450492D02*
D03*
X462894Y255413D02*
D03*
X450492D02*
D03*
X462894Y264272D02*
D03*
X450492D02*
D03*
X-462894Y28051D02*
D03*
X-450492D02*
D03*
X-462894Y19193D02*
D03*
X-450492D02*
D03*
X462894Y-75295D02*
D03*
X450492D02*
D03*
X462894Y-66437D02*
D03*
X450492D02*
D03*
X-462894Y-208169D02*
D03*
X-450492D02*
D03*
X-462894Y-217027D02*
D03*
X-450492D02*
D03*
X462894Y208169D02*
D03*
X450492D02*
D03*
X462894Y217027D02*
D03*
X450492D02*
D03*
X-462894Y75295D02*
D03*
X-450492D02*
D03*
X-462894Y66437D02*
D03*
X-450492D02*
D03*
X462894Y-122539D02*
D03*
X450492D02*
D03*
X462894Y-113681D02*
D03*
X450492D02*
D03*
X-462894Y-160925D02*
D03*
X-450492D02*
D03*
X-462894Y-169783D02*
D03*
X-450492D02*
D03*
X462894Y160925D02*
D03*
X450492D02*
D03*
X462894Y169783D02*
D03*
X450492D02*
D03*
X-462894Y122539D02*
D03*
X-450492D02*
D03*
X-462894Y113681D02*
D03*
X-450492D02*
D03*
X462894Y-169783D02*
D03*
X450492D02*
D03*
X462894Y-160925D02*
D03*
X450492D02*
D03*
X-462894Y-113681D02*
D03*
X-450492D02*
D03*
X-462894Y-122539D02*
D03*
X-450492D02*
D03*
X462894Y113681D02*
D03*
X450492D02*
D03*
X462894Y122539D02*
D03*
X450492D02*
D03*
X-462894Y169783D02*
D03*
X-450492D02*
D03*
X-462894Y160925D02*
D03*
X-450492D02*
D03*
X462894Y-217028D02*
D03*
X450492D02*
D03*
X462894Y-208169D02*
D03*
X450492D02*
D03*
X-462894Y-66437D02*
D03*
X-450492D02*
D03*
X-462894Y-75295D02*
D03*
X-450492D02*
D03*
X462894Y66437D02*
D03*
X450492D02*
D03*
X462894Y75295D02*
D03*
X450492D02*
D03*
X-462894Y217028D02*
D03*
X-450492D02*
D03*
X-462894Y208169D02*
D03*
X-450492D02*
D03*
X462894Y-264272D02*
D03*
X450492D02*
D03*
X462894Y-255413D02*
D03*
X450492D02*
D03*
X-462894Y-19193D02*
D03*
X-450492D02*
D03*
X-462894Y-28051D02*
D03*
X-450492D02*
D03*
X462894Y19193D02*
D03*
X450492D02*
D03*
X462894Y28051D02*
D03*
X450492D02*
D03*
X-462894Y264272D02*
D03*
X-450492D02*
D03*
X-462894Y255413D02*
D03*
X-450492D02*
D03*
X384154Y-28051D02*
D03*
X371752D02*
D03*
X384154Y-19193D02*
D03*
X371752D02*
D03*
X-384154Y-255413D02*
D03*
X-371752D02*
D03*
X-384154Y-264272D02*
D03*
X-371752D02*
D03*
X384154Y255413D02*
D03*
X371752D02*
D03*
X384154Y264272D02*
D03*
X371752D02*
D03*
X-384154Y28051D02*
D03*
X-371752D02*
D03*
X-384154Y19193D02*
D03*
X-371752D02*
D03*
X384154Y-75295D02*
D03*
X371752D02*
D03*
X384154Y-66437D02*
D03*
X371752D02*
D03*
X-384154Y-208169D02*
D03*
X-371752D02*
D03*
X-384154Y-217027D02*
D03*
X-371752D02*
D03*
X384154Y208169D02*
D03*
X371752D02*
D03*
X384154Y217027D02*
D03*
X371752D02*
D03*
X-384154Y75295D02*
D03*
X-371752D02*
D03*
X-384154Y66437D02*
D03*
X-371752D02*
D03*
X384154Y-122539D02*
D03*
X371752D02*
D03*
X384154Y-113681D02*
D03*
X371752D02*
D03*
X-384154Y-160925D02*
D03*
X-371752D02*
D03*
X-384154Y-169783D02*
D03*
X-371752D02*
D03*
X384154Y160925D02*
D03*
X371752D02*
D03*
X384154Y169783D02*
D03*
X371752D02*
D03*
X-384154Y122539D02*
D03*
X-371752D02*
D03*
X-384154Y113681D02*
D03*
X-371752D02*
D03*
X384154Y-169783D02*
D03*
X371752D02*
D03*
X384154Y-160925D02*
D03*
X371752D02*
D03*
X-384154Y-113681D02*
D03*
X-371752D02*
D03*
X-384154Y-122539D02*
D03*
X-371752D02*
D03*
X384154Y113681D02*
D03*
X371752D02*
D03*
X384154Y122539D02*
D03*
X371752D02*
D03*
X-384154Y169783D02*
D03*
X-371752D02*
D03*
X-384154Y160925D02*
D03*
X-371752D02*
D03*
X384154Y-217028D02*
D03*
X371752D02*
D03*
X384154Y-208169D02*
D03*
X371752D02*
D03*
X-384154Y-66437D02*
D03*
X-371752D02*
D03*
X-384154Y-75295D02*
D03*
X-371752D02*
D03*
X384154Y66437D02*
D03*
X371752D02*
D03*
X384154Y75295D02*
D03*
X371752D02*
D03*
X-384154Y217028D02*
D03*
X-371752D02*
D03*
X-384154Y208169D02*
D03*
X-371752D02*
D03*
X384154Y-264272D02*
D03*
X371752D02*
D03*
X384154Y-255413D02*
D03*
X371752D02*
D03*
X-384154Y-19193D02*
D03*
X-371752D02*
D03*
X-384154Y-28051D02*
D03*
X-371752D02*
D03*
X384154Y19193D02*
D03*
X371752D02*
D03*
X384154Y28051D02*
D03*
X371752D02*
D03*
X-384154Y264272D02*
D03*
X-371752D02*
D03*
X-384154Y255413D02*
D03*
X-371752D02*
D03*
X305413Y-28051D02*
D03*
X293012D02*
D03*
X305413Y-19193D02*
D03*
X293012D02*
D03*
X-305413Y-255413D02*
D03*
X-293012D02*
D03*
X-305413Y-264272D02*
D03*
X-293012D02*
D03*
X305413Y255413D02*
D03*
X293012D02*
D03*
X305413Y264272D02*
D03*
X293012D02*
D03*
X-305413Y28051D02*
D03*
X-293012D02*
D03*
X-305413Y19193D02*
D03*
X-293012D02*
D03*
X305413Y-75295D02*
D03*
X293012D02*
D03*
X305413Y-66437D02*
D03*
X293012D02*
D03*
X-305413Y-208169D02*
D03*
X-293012D02*
D03*
X-305413Y-217027D02*
D03*
X-293012D02*
D03*
X305413Y208169D02*
D03*
X293012D02*
D03*
X305413Y217027D02*
D03*
X293012D02*
D03*
X-305413Y75295D02*
D03*
X-293012D02*
D03*
X-305413Y66437D02*
D03*
X-293012D02*
D03*
X305413Y-122539D02*
D03*
X293012D02*
D03*
X305413Y-113681D02*
D03*
X293012D02*
D03*
X-305413Y-160925D02*
D03*
X-293012D02*
D03*
X-305413Y-169783D02*
D03*
X-293012D02*
D03*
X305413Y160925D02*
D03*
X293012D02*
D03*
X305413Y169783D02*
D03*
X293012D02*
D03*
X-305413Y122539D02*
D03*
X-293012D02*
D03*
X-305413Y113681D02*
D03*
X-293012D02*
D03*
X305413Y-169783D02*
D03*
X293012D02*
D03*
X305413Y-160925D02*
D03*
X293012D02*
D03*
X-305413Y-113681D02*
D03*
X-293012D02*
D03*
X-305413Y-122539D02*
D03*
X-293012D02*
D03*
X305413Y113681D02*
D03*
X293012D02*
D03*
X305413Y122539D02*
D03*
X293012D02*
D03*
X-305413Y169783D02*
D03*
X-293012D02*
D03*
X-305413Y160925D02*
D03*
X-293012D02*
D03*
X305413Y-217028D02*
D03*
X293012D02*
D03*
X305413Y-208169D02*
D03*
X293012D02*
D03*
X-305413Y-66437D02*
D03*
X-293012D02*
D03*
X-305413Y-75295D02*
D03*
X-293012D02*
D03*
X305413Y66437D02*
D03*
X293012D02*
D03*
X305413Y75295D02*
D03*
X293012D02*
D03*
X-305413Y217028D02*
D03*
X-293012D02*
D03*
X-305413Y208169D02*
D03*
X-293012D02*
D03*
X305413Y-264272D02*
D03*
X293012D02*
D03*
X305413Y-255413D02*
D03*
X293012D02*
D03*
X-305413Y-19193D02*
D03*
X-293012D02*
D03*
X-305413Y-28051D02*
D03*
X-293012D02*
D03*
X305413Y19193D02*
D03*
X293012D02*
D03*
X305413Y28051D02*
D03*
X293012D02*
D03*
X-305413Y264272D02*
D03*
X-293012D02*
D03*
X-305413Y255413D02*
D03*
X-293012D02*
D03*
X226673Y-28051D02*
D03*
X214272D02*
D03*
X226673Y-19193D02*
D03*
X214272D02*
D03*
X-226673Y-255413D02*
D03*
X-214272D02*
D03*
X-226673Y-264272D02*
D03*
X-214272D02*
D03*
X226673Y255413D02*
D03*
X214272D02*
D03*
X226673Y264272D02*
D03*
X214272D02*
D03*
X-226673Y28051D02*
D03*
X-214272D02*
D03*
X-226673Y19193D02*
D03*
X-214272D02*
D03*
X226673Y-75295D02*
D03*
X214272D02*
D03*
X226673Y-66437D02*
D03*
X214272D02*
D03*
X-226673Y-208169D02*
D03*
X-214272D02*
D03*
X-226673Y-217027D02*
D03*
X-214272D02*
D03*
X226673Y208169D02*
D03*
X214272D02*
D03*
X226673Y217027D02*
D03*
X214272D02*
D03*
X-226673Y75295D02*
D03*
X-214272D02*
D03*
X-226673Y66437D02*
D03*
X-214272D02*
D03*
X226673Y-122539D02*
D03*
X214272D02*
D03*
X226673Y-113681D02*
D03*
X214272D02*
D03*
X-226673Y-160925D02*
D03*
X-214272D02*
D03*
X-226673Y-169783D02*
D03*
X-214272D02*
D03*
X226673Y160925D02*
D03*
X214272D02*
D03*
X226673Y169783D02*
D03*
X214272D02*
D03*
X-226673Y122539D02*
D03*
X-214272D02*
D03*
X-226673Y113681D02*
D03*
X-214272D02*
D03*
X226673Y-169783D02*
D03*
X214272D02*
D03*
X226673Y-160925D02*
D03*
X214272D02*
D03*
X-226673Y-113681D02*
D03*
X-214272D02*
D03*
X-226673Y-122539D02*
D03*
X-214272D02*
D03*
X226673Y113681D02*
D03*
X214272D02*
D03*
X226673Y122539D02*
D03*
X214272D02*
D03*
X-226673Y169783D02*
D03*
X-214272D02*
D03*
X-226673Y160925D02*
D03*
X-214272D02*
D03*
X226673Y-217028D02*
D03*
X214272D02*
D03*
X226673Y-208169D02*
D03*
X214272D02*
D03*
X-226673Y-66437D02*
D03*
X-214272D02*
D03*
X-226673Y-75295D02*
D03*
X-214272D02*
D03*
X226673Y66437D02*
D03*
X214272D02*
D03*
X226673Y75295D02*
D03*
X214272D02*
D03*
X-226673Y217028D02*
D03*
X-214272D02*
D03*
X-226673Y208169D02*
D03*
X-214272D02*
D03*
X226673Y-264272D02*
D03*
X214272D02*
D03*
X226673Y-255413D02*
D03*
X214272D02*
D03*
X-226673Y-19193D02*
D03*
X-214272D02*
D03*
X-226673Y-28051D02*
D03*
X-214272D02*
D03*
X226673Y19193D02*
D03*
X214272D02*
D03*
X226673Y28051D02*
D03*
X214272D02*
D03*
X-226673Y264272D02*
D03*
X-214272D02*
D03*
X-226673Y255413D02*
D03*
X-214272D02*
D03*
X147933Y-28051D02*
D03*
X135531D02*
D03*
X147933Y-19193D02*
D03*
X135531D02*
D03*
X-147933Y-255413D02*
D03*
X-135531D02*
D03*
X-147933Y-264272D02*
D03*
X-135531D02*
D03*
X147933Y255413D02*
D03*
X135531D02*
D03*
X147933Y264272D02*
D03*
X135531D02*
D03*
X-147933Y28051D02*
D03*
X-135531D02*
D03*
X-147933Y19193D02*
D03*
X-135531D02*
D03*
X147933Y-75295D02*
D03*
X135531D02*
D03*
X147933Y-66437D02*
D03*
X135531D02*
D03*
X-147933Y-208169D02*
D03*
X-135531D02*
D03*
X-147933Y-217027D02*
D03*
X-135531D02*
D03*
X147933Y208169D02*
D03*
X135531D02*
D03*
X147933Y217027D02*
D03*
X135531D02*
D03*
X-147933Y75295D02*
D03*
X-135531D02*
D03*
X-147933Y66437D02*
D03*
X-135531D02*
D03*
X147933Y-122539D02*
D03*
X135531D02*
D03*
X147933Y-113681D02*
D03*
X135531D02*
D03*
X-147933Y-160925D02*
D03*
X-135531D02*
D03*
X-147933Y-169783D02*
D03*
X-135531D02*
D03*
X147933Y160925D02*
D03*
X135531D02*
D03*
X147933Y169783D02*
D03*
X135531D02*
D03*
X-147933Y122539D02*
D03*
X-135531D02*
D03*
X-147933Y113681D02*
D03*
X-135531D02*
D03*
X147933Y-169783D02*
D03*
X135531D02*
D03*
X147933Y-160925D02*
D03*
X135531D02*
D03*
X-147933Y-113681D02*
D03*
X-135531D02*
D03*
X-147933Y-122539D02*
D03*
X-135531D02*
D03*
X147933Y113681D02*
D03*
X135531D02*
D03*
X147933Y122539D02*
D03*
X135531D02*
D03*
X-147933Y169783D02*
D03*
X-135531D02*
D03*
X-147933Y160925D02*
D03*
X-135531D02*
D03*
X147933Y-217028D02*
D03*
X135531D02*
D03*
X147933Y-208169D02*
D03*
X135531D02*
D03*
X-147933Y-66437D02*
D03*
X-135531D02*
D03*
X-147933Y-75295D02*
D03*
X-135531D02*
D03*
X147933Y66437D02*
D03*
X135531D02*
D03*
X147933Y75295D02*
D03*
X135531D02*
D03*
X-147933Y217028D02*
D03*
X-135531D02*
D03*
X-147933Y208169D02*
D03*
X-135531D02*
D03*
X147933Y-264272D02*
D03*
X135531D02*
D03*
X147933Y-255413D02*
D03*
X135531D02*
D03*
X-147933Y-19193D02*
D03*
X-135531D02*
D03*
X-147933Y-28051D02*
D03*
X-135531D02*
D03*
X147933Y19193D02*
D03*
X135531D02*
D03*
X147933Y28051D02*
D03*
X135531D02*
D03*
X-147933Y264272D02*
D03*
X-135531D02*
D03*
X-147933Y255413D02*
D03*
X-135531D02*
D03*
X69193Y-28051D02*
D03*
X56791D02*
D03*
X69193Y-19193D02*
D03*
X56791D02*
D03*
X-69193Y-255413D02*
D03*
X-56791D02*
D03*
X-69193Y-264272D02*
D03*
X-56791D02*
D03*
X69193Y255413D02*
D03*
X56791D02*
D03*
X69193Y264272D02*
D03*
X56791D02*
D03*
X-69193Y28051D02*
D03*
X-56791D02*
D03*
X-69193Y19193D02*
D03*
X-56791D02*
D03*
X69193Y-75295D02*
D03*
X56791D02*
D03*
X69193Y-66437D02*
D03*
X56791D02*
D03*
X-69193Y-208169D02*
D03*
X-56791D02*
D03*
X-69193Y-217027D02*
D03*
X-56791D02*
D03*
X69193Y208169D02*
D03*
X56791D02*
D03*
X69193Y217027D02*
D03*
X56791D02*
D03*
X-69193Y75295D02*
D03*
X-56791D02*
D03*
X-69193Y66437D02*
D03*
X-56791D02*
D03*
X69193Y-122539D02*
D03*
X56791D02*
D03*
X69193Y-113681D02*
D03*
X56791D02*
D03*
X-69193Y-160925D02*
D03*
X-56791D02*
D03*
X-69193Y-169783D02*
D03*
X-56791D02*
D03*
X69193Y160925D02*
D03*
X56791D02*
D03*
X69193Y169783D02*
D03*
X56791D02*
D03*
X-69193Y122539D02*
D03*
X-56791D02*
D03*
X-69193Y113681D02*
D03*
X-56791D02*
D03*
X69193Y-169783D02*
D03*
X56791D02*
D03*
X69193Y-160925D02*
D03*
X56791D02*
D03*
X-69193Y-113681D02*
D03*
X-56791D02*
D03*
X-69193Y-122539D02*
D03*
X-56791D02*
D03*
X69193Y113681D02*
D03*
X56791D02*
D03*
X69193Y122539D02*
D03*
X56791D02*
D03*
X-69193Y169783D02*
D03*
X-56791D02*
D03*
X-69193Y160925D02*
D03*
X-56791D02*
D03*
X69193Y-217028D02*
D03*
X56791D02*
D03*
X69193Y-208169D02*
D03*
X56791D02*
D03*
X-69193Y-66437D02*
D03*
X-56791D02*
D03*
X-69193Y-75295D02*
D03*
X-56791D02*
D03*
X69193Y66437D02*
D03*
X56791D02*
D03*
X69193Y75295D02*
D03*
X56791D02*
D03*
X-69193Y217028D02*
D03*
X-56791D02*
D03*
X-69193Y208169D02*
D03*
X-56791D02*
D03*
X69193Y-264272D02*
D03*
X56791D02*
D03*
X69193Y-255413D02*
D03*
X56791D02*
D03*
X-69193Y-19193D02*
D03*
X-56791D02*
D03*
X-69193Y-28051D02*
D03*
X-56791D02*
D03*
X69193Y19193D02*
D03*
X56791D02*
D03*
X69193Y28051D02*
D03*
X56791D02*
D03*
X-69193Y264272D02*
D03*
X-56791D02*
D03*
X-69193Y255413D02*
D03*
X-56791D02*
D03*
D39*
X10138Y233071D02*
D03*
D40*
X38091Y268307D02*
D03*
X-12697D02*
D03*
D41*
X-31594Y261910D02*
D03*
X-41437D02*
D03*
D42*
X-31594Y289862D02*
D03*
X-41437D02*
D03*
D43*
X-0Y-289567D02*
D03*
D44*
X-3937Y-277362D02*
D03*
X3937D02*
D03*
D45*
X10433Y138681D02*
D03*
X34055D02*
D03*
X-41361Y209679D02*
D03*
X-17739D02*
D03*
X17717Y77362D02*
D03*
X41339D02*
D03*
X-41335Y-73976D02*
D03*
X-17713D02*
D03*
X17739Y-202691D02*
D03*
X41361D02*
D03*
X-40748Y148819D02*
D03*
X-17126D02*
D03*
X17717Y60532D02*
D03*
X41339D02*
D03*
D46*
X-25197Y228445D02*
D03*
X-21260D02*
D03*
X-25197Y222638D02*
D03*
X-21260D02*
D03*
D47*
X3744Y-164157D02*
D03*
Y-179905D02*
D03*
X-3718Y-112509D02*
D03*
Y-96761D02*
D03*
X3721Y115895D02*
D03*
Y100147D02*
D03*
X-3744Y171146D02*
D03*
Y186894D02*
D03*
D48*
X1283Y-201840D02*
D03*
Y-190423D02*
D03*
X9274Y-74826D02*
D03*
Y-86243D02*
D03*
X1261Y78213D02*
D03*
Y89630D02*
D03*
X-1280Y212402D02*
D03*
Y200984D02*
D03*
D49*
X9865Y-202691D02*
D03*
Y-196785D02*
D03*
X47244Y-182579D02*
D03*
Y-188484D02*
D03*
X689Y-79035D02*
D03*
Y-84941D02*
D03*
X-47218Y-94087D02*
D03*
Y-88182D02*
D03*
X9843Y77362D02*
D03*
Y83268D02*
D03*
X47221Y97474D02*
D03*
Y91568D02*
D03*
X-9865Y209679D02*
D03*
Y203773D02*
D03*
X-47244Y189567D02*
D03*
Y195472D02*
D03*
D50*
X25518Y-185820D02*
D03*
X-25492Y-90846D02*
D03*
X25495Y94233D02*
D03*
X-25518Y192808D02*
D03*
D51*
X17742Y-181981D02*
D03*
Y-184540D02*
D03*
Y-187099D02*
D03*
Y-189658D02*
D03*
X33294Y-181981D02*
D03*
Y-184540D02*
D03*
Y-187099D02*
D03*
Y-189658D02*
D03*
X-17717Y-94685D02*
D03*
Y-92126D02*
D03*
Y-89567D02*
D03*
Y-87008D02*
D03*
X-33268Y-94685D02*
D03*
Y-92126D02*
D03*
Y-89567D02*
D03*
Y-87008D02*
D03*
X17720Y98072D02*
D03*
Y95513D02*
D03*
Y92953D02*
D03*
Y90395D02*
D03*
X33271Y98072D02*
D03*
Y95513D02*
D03*
Y92953D02*
D03*
Y90395D02*
D03*
X-17742Y188969D02*
D03*
Y191528D02*
D03*
Y194087D02*
D03*
Y196646D02*
D03*
X-33294Y188969D02*
D03*
Y191528D02*
D03*
Y194087D02*
D03*
Y196646D02*
D03*
D52*
X34967Y-164166D02*
D03*
X16463D02*
D03*
X-34941Y-112500D02*
D03*
X-16437D02*
D03*
X34944Y115887D02*
D03*
X16440D02*
D03*
X-34967Y171154D02*
D03*
X-16463D02*
D03*
D53*
X41444Y-179363D02*
D03*
Y-183300D02*
D03*
Y-187663D02*
D03*
Y-191600D02*
D03*
X-41418Y-97303D02*
D03*
Y-93366D02*
D03*
Y-89003D02*
D03*
Y-85066D02*
D03*
X41421Y100690D02*
D03*
Y96753D02*
D03*
Y92390D02*
D03*
Y88453D02*
D03*
X-41444Y186351D02*
D03*
Y190288D02*
D03*
Y194651D02*
D03*
Y198588D02*
D03*
X35531Y-289370D02*
D03*
Y-285433D02*
D03*
X35630Y-277067D02*
D03*
Y-281004D02*
D03*
D54*
X20768Y210433D02*
D03*
Y183268D02*
D03*
D55*
X255906Y0D02*
D03*
X-255906D02*
D03*
X-413681Y236122D02*
D03*
X413091Y-236319D02*
D03*
X-413681D02*
D03*
X413386Y236221D02*
D03*
X98425Y98425D02*
D03*
Y-98425D02*
D03*
X-98425D02*
D03*
Y98425D02*
D03*
X0Y0D02*
D03*
D56*
X12697Y283268D02*
D03*
M02*
