%FSLAX25Y25*%
%MOIN*%
G70*
G01*
G75*
%ADD10C,0.00591*%
%ADD11R,0.11024X0.04921*%
%ADD12R,0.01378X0.02165*%
%ADD13R,0.12992X0.17323*%
%ADD14R,0.15354X0.24410*%
%ADD15R,0.04724X0.07087*%
%ADD16R,0.05906X0.07087*%
%ADD17R,0.04724X0.04724*%
%ADD18R,0.04724X0.13386*%
%ADD19R,0.01969X0.02362*%
%ADD20R,0.06693X0.09843*%
%ADD21R,0.06890X0.04724*%
%ADD22R,0.03543X0.02362*%
%ADD23R,0.06693X0.07874*%
%ADD24R,0.05315X0.01772*%
%ADD25R,0.06299X0.22441*%
%ADD26R,0.02362X0.01969*%
%ADD27R,0.12992X0.09843*%
%ADD28C,0.01772*%
%ADD29C,0.00100*%
%ADD30C,0.15748*%
%ADD31C,0.07874*%
%ADD32C,0.00984*%
%ADD33C,0.00787*%
%ADD34C,0.01000*%
G36*
X52264Y259790D02*
X50477D01*
X50416Y259785D01*
X50344Y259779D01*
X50271Y259768D01*
X50205Y259751D01*
X50144Y259735D01*
X50138D01*
X50121Y259723D01*
X50094Y259707D01*
X50060Y259690D01*
X50027Y259663D01*
X49988Y259629D01*
X49949Y259585D01*
X49916Y259535D01*
X49911Y259529D01*
X49900Y259513D01*
X49888Y259479D01*
X49872Y259440D01*
X49855Y259396D01*
X49838Y259341D01*
X49833Y259274D01*
X49827Y259207D01*
Y259202D01*
Y259196D01*
Y259180D01*
X49833Y259157D01*
X49838Y259102D01*
X49850Y259030D01*
X49877Y258952D01*
X49911Y258863D01*
X49955Y258774D01*
X50022Y258691D01*
X50033Y258680D01*
X50060Y258658D01*
X50083Y258641D01*
X50110Y258625D01*
X50144Y258602D01*
X50182Y258586D01*
X50227Y258564D01*
X50282Y258541D01*
X50344Y258525D01*
X50410Y258508D01*
X50482Y258497D01*
X50560Y258486D01*
X50654Y258475D01*
X52264D01*
Y258003D01*
X49478D01*
Y258425D01*
X49877D01*
X49872Y258430D01*
X49855Y258441D01*
X49833Y258458D01*
X49805Y258480D01*
X49772Y258514D01*
X49733Y258553D01*
X49689Y258597D01*
X49644Y258652D01*
X49605Y258708D01*
X49561Y258774D01*
X49522Y258847D01*
X49489Y258924D01*
X49461Y259013D01*
X49439Y259102D01*
X49422Y259202D01*
X49417Y259307D01*
Y259313D01*
Y259318D01*
Y259352D01*
X49422Y259396D01*
X49428Y259457D01*
X49439Y259529D01*
X49455Y259607D01*
X49478Y259690D01*
X49511Y259768D01*
X49516Y259779D01*
X49528Y259801D01*
X49544Y259840D01*
X49572Y259885D01*
X49605Y259940D01*
X49650Y259990D01*
X49694Y260040D01*
X49750Y260084D01*
X49755Y260090D01*
X49777Y260101D01*
X49805Y260118D01*
X49844Y260145D01*
X49900Y260168D01*
X49955Y260190D01*
X50022Y260217D01*
X50094Y260234D01*
X50099D01*
X50121Y260240D01*
X50155Y260245D01*
X50199Y260251D01*
X50266D01*
X50344Y260256D01*
X50438Y260262D01*
X52264D01*
Y259790D01*
D02*
G37*
G36*
Y256810D02*
X49478D01*
Y257281D01*
X52264D01*
Y256810D01*
D02*
G37*
G36*
X48961D02*
X48423D01*
Y257281D01*
X48961D01*
Y256810D01*
D02*
G37*
G36*
X52264Y265595D02*
X51725D01*
Y266134D01*
X52264D01*
Y265595D01*
D02*
G37*
G36*
X50016D02*
X49478D01*
Y266134D01*
X50016D01*
Y265595D01*
D02*
G37*
G36*
X52042Y263253D02*
X52103D01*
X52169Y263248D01*
X52242Y263242D01*
X52391Y263226D01*
X52547Y263203D01*
X52619Y263187D01*
X52686Y263170D01*
X52747Y263148D01*
X52802Y263126D01*
X52808D01*
X52813Y263120D01*
X52846Y263098D01*
X52896Y263070D01*
X52957Y263026D01*
X53024Y262965D01*
X53096Y262893D01*
X53168Y262804D01*
X53229Y262704D01*
Y262698D01*
X53235Y262693D01*
X53246Y262676D01*
X53252Y262654D01*
X53268Y262626D01*
X53279Y262593D01*
X53307Y262510D01*
X53341Y262410D01*
X53363Y262288D01*
X53385Y262149D01*
X53390Y261999D01*
Y261994D01*
Y261977D01*
Y261949D01*
X53385Y261916D01*
Y261871D01*
X53379Y261827D01*
X53374Y261771D01*
X53363Y261710D01*
X53335Y261583D01*
X53296Y261450D01*
X53241Y261316D01*
X53163Y261194D01*
X53157Y261189D01*
X53152Y261183D01*
X53118Y261144D01*
X53069Y261100D01*
X52996Y261044D01*
X52902Y260989D01*
X52785Y260939D01*
X52719Y260922D01*
X52647Y260911D01*
X52575Y260900D01*
X52491D01*
X52552Y261361D01*
X52564D01*
X52586Y261366D01*
X52624Y261377D01*
X52675Y261388D01*
X52724Y261411D01*
X52774Y261438D01*
X52824Y261472D01*
X52863Y261516D01*
X52869Y261527D01*
X52885Y261549D01*
X52908Y261588D01*
X52930Y261644D01*
X52957Y261710D01*
X52980Y261794D01*
X52996Y261894D01*
X53002Y261999D01*
Y262005D01*
Y262016D01*
Y262032D01*
Y262054D01*
X52996Y262110D01*
X52985Y262188D01*
X52969Y262265D01*
X52946Y262349D01*
X52913Y262432D01*
X52869Y262504D01*
X52863Y262510D01*
X52846Y262532D01*
X52813Y262565D01*
X52774Y262604D01*
X52719Y262643D01*
X52658Y262682D01*
X52586Y262720D01*
X52502Y262748D01*
X52497D01*
X52475Y262754D01*
X52430Y262759D01*
X52375Y262765D01*
X52336Y262771D01*
X52292D01*
X52242Y262776D01*
X52125D01*
X52053Y262782D01*
X51898D01*
X51903Y262776D01*
X51914Y262765D01*
X51931Y262748D01*
X51953Y262726D01*
X51981Y262698D01*
X52014Y262660D01*
X52047Y262615D01*
X52081Y262571D01*
X52147Y262454D01*
X52208Y262327D01*
X52231Y262254D01*
X52247Y262177D01*
X52258Y262093D01*
X52264Y262010D01*
Y262005D01*
Y261982D01*
X52258Y261955D01*
Y261916D01*
X52253Y261866D01*
X52242Y261810D01*
X52231Y261749D01*
X52214Y261683D01*
X52192Y261611D01*
X52164Y261538D01*
X52131Y261466D01*
X52092Y261388D01*
X52042Y261316D01*
X51986Y261244D01*
X51925Y261178D01*
X51853Y261117D01*
X51847Y261111D01*
X51836Y261105D01*
X51809Y261089D01*
X51781Y261067D01*
X51736Y261044D01*
X51692Y261017D01*
X51637Y260989D01*
X51570Y260961D01*
X51503Y260933D01*
X51426Y260906D01*
X51348Y260878D01*
X51259Y260856D01*
X51070Y260817D01*
X50965Y260811D01*
X50860Y260806D01*
X50793D01*
X50754Y260811D01*
X50715D01*
X50615Y260822D01*
X50504Y260839D01*
X50382Y260867D01*
X50255Y260900D01*
X50127Y260950D01*
X50121D01*
X50110Y260956D01*
X50094Y260967D01*
X50072Y260978D01*
X50011Y261011D01*
X49933Y261055D01*
X49850Y261117D01*
X49766Y261189D01*
X49678Y261272D01*
X49605Y261366D01*
Y261372D01*
X49600Y261377D01*
X49589Y261394D01*
X49578Y261416D01*
X49544Y261472D01*
X49511Y261549D01*
X49478Y261644D01*
X49444Y261755D01*
X49422Y261877D01*
X49417Y262010D01*
Y262016D01*
Y262032D01*
Y262060D01*
X49422Y262093D01*
X49428Y262132D01*
X49439Y262182D01*
X49450Y262238D01*
X49467Y262299D01*
X49489Y262360D01*
X49516Y262426D01*
X49550Y262493D01*
X49589Y262565D01*
X49633Y262632D01*
X49689Y262698D01*
X49750Y262765D01*
X49822Y262826D01*
X49478D01*
Y263259D01*
X51992D01*
X52042Y263253D01*
D02*
G37*
G36*
X-19628Y-285236D02*
X-20117D01*
Y-282023D01*
X-21238Y-285236D01*
X-21693D01*
X-22803Y-281967D01*
Y-285236D01*
X-23291D01*
Y-281396D01*
X-22531D01*
X-21621Y-284121D01*
Y-284126D01*
X-21615Y-284137D01*
X-21610Y-284154D01*
X-21599Y-284182D01*
X-21577Y-284248D01*
X-21549Y-284332D01*
X-21521Y-284426D01*
X-21488Y-284520D01*
X-21460Y-284609D01*
X-21438Y-284687D01*
X-21432Y-284676D01*
X-21427Y-284648D01*
X-21410Y-284598D01*
X-21388Y-284531D01*
X-21360Y-284443D01*
X-21321Y-284337D01*
X-21282Y-284215D01*
X-21233Y-284071D01*
X-20311Y-281396D01*
X-19628D01*
Y-285236D01*
D02*
G37*
G36*
X-24174D02*
X-24685D01*
Y-281396D01*
X-24174D01*
Y-285236D01*
D02*
G37*
G36*
X-27066Y-281401D02*
X-26954Y-281407D01*
X-26844Y-281418D01*
X-26733Y-281434D01*
X-26638Y-281451D01*
X-26633D01*
X-26621Y-281457D01*
X-26605D01*
X-26583Y-281468D01*
X-26522Y-281484D01*
X-26444Y-281512D01*
X-26355Y-281551D01*
X-26261Y-281601D01*
X-26166Y-281657D01*
X-26078Y-281729D01*
X-26072Y-281734D01*
X-26066Y-281740D01*
X-26050Y-281756D01*
X-26028Y-281773D01*
X-25972Y-281828D01*
X-25906Y-281906D01*
X-25833Y-282001D01*
X-25756Y-282112D01*
X-25684Y-282239D01*
X-25622Y-282383D01*
Y-282389D01*
X-25617Y-282400D01*
X-25606Y-282422D01*
X-25600Y-282456D01*
X-25584Y-282494D01*
X-25573Y-282539D01*
X-25561Y-282589D01*
X-25545Y-282650D01*
X-25528Y-282711D01*
X-25517Y-282783D01*
X-25489Y-282939D01*
X-25473Y-283111D01*
X-25467Y-283299D01*
Y-283305D01*
Y-283316D01*
Y-283344D01*
Y-283371D01*
X-25473Y-283410D01*
Y-283455D01*
X-25478Y-283560D01*
X-25495Y-283682D01*
X-25512Y-283810D01*
X-25539Y-283943D01*
X-25573Y-284076D01*
Y-284082D01*
X-25578Y-284093D01*
X-25584Y-284110D01*
X-25589Y-284132D01*
X-25611Y-284193D01*
X-25645Y-284271D01*
X-25678Y-284359D01*
X-25722Y-284448D01*
X-25778Y-284542D01*
X-25833Y-284631D01*
X-25839Y-284642D01*
X-25861Y-284670D01*
X-25894Y-284709D01*
X-25939Y-284759D01*
X-25989Y-284814D01*
X-26050Y-284870D01*
X-26111Y-284931D01*
X-26183Y-284981D01*
X-26194Y-284986D01*
X-26216Y-285003D01*
X-26255Y-285025D01*
X-26311Y-285053D01*
X-26377Y-285086D01*
X-26455Y-285114D01*
X-26544Y-285147D01*
X-26644Y-285175D01*
X-26655D01*
X-26671Y-285181D01*
X-26688Y-285186D01*
X-26744Y-285192D01*
X-26821Y-285203D01*
X-26910Y-285214D01*
X-27016Y-285225D01*
X-27132Y-285231D01*
X-27260Y-285236D01*
X-28642D01*
Y-281396D01*
X-27165D01*
X-27066Y-281401D01*
D02*
G37*
G36*
X52264Y256394D02*
X52269Y256371D01*
X52275Y256332D01*
X52280Y256282D01*
X52292Y256227D01*
X52297Y256166D01*
X52303Y256044D01*
Y256033D01*
Y255999D01*
X52297Y255955D01*
X52292Y255900D01*
X52286Y255833D01*
X52269Y255766D01*
X52253Y255705D01*
X52225Y255644D01*
X52219Y255639D01*
X52208Y255622D01*
X52192Y255600D01*
X52164Y255567D01*
X52136Y255539D01*
X52097Y255505D01*
X52058Y255472D01*
X52008Y255450D01*
X52003D01*
X51981Y255439D01*
X51942Y255433D01*
X51886Y255422D01*
X51814Y255411D01*
X51770Y255406D01*
X51720D01*
X51659Y255400D01*
X51598Y255395D01*
X49844D01*
Y255045D01*
X49478D01*
Y255395D01*
X48790D01*
X48506Y255866D01*
X49478D01*
Y256344D01*
X49844D01*
Y255866D01*
X51548D01*
X51587Y255872D01*
X51675Y255877D01*
X51714Y255883D01*
X51742Y255889D01*
X51753Y255894D01*
X51775Y255911D01*
X51803Y255933D01*
X51831Y255972D01*
X51836Y255983D01*
X51847Y256011D01*
X51859Y256061D01*
X51864Y256133D01*
Y256138D01*
Y256149D01*
Y256166D01*
Y256188D01*
X51859Y256216D01*
Y256255D01*
X51853Y256299D01*
X51847Y256344D01*
X52264Y256405D01*
Y256394D01*
D02*
G37*
G36*
Y254240D02*
X52258Y254235D01*
X52236Y254229D01*
X52208Y254218D01*
X52164Y254201D01*
X52114Y254185D01*
X52053Y254173D01*
X51986Y254162D01*
X51914Y254151D01*
Y254146D01*
X51925Y254140D01*
X51953Y254107D01*
X51992Y254057D01*
X52042Y253990D01*
X52092Y253907D01*
X52147Y253824D01*
X52197Y253735D01*
X52236Y253641D01*
X52242Y253630D01*
X52247Y253596D01*
X52264Y253546D01*
X52280Y253485D01*
X52297Y253408D01*
X52308Y253319D01*
X52319Y253219D01*
X52325Y253119D01*
Y253114D01*
Y253097D01*
Y253075D01*
X52319Y253041D01*
Y253003D01*
X52314Y252958D01*
X52297Y252858D01*
X52269Y252747D01*
X52231Y252625D01*
X52175Y252514D01*
X52103Y252414D01*
X52092Y252403D01*
X52064Y252375D01*
X52014Y252337D01*
X51947Y252292D01*
X51864Y252248D01*
X51770Y252209D01*
X51653Y252181D01*
X51598Y252175D01*
X51531Y252170D01*
X51498D01*
X51459Y252175D01*
X51409Y252181D01*
X51348Y252192D01*
X51287Y252209D01*
X51220Y252231D01*
X51159Y252259D01*
X51154Y252264D01*
X51132Y252275D01*
X51098Y252298D01*
X51059Y252325D01*
X51015Y252359D01*
X50971Y252403D01*
X50926Y252448D01*
X50887Y252503D01*
X50882Y252508D01*
X50871Y252531D01*
X50849Y252558D01*
X50826Y252603D01*
X50804Y252653D01*
X50776Y252714D01*
X50754Y252775D01*
X50732Y252847D01*
Y252853D01*
X50726Y252875D01*
X50715Y252908D01*
X50710Y252953D01*
X50699Y253008D01*
X50688Y253080D01*
X50671Y253163D01*
X50660Y253263D01*
Y253269D01*
X50654Y253291D01*
Y253319D01*
X50649Y253358D01*
X50643Y253402D01*
X50632Y253458D01*
X50626Y253519D01*
X50615Y253585D01*
X50588Y253718D01*
X50560Y253863D01*
X50527Y253990D01*
X50510Y254051D01*
X50493Y254107D01*
X50477D01*
X50443Y254113D01*
X50327D01*
X50271Y254107D01*
X50210Y254096D01*
X50144Y254079D01*
X50077Y254051D01*
X50016Y254018D01*
X49966Y253974D01*
X49961Y253968D01*
X49938Y253940D01*
X49916Y253896D01*
X49883Y253840D01*
X49855Y253763D01*
X49827Y253674D01*
X49811Y253563D01*
X49805Y253435D01*
Y253430D01*
Y253419D01*
Y253402D01*
Y253380D01*
X49811Y253324D01*
X49822Y253247D01*
X49833Y253169D01*
X49855Y253086D01*
X49883Y253008D01*
X49922Y252941D01*
X49927Y252936D01*
X49944Y252914D01*
X49972Y252886D01*
X50016Y252853D01*
X50072Y252819D01*
X50144Y252781D01*
X50232Y252747D01*
X50332Y252714D01*
X50271Y252253D01*
X50266D01*
X50260Y252259D01*
X50244D01*
X50221Y252264D01*
X50171Y252281D01*
X50099Y252303D01*
X50027Y252331D01*
X49949Y252364D01*
X49872Y252409D01*
X49800Y252459D01*
X49794Y252464D01*
X49772Y252486D01*
X49738Y252520D01*
X49694Y252564D01*
X49650Y252625D01*
X49605Y252697D01*
X49555Y252781D01*
X49516Y252875D01*
Y252880D01*
X49511Y252886D01*
X49505Y252903D01*
X49500Y252925D01*
X49483Y252980D01*
X49467Y253058D01*
X49450Y253147D01*
X49433Y253258D01*
X49422Y253374D01*
X49417Y253507D01*
Y253513D01*
Y253524D01*
Y253541D01*
Y253569D01*
X49422Y253630D01*
X49428Y253713D01*
X49439Y253807D01*
X49455Y253902D01*
X49478Y253996D01*
X49505Y254085D01*
X49511Y254096D01*
X49522Y254124D01*
X49539Y254162D01*
X49561Y254212D01*
X49594Y254268D01*
X49628Y254323D01*
X49672Y254373D01*
X49716Y254418D01*
X49722Y254423D01*
X49738Y254434D01*
X49766Y254451D01*
X49800Y254473D01*
X49850Y254501D01*
X49900Y254523D01*
X49961Y254545D01*
X50033Y254562D01*
X50038D01*
X50055Y254568D01*
X50088Y254573D01*
X50133Y254579D01*
X50194D01*
X50266Y254584D01*
X50360Y254590D01*
X51315D01*
X51448Y254595D01*
X51587D01*
X51725Y254601D01*
X51787Y254606D01*
X51842D01*
X51892Y254612D01*
X51931Y254618D01*
X51936D01*
X51959Y254623D01*
X51992Y254629D01*
X52036Y254645D01*
X52086Y254656D01*
X52142Y254679D01*
X52203Y254706D01*
X52264Y254734D01*
Y254240D01*
D02*
G37*
G36*
Y251265D02*
X51465Y250760D01*
X51459D01*
X51448Y250749D01*
X51431Y250738D01*
X51409Y250721D01*
X51348Y250683D01*
X51270Y250633D01*
X51187Y250572D01*
X51098Y250511D01*
X51015Y250449D01*
X50937Y250394D01*
X50932Y250388D01*
X50910Y250372D01*
X50876Y250344D01*
X50837Y250305D01*
X50754Y250222D01*
X50715Y250178D01*
X50682Y250133D01*
X50677Y250128D01*
X50671Y250116D01*
X50660Y250094D01*
X50643Y250061D01*
X50626Y250028D01*
X50610Y249989D01*
X50582Y249900D01*
Y249894D01*
X50577Y249883D01*
Y249861D01*
X50571Y249833D01*
X50565Y249795D01*
Y249750D01*
X50560Y249689D01*
Y249623D01*
Y249034D01*
X52264D01*
Y248524D01*
X48423D01*
Y250222D01*
Y250227D01*
Y250244D01*
Y250272D01*
Y250305D01*
X48429Y250350D01*
Y250399D01*
X48434Y250516D01*
X48451Y250638D01*
X48468Y250771D01*
X48495Y250893D01*
X48512Y250955D01*
X48529Y251005D01*
Y251010D01*
X48534Y251016D01*
X48551Y251049D01*
X48573Y251099D01*
X48612Y251160D01*
X48662Y251226D01*
X48728Y251299D01*
X48806Y251365D01*
X48895Y251432D01*
X48900D01*
X48906Y251437D01*
X48939Y251460D01*
X48995Y251482D01*
X49067Y251515D01*
X49150Y251543D01*
X49250Y251571D01*
X49356Y251587D01*
X49472Y251593D01*
X49511D01*
X49539Y251587D01*
X49578D01*
X49616Y251582D01*
X49711Y251559D01*
X49822Y251526D01*
X49938Y251482D01*
X50055Y251415D01*
X50110Y251371D01*
X50166Y251326D01*
X50171Y251321D01*
X50177Y251315D01*
X50194Y251299D01*
X50210Y251276D01*
X50232Y251249D01*
X50255Y251215D01*
X50282Y251171D01*
X50316Y251127D01*
X50344Y251071D01*
X50371Y251010D01*
X50405Y250943D01*
X50432Y250871D01*
X50454Y250788D01*
X50482Y250705D01*
X50499Y250610D01*
X50516Y250511D01*
X50521Y250522D01*
X50532Y250544D01*
X50554Y250577D01*
X50577Y250622D01*
X50638Y250721D01*
X50677Y250771D01*
X50710Y250816D01*
X50721Y250827D01*
X50749Y250855D01*
X50793Y250899D01*
X50849Y250955D01*
X50926Y251016D01*
X51010Y251088D01*
X51109Y251160D01*
X51220Y251238D01*
X52264Y251898D01*
Y251265D01*
D02*
G37*
G36*
X51076Y285181D02*
X51109Y285170D01*
X51154Y285154D01*
X51204Y285137D01*
X51265Y285115D01*
X51331Y285087D01*
X51403Y285054D01*
X51559Y284976D01*
X51714Y284876D01*
X51792Y284815D01*
X51870Y284754D01*
X51936Y284687D01*
X52003Y284610D01*
X52008Y284604D01*
X52020Y284593D01*
X52031Y284565D01*
X52053Y284538D01*
X52081Y284493D01*
X52108Y284449D01*
X52136Y284388D01*
X52164Y284327D01*
X52197Y284255D01*
X52225Y284177D01*
X52253Y284094D01*
X52280Y284005D01*
X52303Y283910D01*
X52314Y283810D01*
X52325Y283705D01*
X52330Y283594D01*
Y283589D01*
Y283566D01*
Y283533D01*
X52325Y283489D01*
Y283439D01*
X52319Y283378D01*
X52308Y283311D01*
X52297Y283233D01*
X52269Y283072D01*
X52225Y282906D01*
X52164Y282739D01*
X52125Y282662D01*
X52081Y282584D01*
X52075Y282578D01*
X52069Y282567D01*
X52053Y282545D01*
X52031Y282523D01*
X52008Y282490D01*
X51975Y282451D01*
X51936Y282406D01*
X51892Y282362D01*
X51842Y282318D01*
X51792Y282268D01*
X51664Y282168D01*
X51515Y282073D01*
X51348Y281990D01*
X51342D01*
X51326Y281979D01*
X51298Y281974D01*
X51265Y281957D01*
X51220Y281946D01*
X51165Y281929D01*
X51104Y281907D01*
X51037Y281890D01*
X50965Y281874D01*
X50882Y281851D01*
X50710Y281824D01*
X50516Y281801D01*
X50316Y281790D01*
X50255D01*
X50216Y281796D01*
X50160D01*
X50105Y281801D01*
X50033Y281807D01*
X49961Y281818D01*
X49800Y281846D01*
X49622Y281885D01*
X49444Y281940D01*
X49272Y282018D01*
X49267Y282023D01*
X49250Y282029D01*
X49228Y282040D01*
X49200Y282062D01*
X49161Y282084D01*
X49117Y282112D01*
X49017Y282184D01*
X48906Y282279D01*
X48795Y282390D01*
X48684Y282517D01*
X48590Y282667D01*
X48584Y282673D01*
X48579Y282689D01*
X48568Y282712D01*
X48551Y282739D01*
X48534Y282784D01*
X48518Y282828D01*
X48495Y282884D01*
X48473Y282945D01*
X48451Y283011D01*
X48429Y283084D01*
X48395Y283239D01*
X48368Y283417D01*
X48357Y283600D01*
Y283605D01*
Y283627D01*
Y283655D01*
X48362Y283694D01*
X48368Y283744D01*
X48373Y283805D01*
X48379Y283866D01*
X48395Y283938D01*
X48429Y284088D01*
X48479Y284255D01*
X48512Y284338D01*
X48551Y284416D01*
X48601Y284493D01*
X48651Y284571D01*
X48656Y284576D01*
X48662Y284588D01*
X48678Y284610D01*
X48706Y284637D01*
X48734Y284665D01*
X48773Y284704D01*
X48817Y284743D01*
X48862Y284787D01*
X48917Y284832D01*
X48984Y284876D01*
X49050Y284926D01*
X49123Y284970D01*
X49206Y285009D01*
X49289Y285054D01*
X49378Y285087D01*
X49478Y285120D01*
X49594Y284621D01*
X49589D01*
X49578Y284615D01*
X49555Y284604D01*
X49528Y284593D01*
X49494Y284582D01*
X49450Y284565D01*
X49361Y284521D01*
X49261Y284465D01*
X49161Y284399D01*
X49067Y284316D01*
X48984Y284227D01*
X48973Y284216D01*
X48950Y284182D01*
X48923Y284127D01*
X48884Y284055D01*
X48851Y283960D01*
X48817Y283855D01*
X48795Y283727D01*
X48790Y283589D01*
Y283583D01*
Y283566D01*
Y283544D01*
X48795Y283516D01*
Y283477D01*
X48801Y283433D01*
X48817Y283328D01*
X48839Y283211D01*
X48878Y283089D01*
X48934Y282961D01*
X49006Y282845D01*
Y282839D01*
X49017Y282834D01*
X49045Y282795D01*
X49089Y282745D01*
X49156Y282684D01*
X49239Y282612D01*
X49333Y282545D01*
X49450Y282484D01*
X49578Y282429D01*
X49583D01*
X49594Y282423D01*
X49611Y282417D01*
X49639Y282412D01*
X49672Y282401D01*
X49711Y282390D01*
X49805Y282373D01*
X49916Y282351D01*
X50038Y282329D01*
X50171Y282318D01*
X50316Y282312D01*
X50399D01*
X50438Y282318D01*
X50488D01*
X50543Y282323D01*
X50604Y282329D01*
X50738Y282345D01*
X50882Y282373D01*
X51026Y282406D01*
X51170Y282451D01*
X51176D01*
X51187Y282456D01*
X51204Y282467D01*
X51231Y282478D01*
X51298Y282512D01*
X51376Y282562D01*
X51465Y282623D01*
X51559Y282700D01*
X51642Y282789D01*
X51720Y282895D01*
Y282900D01*
X51725Y282911D01*
X51736Y282928D01*
X51748Y282950D01*
X51759Y282978D01*
X51775Y283011D01*
X51809Y283089D01*
X51842Y283189D01*
X51870Y283300D01*
X51892Y283422D01*
X51898Y283550D01*
Y283555D01*
Y283566D01*
Y283589D01*
X51892Y283622D01*
Y283661D01*
X51886Y283699D01*
X51864Y283799D01*
X51836Y283916D01*
X51792Y284033D01*
X51731Y284155D01*
X51698Y284216D01*
X51653Y284271D01*
X51648Y284277D01*
X51642Y284282D01*
X51626Y284299D01*
X51609Y284321D01*
X51581Y284343D01*
X51548Y284371D01*
X51515Y284404D01*
X51470Y284432D01*
X51420Y284465D01*
X51365Y284504D01*
X51309Y284538D01*
X51243Y284571D01*
X51170Y284599D01*
X51093Y284626D01*
X51010Y284654D01*
X50921Y284676D01*
X51048Y285187D01*
X51054D01*
X51076Y285181D01*
D02*
G37*
G36*
X50438Y281235D02*
X50482D01*
X50588Y281230D01*
X50710Y281213D01*
X50837Y281196D01*
X50971Y281169D01*
X51104Y281135D01*
X51109D01*
X51121Y281130D01*
X51137Y281124D01*
X51159Y281119D01*
X51220Y281097D01*
X51298Y281063D01*
X51387Y281030D01*
X51476Y280986D01*
X51570Y280930D01*
X51659Y280875D01*
X51670Y280869D01*
X51698Y280847D01*
X51736Y280814D01*
X51787Y280769D01*
X51842Y280719D01*
X51898Y280658D01*
X51959Y280597D01*
X52008Y280525D01*
X52014Y280514D01*
X52031Y280492D01*
X52053Y280453D01*
X52081Y280397D01*
X52114Y280331D01*
X52142Y280253D01*
X52175Y280164D01*
X52203Y280064D01*
Y280059D01*
Y280053D01*
X52208Y280036D01*
X52214Y280020D01*
X52219Y279964D01*
X52231Y279887D01*
X52242Y279798D01*
X52253Y279692D01*
X52258Y279576D01*
X52264Y279448D01*
Y278066D01*
X48423D01*
Y279387D01*
Y279393D01*
Y279409D01*
Y279432D01*
Y279459D01*
Y279498D01*
Y279543D01*
X48429Y279643D01*
X48434Y279753D01*
X48445Y279865D01*
X48462Y279976D01*
X48479Y280070D01*
Y280075D01*
X48484Y280086D01*
Y280103D01*
X48495Y280125D01*
X48512Y280186D01*
X48540Y280264D01*
X48579Y280353D01*
X48629Y280447D01*
X48684Y280542D01*
X48756Y280630D01*
X48762Y280636D01*
X48767Y280642D01*
X48784Y280658D01*
X48801Y280680D01*
X48856Y280736D01*
X48934Y280802D01*
X49028Y280875D01*
X49139Y280952D01*
X49267Y281024D01*
X49411Y281085D01*
X49417D01*
X49428Y281091D01*
X49450Y281102D01*
X49483Y281108D01*
X49522Y281124D01*
X49567Y281135D01*
X49616Y281147D01*
X49678Y281163D01*
X49738Y281180D01*
X49811Y281191D01*
X49966Y281219D01*
X50138Y281235D01*
X50327Y281241D01*
X50399D01*
X50438Y281235D01*
D02*
G37*
G36*
X52330Y285775D02*
Y285398D01*
X48357Y286513D01*
Y286891D01*
X52330Y285775D01*
D02*
G37*
G36*
X52264Y292885D02*
X51098Y292435D01*
Y290826D01*
X52264Y290409D01*
Y289871D01*
X48423Y291336D01*
Y291891D01*
X52264Y293462D01*
Y292885D01*
D02*
G37*
G36*
X51342Y289094D02*
X52264D01*
Y288622D01*
X51342D01*
Y286952D01*
X50910D01*
X48423Y288711D01*
Y289094D01*
X50910D01*
Y289616D01*
X51342D01*
Y289094D01*
D02*
G37*
G36*
Y273288D02*
X52264D01*
Y272816D01*
X51342D01*
Y271145D01*
X50910D01*
X48423Y272905D01*
Y273288D01*
X50910D01*
Y273809D01*
X51342D01*
Y273288D01*
D02*
G37*
G36*
X52264Y268254D02*
X52203D01*
X52158Y268259D01*
X52108Y268265D01*
X52053Y268276D01*
X51997Y268287D01*
X51936Y268309D01*
X51931D01*
X51925Y268315D01*
X51892Y268326D01*
X51842Y268348D01*
X51775Y268382D01*
X51698Y268426D01*
X51609Y268481D01*
X51520Y268543D01*
X51426Y268620D01*
X51420D01*
X51415Y268631D01*
X51381Y268659D01*
X51331Y268709D01*
X51259Y268781D01*
X51176Y268864D01*
X51076Y268970D01*
X50965Y269097D01*
X50849Y269236D01*
X50843Y269242D01*
X50826Y269264D01*
X50799Y269297D01*
X50765Y269336D01*
X50721Y269386D01*
X50671Y269447D01*
X50615Y269508D01*
X50554Y269580D01*
X50421Y269719D01*
X50288Y269858D01*
X50221Y269924D01*
X50155Y269986D01*
X50094Y270041D01*
X50033Y270085D01*
X50027D01*
X50022Y270096D01*
X50005Y270108D01*
X49983Y270119D01*
X49922Y270158D01*
X49850Y270202D01*
X49761Y270241D01*
X49666Y270280D01*
X49561Y270302D01*
X49461Y270313D01*
X49450D01*
X49417Y270307D01*
X49361Y270302D01*
X49300Y270285D01*
X49222Y270263D01*
X49145Y270224D01*
X49067Y270174D01*
X48989Y270108D01*
X48978Y270096D01*
X48956Y270069D01*
X48928Y270030D01*
X48889Y269969D01*
X48856Y269891D01*
X48823Y269802D01*
X48801Y269697D01*
X48795Y269580D01*
Y269575D01*
Y269564D01*
Y269547D01*
X48801Y269525D01*
X48806Y269458D01*
X48823Y269380D01*
X48845Y269297D01*
X48884Y269203D01*
X48934Y269114D01*
X49000Y269031D01*
X49011Y269020D01*
X49039Y268998D01*
X49084Y268964D01*
X49150Y268931D01*
X49228Y268892D01*
X49328Y268859D01*
X49439Y268837D01*
X49567Y268826D01*
X49516Y268343D01*
X49511D01*
X49494Y268348D01*
X49467D01*
X49428Y268354D01*
X49383Y268365D01*
X49333Y268376D01*
X49272Y268393D01*
X49211Y268409D01*
X49078Y268454D01*
X48945Y268520D01*
X48878Y268559D01*
X48812Y268609D01*
X48751Y268659D01*
X48695Y268714D01*
X48690Y268720D01*
X48684Y268731D01*
X48667Y268748D01*
X48651Y268776D01*
X48629Y268809D01*
X48606Y268848D01*
X48579Y268892D01*
X48551Y268948D01*
X48523Y269009D01*
X48495Y269075D01*
X48473Y269147D01*
X48451Y269225D01*
X48434Y269308D01*
X48418Y269397D01*
X48412Y269492D01*
X48406Y269591D01*
Y269597D01*
Y269614D01*
Y269647D01*
X48412Y269686D01*
X48418Y269730D01*
X48423Y269786D01*
X48434Y269847D01*
X48445Y269908D01*
X48484Y270052D01*
X48540Y270196D01*
X48573Y270269D01*
X48612Y270341D01*
X48662Y270407D01*
X48717Y270468D01*
X48723Y270474D01*
X48728Y270485D01*
X48751Y270496D01*
X48773Y270518D01*
X48801Y270546D01*
X48839Y270574D01*
X48878Y270602D01*
X48928Y270635D01*
X49034Y270690D01*
X49167Y270746D01*
X49233Y270768D01*
X49311Y270779D01*
X49389Y270790D01*
X49472Y270796D01*
X49511D01*
X49555Y270790D01*
X49616Y270785D01*
X49683Y270774D01*
X49761Y270751D01*
X49844Y270729D01*
X49927Y270696D01*
X49938Y270690D01*
X49966Y270679D01*
X50011Y270657D01*
X50072Y270624D01*
X50138Y270579D01*
X50221Y270524D01*
X50305Y270457D01*
X50399Y270379D01*
X50410Y270368D01*
X50443Y270341D01*
X50471Y270313D01*
X50499Y270285D01*
X50532Y270252D01*
X50577Y270208D01*
X50621Y270163D01*
X50671Y270108D01*
X50726Y270052D01*
X50788Y269986D01*
X50849Y269913D01*
X50921Y269836D01*
X50993Y269747D01*
X51070Y269658D01*
X51076Y269653D01*
X51087Y269641D01*
X51104Y269619D01*
X51126Y269591D01*
X51159Y269558D01*
X51193Y269519D01*
X51265Y269430D01*
X51348Y269336D01*
X51431Y269247D01*
X51503Y269170D01*
X51531Y269136D01*
X51559Y269109D01*
X51565Y269103D01*
X51581Y269086D01*
X51603Y269064D01*
X51637Y269036D01*
X51675Y269009D01*
X51714Y268975D01*
X51809Y268909D01*
Y270801D01*
X52264D01*
Y268254D01*
D02*
G37*
G36*
Y276107D02*
Y275574D01*
X48423Y274087D01*
Y274642D01*
X51215Y275641D01*
X51220D01*
X51231Y275646D01*
X51248Y275652D01*
X51270Y275663D01*
X51304Y275669D01*
X51337Y275680D01*
X51420Y275708D01*
X51515Y275741D01*
X51620Y275774D01*
X51842Y275841D01*
X51836D01*
X51825Y275846D01*
X51809Y275852D01*
X51787Y275857D01*
X51725Y275874D01*
X51642Y275902D01*
X51548Y275929D01*
X51442Y275963D01*
X51331Y276002D01*
X51215Y276046D01*
X48423Y277090D01*
Y277606D01*
X52264Y276107D01*
D02*
G37*
%LPC*%
G36*
X50910Y288622D02*
X49189D01*
X50910Y287413D01*
Y288622D01*
D02*
G37*
G36*
X-27243Y-281851D02*
X-28131D01*
Y-284781D01*
X-27221D01*
X-27182Y-284776D01*
X-27099Y-284770D01*
X-27005Y-284765D01*
X-26905Y-284753D01*
X-26805Y-284737D01*
X-26721Y-284715D01*
X-26710Y-284709D01*
X-26683Y-284703D01*
X-26644Y-284687D01*
X-26594Y-284665D01*
X-26538Y-284631D01*
X-26483Y-284598D01*
X-26427Y-284559D01*
X-26372Y-284515D01*
X-26366Y-284504D01*
X-26344Y-284481D01*
X-26311Y-284443D01*
X-26272Y-284387D01*
X-26228Y-284315D01*
X-26177Y-284232D01*
X-26133Y-284137D01*
X-26094Y-284032D01*
Y-284026D01*
X-26089Y-284015D01*
X-26083Y-283999D01*
X-26078Y-283976D01*
X-26072Y-283949D01*
X-26061Y-283910D01*
X-26050Y-283871D01*
X-26039Y-283826D01*
X-26022Y-283716D01*
X-26006Y-283588D01*
X-25994Y-283444D01*
X-25989Y-283288D01*
Y-283283D01*
Y-283260D01*
Y-283233D01*
X-25994Y-283188D01*
Y-283138D01*
X-26000Y-283083D01*
X-26006Y-283016D01*
X-26011Y-282950D01*
X-26039Y-282800D01*
X-26072Y-282644D01*
X-26122Y-282500D01*
X-26155Y-282428D01*
X-26189Y-282367D01*
Y-282361D01*
X-26200Y-282350D01*
X-26211Y-282334D01*
X-26222Y-282311D01*
X-26266Y-282256D01*
X-26322Y-282189D01*
X-26394Y-282117D01*
X-26477Y-282045D01*
X-26572Y-281984D01*
X-26671Y-281934D01*
X-26683Y-281928D01*
X-26710Y-281923D01*
X-26760Y-281906D01*
X-26832Y-281890D01*
X-26921Y-281878D01*
X-27032Y-281862D01*
X-27099Y-281856D01*
X-27171D01*
X-27243Y-281851D01*
D02*
G37*
G36*
X50682Y292274D02*
X49628Y291875D01*
X49622D01*
X49605Y291869D01*
X49578Y291858D01*
X49544Y291847D01*
X49505Y291830D01*
X49455Y291814D01*
X49400Y291797D01*
X49345Y291775D01*
X49217Y291730D01*
X49084Y291686D01*
X48950Y291642D01*
X48823Y291603D01*
X48828D01*
X48839Y291597D01*
X48862D01*
X48884Y291586D01*
X48923Y291581D01*
X48961Y291569D01*
X49056Y291547D01*
X49167Y291519D01*
X49289Y291481D01*
X49422Y291442D01*
X49561Y291392D01*
X50682Y290976D01*
Y292274D01*
D02*
G37*
G36*
X49478Y251071D02*
X49467D01*
X49433Y251065D01*
X49383Y251060D01*
X49317Y251049D01*
X49250Y251021D01*
X49172Y250988D01*
X49100Y250938D01*
X49028Y250871D01*
X49023Y250860D01*
X49000Y250832D01*
X48973Y250788D01*
X48939Y250716D01*
X48906Y250633D01*
X48878Y250522D01*
X48856Y250394D01*
X48851Y250244D01*
Y249034D01*
X50121D01*
Y250122D01*
Y250128D01*
Y250139D01*
Y250155D01*
Y250178D01*
X50116Y250244D01*
X50110Y250322D01*
X50105Y250411D01*
X50094Y250499D01*
X50077Y250588D01*
X50055Y250666D01*
X50049Y250677D01*
X50038Y250699D01*
X50022Y250732D01*
X49999Y250777D01*
X49966Y250827D01*
X49927Y250877D01*
X49877Y250927D01*
X49822Y250966D01*
X49816Y250971D01*
X49794Y250982D01*
X49761Y250999D01*
X49716Y251021D01*
X49666Y251038D01*
X49611Y251054D01*
X49544Y251065D01*
X49478Y251071D01*
D02*
G37*
G36*
X50865Y254113D02*
Y254107D01*
X50871Y254101D01*
X50876Y254085D01*
X50882Y254063D01*
X50893Y254035D01*
X50904Y254001D01*
X50915Y253963D01*
X50926Y253918D01*
X50943Y253868D01*
X50954Y253807D01*
X50971Y253746D01*
X50987Y253674D01*
X51004Y253596D01*
X51021Y253519D01*
X51032Y253430D01*
X51048Y253335D01*
Y253330D01*
Y253324D01*
X51054Y253291D01*
X51065Y253236D01*
X51076Y253174D01*
X51087Y253108D01*
X51104Y253041D01*
X51121Y252980D01*
X51143Y252925D01*
Y252919D01*
X51154Y252903D01*
X51165Y252880D01*
X51182Y252858D01*
X51226Y252792D01*
X51293Y252736D01*
X51298D01*
X51309Y252725D01*
X51331Y252719D01*
X51359Y252708D01*
X51392Y252697D01*
X51426Y252686D01*
X51470Y252681D01*
X51515Y252675D01*
X51548D01*
X51581Y252681D01*
X51626Y252692D01*
X51675Y252708D01*
X51725Y252736D01*
X51781Y252769D01*
X51831Y252814D01*
X51836Y252819D01*
X51847Y252841D01*
X51870Y252875D01*
X51892Y252919D01*
X51914Y252980D01*
X51936Y253052D01*
X51947Y253136D01*
X51953Y253236D01*
Y253241D01*
Y253247D01*
Y253280D01*
X51947Y253335D01*
X51936Y253397D01*
X51925Y253474D01*
X51903Y253552D01*
X51875Y253635D01*
X51836Y253718D01*
X51831Y253730D01*
X51814Y253752D01*
X51787Y253791D01*
X51748Y253835D01*
X51703Y253885D01*
X51648Y253940D01*
X51581Y253985D01*
X51509Y254029D01*
X51503Y254035D01*
X51481Y254040D01*
X51442Y254051D01*
X51392Y254068D01*
X51326Y254085D01*
X51248Y254096D01*
X51154Y254101D01*
X51043Y254107D01*
X50865Y254113D01*
D02*
G37*
G36*
X50910Y272816D02*
X49189D01*
X50910Y271606D01*
Y272816D01*
D02*
G37*
G36*
X50316Y280719D02*
X50260D01*
X50216Y280714D01*
X50166D01*
X50110Y280708D01*
X50044Y280702D01*
X49977Y280697D01*
X49827Y280669D01*
X49672Y280636D01*
X49528Y280586D01*
X49455Y280553D01*
X49394Y280519D01*
X49389D01*
X49378Y280508D01*
X49361Y280497D01*
X49339Y280486D01*
X49283Y280442D01*
X49217Y280386D01*
X49145Y280314D01*
X49073Y280231D01*
X49011Y280136D01*
X48961Y280036D01*
X48956Y280025D01*
X48950Y279998D01*
X48934Y279948D01*
X48917Y279876D01*
X48906Y279787D01*
X48889Y279676D01*
X48884Y279609D01*
Y279537D01*
X48878Y279465D01*
Y279382D01*
Y278577D01*
X51809D01*
Y279393D01*
Y279398D01*
Y279409D01*
Y279432D01*
Y279454D01*
Y279487D01*
X51803Y279526D01*
X51798Y279609D01*
X51792Y279703D01*
X51781Y279803D01*
X51764Y279903D01*
X51742Y279987D01*
X51736Y279998D01*
X51731Y280025D01*
X51714Y280064D01*
X51692Y280114D01*
X51659Y280170D01*
X51626Y280225D01*
X51587Y280281D01*
X51542Y280336D01*
X51531Y280342D01*
X51509Y280364D01*
X51470Y280397D01*
X51415Y280436D01*
X51342Y280481D01*
X51259Y280531D01*
X51165Y280575D01*
X51059Y280614D01*
X51054D01*
X51043Y280619D01*
X51026Y280625D01*
X51004Y280630D01*
X50976Y280636D01*
X50937Y280647D01*
X50898Y280658D01*
X50854Y280669D01*
X50743Y280686D01*
X50615Y280702D01*
X50471Y280714D01*
X50316Y280719D01*
D02*
G37*
G36*
X50937Y262820D02*
X50793D01*
X50760Y262815D01*
X50715D01*
X50665Y262809D01*
X50554Y262793D01*
X50427Y262765D01*
X50299Y262726D01*
X50171Y262671D01*
X50116Y262632D01*
X50066Y262593D01*
X50060D01*
X50055Y262582D01*
X50027Y262554D01*
X49983Y262504D01*
X49933Y262438D01*
X49888Y262360D01*
X49844Y262265D01*
X49816Y262160D01*
X49805Y262105D01*
Y262043D01*
Y262038D01*
Y262032D01*
Y262016D01*
X49811Y261994D01*
X49816Y261932D01*
X49838Y261860D01*
X49866Y261771D01*
X49916Y261683D01*
X49977Y261594D01*
X50022Y261549D01*
X50066Y261505D01*
X50072D01*
X50077Y261494D01*
X50094Y261483D01*
X50116Y261472D01*
X50138Y261455D01*
X50171Y261438D01*
X50210Y261416D01*
X50255Y261400D01*
X50305Y261377D01*
X50366Y261355D01*
X50427Y261339D01*
X50493Y261322D01*
X50571Y261311D01*
X50649Y261300D01*
X50732Y261289D01*
X50876D01*
X50915Y261294D01*
X50959D01*
X51015Y261300D01*
X51132Y261316D01*
X51265Y261344D01*
X51392Y261377D01*
X51520Y261433D01*
X51576Y261466D01*
X51626Y261505D01*
X51637Y261516D01*
X51664Y261544D01*
X51703Y261588D01*
X51748Y261655D01*
X51798Y261733D01*
X51836Y261827D01*
X51864Y261932D01*
X51870Y261988D01*
X51875Y262049D01*
Y262054D01*
Y262066D01*
Y262082D01*
X51870Y262105D01*
X51864Y262165D01*
X51842Y262243D01*
X51814Y262327D01*
X51770Y262421D01*
X51709Y262510D01*
X51670Y262554D01*
X51626Y262598D01*
X51620D01*
X51614Y262610D01*
X51598Y262621D01*
X51576Y262632D01*
X51553Y262648D01*
X51520Y262671D01*
X51481Y262687D01*
X51431Y262709D01*
X51381Y262732D01*
X51326Y262748D01*
X51259Y262771D01*
X51187Y262787D01*
X51115Y262798D01*
X51032Y262809D01*
X50937Y262820D01*
D02*
G37*
%LPD*%
D10*
X448819Y-20571D02*
Y-17126D01*
X452362D01*
X-448819Y-266339D02*
Y-262894D01*
X-452362Y-266339D02*
X-448819D01*
X448819Y262894D02*
Y266339D01*
X452362D01*
X-448819Y17126D02*
Y20571D01*
X-452362Y17126D02*
X-448819D01*
X448819Y-67815D02*
Y-64370D01*
X452362D01*
X-448819Y-219094D02*
Y-215650D01*
X-452362Y-219094D02*
X-448819D01*
X448819Y215650D02*
Y219094D01*
X452362D01*
X-448819Y64370D02*
Y67815D01*
X-452362Y64370D02*
X-448819D01*
X448819Y-115059D02*
Y-111614D01*
X452362D01*
X-448819Y-171850D02*
Y-168405D01*
X-452362Y-171850D02*
X-448819D01*
X448819Y168405D02*
Y171850D01*
X452362D01*
X-448819Y111614D02*
Y115059D01*
X-452362Y111614D02*
X-448819D01*
X448819Y-162303D02*
Y-158858D01*
X452362D01*
X-448819Y-124606D02*
Y-121161D01*
X-452362Y-124606D02*
X-448819D01*
X448819Y121161D02*
Y124606D01*
X452362D01*
X-448819Y158858D02*
Y162303D01*
X-452362Y158858D02*
X-448819D01*
X448819Y-209547D02*
Y-206102D01*
X452362D01*
X-448819Y-77362D02*
Y-73917D01*
X-452362Y-77362D02*
X-448819D01*
X448819Y73917D02*
Y77362D01*
X452362D01*
X-448819Y206102D02*
Y209547D01*
X-452362Y206102D02*
X-448819D01*
X448819Y-256791D02*
Y-253346D01*
X452362D01*
X-448819Y-30118D02*
Y-26673D01*
X-452362Y-30118D02*
X-448819D01*
X448819Y26673D02*
Y30118D01*
X452362D01*
X-448819Y253346D02*
Y256791D01*
X-452362Y253346D02*
X-448819D01*
X370079Y-20571D02*
Y-17126D01*
X373622D01*
X-370079Y-266339D02*
Y-262894D01*
X-373622Y-266339D02*
X-370079D01*
X370079Y262894D02*
Y266339D01*
X373622D01*
X-370079Y17126D02*
Y20571D01*
X-373622Y17126D02*
X-370079D01*
X370079Y-67815D02*
Y-64370D01*
X373622D01*
X-370079Y-219094D02*
Y-215650D01*
X-373622Y-219094D02*
X-370079D01*
X370079Y215650D02*
Y219094D01*
X373622D01*
X-370079Y64370D02*
Y67815D01*
X-373622Y64370D02*
X-370079D01*
X370079Y-115059D02*
Y-111614D01*
X373622D01*
X-370079Y-171850D02*
Y-168405D01*
X-373622Y-171850D02*
X-370079D01*
X370079Y168405D02*
Y171850D01*
X373622D01*
X-370079Y111614D02*
Y115059D01*
X-373622Y111614D02*
X-370079D01*
X370079Y-162303D02*
Y-158858D01*
X373622D01*
X-370079Y-124606D02*
Y-121161D01*
X-373622Y-124606D02*
X-370079D01*
X370079Y121161D02*
Y124606D01*
X373622D01*
X-370079Y158858D02*
Y162303D01*
X-373622Y158858D02*
X-370079D01*
X370079Y-209547D02*
Y-206102D01*
X373622D01*
X-370079Y-77362D02*
Y-73917D01*
X-373622Y-77362D02*
X-370079D01*
X370079Y73917D02*
Y77362D01*
X373622D01*
X-370079Y206102D02*
Y209547D01*
X-373622Y206102D02*
X-370079D01*
X370079Y-256791D02*
Y-253346D01*
X373622D01*
X-370079Y-30118D02*
Y-26673D01*
X-373622Y-30118D02*
X-370079D01*
X370079Y26673D02*
Y30118D01*
X373622D01*
X-370079Y253346D02*
Y256791D01*
X-373622Y253346D02*
X-370079D01*
X291339Y-20571D02*
Y-17126D01*
X294882D01*
X-291339Y-266339D02*
Y-262894D01*
X-294882Y-266339D02*
X-291339D01*
X291339Y262894D02*
Y266339D01*
X294882D01*
X-291339Y17126D02*
Y20571D01*
X-294882Y17126D02*
X-291339D01*
X291339Y-67815D02*
Y-64370D01*
X294882D01*
X-291339Y-219094D02*
Y-215650D01*
X-294882Y-219094D02*
X-291339D01*
X291339Y215650D02*
Y219094D01*
X294882D01*
X-291339Y64370D02*
Y67815D01*
X-294882Y64370D02*
X-291339D01*
X291339Y-115059D02*
Y-111614D01*
X294882D01*
X-291339Y-171850D02*
Y-168405D01*
X-294882Y-171850D02*
X-291339D01*
X291339Y168405D02*
Y171850D01*
X294882D01*
X-291339Y111614D02*
Y115059D01*
X-294882Y111614D02*
X-291339D01*
X291339Y-162303D02*
Y-158858D01*
X294882D01*
X-291339Y-124606D02*
Y-121161D01*
X-294882Y-124606D02*
X-291339D01*
X291339Y121161D02*
Y124606D01*
X294882D01*
X-291339Y158858D02*
Y162303D01*
X-294882Y158858D02*
X-291339D01*
X291339Y-209547D02*
Y-206102D01*
X294882D01*
X-291339Y-77362D02*
Y-73917D01*
X-294882Y-77362D02*
X-291339D01*
X291339Y73917D02*
Y77362D01*
X294882D01*
X-291339Y206102D02*
Y209547D01*
X-294882Y206102D02*
X-291339D01*
X291339Y-256791D02*
Y-253346D01*
X294882D01*
X-291339Y-30118D02*
Y-26673D01*
X-294882Y-30118D02*
X-291339D01*
X291339Y26673D02*
Y30118D01*
X294882D01*
X-291339Y253346D02*
Y256791D01*
X-294882Y253346D02*
X-291339D01*
X212598Y-20571D02*
Y-17126D01*
X216142D01*
X-212598Y-266339D02*
Y-262894D01*
X-216142Y-266339D02*
X-212598D01*
X212598Y262894D02*
Y266339D01*
X216142D01*
X-212598Y17126D02*
Y20571D01*
X-216142Y17126D02*
X-212598D01*
X212598Y-67815D02*
Y-64370D01*
X216142D01*
X-212598Y-219094D02*
Y-215650D01*
X-216142Y-219094D02*
X-212598D01*
X212598Y215650D02*
Y219094D01*
X216142D01*
X-212598Y64370D02*
Y67815D01*
X-216142Y64370D02*
X-212598D01*
X212598Y-115059D02*
Y-111614D01*
X216142D01*
X-212598Y-171850D02*
Y-168405D01*
X-216142Y-171850D02*
X-212598D01*
X212598Y168405D02*
Y171850D01*
X216142D01*
X-212598Y111614D02*
Y115059D01*
X-216142Y111614D02*
X-212598D01*
X212598Y-162303D02*
Y-158858D01*
X216142D01*
X-212598Y-124606D02*
Y-121161D01*
X-216142Y-124606D02*
X-212598D01*
X212598Y121161D02*
Y124606D01*
X216142D01*
X-212598Y158858D02*
Y162303D01*
X-216142Y158858D02*
X-212598D01*
X212598Y-209547D02*
Y-206102D01*
X216142D01*
X-212598Y-77362D02*
Y-73917D01*
X-216142Y-77362D02*
X-212598D01*
X212598Y73917D02*
Y77362D01*
X216142D01*
X-212598Y206102D02*
Y209547D01*
X-216142Y206102D02*
X-212598D01*
X212598Y-256791D02*
Y-253346D01*
X216142D01*
X-212598Y-30118D02*
Y-26673D01*
X-216142Y-30118D02*
X-212598D01*
X212598Y26673D02*
Y30118D01*
X216142D01*
X-212598Y253346D02*
Y256791D01*
X-216142Y253346D02*
X-212598D01*
X133858Y-20571D02*
Y-17126D01*
X137402D01*
X-133858Y-266339D02*
Y-262894D01*
X-137402Y-266339D02*
X-133858D01*
X133858Y262894D02*
Y266339D01*
X137402D01*
X-133858Y17126D02*
Y20571D01*
X-137402Y17126D02*
X-133858D01*
X133858Y-67815D02*
Y-64370D01*
X137402D01*
X-133858Y-219094D02*
Y-215650D01*
X-137402Y-219094D02*
X-133858D01*
X133858Y215650D02*
Y219094D01*
X137402D01*
X-133858Y64370D02*
Y67815D01*
X-137402Y64370D02*
X-133858D01*
X133858Y-115059D02*
Y-111614D01*
X137402D01*
X-133858Y-171850D02*
Y-168405D01*
X-137402Y-171850D02*
X-133858D01*
X133858Y168405D02*
Y171850D01*
X137402D01*
X-133858Y111614D02*
Y115059D01*
X-137402Y111614D02*
X-133858D01*
X133858Y-162303D02*
Y-158858D01*
X137402D01*
X-133858Y-124606D02*
Y-121161D01*
X-137402Y-124606D02*
X-133858D01*
X133858Y121161D02*
Y124606D01*
X137402D01*
X-133858Y158858D02*
Y162303D01*
X-137402Y158858D02*
X-133858D01*
X133858Y-209547D02*
Y-206102D01*
X137402D01*
X-133858Y-77362D02*
Y-73917D01*
X-137402Y-77362D02*
X-133858D01*
X133858Y73917D02*
Y77362D01*
X137402D01*
X-133858Y206102D02*
Y209547D01*
X-137402Y206102D02*
X-133858D01*
X133858Y-256791D02*
Y-253346D01*
X137402D01*
X-133858Y-30118D02*
Y-26673D01*
X-137402Y-30118D02*
X-133858D01*
X133858Y26673D02*
Y30118D01*
X137402D01*
X-133858Y253346D02*
Y256791D01*
X-137402Y253346D02*
X-133858D01*
X55118Y-20571D02*
Y-17126D01*
X58661D01*
X-55118Y-266339D02*
Y-262894D01*
X-58661Y-266339D02*
X-55118D01*
X55118Y262894D02*
Y266339D01*
X58661D01*
X-55118Y17126D02*
Y20571D01*
X-58661Y17126D02*
X-55118D01*
X55118Y-67815D02*
Y-64370D01*
X58661D01*
X-55118Y-219094D02*
Y-215650D01*
X-58661Y-219094D02*
X-55118D01*
X55118Y215650D02*
Y219094D01*
X58661D01*
X-55118Y64370D02*
Y67815D01*
X-58661Y64370D02*
X-55118D01*
X55118Y-115059D02*
Y-111614D01*
X58661D01*
X-55118Y-171850D02*
Y-168405D01*
X-58661Y-171850D02*
X-55118D01*
X55118Y168405D02*
Y171850D01*
X58661D01*
X-55118Y111614D02*
Y115059D01*
X-58661Y111614D02*
X-55118D01*
X55118Y-162303D02*
Y-158858D01*
X58661D01*
X-55118Y-124606D02*
Y-121161D01*
X-58661Y-124606D02*
X-55118D01*
X55118Y121161D02*
Y124606D01*
X58661D01*
X-55118Y158858D02*
Y162303D01*
X-58661Y158858D02*
X-55118D01*
X55118Y-209547D02*
Y-206102D01*
X58661D01*
X-55118Y-77362D02*
Y-73917D01*
X-58661Y-77362D02*
X-55118D01*
X55118Y73917D02*
Y77362D01*
X58661D01*
X-55118Y206102D02*
Y209547D01*
X-58661Y206102D02*
X-55118D01*
X55118Y-256791D02*
Y-253346D01*
X58661D01*
X-55118Y-30118D02*
Y-26673D01*
X-58661Y-30118D02*
X-55118D01*
X55118Y26673D02*
Y30118D01*
X58661D01*
X-55118Y253346D02*
Y256791D01*
X-58661Y253346D02*
X-55118D01*
D29*
X-13522Y-280661D02*
X-12822D01*
X12978D02*
X13678D01*
X-13722Y-280761D02*
X-12722D01*
X12878D02*
X13878D01*
X-13822Y-280861D02*
X-12622D01*
X12778D02*
X13978D01*
X-13922Y-280961D02*
X-12522D01*
X12678D02*
X14078D01*
X-14022Y-281061D02*
X-12422D01*
X12578D02*
X14178D01*
X-14122Y-281161D02*
X-12322D01*
X12478D02*
X14278D01*
X-14222Y-281261D02*
X-12222D01*
X12378D02*
X14378D01*
X-14322Y-281361D02*
X-12122D01*
X12278D02*
X14478D01*
X-14422Y-281461D02*
X-12022D01*
X12178D02*
X14578D01*
X-14522Y-281561D02*
X-11922D01*
X12078D02*
X14678D01*
X-14622Y-281661D02*
X-11822D01*
X11978D02*
X14778D01*
X-14722Y-281761D02*
X-11722D01*
X11878D02*
X14878D01*
X-14822Y-281861D02*
X-11622D01*
X11778D02*
X14978D01*
X-14922Y-281961D02*
X-11522D01*
X11678D02*
X15078D01*
X-15022Y-282061D02*
X-11422D01*
X11578D02*
X15178D01*
X-15122Y-282161D02*
X-11322D01*
X11478D02*
X15278D01*
X-15222Y-282261D02*
X-11222D01*
X11378D02*
X15378D01*
X-15322Y-282361D02*
X-11122D01*
X11278D02*
X15478D01*
X-15422Y-282461D02*
X-11022D01*
X11178D02*
X15578D01*
X-15522Y-282561D02*
X-10922D01*
X11078D02*
X15678D01*
X-15622Y-282661D02*
X-10822D01*
X10978D02*
X15778D01*
X-15722Y-282761D02*
X-10722D01*
X10878D02*
X15878D01*
X-15822Y-282861D02*
X-10622D01*
X10778D02*
X15978D01*
X-15922Y-282961D02*
X-10522D01*
X10678D02*
X16078D01*
X-16022Y-283061D02*
X-10422D01*
X10578D02*
X16178D01*
X-16122Y-283161D02*
X-12722D01*
X-12522D02*
X-10322D01*
X10478D02*
X12678D01*
X12878D02*
X16278D01*
X-16222Y-283261D02*
X-12722D01*
X-12422D02*
X-10222D01*
X10378D02*
X12578D01*
X12878D02*
X16378D01*
X-16322Y-283361D02*
X-12722D01*
X-12322D02*
X-10122D01*
X10278D02*
X12478D01*
X12878D02*
X16478D01*
X-16422Y-283461D02*
X-12722D01*
X-12222D02*
X-10022D01*
X10178D02*
X12378D01*
X12878D02*
X16578D01*
X-16522Y-283561D02*
X-12722D01*
X-12122D02*
X-9922D01*
X10078D02*
X12278D01*
X12878D02*
X16678D01*
X-16622Y-283661D02*
X-14422D01*
X-14222D02*
X-12722D01*
X-12022D02*
X-9822D01*
X9978D02*
X12178D01*
X12878D02*
X14378D01*
X14578D02*
X16778D01*
X-16722Y-283761D02*
X-14522D01*
X-14222D02*
X-12722D01*
X-11922D02*
X-9722D01*
X9878D02*
X12078D01*
X12878D02*
X14378D01*
X14678D02*
X16878D01*
X-16822Y-283861D02*
X-14622D01*
X-14222D02*
X-12722D01*
X-11822D02*
X-9622D01*
X9778D02*
X11978D01*
X12878D02*
X14378D01*
X14778D02*
X16978D01*
X-16922Y-283961D02*
X-14722D01*
X-14222D02*
X-12722D01*
X-11722D02*
X-9522D01*
X9678D02*
X11878D01*
X12878D02*
X14378D01*
X14878D02*
X17078D01*
X-17022Y-284061D02*
X-14822D01*
X-14222D02*
X-12722D01*
X-11622D02*
X-9422D01*
X9578D02*
X11778D01*
X12878D02*
X14378D01*
X14978D02*
X17178D01*
X-17122Y-284161D02*
X-14922D01*
X-14222D02*
X-12622D01*
X-11522D02*
X-9322D01*
X9478D02*
X11678D01*
X12778D02*
X14378D01*
X15078D02*
X17278D01*
X-17122Y-284261D02*
X-15022D01*
X-14222D02*
X-12622D01*
X-11422D02*
X-9222D01*
X9378D02*
X11578D01*
X12778D02*
X14378D01*
X15178D02*
X17278D01*
X-17222Y-284361D02*
X-15122D01*
X-14222D02*
X-12622D01*
X-11322D02*
X-9222D01*
X9378D02*
X11478D01*
X12778D02*
X14378D01*
X15278D02*
X17378D01*
X-17222Y-284461D02*
X-15222D01*
X-14122D02*
X-12622D01*
X-11222D02*
X-9222D01*
X9378D02*
X11378D01*
X12778D02*
X14278D01*
X15378D02*
X17378D01*
X-17222Y-284561D02*
X-15322D01*
X-14122D02*
X-12622D01*
X-11122D02*
X-9222D01*
X9378D02*
X11278D01*
X12778D02*
X14278D01*
X15478D02*
X17378D01*
X-17222Y-284661D02*
X-15422D01*
X-14122D02*
X-12622D01*
X-11022D02*
X-9222D01*
X9378D02*
X11178D01*
X12778D02*
X14278D01*
X15578D02*
X17378D01*
X-17222Y-284761D02*
X-15522D01*
X-14122D02*
X-12622D01*
X-10922D02*
X-9222D01*
X9378D02*
X11078D01*
X12778D02*
X14278D01*
X15678D02*
X17378D01*
X-17122Y-284861D02*
X-15622D01*
X-14122D02*
X-12622D01*
X-10822D02*
X-9222D01*
X9378D02*
X10978D01*
X12778D02*
X14278D01*
X15778D02*
X17278D01*
X-17122Y-284961D02*
X-15722D01*
X-14122D02*
X-12622D01*
X-10722D02*
X-9222D01*
X9378D02*
X10878D01*
X12778D02*
X14278D01*
X15878D02*
X17278D01*
X-17022Y-285061D02*
X-15822D01*
X-14122D02*
X-12522D01*
X-10622D02*
X-9322D01*
X9478D02*
X10778D01*
X12678D02*
X14278D01*
X15978D02*
X17178D01*
X-17022Y-285161D02*
X-15922D01*
X-14122D02*
X-12522D01*
X-10522D02*
X-9422D01*
X9578D02*
X10678D01*
X12678D02*
X14278D01*
X16078D02*
X17178D01*
X-16822Y-285261D02*
X-16022D01*
X-14122D02*
X-12522D01*
X-10322D02*
X-9522D01*
X9678D02*
X10478D01*
X12678D02*
X14278D01*
X16178D02*
X16978D01*
X-16522Y-285361D02*
X-16322D01*
X-14122D02*
X-12522D01*
X-10022D02*
X-9922D01*
X10078D02*
X10178D01*
X12678D02*
X14278D01*
X16478D02*
X16678D01*
X-14022Y-285461D02*
X-12422D01*
X12578D02*
X14178D01*
X-14022Y-285561D02*
X-12422D01*
X12578D02*
X14178D01*
X-14022Y-285661D02*
X-12422D01*
X12578D02*
X14178D01*
X-14022Y-285761D02*
X-12422D01*
X12578D02*
X14178D01*
X-14022Y-285861D02*
X-12422D01*
X12578D02*
X14178D01*
X-13922Y-285961D02*
X-12422D01*
X12578D02*
X14078D01*
X-13922Y-286061D02*
X-12322D01*
X12478D02*
X14078D01*
X-13922Y-286161D02*
X-12322D01*
X12478D02*
X14078D01*
X-13822Y-286261D02*
X-12322D01*
X12478D02*
X13978D01*
X-13822Y-286361D02*
X-12222D01*
X12378D02*
X13978D01*
X-13822Y-286461D02*
X-12222D01*
X12378D02*
X13978D01*
X-13722Y-286561D02*
X-12222D01*
X12378D02*
X13878D01*
X-13822Y-286661D02*
X-12122D01*
X12278D02*
X13978D01*
X-13722Y-286761D02*
X-12122D01*
X12278D02*
X13878D01*
X-13722Y-286861D02*
X-12022D01*
X12178D02*
X13878D01*
X-13722Y-286961D02*
X-12022D01*
X12178D02*
X13878D01*
X-13622Y-287061D02*
X-12022D01*
X12178D02*
X13778D01*
X-13622Y-287161D02*
X-11922D01*
X12078D02*
X13778D01*
X-13522Y-287261D02*
X-11922D01*
X12078D02*
X13678D01*
X-13522Y-287361D02*
X-11822D01*
X11978D02*
X13678D01*
X-13422Y-287461D02*
X-11822D01*
X11978D02*
X13578D01*
X-13422Y-287561D02*
X-11722D01*
X11878D02*
X13578D01*
X-13422Y-287661D02*
X-11722D01*
X11878D02*
X13578D01*
X-13322Y-287761D02*
X-11622D01*
X11778D02*
X13478D01*
X-13322Y-287861D02*
X-11622D01*
X11778D02*
X13478D01*
X-13322Y-287961D02*
X-11522D01*
X11678D02*
X13478D01*
X-13222Y-288061D02*
X-11522D01*
X11678D02*
X13378D01*
X-13222Y-288161D02*
X-11422D01*
X11578D02*
X13378D01*
X-13122Y-288261D02*
X-11322D01*
X11478D02*
X13278D01*
X-13122Y-288361D02*
X-11322D01*
X11478D02*
X13278D01*
X-13022Y-288461D02*
X-11222D01*
X11378D02*
X13178D01*
X-13022Y-288561D02*
X-11122D01*
X11278D02*
X13178D01*
X-12922Y-288661D02*
X-11022D01*
X11178D02*
X13078D01*
X-12822Y-288761D02*
X-11022D01*
X11178D02*
X12978D01*
X-12822Y-288861D02*
X-10922D01*
X11078D02*
X12978D01*
X-12722Y-288961D02*
X-10822D01*
X10978D02*
X12878D01*
X-12722Y-289061D02*
X-10722D01*
X10878D02*
X12878D01*
X-12622Y-289161D02*
X-10722D01*
X10878D02*
X12778D01*
X-12522Y-289261D02*
X-10622D01*
X10778D02*
X12678D01*
X-12522Y-289361D02*
X-10522D01*
X10678D02*
X12678D01*
X-12422Y-289461D02*
X-10422D01*
X10578D02*
X12578D01*
X-12322Y-289561D02*
X-10322D01*
X10478D02*
X12478D01*
X-12322Y-289661D02*
X-10222D01*
X10378D02*
X12478D01*
X-12222Y-289761D02*
X-10122D01*
X10278D02*
X12378D01*
X-12122Y-289861D02*
X-10022D01*
X10178D02*
X12278D01*
X-12022Y-289961D02*
X-9922D01*
X10078D02*
X12178D01*
X-12022Y-290061D02*
X-9822D01*
X9978D02*
X12178D01*
X-11922Y-290161D02*
X-9722D01*
X9878D02*
X12078D01*
X-11822Y-290261D02*
X-9622D01*
X9778D02*
X11978D01*
X-11722Y-290361D02*
X-9522D01*
X9678D02*
X11878D01*
X-11622Y-290461D02*
X-9422D01*
X9578D02*
X11778D01*
X-11522Y-290561D02*
X-9222D01*
X9378D02*
X11678D01*
X-11522Y-290661D02*
X-9122D01*
X9278D02*
X11678D01*
X-11422Y-290761D02*
X-9022D01*
X9178D02*
X11578D01*
X-11322Y-290861D02*
X-8822D01*
X8978D02*
X11478D01*
X-11222Y-290961D02*
X-8622D01*
X8778D02*
X11378D01*
X-11122Y-291061D02*
X-8522D01*
X8678D02*
X11278D01*
X-11022Y-291161D02*
X-8322D01*
X8478D02*
X11178D01*
X-10822Y-291261D02*
X-8222D01*
X8378D02*
X10978D01*
X-10722Y-291361D02*
X-8022D01*
X8178D02*
X10878D01*
X-10622Y-291461D02*
X-7822D01*
X7978D02*
X10778D01*
X-10522Y-291561D02*
X-7622D01*
X7778D02*
X10678D01*
X-10422Y-291661D02*
X-7322D01*
X7478D02*
X10578D01*
X-10222Y-291761D02*
X-7122D01*
X7278D02*
X10378D01*
X-10122Y-291861D02*
X-6822D01*
X6978D02*
X10278D01*
X-10022Y-291961D02*
X-6622D01*
X6778D02*
X10178D01*
X-9822Y-292061D02*
X-6222D01*
X6378D02*
X9978D01*
X-9722Y-292161D02*
X-5822D01*
X5978D02*
X9878D01*
X-9522Y-292261D02*
X-5422D01*
X5578D02*
X9678D01*
X-9422Y-292361D02*
X-3922D01*
X4078D02*
X9578D01*
X-9222Y-292461D02*
X-3522D01*
X3678D02*
X9378D01*
X-9122Y-292561D02*
X-3422D01*
X3578D02*
X9278D01*
X-8822Y-292661D02*
X-3322D01*
X3478D02*
X8978D01*
X-8722Y-292761D02*
X-3222D01*
X3378D02*
X8878D01*
X-8522Y-292861D02*
X-3222D01*
X3378D02*
X8678D01*
X-8322Y-292961D02*
X-3222D01*
X3378D02*
X8478D01*
X-8022Y-293061D02*
X-3222D01*
X3378D02*
X8178D01*
X-7822Y-293161D02*
X-3222D01*
X3378D02*
X7978D01*
X-7522Y-293261D02*
X-3222D01*
X3378D02*
X7678D01*
X-7322Y-293361D02*
X-3222D01*
X3378D02*
X7478D01*
X-7022Y-293461D02*
X-3222D01*
X3378D02*
X7178D01*
X-6622Y-293561D02*
X-3322D01*
X3478D02*
X6778D01*
X-6222Y-293661D02*
X-3322D01*
X3478D02*
X6378D01*
X-5722Y-293761D02*
X-3422D01*
X3578D02*
X5878D01*
X-5022Y-293861D02*
X-3622D01*
X3778D02*
X5178D01*
D32*
X-1276Y-183646D02*
G03*
X-1276Y-183646I-492J0D01*
G01*
X2286Y-93020D02*
G03*
X2286Y-93020I-492J0D01*
G01*
X-1298Y96407D02*
G03*
X-1298Y96407I-492J0D01*
G01*
X2260Y190634D02*
G03*
X2260Y190634I-492J0D01*
G01*
X33786Y-192710D02*
G03*
X33786Y-192710I-492J0D01*
G01*
X-32776Y-83957D02*
G03*
X-32776Y-83957I-492J0D01*
G01*
X33763Y87343D02*
G03*
X33763Y87343I-492J0D01*
G01*
X-32802Y199698D02*
G03*
X-32802Y199698I-492J0D01*
G01*
X12598Y180118D02*
G03*
X12598Y180118I-492J0D01*
G01*
D33*
X14370Y144980D02*
X30118D01*
X14370Y132382D02*
X30118D01*
X-37424Y215978D02*
X-21676D01*
X-37424Y203380D02*
X-21676D01*
X21654Y83661D02*
X37402D01*
X21654Y71063D02*
X37402D01*
X-37398Y-67676D02*
X-21650D01*
X-37398Y-80275D02*
X-21650D01*
X21676Y-196391D02*
X37424D01*
X21676Y-208990D02*
X37424D01*
X-36811Y155118D02*
X-21063D01*
X-36811Y142520D02*
X-21063D01*
X21654Y66831D02*
X37402D01*
X21654Y54232D02*
X37402D01*
X8665Y-162976D02*
X9650D01*
X8665Y-181087D02*
X9650D01*
X-2161Y-162976D02*
X-1177D01*
X-2161Y-181087D02*
X-1177D01*
X9650D02*
Y-162976D01*
X-2161Y-181087D02*
Y-162976D01*
X-9624Y-113690D02*
X-8639D01*
X-9624Y-95579D02*
X-8639D01*
X1203Y-113690D02*
X2187D01*
X1203Y-95579D02*
X2187D01*
X-9624Y-113690D02*
Y-95579D01*
X2187Y-113690D02*
Y-95579D01*
X8642Y117076D02*
X9627D01*
X8642Y98966D02*
X9627D01*
X-2184Y117076D02*
X-1200D01*
X-2184Y98966D02*
X-1200D01*
X9627D02*
Y117076D01*
X-2184Y98966D02*
Y117076D01*
X-9650Y169965D02*
X-8665D01*
X-9650Y188075D02*
X-8665D01*
X1177Y169965D02*
X2161D01*
X1177Y188075D02*
X2161D01*
X-9650Y169965D02*
Y188075D01*
X2161Y169965D02*
Y188075D01*
X-1768Y-197903D02*
Y-194360D01*
X4335Y-197903D02*
Y-194360D01*
X22368Y-179914D02*
X28668D01*
X22368Y-191725D02*
X28668D01*
X12325Y-82306D02*
Y-78763D01*
X6223Y-82306D02*
Y-78763D01*
X-28642Y-96752D02*
X-22343D01*
X-28642Y-84941D02*
X-22343D01*
X-1791Y82150D02*
Y85693D01*
X4312Y82150D02*
Y85693D01*
X22346Y100139D02*
X28645D01*
X22346Y88328D02*
X28645D01*
X1772Y204921D02*
Y208465D01*
X-4331Y204921D02*
Y208465D01*
X-28668Y186902D02*
X-22368D01*
X-28668Y198713D02*
X-22368D01*
X28839Y211024D02*
X33169D01*
X28839Y182677D02*
X33169D01*
X8366Y211024D02*
X12697D01*
X8366Y182677D02*
X12697D01*
X33169D02*
Y211024D01*
X8366Y182677D02*
Y211024D01*
D34*
X-53285Y292317D02*
X-55284D01*
X-54284D01*
Y287319D01*
X-55284Y286319D01*
X-56284D01*
X-57284Y287319D01*
X-47287Y286319D02*
X-51285D01*
X-47287Y290318D01*
Y291317D01*
X-48286Y292317D01*
X-50286D01*
X-51285Y291317D01*
X36381Y292317D02*
X34381D01*
X35381D01*
Y287319D01*
X34381Y286319D01*
X33382D01*
X32382Y287319D01*
X38380Y286319D02*
X40379D01*
X39380D01*
Y292317D01*
X38380Y291317D01*
X-313325Y-283880D02*
X-314325Y-282880D01*
X-316324D01*
X-317324Y-283880D01*
Y-284879D01*
X-316324Y-285879D01*
X-314325D01*
X-313325Y-286879D01*
Y-287878D01*
X-314325Y-288878D01*
X-316324D01*
X-317324Y-287878D01*
X-311326Y-288878D02*
X-307327Y-284879D01*
X-305328Y-288878D02*
Y-282880D01*
X-301329Y-288878D01*
Y-282880D01*
X-289333Y-283880D02*
X-290333Y-282880D01*
X-292332D01*
X-293332Y-283880D01*
Y-284879D01*
X-292332Y-285879D01*
X-290333D01*
X-289333Y-286879D01*
Y-287878D01*
X-290333Y-288878D01*
X-292332D01*
X-293332Y-287878D01*
X-283335Y-283880D02*
X-284335Y-282880D01*
X-286334D01*
X-287334Y-283880D01*
Y-287878D01*
X-286334Y-288878D01*
X-284335D01*
X-283335Y-287878D01*
Y-285879D01*
X-285334D01*
X-281336Y-282880D02*
Y-288878D01*
X-277337D01*
X-271339Y-282880D02*
X-275338D01*
Y-288878D01*
X-271339D01*
X-275338Y-285879D02*
X-273338D01*
X-269339Y-282880D02*
Y-288878D01*
X-266340D01*
X-265341Y-287878D01*
Y-283880D01*
X-266340Y-282880D01*
X-269339D01*
X-259343Y-283880D02*
X-260342Y-282880D01*
X-262342D01*
X-263341Y-283880D01*
Y-284879D01*
X-262342Y-285879D01*
X-260342D01*
X-259343Y-286879D01*
Y-287878D01*
X-260342Y-288878D01*
X-262342D01*
X-263341Y-287878D01*
X-257343Y-285879D02*
X-253345D01*
X-251345Y-283880D02*
X-250346Y-282880D01*
X-248346D01*
X-247346Y-283880D01*
Y-284879D01*
X-248346Y-285879D01*
X-249346D01*
X-248346D01*
X-247346Y-286879D01*
Y-287878D01*
X-248346Y-288878D01*
X-250346D01*
X-251345Y-287878D01*
X-245347Y-283880D02*
X-244348Y-282880D01*
X-242348D01*
X-241349Y-283880D01*
Y-287878D01*
X-242348Y-288878D01*
X-244348D01*
X-245347Y-287878D01*
Y-283880D01*
X-239349Y-288878D02*
X-237350D01*
X-238350D01*
Y-282880D01*
X-239349Y-283880D01*
X-234351Y-282880D02*
Y-288878D01*
X-231352D01*
X-230352Y-287878D01*
Y-286879D01*
X-231352Y-285879D01*
X-234351D01*
X-231352D01*
X-230352Y-284879D01*
Y-283880D01*
X-231352Y-282880D01*
X-234351D01*
X-228353Y-285879D02*
X-224354D01*
X-222355Y-282880D02*
Y-286879D01*
X-220355Y-288878D01*
X-218356Y-286879D01*
Y-282880D01*
X-216357Y-288878D02*
X-214357D01*
X-215357D01*
Y-282880D01*
X-216357Y-283880D01*
X-211358Y-288878D02*
Y-287878D01*
X-210359D01*
Y-288878D01*
X-211358D01*
X-206360Y-283880D02*
X-205360Y-282880D01*
X-203361D01*
X-202361Y-283880D01*
Y-287878D01*
X-203361Y-288878D01*
X-205360D01*
X-206360Y-287878D01*
Y-283880D01*
X18504Y-289515D02*
X14505D01*
X-18504Y-289619D02*
X-14505D01*
X-16505Y-287620D02*
Y-291618D01*
X229352Y-283880D02*
X228353Y-282880D01*
X226353D01*
X225354Y-283880D01*
Y-287878D01*
X226353Y-288878D01*
X228353D01*
X229352Y-287878D01*
X235350Y-283880D02*
X234351Y-282880D01*
X232351D01*
X231352Y-283880D01*
Y-287878D01*
X232351Y-288878D01*
X234351D01*
X235350Y-287878D01*
X237350Y-285879D02*
X241349D01*
X243348Y-282880D02*
Y-288878D01*
X246347D01*
X247347Y-287878D01*
Y-286879D01*
X246347Y-285879D01*
X243348D01*
X246347D01*
X247347Y-284879D01*
Y-283880D01*
X246347Y-282880D01*
X243348D01*
X249346D02*
Y-283880D01*
X251345Y-285879D01*
X253345Y-283880D01*
Y-282880D01*
X251345Y-285879D02*
Y-288878D01*
X255344Y-285879D02*
X259343D01*
X265341Y-283880D02*
X264341Y-282880D01*
X262342D01*
X261342Y-283880D01*
Y-284879D01*
X262342Y-285879D01*
X264341D01*
X265341Y-286879D01*
Y-287878D01*
X264341Y-288878D01*
X262342D01*
X261342Y-287878D01*
X267340Y-288878D02*
Y-284879D01*
X269339Y-282880D01*
X271339Y-284879D01*
Y-288878D01*
Y-285879D01*
X267340D01*
X279336Y-283880D02*
X280336Y-282880D01*
X282335D01*
X283335Y-283880D01*
Y-284879D01*
X282335Y-285879D01*
X281336D01*
X282335D01*
X283335Y-286879D01*
Y-287878D01*
X282335Y-288878D01*
X280336D01*
X279336Y-287878D01*
X285334Y-288878D02*
Y-287878D01*
X286334D01*
Y-288878D01*
X285334D01*
X290333Y-283880D02*
X291332Y-282880D01*
X293332D01*
X294331Y-283880D01*
Y-287878D01*
X293332Y-288878D01*
X291332D01*
X290333Y-287878D01*
Y-283880D01*
X-297626Y-272935D02*
Y-277658D01*
X-295264D01*
X-294477Y-276870D01*
Y-273722D01*
X-295264Y-272935D01*
X-297626D01*
X-290541Y-277658D02*
X-292115D01*
X-292903Y-276870D01*
Y-275296D01*
X-292115Y-274509D01*
X-290541D01*
X-289754Y-275296D01*
Y-276083D01*
X-292903D01*
X-288180Y-277658D02*
X-285818D01*
X-285031Y-276870D01*
X-285818Y-276083D01*
X-287393D01*
X-288180Y-275296D01*
X-287393Y-274509D01*
X-285031D01*
X-283457Y-277658D02*
X-281883D01*
X-282670D01*
Y-274509D01*
X-283457D01*
X-277947Y-279232D02*
X-277160D01*
X-276373Y-278445D01*
Y-274509D01*
X-278734D01*
X-279521Y-275296D01*
Y-276870D01*
X-278734Y-277658D01*
X-276373D01*
X-274798D02*
Y-274509D01*
X-272437D01*
X-271650Y-275296D01*
Y-277658D01*
X-267714D02*
X-269288D01*
X-270075Y-276870D01*
Y-275296D01*
X-269288Y-274509D01*
X-267714D01*
X-266927Y-275296D01*
Y-276083D01*
X-270075D01*
X-262204Y-272935D02*
Y-277658D01*
X-264565D01*
X-265353Y-276870D01*
Y-275296D01*
X-264565Y-274509D01*
X-262204D01*
X-252758Y-277658D02*
X-255907D01*
X-252758Y-274509D01*
Y-273722D01*
X-253545Y-272935D01*
X-255120D01*
X-255907Y-273722D01*
X-251184Y-272935D02*
X-248035D01*
Y-273722D01*
X-251184Y-276870D01*
Y-277658D01*
X-246461D02*
X-243312Y-274509D01*
X-241738Y-277658D02*
X-240164D01*
X-240951D01*
Y-272935D01*
X-241738Y-273722D01*
X-237802Y-277658D02*
X-236228D01*
X-237015D01*
Y-272935D01*
X-237802Y-273722D01*
X-233867Y-277658D02*
X-230718Y-274509D01*
X-229144Y-277658D02*
X-227570D01*
X-228357D01*
Y-272935D01*
X-229144Y-273722D01*
X-225208D02*
X-224421Y-272935D01*
X-222847D01*
X-222059Y-273722D01*
Y-274509D01*
X-222847Y-275296D01*
X-222059Y-276083D01*
Y-276870D01*
X-222847Y-277658D01*
X-224421D01*
X-225208Y-276870D01*
Y-276083D01*
X-224421Y-275296D01*
X-225208Y-274509D01*
Y-273722D01*
X-224421Y-275296D02*
X-222847D01*
X221272Y-277658D02*
X223634D01*
X224421Y-276870D01*
X223634Y-276083D01*
X222059D01*
X221272Y-275296D01*
X222059Y-274509D01*
X224421D01*
X225995D02*
Y-276870D01*
X226782Y-277658D01*
X229144D01*
Y-274509D01*
X230718Y-279232D02*
Y-274509D01*
X233080D01*
X233867Y-275296D01*
Y-276870D01*
X233080Y-277658D01*
X230718D01*
X237802D02*
X236228D01*
X235441Y-276870D01*
Y-275296D01*
X236228Y-274509D01*
X237802D01*
X238590Y-275296D01*
Y-276083D01*
X235441D01*
X240164Y-274509D02*
Y-277658D01*
Y-276083D01*
X240951Y-275296D01*
X241738Y-274509D01*
X242525D01*
X246461Y-279232D02*
X247248D01*
X248035Y-278445D01*
Y-274509D01*
X245674D01*
X244887Y-275296D01*
Y-276870D01*
X245674Y-277658D01*
X248035D01*
X249610Y-274509D02*
Y-277658D01*
Y-276083D01*
X250397Y-275296D01*
X251184Y-274509D01*
X251971D01*
X256694Y-277658D02*
X255120D01*
X254332Y-276870D01*
Y-275296D01*
X255120Y-274509D01*
X256694D01*
X257481Y-275296D01*
Y-276083D01*
X254332D01*
X261417Y-277658D02*
X259842D01*
X259055Y-276870D01*
Y-275296D01*
X259842Y-274509D01*
X261417D01*
X262204Y-275296D01*
Y-276083D01*
X259055D01*
X263778Y-277658D02*
Y-274509D01*
X266140D01*
X266927Y-275296D01*
Y-277658D01*
X268501D02*
X270075D01*
X269288D01*
Y-272935D01*
X268501D01*
X273224Y-274509D02*
X274798D01*
X275586Y-275296D01*
Y-277658D01*
X273224D01*
X272437Y-276870D01*
X273224Y-276083D01*
X275586D01*
X277160Y-272935D02*
Y-277658D01*
X279521D01*
X280308Y-276870D01*
Y-276083D01*
Y-275296D01*
X279521Y-274509D01*
X277160D01*
X281883Y-277658D02*
Y-276870D01*
X282670D01*
Y-277658D01*
X281883D01*
X288967Y-274509D02*
X286606D01*
X285818Y-275296D01*
Y-276870D01*
X286606Y-277658D01*
X288967D01*
X291328D02*
X292903D01*
X293690Y-276870D01*
Y-275296D01*
X292903Y-274509D01*
X291328D01*
X290541Y-275296D01*
Y-276870D01*
X291328Y-277658D01*
X295264D02*
Y-274509D01*
X296051D01*
X296838Y-275296D01*
Y-277658D01*
Y-275296D01*
X297626Y-274509D01*
X298413Y-275296D01*
Y-277658D01*
X-44384Y234941D02*
X-38386D01*
Y237940D01*
X-39386Y238940D01*
X-43384D01*
X-44384Y237940D01*
Y234941D01*
Y240939D02*
Y242938D01*
Y241939D01*
X-38386D01*
Y240939D01*
Y242938D01*
Y245937D02*
X-44384D01*
X-42384Y247937D01*
X-44384Y249936D01*
X-38386D01*
X-41385Y251935D02*
Y255934D01*
X-34640Y234941D02*
X-28642D01*
Y237940D01*
X-29641Y238940D01*
X-33640D01*
X-34640Y237940D01*
Y234941D01*
Y240939D02*
Y242938D01*
Y241939D01*
X-28642D01*
Y240939D01*
Y242938D01*
Y245937D02*
X-34640D01*
X-32640Y247937D01*
X-34640Y249936D01*
X-28642D01*
X-31641Y251935D02*
Y255934D01*
X-33640Y253935D02*
X-29641D01*
M02*
