%FSLAX25Y25*%
%MOIN*%
G70*
G01*
G75*
G04 Layer_Color=8388736*
%ADD10R,0.13386X0.04724*%
%ADD11R,0.03543X0.02362*%
%ADD12R,0.03543X0.07087*%
%ADD13R,0.02362X0.03543*%
%ADD14R,0.09843X0.06693*%
%ADD15R,0.20079X0.09252*%
%ADD16R,0.11024X0.04921*%
%ADD17R,0.01378X0.02165*%
%ADD18R,0.01772X0.05315*%
%ADD19R,0.07874X0.06693*%
%ADD20R,0.07087X0.15354*%
%ADD21R,0.05118X0.21654*%
%ADD22C,0.00591*%
%ADD23C,0.01772*%
%ADD24C,0.01181*%
%ADD25C,0.15748*%
%ADD26O,0.15748X0.29134*%
%ADD27C,0.00984*%
%ADD28C,0.00100*%
%ADD29C,0.00787*%
%ADD30R,0.10630X0.04528*%
%ADD31R,0.00984X0.01772*%
%ADD32R,0.13780X0.05118*%
%ADD33R,0.03937X0.02756*%
%ADD34R,0.03937X0.07480*%
%ADD35R,0.02756X0.03937*%
%ADD36R,0.10236X0.07087*%
%ADD37R,0.20472X0.09646*%
%ADD38R,0.11417X0.05315*%
%ADD39R,0.01772X0.02559*%
%ADD40R,0.02165X0.05709*%
%ADD41R,0.08268X0.07087*%
%ADD42R,0.07480X0.15748*%
%ADD43R,0.05512X0.22047*%
%ADD44C,0.16142*%
%ADD45O,0.16142X0.29528*%
D32*
X42126Y-106299D02*
D03*
Y-129921D02*
D03*
X-16142D02*
D03*
Y-106299D02*
D03*
D33*
X16240Y104232D02*
D03*
Y98327D02*
D03*
D34*
X-4921Y-87205D02*
D03*
X-16339D02*
D03*
X-4921Y-96457D02*
D03*
X-16339D02*
D03*
D35*
X-7972Y-138583D02*
D03*
X-2067D02*
D03*
X1870D02*
D03*
X7776D02*
D03*
X2854Y-144685D02*
D03*
X-3051D02*
D03*
X36614Y103150D02*
D03*
X30709D02*
D03*
X26772D02*
D03*
X20866D02*
D03*
D36*
X5118Y-94095D02*
D03*
X20866D02*
D03*
D37*
Y-108169D02*
D03*
Y-128051D02*
D03*
D38*
X-236221Y199902D02*
D03*
Y193799D02*
D03*
Y121161D02*
D03*
Y115059D02*
D03*
Y42421D02*
D03*
Y36319D02*
D03*
Y-36319D02*
D03*
Y-42421D02*
D03*
Y-115059D02*
D03*
Y-121161D02*
D03*
Y-193799D02*
D03*
Y-199902D02*
D03*
X-157480Y199902D02*
D03*
Y193799D02*
D03*
Y121161D02*
D03*
Y115059D02*
D03*
Y42421D02*
D03*
Y36319D02*
D03*
Y-36319D02*
D03*
Y-42421D02*
D03*
Y-115059D02*
D03*
Y-121161D02*
D03*
Y-193799D02*
D03*
Y-199902D02*
D03*
X-78740Y199902D02*
D03*
Y193799D02*
D03*
Y121161D02*
D03*
Y115059D02*
D03*
Y42421D02*
D03*
Y36319D02*
D03*
Y-36319D02*
D03*
Y-42421D02*
D03*
Y-115059D02*
D03*
Y-121161D02*
D03*
Y-193799D02*
D03*
Y-199902D02*
D03*
X78740Y199902D02*
D03*
Y193799D02*
D03*
Y121161D02*
D03*
Y115059D02*
D03*
Y42421D02*
D03*
Y36319D02*
D03*
Y-36319D02*
D03*
Y-42421D02*
D03*
Y-115059D02*
D03*
Y-121161D02*
D03*
Y-193799D02*
D03*
Y-199902D02*
D03*
X157480Y199902D02*
D03*
Y193799D02*
D03*
Y121161D02*
D03*
Y115059D02*
D03*
Y42421D02*
D03*
Y36319D02*
D03*
Y-36319D02*
D03*
Y-42421D02*
D03*
Y-115059D02*
D03*
Y-121161D02*
D03*
Y-193799D02*
D03*
Y-199902D02*
D03*
X236221Y199902D02*
D03*
Y193799D02*
D03*
Y121161D02*
D03*
Y115059D02*
D03*
Y42421D02*
D03*
Y36319D02*
D03*
Y-36319D02*
D03*
Y-42421D02*
D03*
Y-115059D02*
D03*
Y-121161D02*
D03*
Y-193799D02*
D03*
Y-199902D02*
D03*
D39*
X-242421Y201279D02*
D03*
X-230020D02*
D03*
X-242421Y192421D02*
D03*
X-230020D02*
D03*
X-242421Y122539D02*
D03*
X-230020D02*
D03*
X-242421Y113681D02*
D03*
X-230020D02*
D03*
X-242421Y43799D02*
D03*
X-230020D02*
D03*
X-242421Y34941D02*
D03*
X-230020D02*
D03*
X-242421Y-34941D02*
D03*
X-230020D02*
D03*
X-242421Y-43799D02*
D03*
X-230020D02*
D03*
X-242421Y-113681D02*
D03*
X-230020D02*
D03*
X-242421Y-122539D02*
D03*
X-230020D02*
D03*
X-242421Y-192421D02*
D03*
X-230020D02*
D03*
X-242421Y-201279D02*
D03*
X-230020D02*
D03*
X-163681Y201279D02*
D03*
X-151279D02*
D03*
X-163681Y192421D02*
D03*
X-151279D02*
D03*
X-163681Y122539D02*
D03*
X-151279D02*
D03*
X-163681Y113681D02*
D03*
X-151279D02*
D03*
X-163681Y43799D02*
D03*
X-151279D02*
D03*
X-163681Y34941D02*
D03*
X-151279D02*
D03*
X-163681Y-34941D02*
D03*
X-151279D02*
D03*
X-163681Y-43799D02*
D03*
X-151279D02*
D03*
X-163681Y-113681D02*
D03*
X-151279D02*
D03*
X-163681Y-122539D02*
D03*
X-151279D02*
D03*
X-163681Y-192421D02*
D03*
X-151279D02*
D03*
X-163681Y-201279D02*
D03*
X-151279D02*
D03*
X-84941Y201279D02*
D03*
X-72539D02*
D03*
X-84941Y192421D02*
D03*
X-72539D02*
D03*
X-84941Y122539D02*
D03*
X-72539D02*
D03*
X-84941Y113681D02*
D03*
X-72539D02*
D03*
X-84941Y43799D02*
D03*
X-72539D02*
D03*
X-84941Y34941D02*
D03*
X-72539D02*
D03*
X-84941Y-34941D02*
D03*
X-72539D02*
D03*
X-84941Y-43799D02*
D03*
X-72539D02*
D03*
X-84941Y-113681D02*
D03*
X-72539D02*
D03*
X-84941Y-122539D02*
D03*
X-72539D02*
D03*
X-84941Y-192421D02*
D03*
X-72539D02*
D03*
X-84941Y-201279D02*
D03*
X-72539D02*
D03*
X72539Y201279D02*
D03*
X84941D02*
D03*
X72539Y192421D02*
D03*
X84941D02*
D03*
X72539Y122539D02*
D03*
X84941D02*
D03*
X72539Y113681D02*
D03*
X84941D02*
D03*
X72539Y43799D02*
D03*
X84941D02*
D03*
X72539Y34941D02*
D03*
X84941D02*
D03*
X72539Y-34941D02*
D03*
X84941D02*
D03*
X72539Y-43799D02*
D03*
X84941D02*
D03*
X72539Y-113681D02*
D03*
X84941D02*
D03*
X72539Y-122539D02*
D03*
X84941D02*
D03*
X72539Y-192421D02*
D03*
X84941D02*
D03*
X72539Y-201279D02*
D03*
X84941D02*
D03*
X151279Y201279D02*
D03*
X163681D02*
D03*
X151279Y192421D02*
D03*
X163681D02*
D03*
X151279Y122539D02*
D03*
X163681D02*
D03*
X151279Y113681D02*
D03*
X163681D02*
D03*
X151279Y43799D02*
D03*
X163681D02*
D03*
X151279Y34941D02*
D03*
X163681D02*
D03*
X151279Y-34941D02*
D03*
X163681D02*
D03*
X151279Y-43799D02*
D03*
X163681D02*
D03*
X151279Y-113681D02*
D03*
X163681D02*
D03*
X151279Y-122539D02*
D03*
X163681D02*
D03*
X151279Y-192421D02*
D03*
X163681D02*
D03*
X151279Y-201279D02*
D03*
X163681D02*
D03*
X230020Y201279D02*
D03*
X242421D02*
D03*
X230020Y192421D02*
D03*
X242421D02*
D03*
X230020Y122539D02*
D03*
X242421D02*
D03*
X230020Y113681D02*
D03*
X242421D02*
D03*
X230020Y43799D02*
D03*
X242421D02*
D03*
X230020Y34941D02*
D03*
X242421D02*
D03*
X230020Y-34941D02*
D03*
X242421D02*
D03*
X230020Y-43799D02*
D03*
X242421D02*
D03*
X230020Y-113681D02*
D03*
X242421D02*
D03*
X230020Y-122539D02*
D03*
X242421D02*
D03*
X230020Y-192421D02*
D03*
X242421D02*
D03*
X230020Y-201279D02*
D03*
X242421D02*
D03*
D40*
X-3839Y-125886D02*
D03*
X-1280D02*
D03*
X1280D02*
D03*
X3839D02*
D03*
X-3839Y-110335D02*
D03*
X-1280D02*
D03*
X1280D02*
D03*
X3839D02*
D03*
D41*
X0Y-118110D02*
D03*
D42*
X-22441Y154134D02*
D03*
X22441D02*
D03*
D43*
X9843Y125394D02*
D03*
X0D02*
D03*
X-9842D02*
D03*
D44*
X196850Y196850D02*
D03*
X147638Y147638D02*
D03*
X-147638D02*
D03*
X-196850Y196850D02*
D03*
X-147638Y-147638D02*
D03*
X-196850Y-196850D02*
D03*
X147638Y-147638D02*
D03*
X196850Y-196850D02*
D03*
D45*
X-29528Y187008D02*
D03*
X29528D02*
D03*
M02*
