M48
;Layer_Color=9474304
;FILE_FORMAT=2:5
INCH,LZ
;TYPE=NON_PLATED
T1F00S00C0.03937
T2F00S00C0.08268
T3F00S00C0.09646
T4F00S00C0.16142
T6F00S00C0.24016
%
T01
X-0063396Y-0377805
X-0055404
X-00594Y-0347805
T02
X0Y0310236
T03
X-00694Y-0370305
X-00494
Y-0347805
X-00694
T04
X-0669291Y-0393701
X0669291
X019685Y-015748
X-019685
X-0147638Y-0108268
X0147638
X-0147638Y0187008
X-019685Y0236221
X0147638Y0187008
X019685Y0236221
X0669291Y0393701
X-0669291
T06
X-0393701Y-0393701
X0393701
Y0393701
X-0393701
M30
