%FSLAX25Y25*%
%MOIN*%
G70*
G01*
G75*
G04 Layer_Color=8388736*
%ADD10C,0.01969*%
%ADD11C,0.03543*%
%ADD12R,0.03543X0.02362*%
%ADD13R,0.02362X0.03543*%
%ADD14R,0.07087X0.03543*%
%ADD15R,0.03158X0.03827*%
%ADD16R,0.05118X0.21654*%
%ADD17R,0.07087X0.15354*%
%ADD18R,0.03543X0.05906*%
%ADD19R,0.05906X0.03543*%
%ADD20R,0.19685X0.19685*%
%ADD21R,0.03543X0.07087*%
%ADD22R,0.05118X0.02756*%
%ADD23R,0.06693X0.09843*%
%ADD24R,0.04803X0.04921*%
%ADD25C,0.03150*%
%ADD26R,0.15354X0.24410*%
%ADD27R,0.12992X0.17323*%
%ADD28R,0.09252X0.20079*%
%ADD29R,0.29528X0.07087*%
%ADD30R,0.01378X0.02165*%
%ADD31R,0.11024X0.04921*%
%ADD32R,0.04724X0.13386*%
%ADD33R,0.06693X0.07874*%
%ADD34R,0.05315X0.01772*%
%ADD35R,0.06693X0.06693*%
%ADD36R,0.01181X0.03150*%
%ADD37R,0.03150X0.01181*%
%ADD38R,0.13386X0.04724*%
%ADD39R,0.03543X0.03150*%
%ADD40C,0.00100*%
%ADD41C,0.00591*%
%ADD42C,0.03937*%
%ADD43C,0.02362*%
%ADD44C,0.04331*%
%ADD45C,0.01181*%
%ADD46C,0.01575*%
%ADD47C,0.02756*%
%ADD48C,0.04724*%
%ADD49C,0.05906*%
%ADD50C,0.03150*%
%ADD51C,0.03543*%
%ADD52C,0.09055*%
%ADD53C,0.07874*%
%ADD54O,0.15748X0.29134*%
%ADD55C,0.15748*%
%ADD56C,0.23622*%
%ADD57C,0.00984*%
%ADD58C,0.00787*%
%ADD59C,0.01000*%
%ADD60R,0.15748X0.15748*%
%ADD61R,0.00984X0.01772*%
%ADD62R,0.10630X0.04528*%
%ADD63R,0.06299X0.06299*%
%ADD64R,0.03937X0.02756*%
%ADD65R,0.02756X0.03937*%
%ADD66R,0.07480X0.03937*%
%ADD67R,0.03551X0.04221*%
%ADD68R,0.05512X0.22047*%
%ADD69R,0.07480X0.15748*%
%ADD70R,0.03937X0.06299*%
%ADD71R,0.06299X0.03937*%
%ADD72R,0.20079X0.20079*%
%ADD73R,0.03937X0.07480*%
%ADD74R,0.05512X0.03150*%
%ADD75R,0.07087X0.10236*%
%ADD76R,0.05197X0.05315*%
%ADD77R,0.15748X0.24803*%
%ADD78R,0.13386X0.17716*%
%ADD79R,0.09646X0.20472*%
%ADD80R,0.29921X0.07480*%
%ADD81R,0.01772X0.02559*%
%ADD82R,0.11417X0.05315*%
%ADD83R,0.05118X0.13780*%
%ADD84R,0.07087X0.08268*%
%ADD85R,0.05709X0.02165*%
%ADD86R,0.07087X0.07087*%
%ADD87R,0.01575X0.03543*%
%ADD88R,0.03543X0.01575*%
%ADD89R,0.13780X0.05118*%
%ADD90R,0.03937X0.03543*%
%ADD91C,0.03937*%
%ADD92C,0.09449*%
%ADD93C,0.08268*%
%ADD94O,0.16142X0.29528*%
%ADD95C,0.16142*%
%ADD96C,0.24016*%
D40*
X-25550Y407366D02*
X-22350D01*
X-26150Y407266D02*
X-21650D01*
X-26550Y407166D02*
X-21050D01*
X-26850Y407066D02*
X-20650D01*
X-27150Y406966D02*
X-20250D01*
X-27450Y406866D02*
X-19850D01*
X-27650Y406766D02*
X-19450D01*
X-27850Y406666D02*
X-19150D01*
X-28050Y406566D02*
X-18850D01*
X-28250Y406466D02*
X-18750D01*
X20150D02*
X29050D01*
X-28350Y406366D02*
X-18750D01*
X20150D02*
X29550D01*
X-28550Y406266D02*
X-18850D01*
X20150D02*
X29950D01*
X-28650Y406166D02*
X-18850D01*
X20150D02*
X30250D01*
X-28750Y406066D02*
X-18850D01*
X20150D02*
X30450D01*
X-28850Y405966D02*
X-18950D01*
X20150D02*
X30750D01*
X-28950Y405866D02*
X-18950D01*
X20150D02*
X30950D01*
X-29050Y405766D02*
X-18950D01*
X20150D02*
X31150D01*
X-29150Y405666D02*
X-18950D01*
X20150D02*
X31250D01*
X-29250Y405566D02*
X-19050D01*
X20150D02*
X31450D01*
X-29350Y405466D02*
X-19050D01*
X20150D02*
X31550D01*
X-29450Y405366D02*
X-19050D01*
X20150D02*
X31650D01*
X-29450Y405266D02*
X-19150D01*
X20150D02*
X31750D01*
X-29550Y405166D02*
X-19150D01*
X20150D02*
X31850D01*
X-29650Y405066D02*
X-19150D01*
X20150D02*
X31950D01*
X-29650Y404966D02*
X-19250D01*
X-17550D02*
X-12250D01*
X-9250D02*
X-4150D01*
X-3150D02*
X4050D01*
X8950D02*
X18750D01*
X20150D02*
X32050D01*
X-29750Y404866D02*
X-19250D01*
X-17550D02*
X-12350D01*
X-9250D02*
X-4150D01*
X-3150D02*
X4750D01*
X8950D02*
X18750D01*
X20150D02*
X32150D01*
X-29750Y404766D02*
X-19250D01*
X-17550D02*
X-12350D01*
X-9250D02*
X-4150D01*
X-3150D02*
X5150D01*
X8950D02*
X18750D01*
X20150D02*
X32250D01*
X-29850Y404666D02*
X-19350D01*
X-17550D02*
X-12350D01*
X-9250D02*
X-4150D01*
X-3150D02*
X5450D01*
X8950D02*
X18750D01*
X20150D02*
X32350D01*
X-29850Y404566D02*
X-19350D01*
X-17550D02*
X-12350D01*
X-9250D02*
X-4150D01*
X-3150D02*
X5650D01*
X8950D02*
X18750D01*
X20150D02*
X32350D01*
X-29850Y404466D02*
X-19350D01*
X-17550D02*
X-12350D01*
X-9250D02*
X-4150D01*
X-3150D02*
X5950D01*
X8950D02*
X18750D01*
X20150D02*
X32450D01*
X-29950Y404366D02*
X-19450D01*
X-17550D02*
X-12350D01*
X-9250D02*
X-4150D01*
X-3150D02*
X6150D01*
X8950D02*
X18750D01*
X20150D02*
X32450D01*
X-29950Y404266D02*
X-19450D01*
X-17550D02*
X-12350D01*
X-9250D02*
X-4150D01*
X-3150D02*
X6250D01*
X8950D02*
X18750D01*
X20150D02*
X32550D01*
X-29950Y404166D02*
X-19450D01*
X-17550D02*
X-12350D01*
X-9250D02*
X-4150D01*
X-3150D02*
X6450D01*
X8950D02*
X18750D01*
X20150D02*
X32550D01*
X-30050Y404066D02*
X-19550D01*
X-17550D02*
X-12350D01*
X-9250D02*
X-4150D01*
X-3150D02*
X6550D01*
X8950D02*
X18750D01*
X20150D02*
X32650D01*
X-30050Y403966D02*
X-19550D01*
X-17550D02*
X-12350D01*
X-9250D02*
X-4150D01*
X-3150D02*
X6750D01*
X8950D02*
X18750D01*
X20150D02*
X32650D01*
X-30050Y403866D02*
X-24050D01*
X-22450D02*
X-19550D01*
X-17550D02*
X-12350D01*
X-9250D02*
X-4150D01*
X-3150D02*
X6850D01*
X8950D02*
X18750D01*
X20150D02*
X32750D01*
X-30050Y403766D02*
X-24350D01*
X-21850D02*
X-19550D01*
X-17550D02*
X-12350D01*
X-9250D02*
X-4150D01*
X-3150D02*
X6950D01*
X8950D02*
X18750D01*
X20150D02*
X32750D01*
X-30050Y403666D02*
X-24550D01*
X-21450D02*
X-19650D01*
X-17550D02*
X-12350D01*
X-9250D02*
X-4150D01*
X-3150D02*
X7050D01*
X8950D02*
X18750D01*
X20150D02*
X32750D01*
X-30150Y403566D02*
X-24650D01*
X-21050D02*
X-19650D01*
X-17550D02*
X-12350D01*
X-9250D02*
X-4150D01*
X-3150D02*
X7150D01*
X8950D02*
X18750D01*
X20150D02*
X32850D01*
X-30150Y403466D02*
X-24750D01*
X-20750D02*
X-19650D01*
X-17550D02*
X-12350D01*
X-9250D02*
X-4150D01*
X-3150D02*
X7150D01*
X8950D02*
X18750D01*
X20150D02*
X32850D01*
X-30150Y403366D02*
X-24850D01*
X-20450D02*
X-19750D01*
X-17550D02*
X-12350D01*
X-9250D02*
X-4150D01*
X-3150D02*
X7250D01*
X8950D02*
X18750D01*
X20150D02*
X32850D01*
X-30150Y403266D02*
X-24850D01*
X-20150D02*
X-19750D01*
X-17550D02*
X-12350D01*
X-9250D02*
X-4150D01*
X-3150D02*
X7350D01*
X8950D02*
X18750D01*
X21450D02*
X32850D01*
X-30150Y403166D02*
X-24850D01*
X-19950D02*
X-19750D01*
X-17550D02*
X-12350D01*
X-9250D02*
X-4150D01*
X-3150D02*
X7450D01*
X8950D02*
X18750D01*
X21450D02*
X32950D01*
X-30150Y403066D02*
X-24850D01*
X-17550D02*
X-12350D01*
X-9250D02*
X-4150D01*
X-3150D02*
X7450D01*
X8950D02*
X18750D01*
X21450D02*
X25750D01*
X27650D02*
X32950D01*
X-30150Y402966D02*
X-24850D01*
X-17550D02*
X-12350D01*
X-9250D02*
X-4150D01*
X-3150D02*
X7550D01*
X8950D02*
X18750D01*
X21450D02*
X25750D01*
X27850D02*
X32950D01*
X-30150Y402866D02*
X-24850D01*
X-17550D02*
X-12350D01*
X-9250D02*
X-4150D01*
X-3150D02*
X7550D01*
X8950D02*
X18750D01*
X21450D02*
X25750D01*
X28050D02*
X32950D01*
X-30150Y402766D02*
X-24850D01*
X-17550D02*
X-12350D01*
X-9250D02*
X-4150D01*
X-3150D02*
X7650D01*
X8950D02*
X18750D01*
X21450D02*
X25750D01*
X28150D02*
X32950D01*
X-30150Y402666D02*
X-24850D01*
X-17550D02*
X-12350D01*
X-9250D02*
X-4150D01*
X-3150D02*
X7650D01*
X8950D02*
X18750D01*
X21450D02*
X25750D01*
X28250D02*
X32950D01*
X-30150Y402566D02*
X-24750D01*
X-17550D02*
X-12350D01*
X-9250D02*
X-4150D01*
X-3150D02*
X7750D01*
X8950D02*
X18750D01*
X21450D02*
X25750D01*
X28250D02*
X32950D01*
X-30150Y402466D02*
X-24650D01*
X-17550D02*
X-12350D01*
X-9250D02*
X-4150D01*
X-3150D02*
X7750D01*
X8950D02*
X18750D01*
X21450D02*
X25750D01*
X28350D02*
X33050D01*
X-30150Y402366D02*
X-24450D01*
X-17550D02*
X-12350D01*
X-9250D02*
X-4150D01*
X-3150D02*
X7750D01*
X8950D02*
X18750D01*
X21450D02*
X25750D01*
X28350D02*
X33050D01*
X-30150Y402266D02*
X-24350D01*
X-17550D02*
X-12350D01*
X-9250D02*
X-4150D01*
X-3150D02*
X7850D01*
X8950D02*
X18750D01*
X21450D02*
X25750D01*
X28350D02*
X33050D01*
X-30150Y402166D02*
X-24050D01*
X-17550D02*
X-12350D01*
X-9250D02*
X-4150D01*
X-3150D02*
X7850D01*
X8950D02*
X18750D01*
X21450D02*
X25750D01*
X28350D02*
X33050D01*
X-30050Y402066D02*
X-23850D01*
X-16350D02*
X-12350D01*
X-9250D02*
X-5350D01*
X-1950D02*
X7850D01*
X10150D02*
X18750D01*
X21450D02*
X25750D01*
X28350D02*
X33050D01*
X-30050Y401966D02*
X-23550D01*
X-16350D02*
X-12350D01*
X-9250D02*
X-5350D01*
X-1950D02*
X7850D01*
X10150D02*
X18750D01*
X21450D02*
X25750D01*
X28350D02*
X33050D01*
X-30050Y401866D02*
X-23250D01*
X-16350D02*
X-12350D01*
X-9250D02*
X-5350D01*
X-1950D02*
X1850D01*
X3550D02*
X7950D01*
X10150D02*
X14150D01*
X21450D02*
X25750D01*
X28350D02*
X33050D01*
X-30050Y401766D02*
X-22950D01*
X-16350D02*
X-12350D01*
X-9250D02*
X-5350D01*
X-1950D02*
X1850D01*
X3750D02*
X7950D01*
X10150D02*
X14150D01*
X21450D02*
X25750D01*
X28350D02*
X32950D01*
X-30050Y401666D02*
X-22650D01*
X-16350D02*
X-12350D01*
X-9250D02*
X-5350D01*
X-1950D02*
X1850D01*
X3850D02*
X7950D01*
X10150D02*
X14150D01*
X21450D02*
X25750D01*
X28350D02*
X32950D01*
X-29950Y401566D02*
X-22350D01*
X-16350D02*
X-12350D01*
X-9250D02*
X-5350D01*
X-1950D02*
X1850D01*
X3950D02*
X7950D01*
X10150D02*
X14150D01*
X21450D02*
X25750D01*
X28350D02*
X32950D01*
X-29950Y401466D02*
X-22050D01*
X-16350D02*
X-12350D01*
X-9250D02*
X-5350D01*
X-1950D02*
X1850D01*
X4050D02*
X7950D01*
X10150D02*
X14150D01*
X21450D02*
X25750D01*
X28250D02*
X32950D01*
X-29950Y401366D02*
X-21750D01*
X-16350D02*
X-12350D01*
X-9250D02*
X-5350D01*
X-1950D02*
X1850D01*
X4050D02*
X7950D01*
X10150D02*
X14150D01*
X21450D02*
X25750D01*
X28250D02*
X32950D01*
X-29950Y401266D02*
X-21550D01*
X-16350D02*
X-12350D01*
X-9250D02*
X-5350D01*
X-1950D02*
X1850D01*
X4150D02*
X7950D01*
X10150D02*
X14150D01*
X21450D02*
X25750D01*
X28150D02*
X32950D01*
X-29850Y401166D02*
X-21250D01*
X-16350D02*
X-12350D01*
X-9250D02*
X-5350D01*
X-1950D02*
X1850D01*
X4150D02*
X7950D01*
X10150D02*
X14150D01*
X21450D02*
X25750D01*
X28050D02*
X32950D01*
X-29850Y401066D02*
X-21050D01*
X-16350D02*
X-12350D01*
X-9250D02*
X-5350D01*
X-1950D02*
X1850D01*
X4150D02*
X7950D01*
X10150D02*
X14150D01*
X21450D02*
X25750D01*
X27950D02*
X32850D01*
X-29750Y400966D02*
X-20850D01*
X-16350D02*
X-12350D01*
X-9250D02*
X-5350D01*
X-1950D02*
X1850D01*
X4150D02*
X7950D01*
X10150D02*
X14150D01*
X21450D02*
X25750D01*
X27750D02*
X32850D01*
X-29750Y400866D02*
X-20650D01*
X-16350D02*
X-12350D01*
X-9250D02*
X-5350D01*
X-1950D02*
X1850D01*
X4150D02*
X7950D01*
X10150D02*
X14150D01*
X21450D02*
X25750D01*
X27350D02*
X32850D01*
X-29650Y400766D02*
X-20550D01*
X-16350D02*
X-12350D01*
X-9250D02*
X-5350D01*
X-1950D02*
X1850D01*
X4150D02*
X7950D01*
X10150D02*
X14150D01*
X21450D02*
X32850D01*
X-29650Y400666D02*
X-20350D01*
X-16350D02*
X-12350D01*
X-9250D02*
X-5350D01*
X-1950D02*
X1850D01*
X4150D02*
X7950D01*
X10150D02*
X14150D01*
X21450D02*
X32750D01*
X-29550Y400566D02*
X-20150D01*
X-16350D02*
X-12350D01*
X-9250D02*
X-5350D01*
X-1950D02*
X1850D01*
X4150D02*
X7950D01*
X10150D02*
X18150D01*
X21450D02*
X32750D01*
X-29550Y400466D02*
X-20050D01*
X-16350D02*
X-12350D01*
X-9250D02*
X-5350D01*
X-1950D02*
X1850D01*
X4050D02*
X7950D01*
X10150D02*
X18150D01*
X21450D02*
X32650D01*
X-29450Y400366D02*
X-19950D01*
X-16350D02*
X-12350D01*
X-9250D02*
X-5350D01*
X-1950D02*
X1850D01*
X4050D02*
X7950D01*
X10150D02*
X18150D01*
X21450D02*
X32650D01*
X-29350Y400266D02*
X-19850D01*
X-16350D02*
X-12350D01*
X-9250D02*
X-5350D01*
X-1950D02*
X1850D01*
X3950D02*
X7950D01*
X10150D02*
X18150D01*
X21450D02*
X32550D01*
X-29350Y400166D02*
X-19650D01*
X-16350D02*
X-12350D01*
X-9250D02*
X-5350D01*
X-1950D02*
X1850D01*
X3950D02*
X7950D01*
X10150D02*
X18150D01*
X21450D02*
X32550D01*
X-29250Y400066D02*
X-19550D01*
X-16350D02*
X-12350D01*
X-9250D02*
X-5350D01*
X-1950D02*
X1850D01*
X3850D02*
X7950D01*
X10150D02*
X18150D01*
X21450D02*
X32450D01*
X-29150Y399966D02*
X-19450D01*
X-16350D02*
X-12350D01*
X-9250D02*
X-5350D01*
X-1950D02*
X1850D01*
X3650D02*
X7850D01*
X10150D02*
X18150D01*
X21450D02*
X32350D01*
X-29050Y399866D02*
X-19350D01*
X-16350D02*
X-12350D01*
X-9250D02*
X-5350D01*
X-1950D02*
X1850D01*
X3350D02*
X7850D01*
X10150D02*
X18150D01*
X21450D02*
X32250D01*
X-28950Y399766D02*
X-19350D01*
X-16350D02*
X-12350D01*
X-9250D02*
X-5350D01*
X-1950D02*
X7850D01*
X10150D02*
X18150D01*
X21450D02*
X32150D01*
X-28750Y399666D02*
X-19250D01*
X-16350D02*
X-12350D01*
X-9250D02*
X-5350D01*
X-1950D02*
X7850D01*
X10150D02*
X18150D01*
X21450D02*
X32050D01*
X-28650Y399566D02*
X-19150D01*
X-16350D02*
X-12350D01*
X-9250D02*
X-5350D01*
X-1950D02*
X7850D01*
X10150D02*
X18150D01*
X21450D02*
X31950D01*
X-28550Y399466D02*
X-19050D01*
X-16350D02*
X-12350D01*
X-9250D02*
X-5350D01*
X-1950D02*
X7750D01*
X10150D02*
X18150D01*
X21450D02*
X31850D01*
X-28350Y399366D02*
X-19050D01*
X-16350D02*
X-12350D01*
X-9250D02*
X-5350D01*
X-1950D02*
X7750D01*
X10150D02*
X18150D01*
X21450D02*
X31750D01*
X-28250Y399266D02*
X-18950D01*
X-16350D02*
X-12350D01*
X-9250D02*
X-5350D01*
X-1950D02*
X7750D01*
X10150D02*
X18150D01*
X21450D02*
X31550D01*
X-28050Y399166D02*
X-18950D01*
X-16350D02*
X-12350D01*
X-9250D02*
X-5350D01*
X-1950D02*
X7650D01*
X10150D02*
X18150D01*
X21450D02*
X31450D01*
X-27850Y399066D02*
X-18850D01*
X-16350D02*
X-12350D01*
X-9250D02*
X-5350D01*
X-1950D02*
X7650D01*
X10150D02*
X18150D01*
X21450D02*
X31250D01*
X-27650Y398966D02*
X-18850D01*
X-16350D02*
X-12350D01*
X-9250D02*
X-5350D01*
X-1950D02*
X7550D01*
X10150D02*
X18150D01*
X21450D02*
X31050D01*
X-27450Y398866D02*
X-18850D01*
X-16350D02*
X-12350D01*
X-9250D02*
X-5350D01*
X-1950D02*
X7550D01*
X10150D02*
X18150D01*
X21450D02*
X31050D01*
X-27250Y398766D02*
X-18750D01*
X-16350D02*
X-12350D01*
X-9250D02*
X-5350D01*
X-1950D02*
X7450D01*
X10150D02*
X18150D01*
X21450D02*
X31250D01*
X-26950Y398666D02*
X-18750D01*
X-16350D02*
X-12350D01*
X-9250D02*
X-5350D01*
X-1950D02*
X7450D01*
X10150D02*
X18150D01*
X21450D02*
X31350D01*
X-26650Y398566D02*
X-18750D01*
X-16350D02*
X-12350D01*
X-9250D02*
X-5350D01*
X-1950D02*
X7350D01*
X10150D02*
X18150D01*
X21450D02*
X31450D01*
X-26450Y398466D02*
X-18650D01*
X-16350D02*
X-12350D01*
X-9250D02*
X-5350D01*
X-1950D02*
X7250D01*
X10150D02*
X18150D01*
X21450D02*
X31550D01*
X-26150Y398366D02*
X-18650D01*
X-16350D02*
X-12350D01*
X-9250D02*
X-5350D01*
X-1950D02*
X7250D01*
X10150D02*
X18150D01*
X21450D02*
X31550D01*
X-25850Y398266D02*
X-18650D01*
X-16350D02*
X-12350D01*
X-9250D02*
X-5350D01*
X-1950D02*
X7150D01*
X10150D02*
X18150D01*
X21450D02*
X31650D01*
X-25550Y398166D02*
X-18650D01*
X-16350D02*
X-12350D01*
X-9250D02*
X-5350D01*
X-1950D02*
X7050D01*
X10150D02*
X18150D01*
X21450D02*
X31750D01*
X-25250Y398066D02*
X-18650D01*
X-16350D02*
X-12350D01*
X-9250D02*
X-5350D01*
X-1950D02*
X6950D01*
X10150D02*
X18150D01*
X21450D02*
X31750D01*
X-24950Y397966D02*
X-18650D01*
X-16350D02*
X-12350D01*
X-9250D02*
X-5350D01*
X-1950D02*
X6850D01*
X10150D02*
X18150D01*
X21450D02*
X31850D01*
X-24750Y397866D02*
X-18550D01*
X-16350D02*
X-12350D01*
X-9250D02*
X-5350D01*
X-1950D02*
X6650D01*
X10150D02*
X18150D01*
X21450D02*
X25750D01*
X26650D02*
X31850D01*
X-24550Y397766D02*
X-18550D01*
X-16350D02*
X-12350D01*
X-9250D02*
X-5350D01*
X-1950D02*
X6550D01*
X10150D02*
X18150D01*
X21450D02*
X25750D01*
X26750D02*
X31950D01*
X-24350Y397666D02*
X-18550D01*
X-16350D02*
X-12350D01*
X-9250D02*
X-5350D01*
X-1950D02*
X6350D01*
X10150D02*
X18150D01*
X21450D02*
X25750D01*
X26850D02*
X31950D01*
X-24150Y397566D02*
X-18550D01*
X-16350D02*
X-12350D01*
X-9250D02*
X-5350D01*
X-1950D02*
X6150D01*
X10150D02*
X18150D01*
X21450D02*
X25750D01*
X26950D02*
X32050D01*
X-24050Y397466D02*
X-18550D01*
X-16350D02*
X-12250D01*
X-9250D02*
X-5350D01*
X-1950D02*
X5950D01*
X10150D02*
X14150D01*
X21450D02*
X25750D01*
X27050D02*
X32050D01*
X-24050Y397366D02*
X-18550D01*
X-16350D02*
X-12250D01*
X-9250D02*
X-5350D01*
X-1950D02*
X5650D01*
X10150D02*
X14150D01*
X21450D02*
X25750D01*
X27150D02*
X32150D01*
X-23950Y397266D02*
X-18550D01*
X-16350D02*
X-12250D01*
X-9250D02*
X-5350D01*
X-1950D02*
X5350D01*
X10150D02*
X14150D01*
X21450D02*
X25750D01*
X27150D02*
X32150D01*
X-23950Y397166D02*
X-18550D01*
X-16350D02*
X-12250D01*
X-9250D02*
X-5350D01*
X-1950D02*
X4950D01*
X10150D02*
X14150D01*
X21450D02*
X25750D01*
X27250D02*
X32150D01*
X-29950Y397066D02*
X-29750D01*
X-23850D02*
X-18550D01*
X-16350D02*
X-12250D01*
X-9350D02*
X-5350D01*
X-1950D02*
X4250D01*
X10150D02*
X14150D01*
X21450D02*
X25750D01*
X27350D02*
X32250D01*
X-29950Y396966D02*
X-29450D01*
X-23850D02*
X-18550D01*
X-16250D02*
X-12250D01*
X-9350D02*
X-5350D01*
X-1950D02*
X1850D01*
X10150D02*
X14150D01*
X21450D02*
X25750D01*
X27350D02*
X32250D01*
X-29950Y396866D02*
X-29150D01*
X-23850D02*
X-18550D01*
X-16250D02*
X-12250D01*
X-9350D02*
X-5350D01*
X-1950D02*
X1850D01*
X10150D02*
X14150D01*
X21450D02*
X25750D01*
X27450D02*
X32350D01*
X-29950Y396766D02*
X-28850D01*
X-23950D02*
X-18550D01*
X-16250D02*
X-12150D01*
X-9350D02*
X-5350D01*
X-1950D02*
X1850D01*
X10150D02*
X14150D01*
X21450D02*
X25750D01*
X27450D02*
X32350D01*
X-29950Y396666D02*
X-28550D01*
X-23950D02*
X-18550D01*
X-16250D02*
X-12150D01*
X-9450D02*
X-5450D01*
X-1950D02*
X1850D01*
X10150D02*
X14150D01*
X21450D02*
X25750D01*
X27550D02*
X32450D01*
X-29950Y396566D02*
X-28250D01*
X-23950D02*
X-18550D01*
X-16250D02*
X-12150D01*
X-9450D02*
X-5450D01*
X-1950D02*
X1850D01*
X10150D02*
X14150D01*
X21450D02*
X25750D01*
X27550D02*
X32550D01*
X-29950Y396466D02*
X-27950D01*
X-24050D02*
X-18550D01*
X-16250D02*
X-12050D01*
X-9450D02*
X-5450D01*
X-1950D02*
X1850D01*
X10150D02*
X14150D01*
X21450D02*
X25750D01*
X27650D02*
X32550D01*
X-29950Y396366D02*
X-27650D01*
X-24150D02*
X-18650D01*
X-16250D02*
X-11950D01*
X-9550D02*
X-5450D01*
X-1950D02*
X1850D01*
X10150D02*
X14150D01*
X21450D02*
X25750D01*
X27650D02*
X32650D01*
X-29950Y396266D02*
X-27250D01*
X-24350D02*
X-18650D01*
X-16250D02*
X-11950D01*
X-9650D02*
X-5450D01*
X-1950D02*
X1850D01*
X10150D02*
X14150D01*
X21450D02*
X25750D01*
X27650D02*
X32750D01*
X-29950Y396166D02*
X-26750D01*
X-24550D02*
X-18650D01*
X-16150D02*
X-11850D01*
X-9750D02*
X-5450D01*
X-1950D02*
X1850D01*
X10150D02*
X14150D01*
X21450D02*
X25750D01*
X27750D02*
X32850D01*
X-29950Y396066D02*
X-18650D01*
X-16150D02*
X-11650D01*
X-9850D02*
X-5450D01*
X-1950D02*
X1850D01*
X10150D02*
X14150D01*
X21450D02*
X25750D01*
X27750D02*
X33050D01*
X-29950Y395966D02*
X-18650D01*
X-16150D02*
X-11450D01*
X-10150D02*
X-5550D01*
X-1950D02*
X1850D01*
X10150D02*
X14150D01*
X20150D02*
X20250D01*
X21450D02*
X25750D01*
X27850D02*
X33450D01*
X-29950Y395866D02*
X-18650D01*
X-16150D02*
X-5550D01*
X-1950D02*
X1850D01*
X10150D02*
X14150D01*
X20150D02*
X26950D01*
X27850D02*
X34150D01*
X-29950Y395766D02*
X-18750D01*
X-16150D02*
X-5550D01*
X-1950D02*
X1850D01*
X10150D02*
X19050D01*
X20150D02*
X26950D01*
X27850D02*
X34050D01*
X-29950Y395666D02*
X-18750D01*
X-16050D02*
X-5550D01*
X-1950D02*
X1850D01*
X10150D02*
X19050D01*
X20150D02*
X26950D01*
X27950D02*
X34050D01*
X-29950Y395566D02*
X-18750D01*
X-16050D02*
X-5650D01*
X-3150D02*
X3150D01*
X8950D02*
X19050D01*
X20150D02*
X26950D01*
X27950D02*
X34050D01*
X-29950Y395466D02*
X-18750D01*
X-16050D02*
X-5650D01*
X-3150D02*
X3050D01*
X8950D02*
X19050D01*
X20150D02*
X26950D01*
X27950D02*
X34050D01*
X-29950Y395366D02*
X-18850D01*
X-15950D02*
X-5650D01*
X-3150D02*
X3050D01*
X8950D02*
X19050D01*
X20150D02*
X26950D01*
X28050D02*
X34050D01*
X-29950Y395266D02*
X-18850D01*
X-15950D02*
X-5750D01*
X-3150D02*
X3050D01*
X8950D02*
X19050D01*
X20150D02*
X26950D01*
X28050D02*
X34050D01*
X-29950Y395166D02*
X-18950D01*
X-15950D02*
X-5750D01*
X-3150D02*
X3050D01*
X8950D02*
X19050D01*
X20150D02*
X26950D01*
X28150D02*
X34050D01*
X-29950Y395066D02*
X-18950D01*
X-15850D02*
X-5750D01*
X-3150D02*
X3050D01*
X8950D02*
X19050D01*
X20150D02*
X26950D01*
X28150D02*
X34050D01*
X-29950Y394966D02*
X-18950D01*
X-15850D02*
X-5850D01*
X-3150D02*
X3050D01*
X8950D02*
X19050D01*
X20150D02*
X26950D01*
X28150D02*
X34050D01*
X-29950Y394866D02*
X-19050D01*
X-15850D02*
X-5850D01*
X-3150D02*
X3050D01*
X8950D02*
X19050D01*
X20150D02*
X26950D01*
X28250D02*
X34050D01*
X-29950Y394766D02*
X-19050D01*
X-15750D02*
X-5950D01*
X-3150D02*
X3050D01*
X8950D02*
X19050D01*
X20150D02*
X26950D01*
X28250D02*
X34050D01*
X-29950Y394666D02*
X-19150D01*
X-15750D02*
X-5950D01*
X-3150D02*
X3050D01*
X8950D02*
X19050D01*
X20150D02*
X26950D01*
X28350D02*
X34050D01*
X-29950Y394566D02*
X-19150D01*
X-15650D02*
X-6050D01*
X-3150D02*
X3050D01*
X8950D02*
X19050D01*
X20150D02*
X26950D01*
X28350D02*
X34050D01*
X-29950Y394466D02*
X-19250D01*
X-15550D02*
X-6050D01*
X-3150D02*
X3050D01*
X8950D02*
X19050D01*
X20150D02*
X26950D01*
X28450D02*
X34050D01*
X-29950Y394366D02*
X-19350D01*
X-15550D02*
X-6150D01*
X-3150D02*
X3050D01*
X8950D02*
X19050D01*
X20150D02*
X26950D01*
X28450D02*
X34050D01*
X-29950Y394266D02*
X-19350D01*
X-15450D02*
X-6150D01*
X-3150D02*
X3050D01*
X8950D02*
X19050D01*
X20150D02*
X26950D01*
X28550D02*
X34050D01*
X-29950Y394166D02*
X-19450D01*
X-15350D02*
X-6250D01*
X-3150D02*
X3050D01*
X8950D02*
X19050D01*
X20150D02*
X26950D01*
X28550D02*
X34050D01*
X-29950Y394066D02*
X-19550D01*
X-15350D02*
X-6350D01*
X-3150D02*
X3050D01*
X8950D02*
X19050D01*
X20150D02*
X26950D01*
X28650D02*
X34050D01*
X-29950Y393966D02*
X-19650D01*
X-15250D02*
X-6450D01*
X-3150D02*
X3050D01*
X8950D02*
X19050D01*
X20150D02*
X26950D01*
X28650D02*
X34050D01*
X-29950Y393866D02*
X-19750D01*
X-15150D02*
X-6450D01*
X-3150D02*
X3050D01*
X8950D02*
X19050D01*
X20150D02*
X26950D01*
X28750D02*
X34050D01*
X-29950Y393766D02*
X-19850D01*
X-15050D02*
X-6550D01*
X-3150D02*
X3050D01*
X8950D02*
X19050D01*
X20150D02*
X26950D01*
X28850D02*
X34050D01*
X-29950Y393666D02*
X-19950D01*
X-14950D02*
X-6650D01*
X-3150D02*
X3050D01*
X8950D02*
X19050D01*
X20150D02*
X26950D01*
X28850D02*
X34050D01*
X-29950Y393566D02*
X-20050D01*
X-14850D02*
X-6750D01*
X-3150D02*
X3050D01*
X8950D02*
X19050D01*
X20150D02*
X26950D01*
X28950D02*
X34050D01*
X-29950Y393466D02*
X-20250D01*
X-14750D02*
X-6950D01*
X-3150D02*
X3050D01*
X8950D02*
X19050D01*
X20150D02*
X26950D01*
X29050D02*
X34050D01*
X-29950Y393366D02*
X-20350D01*
X-14550D02*
X-7050D01*
X-3150D02*
X3050D01*
X8950D02*
X19050D01*
X20150D02*
X26950D01*
X29150D02*
X34050D01*
X-29950Y393266D02*
X-20550D01*
X-14450D02*
X-7150D01*
X-3150D02*
X3050D01*
X8950D02*
X19050D01*
X20150D02*
X26950D01*
X29250D02*
X34050D01*
X-29750Y393166D02*
X-20750D01*
X-14250D02*
X-7350D01*
X-3150D02*
X3050D01*
X8950D02*
X19050D01*
X20150D02*
X26950D01*
X29350D02*
X34050D01*
X-29450Y393066D02*
X-20850D01*
X-14050D02*
X-7550D01*
X-3150D02*
X3050D01*
X8950D02*
X19050D01*
X20150D02*
X26950D01*
X29550D02*
X34050D01*
X-29050Y392966D02*
X-21150D01*
X-13850D02*
X-7750D01*
X-3150D02*
X3050D01*
X8950D02*
X19050D01*
X20150D02*
X26950D01*
X29650D02*
X34050D01*
X-28650Y392866D02*
X-21350D01*
X-13650D02*
X-7950D01*
X-3150D02*
X3050D01*
X8950D02*
X19050D01*
X20150D02*
X26950D01*
X29950D02*
X34050D01*
X-28250Y392766D02*
X-21650D01*
X-13350D02*
X-8250D01*
X-3150D02*
X3150D01*
X8950D02*
X19050D01*
X20150D02*
X26950D01*
X30350D02*
X34150D01*
X-27750Y392666D02*
X-21950D01*
X-13050D02*
X-8550D01*
X-27250Y392566D02*
X-22350D01*
X-12550D02*
X-8950D01*
X-26450Y392466D02*
X-22950D01*
X-11850D02*
X-9750D01*
X-33850Y391866D02*
X-31450D01*
X-34750Y391766D02*
X-30550D01*
X-35350Y391666D02*
X-30050D01*
X-35850Y391566D02*
X-29550D01*
X-36250Y391466D02*
X-29150D01*
X-36550Y391366D02*
X-28750D01*
X-36850Y391266D02*
X-28350D01*
X-37150Y391166D02*
X-28050D01*
X-37350Y391066D02*
X-27750D01*
X-37650Y390966D02*
X-27550D01*
X-37850Y390866D02*
X-27250D01*
X-38050Y390766D02*
X-27050D01*
X-38250Y390666D02*
X-26750D01*
X-38450Y390566D02*
X-26550D01*
X-38650Y390466D02*
X-26350D01*
X-38750Y390366D02*
X-26150D01*
X-38950Y390266D02*
X-25950D01*
X24050D02*
X31650D01*
X36350D02*
X43350D01*
X-39150Y390166D02*
X-25750D01*
X24050D02*
X31750D01*
X36350D02*
X43350D01*
X-39250Y390066D02*
X-25650D01*
X24050D02*
X31750D01*
X36350D02*
X43350D01*
X-39350Y389966D02*
X-25750D01*
X24050D02*
X31850D01*
X36350D02*
X43350D01*
X-39550Y389866D02*
X-25850D01*
X24050D02*
X31850D01*
X36350D02*
X43350D01*
X-39650Y389766D02*
X-25850D01*
X24050D02*
X31950D01*
X36350D02*
X43350D01*
X-39750Y389666D02*
X-25850D01*
X24050D02*
X31950D01*
X36350D02*
X43350D01*
X-39850Y389566D02*
X-25950D01*
X24050D02*
X32050D01*
X36350D02*
X43350D01*
X-40050Y389466D02*
X-25950D01*
X24050D02*
X32050D01*
X36350D02*
X43350D01*
X-40150Y389366D02*
X-26050D01*
X24050D02*
X32150D01*
X36350D02*
X43350D01*
X-40250Y389266D02*
X-26050D01*
X24050D02*
X32150D01*
X36350D02*
X43350D01*
X-40350Y389166D02*
X-26150D01*
X24050D02*
X32250D01*
X36350D02*
X43350D01*
X-40450Y389066D02*
X-26150D01*
X24050D02*
X32250D01*
X36350D02*
X43350D01*
X-40550Y388966D02*
X-26250D01*
X-23050D02*
X-12650D01*
X24050D02*
X32350D01*
X36350D02*
X43350D01*
X-40650Y388866D02*
X-26250D01*
X-23050D02*
X-12050D01*
X24050D02*
X32350D01*
X36350D02*
X43350D01*
X-40750Y388766D02*
X-26350D01*
X-23050D02*
X-11650D01*
X24050D02*
X32450D01*
X36350D02*
X43350D01*
X-40850Y388666D02*
X-26350D01*
X-23050D02*
X-11250D01*
X24050D02*
X32450D01*
X36350D02*
X43350D01*
X-40850Y388566D02*
X-26350D01*
X-23050D02*
X-10950D01*
X-5150D02*
X7650D01*
X9450D02*
X22250D01*
X24050D02*
X32550D01*
X36350D02*
X43350D01*
X-40950Y388466D02*
X-26450D01*
X-23050D02*
X-10750D01*
X-5150D02*
X7650D01*
X9450D02*
X22250D01*
X24050D02*
X32550D01*
X36350D02*
X43350D01*
X-41050Y388366D02*
X-26450D01*
X-23050D02*
X-10550D01*
X-5150D02*
X7650D01*
X9450D02*
X22250D01*
X24050D02*
X32650D01*
X36350D02*
X43350D01*
X-41150Y388266D02*
X-26550D01*
X-23050D02*
X-10250D01*
X-5150D02*
X7650D01*
X9450D02*
X22250D01*
X24050D02*
X32750D01*
X36350D02*
X43350D01*
X-41150Y388166D02*
X-26550D01*
X-23050D02*
X-10150D01*
X-5150D02*
X7650D01*
X9450D02*
X22250D01*
X24050D02*
X32750D01*
X36350D02*
X43350D01*
X-41250Y388066D02*
X-26650D01*
X-23050D02*
X-9950D01*
X-5150D02*
X7650D01*
X9450D02*
X22250D01*
X24050D02*
X32850D01*
X36350D02*
X43350D01*
X-41350Y387966D02*
X-26650D01*
X-23050D02*
X-9750D01*
X-5150D02*
X7650D01*
X9450D02*
X22250D01*
X24050D02*
X32850D01*
X36350D02*
X43350D01*
X-41450Y387866D02*
X-26750D01*
X-23050D02*
X-9650D01*
X-5150D02*
X7650D01*
X9450D02*
X22250D01*
X24050D02*
X32950D01*
X36350D02*
X43350D01*
X-41450Y387766D02*
X-26750D01*
X-23050D02*
X-9550D01*
X-5150D02*
X7650D01*
X9450D02*
X22250D01*
X24050D02*
X32950D01*
X36350D02*
X43350D01*
X-41550Y387666D02*
X-26750D01*
X-23050D02*
X-9350D01*
X-5150D02*
X7650D01*
X9450D02*
X22250D01*
X24050D02*
X33050D01*
X36350D02*
X43350D01*
X-41650Y387566D02*
X-26850D01*
X-23050D02*
X-9250D01*
X-5150D02*
X7650D01*
X9450D02*
X22250D01*
X24050D02*
X33050D01*
X36350D02*
X43350D01*
X-41650Y387466D02*
X-26850D01*
X-23050D02*
X-9150D01*
X-5150D02*
X7650D01*
X9450D02*
X22250D01*
X24050D02*
X33150D01*
X36350D02*
X43350D01*
X-41750Y387366D02*
X-26950D01*
X-23050D02*
X-9050D01*
X-5150D02*
X7650D01*
X9450D02*
X22250D01*
X24050D02*
X33150D01*
X36350D02*
X43350D01*
X-41750Y387266D02*
X-26950D01*
X-23050D02*
X-8950D01*
X-5150D02*
X7650D01*
X9450D02*
X22250D01*
X24050D02*
X33250D01*
X36350D02*
X43350D01*
X-41850Y387166D02*
X-27050D01*
X-23050D02*
X-8850D01*
X-5150D02*
X7650D01*
X9450D02*
X22250D01*
X24050D02*
X33250D01*
X36350D02*
X43350D01*
X-41850Y387066D02*
X-27050D01*
X-23050D02*
X-8750D01*
X-5150D02*
X7650D01*
X9450D02*
X22250D01*
X24050D02*
X33350D01*
X36350D02*
X43350D01*
X-41950Y386966D02*
X-27150D01*
X-23050D02*
X-8650D01*
X-5150D02*
X7650D01*
X9450D02*
X22250D01*
X24050D02*
X33350D01*
X36350D02*
X43350D01*
X-41950Y386866D02*
X-32450D01*
X-31050D02*
X-27150D01*
X-23050D02*
X-8650D01*
X-5150D02*
X7650D01*
X9450D02*
X22250D01*
X24050D02*
X33450D01*
X36350D02*
X43350D01*
X-42050Y386766D02*
X-33050D01*
X-30350D02*
X-27250D01*
X-23050D02*
X-8550D01*
X-5150D02*
X7650D01*
X9450D02*
X22250D01*
X24050D02*
X33450D01*
X36350D02*
X43350D01*
X-42050Y386666D02*
X-33350D01*
X-29950D02*
X-27250D01*
X-23050D02*
X-8450D01*
X-5150D02*
X7650D01*
X9450D02*
X22250D01*
X24050D02*
X33550D01*
X36350D02*
X43350D01*
X-42150Y386566D02*
X-33650D01*
X-29650D02*
X-27250D01*
X-23050D02*
X-8450D01*
X-5150D02*
X7650D01*
X9450D02*
X22250D01*
X24050D02*
X33550D01*
X36350D02*
X43350D01*
X-42150Y386466D02*
X-33850D01*
X-29350D02*
X-27350D01*
X-23050D02*
X-8350D01*
X-5150D02*
X7650D01*
X9450D02*
X22250D01*
X24050D02*
X33650D01*
X36350D02*
X43350D01*
X-42250Y386366D02*
X-34050D01*
X-29150D02*
X-27350D01*
X-23050D02*
X-8350D01*
X-5150D02*
X7650D01*
X9450D02*
X22250D01*
X24050D02*
X33650D01*
X36350D02*
X43350D01*
X-42250Y386266D02*
X-34250D01*
X-28850D02*
X-27450D01*
X-23050D02*
X-8250D01*
X-5150D02*
X7650D01*
X9450D02*
X22250D01*
X24050D02*
X33750D01*
X36350D02*
X43350D01*
X-42250Y386166D02*
X-34350D01*
X-28650D02*
X-27450D01*
X-23050D02*
X-8250D01*
X-5150D02*
X7650D01*
X9450D02*
X22250D01*
X24050D02*
X33750D01*
X36350D02*
X43450D01*
X-42350Y386066D02*
X-34550D01*
X-28450D02*
X-27550D01*
X-23050D02*
X-8150D01*
X-5150D02*
X7650D01*
X9450D02*
X22250D01*
X25750D02*
X33850D01*
X36350D02*
X41650D01*
X-42350Y385966D02*
X-34650D01*
X-28250D02*
X-27550D01*
X-23050D02*
X-8150D01*
X-5150D02*
X7650D01*
X9450D02*
X22250D01*
X25750D02*
X33950D01*
X36350D02*
X41650D01*
X-42450Y385866D02*
X-34750D01*
X-28150D02*
X-27650D01*
X-23050D02*
X-8050D01*
X-5150D02*
X7650D01*
X9450D02*
X22250D01*
X25750D02*
X33950D01*
X36350D02*
X41650D01*
X-42450Y385766D02*
X-34850D01*
X-27950D02*
X-27650D01*
X-23050D02*
X-8050D01*
X-5150D02*
X7650D01*
X9450D02*
X22250D01*
X25750D02*
X34050D01*
X36350D02*
X41650D01*
X-42450Y385666D02*
X-34950D01*
X-27750D02*
X-27650D01*
X-23050D02*
X-8050D01*
X-5150D02*
X7650D01*
X9450D02*
X22250D01*
X25750D02*
X34050D01*
X36350D02*
X41650D01*
X-42550Y385566D02*
X-35050D01*
X-23050D02*
X-7950D01*
X-5150D02*
X7650D01*
X9450D02*
X22250D01*
X25750D02*
X34150D01*
X36350D02*
X41650D01*
X-42550Y385466D02*
X-35150D01*
X-23050D02*
X-7950D01*
X-5150D02*
X7650D01*
X9450D02*
X22250D01*
X25750D02*
X34150D01*
X36350D02*
X41650D01*
X-42550Y385366D02*
X-35250D01*
X-23050D02*
X-7950D01*
X-5150D02*
X7650D01*
X9450D02*
X22250D01*
X25750D02*
X34250D01*
X36350D02*
X41650D01*
X-42550Y385266D02*
X-35250D01*
X-23050D02*
X-7850D01*
X-5150D02*
X7650D01*
X9450D02*
X22250D01*
X25750D02*
X34250D01*
X36350D02*
X41650D01*
X-42650Y385166D02*
X-35350D01*
X-23050D02*
X-21750D01*
X-21650D02*
X-7850D01*
X-5150D02*
X7650D01*
X9450D02*
X22250D01*
X25750D02*
X34350D01*
X36350D02*
X41650D01*
X-42650Y385066D02*
X-35450D01*
X-21450D02*
X-7850D01*
X-5150D02*
X7650D01*
X9450D02*
X22250D01*
X25750D02*
X34350D01*
X36350D02*
X41650D01*
X-42650Y384966D02*
X-35450D01*
X-21450D02*
X-7850D01*
X-5150D02*
X7650D01*
X9450D02*
X22250D01*
X25750D02*
X34450D01*
X36350D02*
X41650D01*
X-42750Y384866D02*
X-35550D01*
X-21450D02*
X-16350D01*
X-14250D02*
X-7850D01*
X-5150D02*
X7650D01*
X9450D02*
X22250D01*
X25750D02*
X34450D01*
X36350D02*
X41650D01*
X-42750Y384766D02*
X-35650D01*
X-21450D02*
X-16350D01*
X-13950D02*
X-7750D01*
X-3650D02*
X7650D01*
X10950D02*
X22250D01*
X25750D02*
X34550D01*
X36350D02*
X41650D01*
X-42750Y384666D02*
X-35650D01*
X-21450D02*
X-16350D01*
X-13750D02*
X-7750D01*
X-3650D02*
X7650D01*
X10950D02*
X22250D01*
X25750D02*
X34550D01*
X36350D02*
X41650D01*
X-42750Y384566D02*
X-35750D01*
X-21450D02*
X-16350D01*
X-13650D02*
X-7750D01*
X-3650D02*
X7650D01*
X10950D02*
X22250D01*
X25750D02*
X34650D01*
X36350D02*
X41650D01*
X-42750Y384466D02*
X-35750D01*
X-21450D02*
X-16350D01*
X-13550D02*
X-7750D01*
X-3650D02*
X1650D01*
X10950D02*
X16150D01*
X25750D02*
X34650D01*
X36350D02*
X41650D01*
X-42850Y384366D02*
X-35750D01*
X-21450D02*
X-16350D01*
X-13450D02*
X-7750D01*
X-3650D02*
X1650D01*
X10950D02*
X16150D01*
X25750D02*
X34750D01*
X36350D02*
X41650D01*
X-42850Y384266D02*
X-35850D01*
X-21450D02*
X-16350D01*
X-13350D02*
X-7750D01*
X-3650D02*
X1650D01*
X10950D02*
X16150D01*
X25750D02*
X34750D01*
X36350D02*
X41650D01*
X-42850Y384166D02*
X-35850D01*
X-21450D02*
X-16350D01*
X-13350D02*
X-7750D01*
X-3650D02*
X1650D01*
X10950D02*
X16150D01*
X25750D02*
X34850D01*
X36350D02*
X41650D01*
X-42850Y384066D02*
X-35950D01*
X-21450D02*
X-16350D01*
X-13350D02*
X-7750D01*
X-3650D02*
X1650D01*
X10950D02*
X16150D01*
X25750D02*
X34850D01*
X36350D02*
X41650D01*
X-42850Y383966D02*
X-35950D01*
X-21450D02*
X-16350D01*
X-13250D02*
X-7750D01*
X-3650D02*
X1650D01*
X10950D02*
X16150D01*
X25750D02*
X34950D01*
X36350D02*
X41650D01*
X-42850Y383866D02*
X-35950D01*
X-21450D02*
X-16350D01*
X-13250D02*
X-7750D01*
X-3650D02*
X1650D01*
X10950D02*
X16150D01*
X25750D02*
X34950D01*
X36350D02*
X41650D01*
X-42950Y383766D02*
X-35950D01*
X-21450D02*
X-16350D01*
X-13250D02*
X-7750D01*
X-3650D02*
X1650D01*
X10950D02*
X16150D01*
X25750D02*
X35050D01*
X36350D02*
X41650D01*
X-42950Y383666D02*
X-36050D01*
X-21450D02*
X-16350D01*
X-13250D02*
X-7750D01*
X-3650D02*
X1650D01*
X10950D02*
X16150D01*
X25750D02*
X35050D01*
X36350D02*
X41650D01*
X-42950Y383566D02*
X-36050D01*
X-32750D02*
X-25350D01*
X-21450D02*
X-16350D01*
X-13250D02*
X-7750D01*
X-3650D02*
X1650D01*
X10950D02*
X16150D01*
X25750D02*
X35150D01*
X36350D02*
X41650D01*
X-42950Y383466D02*
X-36050D01*
X-32750D02*
X-25350D01*
X-21450D02*
X-16350D01*
X-13250D02*
X-7750D01*
X-3650D02*
X1650D01*
X10950D02*
X16150D01*
X25750D02*
X35250D01*
X36350D02*
X41650D01*
X-42950Y383366D02*
X-36050D01*
X-32750D02*
X-25350D01*
X-21450D02*
X-16350D01*
X-13250D02*
X-7750D01*
X-3650D02*
X1650D01*
X10950D02*
X16150D01*
X25750D02*
X35250D01*
X36350D02*
X41650D01*
X-42950Y383266D02*
X-36150D01*
X-32750D02*
X-25350D01*
X-21450D02*
X-16350D01*
X-13250D02*
X-7750D01*
X-3650D02*
X1650D01*
X10950D02*
X16150D01*
X25750D02*
X35350D01*
X36350D02*
X41650D01*
X-42950Y383166D02*
X-36150D01*
X-32750D02*
X-25350D01*
X-21450D02*
X-16350D01*
X-13250D02*
X-7750D01*
X-3650D02*
X1650D01*
X10950D02*
X16150D01*
X25750D02*
X35350D01*
X36350D02*
X41650D01*
X-42950Y383066D02*
X-36150D01*
X-32750D02*
X-25350D01*
X-21450D02*
X-16350D01*
X-13350D02*
X-7750D01*
X-3650D02*
X1650D01*
X10950D02*
X16150D01*
X25750D02*
X35450D01*
X36350D02*
X41650D01*
X-42950Y382966D02*
X-36150D01*
X-32750D02*
X-25350D01*
X-21450D02*
X-16350D01*
X-13350D02*
X-7750D01*
X-3650D02*
X1650D01*
X10950D02*
X16150D01*
X25750D02*
X35450D01*
X36350D02*
X41650D01*
X-43050Y382866D02*
X-36150D01*
X-32750D02*
X-25350D01*
X-21450D02*
X-16350D01*
X-13450D02*
X-7750D01*
X-3650D02*
X1650D01*
X10950D02*
X16150D01*
X25750D02*
X35550D01*
X36350D02*
X41650D01*
X-43050Y382766D02*
X-36150D01*
X-32750D02*
X-25350D01*
X-21450D02*
X-16350D01*
X-13450D02*
X-7750D01*
X-3650D02*
X6850D01*
X10950D02*
X21450D01*
X25750D02*
X35550D01*
X36350D02*
X41650D01*
X-43050Y382666D02*
X-36150D01*
X-32750D02*
X-25350D01*
X-21450D02*
X-16350D01*
X-13550D02*
X-7850D01*
X-3650D02*
X6850D01*
X10950D02*
X21450D01*
X25750D02*
X35650D01*
X36350D02*
X41650D01*
X-43050Y382566D02*
X-36150D01*
X-32750D02*
X-25350D01*
X-21450D02*
X-16350D01*
X-13650D02*
X-7850D01*
X-3650D02*
X6850D01*
X10950D02*
X21450D01*
X25750D02*
X35650D01*
X36350D02*
X41650D01*
X-43050Y382466D02*
X-36250D01*
X-32750D02*
X-25350D01*
X-21450D02*
X-16350D01*
X-13750D02*
X-7850D01*
X-3650D02*
X6850D01*
X10950D02*
X21450D01*
X25750D02*
X35750D01*
X36350D02*
X41650D01*
X-43050Y382366D02*
X-36250D01*
X-32750D02*
X-25350D01*
X-21450D02*
X-16350D01*
X-13950D02*
X-7850D01*
X-3650D02*
X6850D01*
X10950D02*
X21450D01*
X25750D02*
X35750D01*
X36350D02*
X41650D01*
X-43050Y382266D02*
X-36250D01*
X-32750D02*
X-25350D01*
X-21450D02*
X-16350D01*
X-14350D02*
X-7950D01*
X-3650D02*
X6850D01*
X10950D02*
X21450D01*
X25750D02*
X35850D01*
X36350D02*
X41650D01*
X-43050Y382166D02*
X-36250D01*
X-32750D02*
X-25350D01*
X-21450D02*
X-7950D01*
X-3650D02*
X6850D01*
X10950D02*
X21450D01*
X25750D02*
X35850D01*
X36350D02*
X41650D01*
X-43050Y382066D02*
X-36250D01*
X-32750D02*
X-25350D01*
X-21450D02*
X-7950D01*
X-3650D02*
X6850D01*
X10950D02*
X21450D01*
X25750D02*
X35950D01*
X36350D02*
X41650D01*
X-43050Y381966D02*
X-36250D01*
X-32750D02*
X-25350D01*
X-21450D02*
X-8050D01*
X-3650D02*
X6850D01*
X10950D02*
X21450D01*
X25750D02*
X35950D01*
X36350D02*
X41650D01*
X-43050Y381866D02*
X-36250D01*
X-32750D02*
X-25350D01*
X-21450D02*
X-8050D01*
X-3650D02*
X6850D01*
X10950D02*
X21450D01*
X25750D02*
X36050D01*
X36350D02*
X41650D01*
X-43050Y381766D02*
X-36250D01*
X-32750D02*
X-25350D01*
X-21450D02*
X-8150D01*
X-3650D02*
X6850D01*
X10950D02*
X21450D01*
X25750D02*
X36050D01*
X36350D02*
X41650D01*
X-43050Y381666D02*
X-36250D01*
X-32750D02*
X-25350D01*
X-21450D02*
X-8150D01*
X-3650D02*
X6850D01*
X10950D02*
X21450D01*
X25750D02*
X36150D01*
X36350D02*
X41650D01*
X-43050Y381566D02*
X-36250D01*
X-32750D02*
X-25350D01*
X-21450D02*
X-8250D01*
X-3650D02*
X6850D01*
X10950D02*
X21450D01*
X25750D02*
X36150D01*
X36450D02*
X41650D01*
X-43050Y381466D02*
X-36250D01*
X-32750D02*
X-25350D01*
X-21450D02*
X-8250D01*
X-3650D02*
X6850D01*
X10950D02*
X21450D01*
X25750D02*
X36250D01*
X36450D02*
X41650D01*
X-43050Y381366D02*
X-36250D01*
X-32750D02*
X-25350D01*
X-21450D02*
X-8350D01*
X-3650D02*
X6850D01*
X10950D02*
X21450D01*
X25750D02*
X30950D01*
X31150D02*
X41650D01*
X-43050Y381266D02*
X-36150D01*
X-32750D02*
X-25350D01*
X-21450D02*
X-8450D01*
X-3650D02*
X6850D01*
X10950D02*
X21450D01*
X25750D02*
X30950D01*
X31150D02*
X41650D01*
X-43050Y381166D02*
X-36150D01*
X-32750D02*
X-25350D01*
X-21450D02*
X-8450D01*
X-3650D02*
X6850D01*
X10950D02*
X21450D01*
X25750D02*
X30950D01*
X31250D02*
X41650D01*
X-43050Y381066D02*
X-36150D01*
X-32750D02*
X-25350D01*
X-21450D02*
X-8550D01*
X-3650D02*
X6850D01*
X10950D02*
X21450D01*
X25750D02*
X30950D01*
X31250D02*
X41650D01*
X-42950Y380966D02*
X-36150D01*
X-32750D02*
X-25350D01*
X-21450D02*
X-8650D01*
X-3650D02*
X6850D01*
X10950D02*
X21450D01*
X25750D02*
X30950D01*
X31350D02*
X41650D01*
X-42950Y380866D02*
X-36150D01*
X-32750D02*
X-25350D01*
X-21450D02*
X-8750D01*
X-3650D02*
X6850D01*
X10950D02*
X21450D01*
X25750D02*
X30950D01*
X31350D02*
X41650D01*
X-42950Y380766D02*
X-36150D01*
X-32750D02*
X-25350D01*
X-21450D02*
X-8850D01*
X-3650D02*
X6850D01*
X10950D02*
X21450D01*
X25750D02*
X30950D01*
X31450D02*
X41650D01*
X-42950Y380666D02*
X-36150D01*
X-32750D02*
X-25350D01*
X-21450D02*
X-8950D01*
X-3650D02*
X6850D01*
X10950D02*
X21450D01*
X25750D02*
X30950D01*
X31450D02*
X41650D01*
X-42950Y380566D02*
X-36150D01*
X-32750D02*
X-25350D01*
X-21450D02*
X-9050D01*
X-3650D02*
X6850D01*
X10950D02*
X21450D01*
X25750D02*
X30950D01*
X31550D02*
X41650D01*
X-42950Y380466D02*
X-36050D01*
X-32750D02*
X-25350D01*
X-21450D02*
X-9250D01*
X-3650D02*
X6850D01*
X10950D02*
X21450D01*
X25750D02*
X30950D01*
X31650D02*
X41650D01*
X-42950Y380366D02*
X-36050D01*
X-32750D02*
X-25350D01*
X-21450D02*
X-9350D01*
X-3650D02*
X6850D01*
X10950D02*
X21450D01*
X25750D02*
X30950D01*
X31650D02*
X41650D01*
X-42950Y380266D02*
X-36050D01*
X-32750D02*
X-25350D01*
X-21450D02*
X-9550D01*
X-3650D02*
X6850D01*
X10950D02*
X21450D01*
X25750D02*
X30950D01*
X31750D02*
X41650D01*
X-42950Y380166D02*
X-36050D01*
X-32750D02*
X-25350D01*
X-21450D02*
X-9650D01*
X-3650D02*
X6850D01*
X10950D02*
X21450D01*
X25750D02*
X30950D01*
X31750D02*
X41650D01*
X-42950Y380066D02*
X-35950D01*
X-32750D02*
X-25350D01*
X-21450D02*
X-9850D01*
X-3650D02*
X6850D01*
X10950D02*
X21450D01*
X25750D02*
X30950D01*
X31850D02*
X41650D01*
X-42850Y379966D02*
X-35950D01*
X-30850D02*
X-25350D01*
X-21450D02*
X-10050D01*
X-3650D02*
X6850D01*
X10950D02*
X21450D01*
X25750D02*
X30950D01*
X31850D02*
X41650D01*
X-42850Y379866D02*
X-35950D01*
X-30850D02*
X-25350D01*
X-21450D02*
X-10050D01*
X-3650D02*
X6850D01*
X10950D02*
X21450D01*
X25750D02*
X30950D01*
X31950D02*
X41650D01*
X-42850Y379766D02*
X-35950D01*
X-30850D02*
X-25350D01*
X-21450D02*
X-9850D01*
X-3650D02*
X6850D01*
X10950D02*
X21450D01*
X25750D02*
X30950D01*
X31950D02*
X41650D01*
X-42850Y379666D02*
X-35850D01*
X-30850D02*
X-25350D01*
X-21450D02*
X-9750D01*
X-3650D02*
X6850D01*
X10950D02*
X21450D01*
X25750D02*
X30950D01*
X32050D02*
X41650D01*
X-42850Y379566D02*
X-35850D01*
X-30850D02*
X-25350D01*
X-21450D02*
X-9650D01*
X-3650D02*
X6850D01*
X10950D02*
X21450D01*
X25750D02*
X30950D01*
X32150D02*
X41650D01*
X-42850Y379466D02*
X-35750D01*
X-30850D02*
X-25350D01*
X-21450D02*
X-9550D01*
X-3650D02*
X6850D01*
X10950D02*
X21450D01*
X25750D02*
X30950D01*
X32150D02*
X41650D01*
X-42750Y379366D02*
X-35750D01*
X-30850D02*
X-25350D01*
X-21450D02*
X-9450D01*
X-3650D02*
X6850D01*
X10950D02*
X21450D01*
X25750D02*
X30950D01*
X32250D02*
X41650D01*
X-42750Y379266D02*
X-35750D01*
X-30850D02*
X-25350D01*
X-21450D02*
X-9450D01*
X-3650D02*
X6850D01*
X10950D02*
X21450D01*
X25750D02*
X30950D01*
X32250D02*
X41650D01*
X-42750Y379166D02*
X-35650D01*
X-30850D02*
X-25350D01*
X-21450D02*
X-9350D01*
X-3650D02*
X6850D01*
X10950D02*
X21450D01*
X25750D02*
X30950D01*
X32350D02*
X41650D01*
X-42750Y379066D02*
X-35650D01*
X-30850D02*
X-25350D01*
X-21450D02*
X-9250D01*
X-3650D02*
X6850D01*
X10950D02*
X21450D01*
X25750D02*
X30950D01*
X32350D02*
X41650D01*
X-42750Y378966D02*
X-35550D01*
X-30850D02*
X-25350D01*
X-21450D02*
X-9250D01*
X-3650D02*
X6850D01*
X10950D02*
X21450D01*
X25750D02*
X30950D01*
X32450D02*
X41650D01*
X-42650Y378866D02*
X-35450D01*
X-30850D02*
X-25350D01*
X-21450D02*
X-9150D01*
X-3650D02*
X6850D01*
X10950D02*
X21450D01*
X25750D02*
X30950D01*
X32450D02*
X41650D01*
X-42650Y378766D02*
X-35450D01*
X-30850D02*
X-25350D01*
X-21450D02*
X-9150D01*
X-3650D02*
X6850D01*
X10950D02*
X21450D01*
X25750D02*
X30950D01*
X32550D02*
X41650D01*
X-42650Y378666D02*
X-35350D01*
X-30850D02*
X-25350D01*
X-21450D02*
X-16450D01*
X-15350D02*
X-9050D01*
X-3650D02*
X1650D01*
X10950D02*
X16150D01*
X25750D02*
X30950D01*
X32650D02*
X41650D01*
X-42650Y378566D02*
X-35250D01*
X-30850D02*
X-25350D01*
X-21450D02*
X-16450D01*
X-15250D02*
X-9050D01*
X-3650D02*
X1650D01*
X10950D02*
X16150D01*
X25750D02*
X30950D01*
X32650D02*
X41650D01*
X-42550Y378466D02*
X-35250D01*
X-30850D02*
X-25350D01*
X-21450D02*
X-16450D01*
X-15050D02*
X-8950D01*
X-3650D02*
X1650D01*
X10950D02*
X16150D01*
X25750D02*
X30950D01*
X32750D02*
X41650D01*
X-42550Y378366D02*
X-35150D01*
X-30850D02*
X-25350D01*
X-21450D02*
X-16450D01*
X-14950D02*
X-8950D01*
X-3650D02*
X1650D01*
X10950D02*
X16150D01*
X25750D02*
X30950D01*
X32750D02*
X41650D01*
X-42550Y378266D02*
X-35050D01*
X-30850D02*
X-25350D01*
X-21450D02*
X-16450D01*
X-14950D02*
X-8850D01*
X-3650D02*
X1650D01*
X10950D02*
X16150D01*
X25750D02*
X30950D01*
X32850D02*
X41650D01*
X-42450Y378166D02*
X-34950D01*
X-30850D02*
X-25350D01*
X-21450D02*
X-16450D01*
X-14850D02*
X-8850D01*
X-3650D02*
X1650D01*
X10950D02*
X16150D01*
X25750D02*
X30950D01*
X32850D02*
X41650D01*
X-42450Y378066D02*
X-34850D01*
X-30850D02*
X-25350D01*
X-21450D02*
X-16450D01*
X-14750D02*
X-8850D01*
X-3650D02*
X1650D01*
X10950D02*
X16150D01*
X25750D02*
X30950D01*
X32950D02*
X41650D01*
X-42450Y377966D02*
X-34750D01*
X-30850D02*
X-25350D01*
X-21450D02*
X-16450D01*
X-14650D02*
X-8750D01*
X-3650D02*
X1650D01*
X10950D02*
X16150D01*
X25750D02*
X30950D01*
X32950D02*
X41650D01*
X-42350Y377866D02*
X-34650D01*
X-30850D02*
X-25350D01*
X-21450D02*
X-16450D01*
X-14650D02*
X-8750D01*
X-3650D02*
X1650D01*
X10950D02*
X16150D01*
X25750D02*
X30950D01*
X33050D02*
X41650D01*
X-42350Y377766D02*
X-34450D01*
X-30850D02*
X-25350D01*
X-21450D02*
X-16450D01*
X-14550D02*
X-8650D01*
X-3650D02*
X1650D01*
X10950D02*
X16150D01*
X25750D02*
X30950D01*
X33050D02*
X41650D01*
X-42350Y377666D02*
X-34350D01*
X-30850D02*
X-25350D01*
X-21450D02*
X-16450D01*
X-14550D02*
X-8650D01*
X-3650D02*
X1650D01*
X10950D02*
X16150D01*
X25750D02*
X30950D01*
X33150D02*
X41650D01*
X-42250Y377566D02*
X-34150D01*
X-30850D02*
X-25350D01*
X-21450D02*
X-16450D01*
X-14450D02*
X-8550D01*
X-3650D02*
X1650D01*
X10950D02*
X16150D01*
X25750D02*
X30950D01*
X33250D02*
X41650D01*
X-42250Y377466D02*
X-33950D01*
X-30850D02*
X-25350D01*
X-21450D02*
X-16450D01*
X-14450D02*
X-8550D01*
X-3650D02*
X1650D01*
X10950D02*
X16150D01*
X25750D02*
X30950D01*
X33250D02*
X41650D01*
X-42250Y377366D02*
X-33750D01*
X-30850D02*
X-25350D01*
X-21450D02*
X-16450D01*
X-14350D02*
X-8450D01*
X-3650D02*
X1650D01*
X10950D02*
X16150D01*
X25750D02*
X30950D01*
X33350D02*
X41650D01*
X-42150Y377266D02*
X-33350D01*
X-31150D02*
X-25350D01*
X-21450D02*
X-16450D01*
X-14350D02*
X-8450D01*
X-3650D02*
X1650D01*
X10950D02*
X16150D01*
X25750D02*
X30950D01*
X33350D02*
X41650D01*
X-42150Y377166D02*
X-32550D01*
X-32250D02*
X-25350D01*
X-21450D02*
X-16450D01*
X-14250D02*
X-8350D01*
X-3650D02*
X1650D01*
X10950D02*
X16150D01*
X25750D02*
X30950D01*
X33450D02*
X41650D01*
X-42050Y377066D02*
X-25350D01*
X-21450D02*
X-16450D01*
X-14250D02*
X-8250D01*
X-3650D02*
X1650D01*
X10950D02*
X16150D01*
X25750D02*
X30950D01*
X33450D02*
X41650D01*
X-42050Y376966D02*
X-25350D01*
X-21450D02*
X-16450D01*
X-14150D02*
X-8250D01*
X-3650D02*
X1650D01*
X10950D02*
X16150D01*
X25750D02*
X30950D01*
X33550D02*
X41650D01*
X-41950Y376866D02*
X-25350D01*
X-21450D02*
X-16450D01*
X-14150D02*
X-8150D01*
X-3650D02*
X1650D01*
X10950D02*
X16150D01*
X25750D02*
X30950D01*
X33550D02*
X41650D01*
X-41950Y376766D02*
X-25350D01*
X-21450D02*
X-16450D01*
X-14050D02*
X-8050D01*
X-3650D02*
X1650D01*
X10950D02*
X16150D01*
X25750D02*
X30950D01*
X33650D02*
X41650D01*
X-41850Y376666D02*
X-25350D01*
X-21450D02*
X-16450D01*
X-14050D02*
X-7950D01*
X-3650D02*
X1650D01*
X10950D02*
X16150D01*
X24050D02*
X30950D01*
X33750D02*
X41650D01*
X-41850Y376566D02*
X-25350D01*
X-21450D02*
X-16450D01*
X-14050D02*
X-7850D01*
X-3650D02*
X8150D01*
X10950D02*
X22650D01*
X24050D02*
X30950D01*
X33750D02*
X41650D01*
X-41750Y376466D02*
X-25350D01*
X-21450D02*
X-16450D01*
X-13950D02*
X-7550D01*
X-3650D02*
X8150D01*
X10950D02*
X22650D01*
X24050D02*
X30950D01*
X33850D02*
X41650D01*
X-41750Y376366D02*
X-25350D01*
X-23050D02*
X-14950D01*
X-13950D02*
X-6450D01*
X-3650D02*
X8050D01*
X10950D02*
X22650D01*
X24050D02*
X30950D01*
X33850D02*
X41650D01*
X-41650Y376266D02*
X-25350D01*
X-23050D02*
X-14950D01*
X-13850D02*
X-6450D01*
X-5150D02*
X8050D01*
X9450D02*
X22650D01*
X24050D02*
X30950D01*
X33950D02*
X41650D01*
X-41650Y376166D02*
X-25350D01*
X-23050D02*
X-14950D01*
X-13850D02*
X-6450D01*
X-5150D02*
X8050D01*
X9450D02*
X22650D01*
X24050D02*
X30950D01*
X33950D02*
X41650D01*
X-41550Y376066D02*
X-25350D01*
X-23050D02*
X-14950D01*
X-13850D02*
X-6450D01*
X-5150D02*
X8050D01*
X9450D02*
X22650D01*
X24050D02*
X30950D01*
X34050D02*
X41650D01*
X-41450Y375966D02*
X-25350D01*
X-23050D02*
X-14950D01*
X-13750D02*
X-6450D01*
X-5150D02*
X8050D01*
X9450D02*
X22650D01*
X24050D02*
X30950D01*
X34050D02*
X41650D01*
X-41450Y375866D02*
X-25350D01*
X-23050D02*
X-14950D01*
X-13750D02*
X-6450D01*
X-5150D02*
X8050D01*
X9450D02*
X22650D01*
X24050D02*
X30950D01*
X34150D02*
X41650D01*
X-41350Y375766D02*
X-25350D01*
X-23050D02*
X-14950D01*
X-13750D02*
X-6450D01*
X-5150D02*
X8050D01*
X9450D02*
X22650D01*
X24050D02*
X30950D01*
X34250D02*
X41650D01*
X-41250Y375666D02*
X-25350D01*
X-23050D02*
X-14950D01*
X-13650D02*
X-6450D01*
X-5150D02*
X8050D01*
X9450D02*
X22650D01*
X24050D02*
X30950D01*
X34250D02*
X41650D01*
X-41250Y375566D02*
X-25350D01*
X-23050D02*
X-14950D01*
X-13650D02*
X-6450D01*
X-5150D02*
X8050D01*
X9450D02*
X22650D01*
X24050D02*
X30950D01*
X34350D02*
X41650D01*
X-41150Y375466D02*
X-25350D01*
X-23050D02*
X-14950D01*
X-13550D02*
X-6450D01*
X-5150D02*
X8050D01*
X9450D02*
X22650D01*
X24050D02*
X30950D01*
X34350D02*
X41650D01*
X-41050Y375366D02*
X-25350D01*
X-23050D02*
X-14950D01*
X-13550D02*
X-6450D01*
X-5150D02*
X8050D01*
X9450D02*
X22650D01*
X24050D02*
X30950D01*
X34450D02*
X41650D01*
X-40950Y375266D02*
X-25350D01*
X-23050D02*
X-14950D01*
X-13550D02*
X-6450D01*
X-5150D02*
X8050D01*
X9450D02*
X22650D01*
X24050D02*
X30950D01*
X34450D02*
X41650D01*
X-40950Y375166D02*
X-25350D01*
X-23050D02*
X-14950D01*
X-13450D02*
X-6450D01*
X-5150D02*
X8050D01*
X9450D02*
X22650D01*
X24050D02*
X30950D01*
X34550D02*
X41650D01*
X-40850Y375066D02*
X-25350D01*
X-23050D02*
X-14950D01*
X-13450D02*
X-6450D01*
X-5150D02*
X8050D01*
X9450D02*
X22650D01*
X24050D02*
X30950D01*
X34550D02*
X41650D01*
X-40750Y374966D02*
X-25350D01*
X-23050D02*
X-14950D01*
X-13350D02*
X-6450D01*
X-5150D02*
X8050D01*
X9450D02*
X22650D01*
X24050D02*
X30950D01*
X34650D02*
X41650D01*
X-40650Y374866D02*
X-25350D01*
X-23050D02*
X-14950D01*
X-13350D02*
X-6450D01*
X-5150D02*
X8050D01*
X9450D02*
X22650D01*
X24050D02*
X30950D01*
X34750D02*
X41650D01*
X-40550Y374766D02*
X-25350D01*
X-23050D02*
X-14950D01*
X-13350D02*
X-6450D01*
X-5150D02*
X8050D01*
X9450D02*
X22650D01*
X24050D02*
X30950D01*
X34750D02*
X41650D01*
X-40450Y374666D02*
X-25350D01*
X-23050D02*
X-14950D01*
X-13250D02*
X-6450D01*
X-5150D02*
X8050D01*
X9450D02*
X22650D01*
X24050D02*
X30950D01*
X34850D02*
X41650D01*
X-40350Y374566D02*
X-25350D01*
X-23050D02*
X-14950D01*
X-13250D02*
X-6450D01*
X-5150D02*
X8050D01*
X9450D02*
X22650D01*
X24050D02*
X30950D01*
X34850D02*
X41650D01*
X-40250Y374466D02*
X-25350D01*
X-23050D02*
X-14950D01*
X-13150D02*
X-6450D01*
X-5150D02*
X8050D01*
X9450D02*
X22650D01*
X24050D02*
X30950D01*
X34950D02*
X41650D01*
X-40150Y374366D02*
X-25350D01*
X-23050D02*
X-14950D01*
X-13150D02*
X-6450D01*
X-5150D02*
X8050D01*
X9450D02*
X22650D01*
X24050D02*
X30950D01*
X34950D02*
X41650D01*
X-40050Y374266D02*
X-25350D01*
X-23050D02*
X-14950D01*
X-13050D02*
X-6450D01*
X-5150D02*
X8050D01*
X9450D02*
X22650D01*
X24050D02*
X30950D01*
X35050D02*
X41650D01*
X-39950Y374166D02*
X-25350D01*
X-23050D02*
X-14950D01*
X-13050D02*
X-6450D01*
X-5150D02*
X8050D01*
X9450D02*
X22650D01*
X24050D02*
X30950D01*
X35050D02*
X41650D01*
X-39750Y374066D02*
X-25350D01*
X-23050D02*
X-14950D01*
X-12950D02*
X-6450D01*
X-5150D02*
X8050D01*
X9450D02*
X22650D01*
X24050D02*
X30950D01*
X35150D02*
X41650D01*
X-39650Y373966D02*
X-25350D01*
X-23050D02*
X-14950D01*
X-12850D02*
X-6450D01*
X-5150D02*
X8050D01*
X9450D02*
X22650D01*
X24050D02*
X30950D01*
X35250D02*
X41650D01*
X-39550Y373866D02*
X-25450D01*
X-23050D02*
X-14950D01*
X-12850D02*
X-6450D01*
X-5150D02*
X8050D01*
X9450D02*
X22650D01*
X24050D02*
X30950D01*
X35250D02*
X41650D01*
X-39350Y373766D02*
X-25650D01*
X-23050D02*
X-14950D01*
X-12750D02*
X-6450D01*
X-5150D02*
X8050D01*
X9450D02*
X22650D01*
X24050D02*
X30950D01*
X35350D02*
X41650D01*
X-39250Y373666D02*
X-25850D01*
X-23050D02*
X-14950D01*
X-12650D02*
X-6450D01*
X-5150D02*
X8050D01*
X9450D02*
X22650D01*
X24050D02*
X30950D01*
X35350D02*
X41650D01*
X-39050Y373566D02*
X-26050D01*
X-23050D02*
X-14950D01*
X-12650D02*
X-6450D01*
X-5150D02*
X8050D01*
X9450D02*
X22650D01*
X24050D02*
X30950D01*
X35450D02*
X41650D01*
X-38950Y373466D02*
X-26150D01*
X-23050D02*
X-14950D01*
X-12550D02*
X-6450D01*
X-5150D02*
X8050D01*
X9450D02*
X22650D01*
X24050D02*
X30950D01*
X35450D02*
X41650D01*
X-38750Y373366D02*
X-26450D01*
X-23050D02*
X-14950D01*
X-12450D02*
X-6450D01*
X-5150D02*
X8050D01*
X9450D02*
X22650D01*
X24050D02*
X30950D01*
X35550D02*
X41650D01*
X-38550Y373266D02*
X-26650D01*
X-23050D02*
X-14950D01*
X-12350D02*
X-6450D01*
X-5150D02*
X8050D01*
X9450D02*
X22650D01*
X24050D02*
X30950D01*
X35550D02*
X41650D01*
X-38350Y373166D02*
X-26850D01*
X-23050D02*
X-14950D01*
X-12250D02*
X-6450D01*
X-5150D02*
X8050D01*
X9450D02*
X22650D01*
X24050D02*
X30950D01*
X35650D02*
X41650D01*
X-38150Y373066D02*
X-27050D01*
X-23050D02*
X-14950D01*
X-12050D02*
X-6450D01*
X-5150D02*
X8050D01*
X9450D02*
X22650D01*
X24050D02*
X30950D01*
X35750D02*
X41650D01*
X-37950Y372966D02*
X-27350D01*
X-23050D02*
X-14950D01*
X-11950D02*
X-6450D01*
X-5150D02*
X8050D01*
X9450D02*
X22650D01*
X24050D02*
X30950D01*
X35750D02*
X41650D01*
X-37750Y372866D02*
X-27550D01*
X-23050D02*
X-14950D01*
X-11850D02*
X-6450D01*
X-5150D02*
X8050D01*
X9450D02*
X22650D01*
X24050D02*
X30950D01*
X35850D02*
X41650D01*
X-37550Y372766D02*
X-27850D01*
X-23050D02*
X-14950D01*
X-11650D02*
X-6450D01*
X-5150D02*
X8050D01*
X9450D02*
X22650D01*
X24050D02*
X30950D01*
X35850D02*
X41650D01*
X-37250Y372666D02*
X-28150D01*
X-23050D02*
X-14950D01*
X-11350D02*
X-6450D01*
X-5150D02*
X8050D01*
X9450D02*
X22650D01*
X24050D02*
X30950D01*
X35950D02*
X41650D01*
X-36950Y372566D02*
X-28550D01*
X-23050D02*
X-14950D01*
X-10950D02*
X-6450D01*
X-5150D02*
X8150D01*
X9450D02*
X22650D01*
X24050D02*
X31050D01*
X35950D02*
X41750D01*
X-36550Y372466D02*
X-28950D01*
X-36250Y372366D02*
X-29450D01*
X-35750Y372266D02*
X-30050D01*
X-35150Y372166D02*
X-30750D01*
X-34150Y372066D02*
X-31950D01*
X-24350Y371166D02*
X-14850D01*
X8950D02*
X19850D01*
X-24350Y371066D02*
X-14850D01*
X9050D02*
X20750D01*
X-24350Y370966D02*
X-14850D01*
X9050D02*
X21250D01*
X-24350Y370866D02*
X-14850D01*
X9050D02*
X21550D01*
X-24350Y370766D02*
X-14850D01*
X9050D02*
X21950D01*
X-24350Y370666D02*
X-14850D01*
X9050D02*
X22150D01*
X-24350Y370566D02*
X-14850D01*
X9050D02*
X22450D01*
X-24350Y370466D02*
X-14850D01*
X9050D02*
X22650D01*
X-24350Y370366D02*
X-14850D01*
X9050D02*
X22850D01*
X-24350Y370266D02*
X-14850D01*
X9050D02*
X23050D01*
X-24350Y370166D02*
X-14850D01*
X9050D02*
X23150D01*
X-24350Y370066D02*
X-14850D01*
X9050D02*
X23350D01*
X-24350Y369966D02*
X-14850D01*
X9050D02*
X23450D01*
X-24350Y369866D02*
X-14850D01*
X9050D02*
X23650D01*
X-24350Y369766D02*
X-14850D01*
X9050D02*
X23750D01*
X-24350Y369666D02*
X-14850D01*
X9050D02*
X23850D01*
X-24350Y369566D02*
X-14850D01*
X9050D02*
X23950D01*
X-24350Y369466D02*
X-14850D01*
X9050D02*
X24050D01*
X-24350Y369366D02*
X-14850D01*
X9050D02*
X24050D01*
X-24350Y369266D02*
X-14850D01*
X9050D02*
X24150D01*
X-24350Y369166D02*
X-14850D01*
X9050D02*
X24250D01*
X-24350Y369066D02*
X-14850D01*
X9050D02*
X24350D01*
X-24350Y368966D02*
X-14850D01*
X9050D02*
X24350D01*
X-24350Y368866D02*
X-14850D01*
X9050D02*
X24450D01*
X-24350Y368766D02*
X-14850D01*
X9050D02*
X24450D01*
X-24350Y368666D02*
X-14850D01*
X9050D02*
X24550D01*
X-24350Y368566D02*
X-14850D01*
X9050D02*
X24550D01*
X-24350Y368466D02*
X-14850D01*
X9050D02*
X24550D01*
X-24350Y368366D02*
X-14850D01*
X9050D02*
X24650D01*
X-24350Y368266D02*
X-14850D01*
X9050D02*
X24650D01*
X-24350Y368166D02*
X-14850D01*
X-3850D02*
X2750D01*
X9050D02*
X24650D01*
X-24350Y368066D02*
X-14850D01*
X-3850D02*
X2750D01*
X9050D02*
X24750D01*
X-24350Y367966D02*
X-14850D01*
X-3850D02*
X2750D01*
X9050D02*
X24750D01*
X-24350Y367866D02*
X-14850D01*
X-3850D02*
X2850D01*
X9050D02*
X24750D01*
X-24350Y367766D02*
X-14850D01*
X-3950D02*
X2850D01*
X9050D02*
X24750D01*
X-24350Y367666D02*
X-14850D01*
X-3950D02*
X2850D01*
X9050D02*
X24850D01*
X-24350Y367566D02*
X-14850D01*
X-3950D02*
X2950D01*
X9050D02*
X24850D01*
X-24350Y367466D02*
X-14850D01*
X-4050D02*
X2950D01*
X9050D02*
X24850D01*
X-24350Y367366D02*
X-14850D01*
X-4050D02*
X2950D01*
X9050D02*
X24850D01*
X-24350Y367266D02*
X-14850D01*
X-4050D02*
X3050D01*
X9050D02*
X24850D01*
X-24350Y367166D02*
X-14850D01*
X-4150D02*
X3050D01*
X9050D02*
X24850D01*
X-24350Y367066D02*
X-14850D01*
X-4150D02*
X3050D01*
X8950D02*
X16250D01*
X17950D02*
X24850D01*
X-22650Y366966D02*
X-16750D01*
X-4150D02*
X3150D01*
X10650D02*
X16250D01*
X18450D02*
X24850D01*
X-22650Y366866D02*
X-16750D01*
X-4250D02*
X3150D01*
X10650D02*
X16250D01*
X18750D02*
X24850D01*
X-22650Y366766D02*
X-16750D01*
X-4250D02*
X3150D01*
X10650D02*
X16250D01*
X18850D02*
X24850D01*
X-22650Y366666D02*
X-16750D01*
X-4250D02*
X3150D01*
X10650D02*
X16250D01*
X18950D02*
X24850D01*
X-22650Y366566D02*
X-16750D01*
X-4350D02*
X3250D01*
X10650D02*
X16250D01*
X19050D02*
X24850D01*
X-22650Y366466D02*
X-16750D01*
X-4350D02*
X3250D01*
X10650D02*
X16250D01*
X19050D02*
X24850D01*
X-22650Y366366D02*
X-16750D01*
X-4350D02*
X3250D01*
X10650D02*
X16250D01*
X19150D02*
X24850D01*
X-22650Y366266D02*
X-16750D01*
X-4450D02*
X3350D01*
X10650D02*
X16250D01*
X19150D02*
X24850D01*
X-22650Y366166D02*
X-16750D01*
X-4450D02*
X3350D01*
X10650D02*
X16250D01*
X19250D02*
X24850D01*
X-22650Y366066D02*
X-16750D01*
X-4450D02*
X3350D01*
X10650D02*
X16250D01*
X19250D02*
X24850D01*
X-22650Y365966D02*
X-16750D01*
X-4550D02*
X3450D01*
X10650D02*
X16250D01*
X19250D02*
X24850D01*
X-22650Y365866D02*
X-16750D01*
X-4550D02*
X3450D01*
X10650D02*
X16250D01*
X19250D02*
X24850D01*
X-22650Y365766D02*
X-16750D01*
X-4550D02*
X3450D01*
X10650D02*
X16250D01*
X19250D02*
X24850D01*
X-22650Y365666D02*
X-16750D01*
X-4650D02*
X3550D01*
X10650D02*
X16250D01*
X19250D02*
X24750D01*
X-22650Y365566D02*
X-16750D01*
X-4650D02*
X3550D01*
X10650D02*
X16250D01*
X19250D02*
X24750D01*
X-22650Y365466D02*
X-16750D01*
X-4650D02*
X3550D01*
X10650D02*
X16250D01*
X19250D02*
X24750D01*
X-22650Y365366D02*
X-16750D01*
X-4750D02*
X3650D01*
X10650D02*
X16250D01*
X19250D02*
X24750D01*
X-22650Y365266D02*
X-16750D01*
X-4750D02*
X3650D01*
X10650D02*
X16250D01*
X19250D02*
X24650D01*
X-22650Y365166D02*
X-16750D01*
X-4750D02*
X3650D01*
X10650D02*
X16250D01*
X19150D02*
X24650D01*
X-22650Y365066D02*
X-16750D01*
X-4850D02*
X3750D01*
X10650D02*
X16250D01*
X19150D02*
X24650D01*
X-22650Y364966D02*
X-16750D01*
X-4850D02*
X3750D01*
X10650D02*
X16250D01*
X19050D02*
X24550D01*
X-22650Y364866D02*
X-16750D01*
X-4850D02*
X3750D01*
X10650D02*
X16250D01*
X19050D02*
X24550D01*
X-22650Y364766D02*
X-16750D01*
X-4950D02*
X3850D01*
X10650D02*
X16250D01*
X18950D02*
X24450D01*
X-22650Y364666D02*
X-16750D01*
X-4950D02*
X3850D01*
X10650D02*
X16250D01*
X18850D02*
X24450D01*
X-22650Y364566D02*
X-16750D01*
X-4950D02*
X3850D01*
X10650D02*
X16250D01*
X18650D02*
X24350D01*
X-22650Y364466D02*
X-16750D01*
X-4950D02*
X3950D01*
X10650D02*
X16250D01*
X18450D02*
X24250D01*
X-22650Y364366D02*
X-16750D01*
X-5050D02*
X3950D01*
X10650D02*
X16250D01*
X17950D02*
X24250D01*
X-22650Y364266D02*
X-16750D01*
X-5050D02*
X-850D01*
X-650D02*
X3950D01*
X10650D02*
X24150D01*
X-22650Y364166D02*
X-16750D01*
X-5050D02*
X-850D01*
X-650D02*
X4050D01*
X10650D02*
X24050D01*
X-22650Y364066D02*
X-16750D01*
X-5150D02*
X-850D01*
X-650D02*
X4050D01*
X10650D02*
X23950D01*
X-22650Y363966D02*
X-16750D01*
X-5150D02*
X-850D01*
X-550D02*
X4050D01*
X10650D02*
X23850D01*
X-22650Y363866D02*
X-16750D01*
X-5150D02*
X-950D01*
X-550D02*
X4150D01*
X10650D02*
X23750D01*
X-22650Y363766D02*
X-16750D01*
X-5250D02*
X-950D01*
X-550D02*
X4150D01*
X10650D02*
X23650D01*
X-22650Y363666D02*
X-16750D01*
X-5250D02*
X-950D01*
X-450D02*
X4150D01*
X10650D02*
X23550D01*
X-22650Y363566D02*
X-16750D01*
X-5250D02*
X-950D01*
X-450D02*
X4150D01*
X10650D02*
X23450D01*
X-22650Y363466D02*
X-16750D01*
X-5350D02*
X-1050D01*
X-450D02*
X4250D01*
X10650D02*
X23250D01*
X-22650Y363366D02*
X-16750D01*
X-5350D02*
X-1050D01*
X-450D02*
X4250D01*
X10650D02*
X23150D01*
X-22650Y363266D02*
X-16750D01*
X-5350D02*
X-1050D01*
X-350D02*
X4250D01*
X10650D02*
X22950D01*
X-22650Y363166D02*
X-16750D01*
X-5450D02*
X-1150D01*
X-350D02*
X4350D01*
X10650D02*
X22850D01*
X-22650Y363066D02*
X-16750D01*
X-5450D02*
X-1150D01*
X-350D02*
X4350D01*
X10650D02*
X22550D01*
X-22650Y362966D02*
X-16750D01*
X-5450D02*
X-1150D01*
X-250D02*
X4350D01*
X10650D02*
X22550D01*
X-22650Y362866D02*
X-16750D01*
X-5550D02*
X-1250D01*
X-250D02*
X4450D01*
X10650D02*
X22650D01*
X-22650Y362766D02*
X-16750D01*
X-5550D02*
X-1250D01*
X-250D02*
X4450D01*
X10650D02*
X22950D01*
X-22650Y362666D02*
X-16750D01*
X-5550D02*
X-1250D01*
X-250D02*
X4450D01*
X10650D02*
X23250D01*
X-22650Y362566D02*
X-16750D01*
X-5650D02*
X-1250D01*
X-150D02*
X4550D01*
X10650D02*
X23450D01*
X-22650Y362466D02*
X-16750D01*
X-5650D02*
X-1350D01*
X-150D02*
X4550D01*
X10650D02*
X23650D01*
X-22650Y362366D02*
X-16750D01*
X-5650D02*
X-1350D01*
X-150D02*
X4550D01*
X10650D02*
X23750D01*
X-22650Y362266D02*
X-16750D01*
X-5750D02*
X-1350D01*
X-50D02*
X4650D01*
X10650D02*
X23950D01*
X-22650Y362166D02*
X-16750D01*
X-5750D02*
X-1450D01*
X-50D02*
X4650D01*
X10650D02*
X24050D01*
X-22650Y362066D02*
X-16750D01*
X-5750D02*
X-1450D01*
X-50D02*
X4650D01*
X10650D02*
X24250D01*
X-22650Y361966D02*
X-16750D01*
X-5850D02*
X-1450D01*
X-50D02*
X4750D01*
X10650D02*
X24350D01*
X-22650Y361866D02*
X-16750D01*
X-5850D02*
X-1450D01*
X50D02*
X4750D01*
X10650D02*
X24450D01*
X-22650Y361766D02*
X-16750D01*
X-5850D02*
X-1550D01*
X50D02*
X4750D01*
X10650D02*
X24550D01*
X-22650Y361666D02*
X-16750D01*
X-5950D02*
X-1550D01*
X50D02*
X4850D01*
X10650D02*
X24650D01*
X-22650Y361566D02*
X-16750D01*
X-5950D02*
X-1550D01*
X150D02*
X4850D01*
X10650D02*
X24750D01*
X-22650Y361466D02*
X-16750D01*
X-5950D02*
X-1650D01*
X150D02*
X4850D01*
X10650D02*
X24850D01*
X-22650Y361366D02*
X-16750D01*
X-6050D02*
X-1650D01*
X150D02*
X4950D01*
X10650D02*
X24950D01*
X-22650Y361266D02*
X-16750D01*
X-6050D02*
X-1650D01*
X250D02*
X4950D01*
X10650D02*
X24950D01*
X-22650Y361166D02*
X-16750D01*
X-6050D02*
X-1650D01*
X250D02*
X4950D01*
X10650D02*
X25050D01*
X-22650Y361066D02*
X-16750D01*
X-6150D02*
X-1750D01*
X250D02*
X5050D01*
X10650D02*
X25150D01*
X-22650Y360966D02*
X-16750D01*
X-6150D02*
X-1750D01*
X250D02*
X5050D01*
X10650D02*
X25150D01*
X-22650Y360866D02*
X-16750D01*
X-6150D02*
X-1750D01*
X350D02*
X5050D01*
X10650D02*
X25250D01*
X-22650Y360766D02*
X-16750D01*
X-6250D02*
X-1850D01*
X350D02*
X5150D01*
X10650D02*
X16250D01*
X18650D02*
X25250D01*
X-22650Y360666D02*
X-16750D01*
X-6250D02*
X-1850D01*
X350D02*
X5150D01*
X10650D02*
X16250D01*
X18850D02*
X25350D01*
X-22650Y360566D02*
X-16750D01*
X-6250D02*
X-1850D01*
X450D02*
X5150D01*
X10650D02*
X16250D01*
X19050D02*
X25350D01*
X-22650Y360466D02*
X-16750D01*
X-6250D02*
X-1850D01*
X450D02*
X5150D01*
X10650D02*
X16250D01*
X19250D02*
X25450D01*
X-22650Y360366D02*
X-16750D01*
X-6350D02*
X-1950D01*
X450D02*
X5250D01*
X10650D02*
X16250D01*
X19350D02*
X25450D01*
X-22650Y360266D02*
X-16750D01*
X-6350D02*
X-1950D01*
X450D02*
X5250D01*
X10650D02*
X16250D01*
X19450D02*
X25550D01*
X-22650Y360166D02*
X-16750D01*
X-6350D02*
X-1950D01*
X550D02*
X5250D01*
X10650D02*
X16250D01*
X19450D02*
X25550D01*
X-22650Y360066D02*
X-16750D01*
X-6450D02*
X-1950D01*
X550D02*
X5350D01*
X10650D02*
X16250D01*
X19550D02*
X25550D01*
X-22650Y359966D02*
X-16750D01*
X-6450D02*
X5350D01*
X10650D02*
X16250D01*
X19550D02*
X25650D01*
X-22650Y359866D02*
X-16750D01*
X-6450D02*
X5350D01*
X10650D02*
X16250D01*
X19650D02*
X25650D01*
X-22650Y359766D02*
X-16750D01*
X-6550D02*
X5450D01*
X10650D02*
X16250D01*
X19650D02*
X25650D01*
X-22650Y359666D02*
X-16750D01*
X-6550D02*
X5450D01*
X10650D02*
X16250D01*
X19650D02*
X25650D01*
X-22650Y359566D02*
X-16750D01*
X-6550D02*
X5450D01*
X10650D02*
X16250D01*
X19750D02*
X25750D01*
X-22650Y359466D02*
X-16750D01*
X-6650D02*
X5550D01*
X10650D02*
X16250D01*
X19750D02*
X25750D01*
X-22650Y359366D02*
X-16750D01*
X-6650D02*
X5550D01*
X10650D02*
X16250D01*
X19750D02*
X25750D01*
X-22650Y359266D02*
X-16750D01*
X-6650D02*
X5550D01*
X10650D02*
X16250D01*
X19750D02*
X25750D01*
X-22650Y359166D02*
X-16750D01*
X-6750D02*
X5650D01*
X10650D02*
X16250D01*
X19750D02*
X25750D01*
X-22650Y359066D02*
X-16750D01*
X-6750D02*
X5650D01*
X10650D02*
X16250D01*
X19750D02*
X25750D01*
X-22650Y358966D02*
X-16750D01*
X-6750D02*
X5650D01*
X10650D02*
X16250D01*
X19650D02*
X25750D01*
X-22650Y358866D02*
X-16750D01*
X-6850D02*
X5750D01*
X10650D02*
X16250D01*
X19650D02*
X25850D01*
X-22650Y358766D02*
X-16750D01*
X-6850D02*
X5750D01*
X10650D02*
X16250D01*
X19650D02*
X25850D01*
X-22650Y358666D02*
X-16750D01*
X-6850D02*
X5750D01*
X10650D02*
X16250D01*
X19650D02*
X25850D01*
X-22650Y358566D02*
X-16750D01*
X-6950D02*
X5850D01*
X10650D02*
X16250D01*
X19550D02*
X25850D01*
X-22650Y358466D02*
X-16750D01*
X-6950D02*
X5850D01*
X10650D02*
X16250D01*
X19550D02*
X25850D01*
X-22650Y358366D02*
X-16750D01*
X-6950D02*
X5850D01*
X10650D02*
X16250D01*
X19450D02*
X25750D01*
X-22650Y358266D02*
X-16750D01*
X-7050D02*
X5950D01*
X10650D02*
X16250D01*
X19350D02*
X25750D01*
X-22650Y358166D02*
X-16750D01*
X-7050D02*
X5950D01*
X10650D02*
X16250D01*
X19250D02*
X25750D01*
X-22650Y358066D02*
X-16750D01*
X-7050D02*
X5950D01*
X10650D02*
X16250D01*
X19150D02*
X25750D01*
X-22650Y357966D02*
X-10050D01*
X-7150D02*
X6050D01*
X10650D02*
X16250D01*
X18950D02*
X25750D01*
X-22650Y357866D02*
X-10150D01*
X-7150D02*
X6050D01*
X10650D02*
X16250D01*
X18750D02*
X25750D01*
X-22650Y357766D02*
X-10150D01*
X-7150D02*
X6050D01*
X10650D02*
X16250D01*
X18450D02*
X25750D01*
X-22650Y357666D02*
X-10150D01*
X-7250D02*
X6150D01*
X10650D02*
X25750D01*
X-24350Y357566D02*
X-10150D01*
X-7250D02*
X6150D01*
X8950D02*
X25750D01*
X-24350Y357466D02*
X-10150D01*
X-7250D02*
X6150D01*
X9050D02*
X25650D01*
X-24350Y357366D02*
X-10150D01*
X-7350D02*
X6150D01*
X9050D02*
X25650D01*
X-24350Y357266D02*
X-10150D01*
X-7350D02*
X6250D01*
X9050D02*
X25650D01*
X-24350Y357166D02*
X-10150D01*
X-7350D02*
X6250D01*
X9050D02*
X25650D01*
X-24350Y357066D02*
X-10150D01*
X-7450D02*
X6250D01*
X9050D02*
X25650D01*
X-24350Y356966D02*
X-10150D01*
X-7450D02*
X6350D01*
X9050D02*
X25550D01*
X-24350Y356866D02*
X-10150D01*
X-8850D02*
X7750D01*
X9050D02*
X25550D01*
X-24350Y356766D02*
X-10150D01*
X-8750D02*
X7650D01*
X9050D02*
X25550D01*
X-24350Y356666D02*
X-10150D01*
X-8750D02*
X7650D01*
X9050D02*
X25450D01*
X-24350Y356566D02*
X-10150D01*
X-8750D02*
X7650D01*
X9050D02*
X25450D01*
X-24350Y356466D02*
X-10150D01*
X-8750D02*
X7650D01*
X9050D02*
X25450D01*
X-24350Y356366D02*
X-10150D01*
X-8750D02*
X7650D01*
X9050D02*
X25350D01*
X-24350Y356266D02*
X-10150D01*
X-8750D02*
X-3050D01*
X1650D02*
X7650D01*
X9050D02*
X25350D01*
X-24350Y356166D02*
X-10150D01*
X-8750D02*
X-3150D01*
X1650D02*
X7650D01*
X9050D02*
X25250D01*
X-24350Y356066D02*
X-10150D01*
X-8750D02*
X-3150D01*
X1650D02*
X7650D01*
X9050D02*
X25250D01*
X-24350Y355966D02*
X-10150D01*
X-8750D02*
X-3150D01*
X1750D02*
X7650D01*
X9050D02*
X25150D01*
X-24350Y355866D02*
X-10150D01*
X-8750D02*
X-3250D01*
X1750D02*
X7650D01*
X9050D02*
X25050D01*
X-24350Y355766D02*
X-10150D01*
X-8750D02*
X-3250D01*
X1750D02*
X7650D01*
X9050D02*
X25050D01*
X-24350Y355666D02*
X-10150D01*
X-8750D02*
X-3250D01*
X1850D02*
X7650D01*
X9050D02*
X24950D01*
X-24350Y355566D02*
X-10150D01*
X-8750D02*
X-3350D01*
X1850D02*
X7650D01*
X9050D02*
X24850D01*
X-24350Y355466D02*
X-10150D01*
X-8750D02*
X-3350D01*
X1850D02*
X7650D01*
X9050D02*
X24850D01*
X-24350Y355366D02*
X-10150D01*
X-8750D02*
X-3350D01*
X1850D02*
X7650D01*
X9050D02*
X24750D01*
X-24350Y355266D02*
X-10150D01*
X-8750D02*
X-3350D01*
X1950D02*
X7650D01*
X9050D02*
X24650D01*
X-24350Y355166D02*
X-10150D01*
X-8750D02*
X-3450D01*
X1950D02*
X7650D01*
X9050D02*
X24550D01*
X-24350Y355066D02*
X-10150D01*
X-8750D02*
X-3450D01*
X1950D02*
X7650D01*
X9050D02*
X24450D01*
X-24350Y354966D02*
X-10150D01*
X-8750D02*
X-3450D01*
X2050D02*
X7650D01*
X9050D02*
X24350D01*
X-24350Y354866D02*
X-10150D01*
X-8750D02*
X-3450D01*
X2050D02*
X7650D01*
X9050D02*
X24250D01*
X-24350Y354766D02*
X-10150D01*
X-8750D02*
X-3550D01*
X2050D02*
X7650D01*
X9050D02*
X24150D01*
X-24350Y354666D02*
X-10150D01*
X-8750D02*
X-3550D01*
X2050D02*
X7650D01*
X9050D02*
X23950D01*
X-24350Y354566D02*
X-10150D01*
X-8750D02*
X-3550D01*
X2150D02*
X7650D01*
X9050D02*
X23850D01*
X-24350Y354466D02*
X-10150D01*
X-8750D02*
X-3650D01*
X2150D02*
X7650D01*
X9050D02*
X23650D01*
X-24350Y354366D02*
X-10150D01*
X-8750D02*
X-3650D01*
X2150D02*
X7650D01*
X9050D02*
X23550D01*
X-24350Y354266D02*
X-10150D01*
X-8750D02*
X-3650D01*
X2250D02*
X7650D01*
X9050D02*
X23350D01*
X-24350Y354166D02*
X-10150D01*
X-8750D02*
X-3650D01*
X2250D02*
X7650D01*
X9050D02*
X23150D01*
X-24350Y354066D02*
X-10150D01*
X-8750D02*
X-3750D01*
X2250D02*
X7650D01*
X9050D02*
X22950D01*
X-24350Y353966D02*
X-10150D01*
X-8750D02*
X-3750D01*
X2250D02*
X7650D01*
X9050D02*
X22650D01*
X-24350Y353866D02*
X-10150D01*
X-8750D02*
X-3750D01*
X2350D02*
X7650D01*
X9050D02*
X22350D01*
X-24350Y353766D02*
X-10150D01*
X-8750D02*
X-3850D01*
X2350D02*
X7650D01*
X9050D02*
X22050D01*
X-24350Y353666D02*
X-10150D01*
X-8750D02*
X-3850D01*
X2350D02*
X7650D01*
X9050D02*
X21550D01*
X-24350Y353566D02*
X-10050D01*
X-8750D02*
X-3850D01*
X2350D02*
X7650D01*
X9050D02*
X21050D01*
X-24350Y353466D02*
X-10050D01*
X-8750D02*
X-3850D01*
X2450D02*
X7650D01*
X9050D02*
X19750D01*
X-850Y346966D02*
X-550D01*
X-850Y346866D02*
X-550D01*
X-850Y346766D02*
X-550D01*
X-850Y346666D02*
X-550D01*
X-850Y346566D02*
X-550D01*
X-850Y346466D02*
X-550D01*
X-850Y346366D02*
X-550D01*
X-850Y346266D02*
X-550D01*
X-850Y346166D02*
X-550D01*
X-850Y346066D02*
X-550D01*
X-850Y345966D02*
X-550D01*
X-850Y345866D02*
X-550D01*
X-850Y345766D02*
X-550D01*
X-850Y345666D02*
X-550D01*
X-24950Y345566D02*
X-23450D01*
X-9150D02*
X-8850D01*
X-7050D02*
X-6750D01*
X-850D02*
X-550D01*
X-24950Y345466D02*
X-23150D01*
X-9150D02*
X-8850D01*
X-7050D02*
X-6750D01*
X-850D02*
X-550D01*
X-24950Y345366D02*
X-22950D01*
X-9150D02*
X-8850D01*
X-7050D02*
X-6750D01*
X-850D02*
X-550D01*
X2050D02*
X3050D01*
X13150D02*
X13950D01*
X23350D02*
X24150D01*
X-24950Y345266D02*
X-22950D01*
X-9150D02*
X-8850D01*
X-7050D02*
X-6750D01*
X-850D02*
X-550D01*
X1850D02*
X3350D01*
X4950D02*
X6450D01*
X7850D02*
X9150D01*
X10050D02*
X11450D01*
X12850D02*
X14250D01*
X15550D02*
X16350D01*
X17050D02*
X17850D01*
X18850D02*
X20050D01*
X20850D02*
X21650D01*
X23050D02*
X24450D01*
X-24950Y345166D02*
X-24650D01*
X-23250D02*
X-22850D01*
X-9150D02*
X-8850D01*
X-7050D02*
X-6750D01*
X-850D02*
X-550D01*
X1650D02*
X3450D01*
X4950D02*
X6450D01*
X7850D02*
X9150D01*
X10050D02*
X11450D01*
X12650D02*
X14450D01*
X15550D02*
X16350D01*
X17050D02*
X17850D01*
X18850D02*
X20050D01*
X20850D02*
X21650D01*
X22850D02*
X24650D01*
X-24950Y345066D02*
X-24650D01*
X-23150D02*
X-22750D01*
X-9150D02*
X-8850D01*
X-7050D02*
X-6750D01*
X-850D02*
X-550D01*
X1550D02*
X3550D01*
X4950D02*
X5750D01*
X5850D02*
X6450D01*
X7850D02*
X9250D01*
X10050D02*
X11450D01*
X12550D02*
X14550D01*
X15550D02*
X16350D01*
X17050D02*
X17850D01*
X18850D02*
X20150D01*
X20850D02*
X21650D01*
X22750D02*
X24750D01*
X-24950Y344966D02*
X-24650D01*
X-23150D02*
X-22750D01*
X-9150D02*
X-8850D01*
X-7050D02*
X-6750D01*
X-850D02*
X-550D01*
X1550D02*
X3650D01*
X4950D02*
X5650D01*
X5850D02*
X6450D01*
X7850D02*
X8550D01*
X8750D02*
X9250D01*
X10050D02*
X10550D01*
X10750D02*
X11450D01*
X12550D02*
X14550D01*
X15550D02*
X16350D01*
X17050D02*
X17850D01*
X18850D02*
X20150D01*
X20850D02*
X21650D01*
X22750D02*
X24850D01*
X-24950Y344866D02*
X-24650D01*
X-23050D02*
X-22750D01*
X-21550D02*
X-21150D01*
X-16050D02*
X-15650D01*
X-13650D02*
X-13450D01*
X-12250D02*
X-11850D01*
X-9950D02*
X-9650D01*
X-9150D02*
X-8850D01*
X-7050D02*
X-6750D01*
X-6250D02*
X-5950D01*
X-850D02*
X-550D01*
X1450D02*
X2350D01*
X2850D02*
X3650D01*
X4950D02*
X5650D01*
X5850D02*
X6550D01*
X7850D02*
X8550D01*
X8750D02*
X9250D01*
X10050D02*
X10550D01*
X10750D02*
X11450D01*
X12450D02*
X13350D01*
X13750D02*
X14550D01*
X15550D02*
X16350D01*
X17050D02*
X17850D01*
X18850D02*
X20150D01*
X20850D02*
X21650D01*
X22650D02*
X23550D01*
X23950D02*
X24850D01*
X-24950Y344766D02*
X-24650D01*
X-23050D02*
X-22750D01*
X-21850D02*
X-20850D01*
X-20050D02*
X-19850D01*
X-18650D02*
X-18450D01*
X-17350D02*
X-17150D01*
X-16350D02*
X-15450D01*
X-14350D02*
X-14050D01*
X-13850D02*
X-13250D01*
X-12550D02*
X-11650D01*
X-10150D02*
X-9450D01*
X-9150D02*
X-8850D01*
X-7050D02*
X-6750D01*
X-6450D02*
X-5650D01*
X-4850D02*
X-4550D01*
X-3150D02*
X-2950D01*
X-850D02*
X-550D01*
X1450D02*
X2250D01*
X2850D02*
X3650D01*
X4950D02*
X5650D01*
X5850D02*
X6550D01*
X7850D02*
X8550D01*
X8750D02*
X9250D01*
X10050D02*
X10550D01*
X10750D02*
X11450D01*
X12450D02*
X13250D01*
X13850D02*
X14650D01*
X15550D02*
X16350D01*
X17050D02*
X17850D01*
X18850D02*
X20250D01*
X20850D02*
X21650D01*
X22650D02*
X23450D01*
X24050D02*
X24850D01*
X-24950Y344666D02*
X-24650D01*
X-23050D02*
X-22750D01*
X-21950D02*
X-20750D01*
X-20050D02*
X-19750D01*
X-18750D02*
X-18450D01*
X-17450D02*
X-17150D01*
X-16450D02*
X-15250D01*
X-14350D02*
X-14050D01*
X-13850D02*
X-13250D01*
X-12650D02*
X-11450D01*
X-10350D02*
X-9350D01*
X-9150D02*
X-8850D01*
X-7050D02*
X-6750D01*
X-6550D02*
X-5550D01*
X-4750D02*
X-4450D01*
X-3250D02*
X-2950D01*
X-850D02*
X-550D01*
X1450D02*
X2250D01*
X2950D02*
X3650D01*
X4850D02*
X5650D01*
X5850D02*
X6550D01*
X7850D02*
X8550D01*
X8750D02*
X9250D01*
X9950D02*
X10550D01*
X10750D02*
X11450D01*
X12450D02*
X13150D01*
X13850D02*
X14650D01*
X15550D02*
X16350D01*
X17050D02*
X17850D01*
X18850D02*
X19550D01*
X19750D02*
X20250D01*
X20850D02*
X21650D01*
X22650D02*
X23350D01*
X24150D02*
X24850D01*
X-24950Y344566D02*
X-24650D01*
X-23050D02*
X-22750D01*
X-22050D02*
X-20650D01*
X-20050D02*
X-19750D01*
X-18750D02*
X-18450D01*
X-17450D02*
X-17150D01*
X-16550D02*
X-15150D01*
X-14350D02*
X-14050D01*
X-13950D02*
X-13250D01*
X-12750D02*
X-11350D01*
X-10450D02*
X-9250D01*
X-9150D02*
X-8850D01*
X-7050D02*
X-6750D01*
X-6650D02*
X-5450D01*
X-4750D02*
X-4450D01*
X-3250D02*
X-2950D01*
X-850D02*
X-550D01*
X1450D02*
X2250D01*
X2950D02*
X3650D01*
X4850D02*
X5550D01*
X5850D02*
X6550D01*
X7850D02*
X8550D01*
X8750D02*
X9350D01*
X9950D02*
X10450D01*
X10750D02*
X11450D01*
X12450D02*
X13150D01*
X13850D02*
X14650D01*
X15550D02*
X16350D01*
X17050D02*
X17850D01*
X18850D02*
X19550D01*
X19750D02*
X20250D01*
X20950D02*
X21650D01*
X22650D02*
X23350D01*
X24150D02*
X24850D01*
X-24950Y344466D02*
X-24650D01*
X-23050D02*
X-22750D01*
X-22150D02*
X-21750D01*
X-21050D02*
X-20550D01*
X-19950D02*
X-19750D01*
X-18750D02*
X-18450D01*
X-17450D02*
X-17250D01*
X-16650D02*
X-16250D01*
X-15450D02*
X-15050D01*
X-14350D02*
X-13850D01*
X-12850D02*
X-12450D01*
X-11650D02*
X-11250D01*
X-10450D02*
X-10050D01*
X-9350D02*
X-8850D01*
X-7050D02*
X-6450D01*
X-5750D02*
X-5350D01*
X-4650D02*
X-4350D01*
X-3250D02*
X-3050D01*
X-850D02*
X-550D01*
X1450D02*
X2250D01*
X2950D02*
X3650D01*
X4850D02*
X5550D01*
X5850D02*
X6550D01*
X7850D02*
X8550D01*
X8850D02*
X9350D01*
X9950D02*
X10450D01*
X10750D02*
X11450D01*
X12450D02*
X13150D01*
X13850D02*
X14650D01*
X15550D02*
X16350D01*
X17050D02*
X17850D01*
X18850D02*
X19550D01*
X19750D02*
X20350D01*
X20950D02*
X21650D01*
X22650D02*
X23350D01*
X24150D02*
X24850D01*
X-24950Y344366D02*
X-24650D01*
X-23150D02*
X-22750D01*
X-22250D02*
X-21850D01*
X-20850D02*
X-20550D01*
X-19950D02*
X-19750D01*
X-18850D02*
X-18350D01*
X-17550D02*
X-17250D01*
X-16650D02*
X-16350D01*
X-15350D02*
X-15050D01*
X-14350D02*
X-13950D01*
X-12850D02*
X-12550D01*
X-11550D02*
X-11250D01*
X-10550D02*
X-10150D01*
X-9250D02*
X-8850D01*
X-7050D02*
X-6550D01*
X-5650D02*
X-5350D01*
X-4650D02*
X-4350D01*
X-3350D02*
X-3050D01*
X-850D02*
X-550D01*
X1450D02*
X2250D01*
X4850D02*
X5550D01*
X5850D02*
X6650D01*
X7850D02*
X8550D01*
X8850D02*
X9350D01*
X9950D02*
X10450D01*
X10750D02*
X11450D01*
X12450D02*
X13250D01*
X15550D02*
X16350D01*
X17050D02*
X17850D01*
X18850D02*
X19550D01*
X19850D02*
X20350D01*
X20950D02*
X21650D01*
X22650D02*
X23350D01*
X24150D02*
X24950D01*
X-24950Y344266D02*
X-24650D01*
X-23150D02*
X-22850D01*
X-22250D02*
X-21950D01*
X-20750D02*
X-20450D01*
X-19950D02*
X-19650D01*
X-18850D02*
X-18650D01*
X-18550D02*
X-18350D01*
X-17550D02*
X-17250D01*
X-16750D02*
X-16450D01*
X-15250D02*
X-14950D01*
X-14350D02*
X-13950D01*
X-12950D02*
X-12650D01*
X-11450D02*
X-11150D01*
X-10550D02*
X-10250D01*
X-9150D02*
X-8850D01*
X-7050D02*
X-6650D01*
X-5550D02*
X-5250D01*
X-4650D02*
X-4350D01*
X-3350D02*
X-3050D01*
X-850D02*
X-550D01*
X1450D02*
X2350D01*
X4850D02*
X5550D01*
X5850D02*
X6650D01*
X7850D02*
X8550D01*
X8850D02*
X9350D01*
X9950D02*
X10450D01*
X10650D02*
X11450D01*
X12450D02*
X13350D01*
X15550D02*
X16350D01*
X17050D02*
X17850D01*
X18850D02*
X19550D01*
X19850D02*
X20350D01*
X20950D02*
X21650D01*
X22650D02*
X23350D01*
X-24950Y344166D02*
X-24650D01*
X-23350D02*
X-22850D01*
X-22350D02*
X-21950D01*
X-20750D02*
X-20450D01*
X-19850D02*
X-19650D01*
X-18850D02*
X-18650D01*
X-18550D02*
X-18350D01*
X-17550D02*
X-17350D01*
X-16750D02*
X-16550D01*
X-15250D02*
X-14950D01*
X-14350D02*
X-13950D01*
X-12950D02*
X-12750D01*
X-11450D02*
X-11150D01*
X-10550D02*
X-10350D01*
X-9150D02*
X-8850D01*
X-7050D02*
X-6650D01*
X-5550D02*
X-5250D01*
X-4550D02*
X-4250D01*
X-3350D02*
X-3150D01*
X-850D02*
X-550D01*
X1450D02*
X2550D01*
X4750D02*
X5550D01*
X5950D02*
X6650D01*
X7850D02*
X8550D01*
X8850D02*
X9350D01*
X9950D02*
X10450D01*
X10650D02*
X11450D01*
X12450D02*
X13550D01*
X15550D02*
X16350D01*
X17050D02*
X17850D01*
X18850D02*
X19550D01*
X19850D02*
X20450D01*
X20950D02*
X21650D01*
X22650D02*
X23350D01*
X-24950Y344066D02*
X-22950D01*
X-22350D02*
X-22050D01*
X-20650D02*
X-20350D01*
X-19850D02*
X-19650D01*
X-18850D02*
X-18750D01*
X-18550D02*
X-18250D01*
X-17650D02*
X-17350D01*
X-16850D02*
X-16550D01*
X-15150D02*
X-14950D01*
X-14350D02*
X-14050D01*
X-13050D02*
X-12750D01*
X-11350D02*
X-11150D01*
X-10650D02*
X-10350D01*
X-9150D02*
X-8850D01*
X-7050D02*
X-6750D01*
X-5550D02*
X-5250D01*
X-4550D02*
X-4250D01*
X-3450D02*
X-3150D01*
X-850D02*
X-550D01*
X1550D02*
X2750D01*
X4750D02*
X5550D01*
X5950D02*
X6650D01*
X7850D02*
X8550D01*
X8850D02*
X9350D01*
X9850D02*
X10350D01*
X10650D02*
X11450D01*
X12550D02*
X13650D01*
X15550D02*
X16350D01*
X17050D02*
X17850D01*
X18850D02*
X19550D01*
X19850D02*
X20450D01*
X20950D02*
X21650D01*
X22650D02*
X23350D01*
X-24950Y343966D02*
X-23050D01*
X-22350D02*
X-22050D01*
X-20650D02*
X-20350D01*
X-19850D02*
X-19550D01*
X-18950D02*
X-18750D01*
X-18450D02*
X-18250D01*
X-17650D02*
X-17450D01*
X-16850D02*
X-14950D01*
X-14350D02*
X-14050D01*
X-13050D02*
X-11150D01*
X-10650D02*
X-10350D01*
X-9050D02*
X-8850D01*
X-7050D02*
X-6750D01*
X-5450D02*
X-5150D01*
X-4550D02*
X-4250D01*
X-3450D02*
X-3150D01*
X-850D02*
X-550D01*
X1650D02*
X2950D01*
X4750D02*
X5550D01*
X5950D02*
X6650D01*
X7850D02*
X8550D01*
X8850D02*
X9350D01*
X9850D02*
X10350D01*
X10650D02*
X11450D01*
X12550D02*
X13850D01*
X15550D02*
X16350D01*
X17050D02*
X17850D01*
X18850D02*
X19550D01*
X19950D02*
X20450D01*
X20950D02*
X21650D01*
X22650D02*
X23350D01*
X-24950Y343866D02*
X-23150D01*
X-22350D02*
X-22050D01*
X-20650D02*
X-20350D01*
X-19750D02*
X-19550D01*
X-18950D02*
X-18750D01*
X-18450D02*
X-18250D01*
X-17650D02*
X-17450D01*
X-16850D02*
X-14850D01*
X-14350D02*
X-14050D01*
X-13050D02*
X-11050D01*
X-10650D02*
X-10350D01*
X-9050D02*
X-8850D01*
X-7050D02*
X-6750D01*
X-5450D02*
X-5150D01*
X-4450D02*
X-4150D01*
X-3550D02*
X-3250D01*
X-850D02*
X-550D01*
X1750D02*
X3050D01*
X4750D02*
X5450D01*
X5950D02*
X6750D01*
X7850D02*
X8550D01*
X8950D02*
X9450D01*
X9850D02*
X10350D01*
X10650D02*
X11450D01*
X12650D02*
X14050D01*
X15550D02*
X16350D01*
X17050D02*
X17850D01*
X18850D02*
X19550D01*
X19950D02*
X20450D01*
X20950D02*
X21650D01*
X22650D02*
X23350D01*
X-24950Y343766D02*
X-23550D01*
X-22350D02*
X-22050D01*
X-20650D02*
X-20350D01*
X-19750D02*
X-19550D01*
X-18950D02*
X-18850D01*
X-18450D02*
X-18250D01*
X-17750D02*
X-17450D01*
X-16850D02*
X-14850D01*
X-14350D02*
X-14050D01*
X-13050D02*
X-11050D01*
X-10650D02*
X-10350D01*
X-9050D02*
X-8850D01*
X-7050D02*
X-6750D01*
X-5450D02*
X-5150D01*
X-4450D02*
X-4150D01*
X-3550D02*
X-3250D01*
X-850D02*
X-550D01*
X1850D02*
X3250D01*
X4750D02*
X5450D01*
X5950D02*
X6750D01*
X7850D02*
X8550D01*
X8950D02*
X9450D01*
X9850D02*
X10350D01*
X10650D02*
X11450D01*
X12850D02*
X14250D01*
X15550D02*
X16350D01*
X17050D02*
X17850D01*
X18850D02*
X19550D01*
X19950D02*
X20550D01*
X20950D02*
X21650D01*
X22650D02*
X23350D01*
X23750D02*
X24950D01*
X-24950Y343666D02*
X-24650D01*
X-22350D02*
X-22050D01*
X-20650D02*
X-20350D01*
X-19750D02*
X-19450D01*
X-19050D02*
X-18850D01*
X-18450D02*
X-18150D01*
X-17750D02*
X-17550D01*
X-16850D02*
X-14850D01*
X-14350D02*
X-14050D01*
X-13050D02*
X-11050D01*
X-10650D02*
X-10350D01*
X-9050D02*
X-8850D01*
X-7050D02*
X-6750D01*
X-5450D02*
X-5150D01*
X-4350D02*
X-4150D01*
X-3550D02*
X-3350D01*
X-850D02*
X-550D01*
X2050D02*
X3450D01*
X4650D02*
X5450D01*
X5950D02*
X6750D01*
X7850D02*
X8550D01*
X8950D02*
X9450D01*
X9850D02*
X10350D01*
X10650D02*
X11450D01*
X12950D02*
X14350D01*
X15550D02*
X16350D01*
X17050D02*
X17850D01*
X18850D02*
X19550D01*
X20050D02*
X20550D01*
X20950D02*
X21650D01*
X22650D02*
X23350D01*
X23850D02*
X24850D01*
X-24950Y343566D02*
X-24650D01*
X-22350D02*
X-22050D01*
X-20650D02*
X-20350D01*
X-19650D02*
X-19450D01*
X-19050D02*
X-18850D01*
X-18350D02*
X-18150D01*
X-17750D02*
X-17550D01*
X-16850D02*
X-16550D01*
X-14350D02*
X-14050D01*
X-13050D02*
X-12750D01*
X-10650D02*
X-10350D01*
X-9050D02*
X-8850D01*
X-7050D02*
X-6750D01*
X-5450D02*
X-5150D01*
X-4350D02*
X-4050D01*
X-3650D02*
X-3350D01*
X-850D02*
X-550D01*
X2150D02*
X3550D01*
X4650D02*
X5450D01*
X6050D02*
X6750D01*
X7850D02*
X8550D01*
X8950D02*
X9450D01*
X9850D02*
X10350D01*
X10650D02*
X11450D01*
X13150D02*
X14450D01*
X15550D02*
X16350D01*
X17050D02*
X17850D01*
X18850D02*
X19550D01*
X20050D02*
X20550D01*
X20950D02*
X21650D01*
X22650D02*
X23350D01*
X23850D02*
X24850D01*
X-24950Y343466D02*
X-24650D01*
X-22350D02*
X-22050D01*
X-20650D02*
X-20350D01*
X-19650D02*
X-19450D01*
X-19050D02*
X-18850D01*
X-18350D02*
X-18150D01*
X-17750D02*
X-17550D01*
X-16850D02*
X-16550D01*
X-14350D02*
X-14050D01*
X-13050D02*
X-12750D01*
X-10650D02*
X-10350D01*
X-9050D02*
X-8850D01*
X-7050D02*
X-6750D01*
X-5450D02*
X-5250D01*
X-4350D02*
X-4050D01*
X-3650D02*
X-3350D01*
X-850D02*
X-550D01*
X2350D02*
X3650D01*
X4650D02*
X5450D01*
X6050D02*
X6750D01*
X7850D02*
X8550D01*
X8950D02*
X9450D01*
X9850D02*
X10250D01*
X10750D02*
X11450D01*
X13350D02*
X14550D01*
X15550D02*
X16350D01*
X17050D02*
X17850D01*
X18850D02*
X19550D01*
X20050D02*
X20650D01*
X20950D02*
X21650D01*
X22650D02*
X23350D01*
X23850D02*
X24850D01*
X-24950Y343366D02*
X-24650D01*
X-22350D02*
X-22050D01*
X-20750D02*
X-20350D01*
X-19650D02*
X-19450D01*
X-19150D02*
X-18950D01*
X-18350D02*
X-18050D01*
X-17850D02*
X-17650D01*
X-16850D02*
X-16550D01*
X-14350D02*
X-14050D01*
X-13050D02*
X-12750D01*
X-10650D02*
X-10350D01*
X-9050D02*
X-8850D01*
X-7050D02*
X-6750D01*
X-5550D02*
X-5250D01*
X-4250D02*
X-4050D01*
X-3650D02*
X-3450D01*
X-850D02*
X-550D01*
X2550D02*
X3650D01*
X4650D02*
X5450D01*
X6050D02*
X6850D01*
X7850D02*
X8550D01*
X9050D02*
X9450D01*
X9750D02*
X10250D01*
X10750D02*
X11450D01*
X13550D02*
X14650D01*
X15550D02*
X16350D01*
X17050D02*
X17850D01*
X18850D02*
X19550D01*
X20150D02*
X20650D01*
X20950D02*
X21650D01*
X22650D02*
X23350D01*
X24150D02*
X24850D01*
X-24950Y343266D02*
X-24650D01*
X-22350D02*
X-21950D01*
X-20750D02*
X-20450D01*
X-19550D02*
X-19350D01*
X-19150D02*
X-18950D01*
X-18250D02*
X-18050D01*
X-17850D02*
X-17650D01*
X-16750D02*
X-16450D01*
X-14350D02*
X-14050D01*
X-12950D02*
X-12650D01*
X-10550D02*
X-10250D01*
X-9150D02*
X-8850D01*
X-7050D02*
X-6750D01*
X-5550D02*
X-5250D01*
X-4250D02*
X-3950D01*
X-3750D02*
X-3450D01*
X-850D02*
X-550D01*
X2750D02*
X3750D01*
X4650D02*
X5350D01*
X6050D02*
X6850D01*
X7850D02*
X8550D01*
X9050D02*
X9550D01*
X9750D02*
X10250D01*
X10750D02*
X11450D01*
X13650D02*
X14650D01*
X15550D02*
X16350D01*
X17050D02*
X17850D01*
X18850D02*
X19550D01*
X20150D02*
X20650D01*
X20950D02*
X21650D01*
X22650D02*
X23350D01*
X24150D02*
X24850D01*
X-24950Y343166D02*
X-24650D01*
X-22250D02*
X-21950D01*
X-20750D02*
X-20450D01*
X-19550D02*
X-19350D01*
X-19150D02*
X-18950D01*
X-18250D02*
X-18050D01*
X-17850D02*
X-17650D01*
X-16750D02*
X-16450D01*
X-15250D02*
X-14950D01*
X-14350D02*
X-14050D01*
X-12950D02*
X-12650D01*
X-11450D02*
X-11150D01*
X-10550D02*
X-10250D01*
X-9150D02*
X-8850D01*
X-7050D02*
X-6650D01*
X-5550D02*
X-5250D01*
X-4250D02*
X-3950D01*
X-3750D02*
X-3450D01*
X-850D02*
X-550D01*
X2850D02*
X3750D01*
X4650D02*
X5350D01*
X6050D02*
X6850D01*
X7850D02*
X8550D01*
X9050D02*
X9550D01*
X9750D02*
X10250D01*
X10750D02*
X11450D01*
X13750D02*
X14650D01*
X15550D02*
X16350D01*
X17050D02*
X17850D01*
X18850D02*
X19550D01*
X20150D02*
X20650D01*
X20950D02*
X21650D01*
X22650D02*
X23350D01*
X24150D02*
X24850D01*
X-24950Y343066D02*
X-24650D01*
X-22250D02*
X-21850D01*
X-20850D02*
X-20450D01*
X-19550D02*
X-19350D01*
X-19150D02*
X-19050D01*
X-18250D02*
X-18050D01*
X-17950D02*
X-17750D01*
X-16750D02*
X-16350D01*
X-15350D02*
X-14950D01*
X-14350D02*
X-14050D01*
X-12950D02*
X-12550D01*
X-11550D02*
X-11150D01*
X-10550D02*
X-10150D01*
X-9250D02*
X-8850D01*
X-7050D02*
X-6550D01*
X-5650D02*
X-5350D01*
X-4150D02*
X-3950D01*
X-3750D02*
X-3550D01*
X-850D02*
X-550D01*
X1350D02*
X2250D01*
X2950D02*
X3750D01*
X4550D02*
X5350D01*
X6050D02*
X6850D01*
X7850D02*
X8550D01*
X9050D02*
X9550D01*
X9750D02*
X10250D01*
X10750D02*
X11450D01*
X12350D02*
X13150D01*
X13850D02*
X14750D01*
X15550D02*
X16350D01*
X17050D02*
X17850D01*
X18850D02*
X19550D01*
X20250D02*
X20750D01*
X20950D02*
X21650D01*
X22650D02*
X23350D01*
X24150D02*
X24850D01*
X-24950Y342966D02*
X-24650D01*
X-22150D02*
X-21750D01*
X-21050D02*
X-20550D01*
X-19450D02*
X-19050D01*
X-18250D02*
X-17750D01*
X-16650D02*
X-16150D01*
X-15450D02*
X-15050D01*
X-14350D02*
X-14050D01*
X-12850D02*
X-12350D01*
X-11650D02*
X-11250D01*
X-10450D02*
X-10050D01*
X-9350D02*
X-8850D01*
X-7050D02*
X-6450D01*
X-5850D02*
X-5350D01*
X-4150D02*
X-3850D01*
X-3750D02*
X-3550D01*
X-850D02*
X-550D01*
X1450D02*
X2250D01*
X2950D02*
X3750D01*
X4550D02*
X5350D01*
X6050D02*
X6850D01*
X7850D02*
X8550D01*
X9050D02*
X9550D01*
X9750D02*
X10150D01*
X10750D02*
X11450D01*
X12350D02*
X13150D01*
X13950D02*
X14750D01*
X15550D02*
X16350D01*
X17050D02*
X17850D01*
X18850D02*
X19550D01*
X20250D02*
X20750D01*
X20950D02*
X21650D01*
X22650D02*
X23350D01*
X24150D02*
X24850D01*
X-24950Y342866D02*
X-24650D01*
X-22050D02*
X-20650D01*
X-19450D02*
X-19050D01*
X-18150D02*
X-17750D01*
X-16550D02*
X-15050D01*
X-14350D02*
X-14050D01*
X-12750D02*
X-11250D01*
X-10350D02*
X-9250D01*
X-9050D02*
X-8850D01*
X-7050D02*
X-6750D01*
X-6650D02*
X-5450D01*
X-4050D02*
X-3550D01*
X-850D02*
X-550D01*
X1450D02*
X2250D01*
X2950D02*
X3750D01*
X4550D02*
X5350D01*
X6150D02*
X6850D01*
X7850D02*
X8550D01*
X9150D02*
X9550D01*
X9750D02*
X10150D01*
X10750D02*
X11450D01*
X12350D02*
X13150D01*
X13950D02*
X14750D01*
X15550D02*
X16350D01*
X17050D02*
X17850D01*
X18850D02*
X19550D01*
X20250D02*
X20750D01*
X20950D02*
X21650D01*
X22650D02*
X23350D01*
X24150D02*
X24850D01*
X-24950Y342766D02*
X-24650D01*
X-21950D02*
X-20750D01*
X-19450D02*
X-19050D01*
X-18150D02*
X-17850D01*
X-16450D02*
X-15150D01*
X-14350D02*
X-14050D01*
X-12650D02*
X-11350D01*
X-10250D02*
X-9250D01*
X-9050D02*
X-8850D01*
X-7050D02*
X-6750D01*
X-6550D02*
X-5550D01*
X-4050D02*
X-3650D01*
X-850D02*
X-550D01*
X1450D02*
X2250D01*
X2950D02*
X3750D01*
X4550D02*
X5350D01*
X6150D02*
X6950D01*
X7850D02*
X8550D01*
X9150D02*
X10150D01*
X10750D02*
X11450D01*
X12350D02*
X13150D01*
X13950D02*
X14650D01*
X15550D02*
X16350D01*
X17050D02*
X17850D01*
X18850D02*
X19650D01*
X20350D02*
X20850D01*
X20950D02*
X21650D01*
X22650D02*
X23350D01*
X24150D02*
X24850D01*
X-24950Y342666D02*
X-24650D01*
X-21850D02*
X-20850D01*
X-19350D02*
X-19150D01*
X-18150D02*
X-17850D01*
X-16350D02*
X-15350D01*
X-14350D02*
X-14050D01*
X-12550D02*
X-11550D01*
X-10150D02*
X-9450D01*
X-9050D02*
X-8850D01*
X-7050D02*
X-6750D01*
X-6450D02*
X-5650D01*
X-4050D02*
X-3650D01*
X-850D02*
X-550D01*
X1450D02*
X2250D01*
X2950D02*
X3750D01*
X4550D02*
X5350D01*
X6150D02*
X6950D01*
X7850D02*
X8550D01*
X9150D02*
X10150D01*
X10750D02*
X11450D01*
X12350D02*
X13250D01*
X13950D02*
X14650D01*
X15550D02*
X16350D01*
X17050D02*
X17850D01*
X18850D02*
X19650D01*
X20350D02*
X21650D01*
X22650D02*
X23450D01*
X24050D02*
X24850D01*
X-24950Y342566D02*
X-24650D01*
X-21550D02*
X-21150D01*
X-19350D02*
X-19150D01*
X-18050D02*
X-17950D01*
X-16050D02*
X-15650D01*
X-14350D02*
X-14050D01*
X-12250D02*
X-11850D01*
X-9950D02*
X-9550D01*
X-9050D02*
X-8850D01*
X-7050D02*
X-6750D01*
X-6250D02*
X-5950D01*
X-3950D02*
X-3750D01*
X-850D02*
X-550D01*
X1450D02*
X2350D01*
X2950D02*
X3750D01*
X4450D02*
X5250D01*
X6150D02*
X6950D01*
X7850D02*
X8550D01*
X9150D02*
X10150D01*
X10750D02*
X11450D01*
X12450D02*
X13250D01*
X13850D02*
X14650D01*
X15650D02*
X16450D01*
X16950D02*
X17850D01*
X18850D02*
X19650D01*
X20350D02*
X21650D01*
X22650D02*
X23550D01*
X23950D02*
X24850D01*
X-4050Y342466D02*
X-3750D01*
X-850D02*
X-550D01*
X1450D02*
X2450D01*
X2750D02*
X3650D01*
X4450D02*
X5250D01*
X6150D02*
X6950D01*
X7850D02*
X8550D01*
X9150D02*
X10150D01*
X10750D02*
X11450D01*
X12450D02*
X13450D01*
X13650D02*
X14650D01*
X15650D02*
X17750D01*
X18850D02*
X19650D01*
X20350D02*
X21650D01*
X22650D02*
X24850D01*
X-4050Y342366D02*
X-3750D01*
X-850D02*
X-550D01*
X1550D02*
X3650D01*
X4450D02*
X5250D01*
X6150D02*
X6950D01*
X7850D02*
X8550D01*
X9250D02*
X10050D01*
X10750D02*
X11450D01*
X12550D02*
X14550D01*
X15750D02*
X17750D01*
X18850D02*
X19650D01*
X20450D02*
X21650D01*
X22750D02*
X24750D01*
X-4050Y342266D02*
X-3850D01*
X-850D02*
X-550D01*
X1650D02*
X3550D01*
X4450D02*
X5250D01*
X6150D02*
X7050D01*
X7850D02*
X8550D01*
X9250D02*
X10050D01*
X10750D02*
X11450D01*
X12550D02*
X14550D01*
X15750D02*
X17650D01*
X18850D02*
X19650D01*
X20450D02*
X21650D01*
X22850D02*
X24650D01*
X-4150Y342166D02*
X-3850D01*
X-850D02*
X-550D01*
X1750D02*
X3450D01*
X4450D02*
X5250D01*
X6250D02*
X7050D01*
X7750D02*
X8550D01*
X9250D02*
X10050D01*
X10650D02*
X11450D01*
X12750D02*
X14350D01*
X15950D02*
X17550D01*
X18850D02*
X19650D01*
X20450D02*
X21650D01*
X23050D02*
X24450D01*
X-4250Y342066D02*
X-3950D01*
X-850D02*
X-550D01*
X1950D02*
X3250D01*
X12950D02*
X14150D01*
X16150D02*
X17350D01*
X23250D02*
X24250D01*
X-4650Y341966D02*
X-3950D01*
X-850D02*
X-550D01*
X2350D02*
X2850D01*
X-4650Y341866D02*
X-4050D01*
X-850D02*
X-550D01*
X-4650Y341766D02*
X-4150D01*
X-850D02*
X-550D01*
X-4550Y341666D02*
X-4350D01*
X-850D02*
X-550D01*
X-850Y341566D02*
X-550D01*
X-850Y341466D02*
X-550D01*
X-850Y341366D02*
X-550D01*
X-850Y341266D02*
X-550D01*
X-850Y341166D02*
X-550D01*
X-850Y341066D02*
X-550D01*
X-850Y340966D02*
X-550D01*
X-850Y340866D02*
X-550D01*
X-850Y340766D02*
X-550D01*
X-850Y340666D02*
X-550D01*
X-850Y340566D02*
X-550D01*
X-850Y340466D02*
X-550D01*
X-850Y340366D02*
X-550D01*
D51*
X-56900Y-367805D02*
D03*
Y-372805D02*
D03*
X-61900D02*
D03*
Y-367805D02*
D03*
Y-352805D02*
D03*
X-56900D02*
D03*
X-61900Y-357805D02*
D03*
X-56900D02*
D03*
X-61900Y-362805D02*
D03*
X-56900D02*
D03*
D64*
X-66043Y-417717D02*
D03*
Y-411811D02*
D03*
X45965Y-417323D02*
D03*
Y-423228D02*
D03*
X-79528Y80807D02*
D03*
Y86713D02*
D03*
Y-116043D02*
D03*
Y-110138D02*
D03*
X79528Y155413D02*
D03*
Y149508D02*
D03*
Y-41437D02*
D03*
Y-47343D02*
D03*
X-79528Y70965D02*
D03*
Y76870D02*
D03*
Y-125886D02*
D03*
Y-119980D02*
D03*
X79528Y165256D02*
D03*
Y159350D02*
D03*
Y-31594D02*
D03*
Y-37500D02*
D03*
X-85630Y81791D02*
D03*
Y75886D02*
D03*
Y-115059D02*
D03*
Y-120965D02*
D03*
X85630Y154429D02*
D03*
Y160335D02*
D03*
Y-42421D02*
D03*
Y-36516D02*
D03*
X45965Y-413878D02*
D03*
Y-407972D02*
D03*
X22736Y-120965D02*
D03*
Y-126870D02*
D03*
X45571Y-373819D02*
D03*
Y-379724D02*
D03*
X52756D02*
D03*
Y-373819D02*
D03*
D65*
X-51575Y-418209D02*
D03*
X-45669D02*
D03*
X-12008Y-342717D02*
D03*
X-6102D02*
D03*
X45965Y-402953D02*
D03*
X51870D02*
D03*
X48130Y-119390D02*
D03*
X54035D02*
D03*
X-40945Y-342224D02*
D03*
X-35039D02*
D03*
D66*
X-58268Y-411811D02*
D03*
Y-423228D02*
D03*
X54331Y-411811D02*
D03*
Y-423228D02*
D03*
X37402Y152559D02*
D03*
Y141142D02*
D03*
Y-44291D02*
D03*
Y-55709D02*
D03*
X28543Y152559D02*
D03*
Y141142D02*
D03*
Y-44291D02*
D03*
Y-55709D02*
D03*
D67*
X-9843Y-327815D02*
D03*
X-6102Y-334784D02*
D03*
X-13583D02*
D03*
X-81595Y-173681D02*
D03*
X-77854Y-180650D02*
D03*
X-85335D02*
D03*
D68*
X-34449Y-323425D02*
D03*
X-44291D02*
D03*
X24606D02*
D03*
X34449D02*
D03*
X44291D02*
D03*
X14764D02*
D03*
D69*
X-56890Y-294685D02*
D03*
X-21850D02*
D03*
X56890D02*
D03*
X2165D02*
D03*
D70*
X-22500Y-352362D02*
D03*
X-17500D02*
D03*
X-12500D02*
D03*
X-7500D02*
D03*
X-2500D02*
D03*
X2500D02*
D03*
X7500D02*
D03*
X12500D02*
D03*
X17500D02*
D03*
X22500D02*
D03*
D03*
D71*
X35433Y-358228D02*
D03*
Y-363228D02*
D03*
Y-368228D02*
D03*
Y-373228D02*
D03*
Y-378228D02*
D03*
Y-383228D02*
D03*
Y-388228D02*
D03*
Y-393228D02*
D03*
Y-398228D02*
D03*
Y-403228D02*
D03*
Y-408228D02*
D03*
Y-413228D02*
D03*
Y-418228D02*
D03*
Y-423228D02*
D03*
X-35433Y-358228D02*
D03*
Y-363228D02*
D03*
Y-368228D02*
D03*
Y-373228D02*
D03*
Y-378228D02*
D03*
Y-383228D02*
D03*
Y-388228D02*
D03*
Y-393228D02*
D03*
Y-398228D02*
D03*
Y-403228D02*
D03*
Y-408228D02*
D03*
Y-413228D02*
D03*
Y-418228D02*
D03*
Y-423228D02*
D03*
D72*
X4055Y-394134D02*
D03*
D73*
X-41535Y108268D02*
D03*
X-52953D02*
D03*
X-41535Y-88583D02*
D03*
X-52953D02*
D03*
X-41535Y118012D02*
D03*
X-52953D02*
D03*
X-41535Y-78839D02*
D03*
X-52953D02*
D03*
X48720Y-126673D02*
D03*
X60138D02*
D03*
D74*
X64468Y-159449D02*
D03*
Y-151969D02*
D03*
X56595Y-159449D02*
D03*
Y-151969D02*
D03*
D75*
X-35039Y57874D02*
D03*
Y73622D02*
D03*
Y-138976D02*
D03*
Y-123228D02*
D03*
X35039Y178347D02*
D03*
Y162598D02*
D03*
Y-18504D02*
D03*
Y-34252D02*
D03*
D76*
X68169Y-137402D02*
D03*
X56437D02*
D03*
D77*
X-25394Y295276D02*
D03*
X25394D02*
D03*
D78*
X-2559Y260039D02*
D03*
D79*
X-49114Y57874D02*
D03*
X-68996D02*
D03*
X-49114Y-138976D02*
D03*
X-68996D02*
D03*
X49114Y178347D02*
D03*
X68996D02*
D03*
X49114Y-18504D02*
D03*
X68996D02*
D03*
D80*
X35236Y-137402D02*
D03*
Y-159449D02*
D03*
D81*
X-663091Y428642D02*
D03*
X-675492D02*
D03*
X-663091Y437500D02*
D03*
X-675492D02*
D03*
X-663091Y-43799D02*
D03*
X-675492D02*
D03*
X-663091Y-34941D02*
D03*
X-675492D02*
D03*
X663091Y33957D02*
D03*
X675492D02*
D03*
X663091Y25098D02*
D03*
X675492D02*
D03*
X663091Y-428642D02*
D03*
X675492D02*
D03*
X663091Y-437500D02*
D03*
X675492D02*
D03*
X-663091Y349902D02*
D03*
X-675492D02*
D03*
X-663091Y358760D02*
D03*
X-675492D02*
D03*
X-663091Y-122539D02*
D03*
X-675492D02*
D03*
X-663091Y-113681D02*
D03*
X-675492D02*
D03*
X663091Y112697D02*
D03*
X675492D02*
D03*
X663091Y103839D02*
D03*
X675492D02*
D03*
X663091Y-349902D02*
D03*
X675492D02*
D03*
X663091Y-358760D02*
D03*
X675492D02*
D03*
X-663091Y271161D02*
D03*
X-675492D02*
D03*
X-663091Y280020D02*
D03*
X-675492D02*
D03*
X-663091Y-201279D02*
D03*
X-675492D02*
D03*
X-663091Y-192421D02*
D03*
X-675492D02*
D03*
X663091Y191437D02*
D03*
X675492D02*
D03*
X663091Y182579D02*
D03*
X675492D02*
D03*
X663091Y-271161D02*
D03*
X675492D02*
D03*
X663091Y-280020D02*
D03*
X675492D02*
D03*
X-663091Y192421D02*
D03*
X-675492D02*
D03*
X-663091Y201279D02*
D03*
X-675492D02*
D03*
X-663091Y-280020D02*
D03*
X-675492D02*
D03*
X-663091Y-271162D02*
D03*
X-675492D02*
D03*
X663091Y270177D02*
D03*
X675492D02*
D03*
X663091Y261319D02*
D03*
X675492D02*
D03*
X663091Y-192421D02*
D03*
X675492D02*
D03*
X663091Y-201279D02*
D03*
X675492D02*
D03*
X-663091Y113681D02*
D03*
X-675492D02*
D03*
X-663091Y122539D02*
D03*
X-675492D02*
D03*
X-663091Y-358760D02*
D03*
X-675492D02*
D03*
X-663091Y-349902D02*
D03*
X-675492D02*
D03*
X663091Y348917D02*
D03*
X675492D02*
D03*
X663091Y340059D02*
D03*
X675492D02*
D03*
X663091Y-113681D02*
D03*
X675492D02*
D03*
X663091Y-122539D02*
D03*
X675492D02*
D03*
X-663091Y34941D02*
D03*
X-675492D02*
D03*
X-663091Y43799D02*
D03*
X-675492D02*
D03*
X-663091Y-437500D02*
D03*
X-675492D02*
D03*
X-663091Y-428642D02*
D03*
X-675492D02*
D03*
X663091Y427658D02*
D03*
X675492D02*
D03*
X663091Y418799D02*
D03*
X675492D02*
D03*
X663091Y-34941D02*
D03*
X675492D02*
D03*
X663091Y-43799D02*
D03*
X675492D02*
D03*
X-584350Y428642D02*
D03*
X-596752D02*
D03*
X-584350Y437500D02*
D03*
X-596752D02*
D03*
X-584350Y-43799D02*
D03*
X-596752D02*
D03*
X-584350Y-34941D02*
D03*
X-596752D02*
D03*
X584350Y33957D02*
D03*
X596752D02*
D03*
X584350Y25098D02*
D03*
X596752D02*
D03*
X584350Y-428642D02*
D03*
X596752D02*
D03*
X584350Y-437500D02*
D03*
X596752D02*
D03*
X-584350Y349902D02*
D03*
X-596752D02*
D03*
X-584350Y358760D02*
D03*
X-596752D02*
D03*
X-584350Y-122539D02*
D03*
X-596752D02*
D03*
X-584350Y-113681D02*
D03*
X-596752D02*
D03*
X584350Y112697D02*
D03*
X596752D02*
D03*
X584350Y103839D02*
D03*
X596752D02*
D03*
X584350Y-349902D02*
D03*
X596752D02*
D03*
X584350Y-358760D02*
D03*
X596752D02*
D03*
X-584350Y271161D02*
D03*
X-596752D02*
D03*
X-584350Y280020D02*
D03*
X-596752D02*
D03*
X-584350Y-201279D02*
D03*
X-596752D02*
D03*
X-584350Y-192421D02*
D03*
X-596752D02*
D03*
X584350Y191437D02*
D03*
X596752D02*
D03*
X584350Y182579D02*
D03*
X596752D02*
D03*
X584350Y-271161D02*
D03*
X596752D02*
D03*
X584350Y-280020D02*
D03*
X596752D02*
D03*
X-584350Y192421D02*
D03*
X-596752D02*
D03*
X-584350Y201279D02*
D03*
X-596752D02*
D03*
X-584350Y-280020D02*
D03*
X-596752D02*
D03*
X-584350Y-271162D02*
D03*
X-596752D02*
D03*
X584350Y270177D02*
D03*
X596752D02*
D03*
X584350Y261319D02*
D03*
X596752D02*
D03*
X584350Y-192421D02*
D03*
X596752D02*
D03*
X584350Y-201279D02*
D03*
X596752D02*
D03*
X-584350Y113681D02*
D03*
X-596752D02*
D03*
X-584350Y122539D02*
D03*
X-596752D02*
D03*
X-584350Y-358760D02*
D03*
X-596752D02*
D03*
X-584350Y-349902D02*
D03*
X-596752D02*
D03*
X584350Y348917D02*
D03*
X596752D02*
D03*
X584350Y340059D02*
D03*
X596752D02*
D03*
X584350Y-113681D02*
D03*
X596752D02*
D03*
X584350Y-122539D02*
D03*
X596752D02*
D03*
X-584350Y34941D02*
D03*
X-596752D02*
D03*
X-584350Y43799D02*
D03*
X-596752D02*
D03*
X-584350Y-437500D02*
D03*
X-596752D02*
D03*
X-584350Y-428642D02*
D03*
X-596752D02*
D03*
X584350Y427658D02*
D03*
X596752D02*
D03*
X584350Y418799D02*
D03*
X596752D02*
D03*
X584350Y-34941D02*
D03*
X596752D02*
D03*
X584350Y-43799D02*
D03*
X596752D02*
D03*
X-505610Y428642D02*
D03*
X-518012D02*
D03*
X-505610Y437500D02*
D03*
X-518012D02*
D03*
X-505610Y-43799D02*
D03*
X-518012D02*
D03*
X-505610Y-34941D02*
D03*
X-518012D02*
D03*
X505610Y33957D02*
D03*
X518012D02*
D03*
X505610Y25098D02*
D03*
X518012D02*
D03*
X505610Y-428642D02*
D03*
X518012D02*
D03*
X505610Y-437500D02*
D03*
X518012D02*
D03*
X-505610Y349902D02*
D03*
X-518012D02*
D03*
X-505610Y358760D02*
D03*
X-518012D02*
D03*
X-505610Y-122539D02*
D03*
X-518012D02*
D03*
X-505610Y-113681D02*
D03*
X-518012D02*
D03*
X505610Y112697D02*
D03*
X518012D02*
D03*
X505610Y103839D02*
D03*
X518012D02*
D03*
X505610Y-349902D02*
D03*
X518012D02*
D03*
X505610Y-358760D02*
D03*
X518012D02*
D03*
X-505610Y271161D02*
D03*
X-518012D02*
D03*
X-505610Y280020D02*
D03*
X-518012D02*
D03*
X-505610Y-201279D02*
D03*
X-518012D02*
D03*
X-505610Y-192421D02*
D03*
X-518012D02*
D03*
X505610Y191437D02*
D03*
X518012D02*
D03*
X505610Y182579D02*
D03*
X518012D02*
D03*
X505610Y-271161D02*
D03*
X518012D02*
D03*
X505610Y-280020D02*
D03*
X518012D02*
D03*
X-505610Y192421D02*
D03*
X-518012D02*
D03*
X-505610Y201279D02*
D03*
X-518012D02*
D03*
X-505610Y-280020D02*
D03*
X-518012D02*
D03*
X-505610Y-271162D02*
D03*
X-518012D02*
D03*
X505610Y270177D02*
D03*
X518012D02*
D03*
X505610Y261319D02*
D03*
X518012D02*
D03*
X505610Y-192421D02*
D03*
X518012D02*
D03*
X505610Y-201279D02*
D03*
X518012D02*
D03*
X-505610Y113681D02*
D03*
X-518012D02*
D03*
X-505610Y122539D02*
D03*
X-518012D02*
D03*
X-505610Y-358760D02*
D03*
X-518012D02*
D03*
X-505610Y-349902D02*
D03*
X-518012D02*
D03*
X505610Y348917D02*
D03*
X518012D02*
D03*
X505610Y340059D02*
D03*
X518012D02*
D03*
X505610Y-113681D02*
D03*
X518012D02*
D03*
X505610Y-122539D02*
D03*
X518012D02*
D03*
X-505610Y34941D02*
D03*
X-518012D02*
D03*
X-505610Y43799D02*
D03*
X-518012D02*
D03*
X-505610Y-437500D02*
D03*
X-518012D02*
D03*
X-505610Y-428642D02*
D03*
X-518012D02*
D03*
X505610Y427658D02*
D03*
X518012D02*
D03*
X505610Y418799D02*
D03*
X518012D02*
D03*
X505610Y-34941D02*
D03*
X518012D02*
D03*
X505610Y-43799D02*
D03*
X518012D02*
D03*
X-426870Y428642D02*
D03*
X-439272D02*
D03*
X-426870Y437500D02*
D03*
X-439272D02*
D03*
X-426870Y-43799D02*
D03*
X-439272D02*
D03*
X-426870Y-34941D02*
D03*
X-439272D02*
D03*
X426870Y33957D02*
D03*
X439272D02*
D03*
X426870Y25098D02*
D03*
X439272D02*
D03*
X426870Y-428642D02*
D03*
X439272D02*
D03*
X426870Y-437500D02*
D03*
X439272D02*
D03*
X-426870Y349902D02*
D03*
X-439272D02*
D03*
X-426870Y358760D02*
D03*
X-439272D02*
D03*
X-426870Y-122539D02*
D03*
X-439272D02*
D03*
X-426870Y-113681D02*
D03*
X-439272D02*
D03*
X426870Y112697D02*
D03*
X439272D02*
D03*
X426870Y103839D02*
D03*
X439272D02*
D03*
X426870Y-349902D02*
D03*
X439272D02*
D03*
X426870Y-358760D02*
D03*
X439272D02*
D03*
X-426870Y271161D02*
D03*
X-439272D02*
D03*
X-426870Y280020D02*
D03*
X-439272D02*
D03*
X-426870Y-201279D02*
D03*
X-439272D02*
D03*
X-426870Y-192421D02*
D03*
X-439272D02*
D03*
X426870Y191437D02*
D03*
X439272D02*
D03*
X426870Y182579D02*
D03*
X439272D02*
D03*
X426870Y-271161D02*
D03*
X439272D02*
D03*
X426870Y-280020D02*
D03*
X439272D02*
D03*
X-426870Y192421D02*
D03*
X-439272D02*
D03*
X-426870Y201279D02*
D03*
X-439272D02*
D03*
X-426870Y-280020D02*
D03*
X-439272D02*
D03*
X-426870Y-271162D02*
D03*
X-439272D02*
D03*
X426870Y270177D02*
D03*
X439272D02*
D03*
X426870Y261319D02*
D03*
X439272D02*
D03*
X426870Y-192421D02*
D03*
X439272D02*
D03*
X426870Y-201279D02*
D03*
X439272D02*
D03*
X-426870Y113681D02*
D03*
X-439272D02*
D03*
X-426870Y122539D02*
D03*
X-439272D02*
D03*
X-426870Y-358760D02*
D03*
X-439272D02*
D03*
X-426870Y-349902D02*
D03*
X-439272D02*
D03*
X426870Y348917D02*
D03*
X439272D02*
D03*
X426870Y340059D02*
D03*
X439272D02*
D03*
X426870Y-113681D02*
D03*
X439272D02*
D03*
X426870Y-122539D02*
D03*
X439272D02*
D03*
X-426870Y34941D02*
D03*
X-439272D02*
D03*
X-426870Y43799D02*
D03*
X-439272D02*
D03*
X-426870Y-437500D02*
D03*
X-439272D02*
D03*
X-426870Y-428642D02*
D03*
X-439272D02*
D03*
X426870Y427658D02*
D03*
X439272D02*
D03*
X426870Y418799D02*
D03*
X439272D02*
D03*
X426870Y-34941D02*
D03*
X439272D02*
D03*
X426870Y-43799D02*
D03*
X439272D02*
D03*
X-348130Y428642D02*
D03*
X-360531D02*
D03*
X-348130Y437500D02*
D03*
X-360531D02*
D03*
X-348130Y-43799D02*
D03*
X-360531D02*
D03*
X-348130Y-34941D02*
D03*
X-360531D02*
D03*
X348130Y33957D02*
D03*
X360531D02*
D03*
X348130Y25098D02*
D03*
X360531D02*
D03*
X348130Y-428642D02*
D03*
X360531D02*
D03*
X348130Y-437500D02*
D03*
X360531D02*
D03*
X-348130Y349902D02*
D03*
X-360531D02*
D03*
X-348130Y358760D02*
D03*
X-360531D02*
D03*
X-348130Y-122539D02*
D03*
X-360531D02*
D03*
X-348130Y-113681D02*
D03*
X-360531D02*
D03*
X348130Y112697D02*
D03*
X360531D02*
D03*
X348130Y103839D02*
D03*
X360531D02*
D03*
X348130Y-349902D02*
D03*
X360531D02*
D03*
X348130Y-358760D02*
D03*
X360531D02*
D03*
X-348130Y271161D02*
D03*
X-360531D02*
D03*
X-348130Y280020D02*
D03*
X-360531D02*
D03*
X-348130Y-201279D02*
D03*
X-360531D02*
D03*
X-348130Y-192421D02*
D03*
X-360531D02*
D03*
X348130Y191437D02*
D03*
X360531D02*
D03*
X348130Y182579D02*
D03*
X360531D02*
D03*
X348130Y-271161D02*
D03*
X360531D02*
D03*
X348130Y-280020D02*
D03*
X360531D02*
D03*
X-348130Y192421D02*
D03*
X-360531D02*
D03*
X-348130Y201279D02*
D03*
X-360531D02*
D03*
X-348130Y-280020D02*
D03*
X-360531D02*
D03*
X-348130Y-271162D02*
D03*
X-360531D02*
D03*
X348130Y270177D02*
D03*
X360531D02*
D03*
X348130Y261319D02*
D03*
X360531D02*
D03*
X348130Y-192421D02*
D03*
X360531D02*
D03*
X348130Y-201279D02*
D03*
X360531D02*
D03*
X-348130Y113681D02*
D03*
X-360531D02*
D03*
X-348130Y122539D02*
D03*
X-360531D02*
D03*
X-348130Y-358760D02*
D03*
X-360531D02*
D03*
X-348130Y-349902D02*
D03*
X-360531D02*
D03*
X348130Y348917D02*
D03*
X360531D02*
D03*
X348130Y340059D02*
D03*
X360531D02*
D03*
X348130Y-113681D02*
D03*
X360531D02*
D03*
X348130Y-122539D02*
D03*
X360531D02*
D03*
X-348130Y34941D02*
D03*
X-360531D02*
D03*
X-348130Y43799D02*
D03*
X-360531D02*
D03*
X-348130Y-437500D02*
D03*
X-360531D02*
D03*
X-348130Y-428642D02*
D03*
X-360531D02*
D03*
X348130Y427658D02*
D03*
X360531D02*
D03*
X348130Y418799D02*
D03*
X360531D02*
D03*
X348130Y-34941D02*
D03*
X360531D02*
D03*
X348130Y-43799D02*
D03*
X360531D02*
D03*
X-269390Y428642D02*
D03*
X-281791D02*
D03*
X-269390Y437500D02*
D03*
X-281791D02*
D03*
X-269390Y-43799D02*
D03*
X-281791D02*
D03*
X-269390Y-34941D02*
D03*
X-281791D02*
D03*
X269390Y33957D02*
D03*
X281791D02*
D03*
X269390Y25098D02*
D03*
X281791D02*
D03*
X269390Y-428642D02*
D03*
X281791D02*
D03*
X269390Y-437500D02*
D03*
X281791D02*
D03*
X-269390Y349902D02*
D03*
X-281791D02*
D03*
X-269390Y358760D02*
D03*
X-281791D02*
D03*
X-269390Y-122539D02*
D03*
X-281791D02*
D03*
X-269390Y-113681D02*
D03*
X-281791D02*
D03*
X269390Y112697D02*
D03*
X281791D02*
D03*
X269390Y103839D02*
D03*
X281791D02*
D03*
X269390Y-349902D02*
D03*
X281791D02*
D03*
X269390Y-358760D02*
D03*
X281791D02*
D03*
X-269390Y271161D02*
D03*
X-281791D02*
D03*
X-269390Y280020D02*
D03*
X-281791D02*
D03*
X-269390Y-201279D02*
D03*
X-281791D02*
D03*
X-269390Y-192421D02*
D03*
X-281791D02*
D03*
X269390Y191437D02*
D03*
X281791D02*
D03*
X269390Y182579D02*
D03*
X281791D02*
D03*
X269390Y-271161D02*
D03*
X281791D02*
D03*
X269390Y-280020D02*
D03*
X281791D02*
D03*
X-269390Y192421D02*
D03*
X-281791D02*
D03*
X-269390Y201279D02*
D03*
X-281791D02*
D03*
X-269390Y-280020D02*
D03*
X-281791D02*
D03*
X-269390Y-271162D02*
D03*
X-281791D02*
D03*
X269390Y270177D02*
D03*
X281791D02*
D03*
X269390Y261319D02*
D03*
X281791D02*
D03*
X269390Y-192421D02*
D03*
X281791D02*
D03*
X269390Y-201279D02*
D03*
X281791D02*
D03*
X-269390Y113681D02*
D03*
X-281791D02*
D03*
X-269390Y122539D02*
D03*
X-281791D02*
D03*
X-269390Y-358760D02*
D03*
X-281791D02*
D03*
X-269390Y-349902D02*
D03*
X-281791D02*
D03*
X269390Y348917D02*
D03*
X281791D02*
D03*
X269390Y340059D02*
D03*
X281791D02*
D03*
X269390Y-113681D02*
D03*
X281791D02*
D03*
X269390Y-122539D02*
D03*
X281791D02*
D03*
X-269390Y34941D02*
D03*
X-281791D02*
D03*
X-269390Y43799D02*
D03*
X-281791D02*
D03*
X-269390Y-437500D02*
D03*
X-281791D02*
D03*
X-269390Y-428642D02*
D03*
X-281791D02*
D03*
X269390Y427658D02*
D03*
X281791D02*
D03*
X269390Y418799D02*
D03*
X281791D02*
D03*
X269390Y-34941D02*
D03*
X281791D02*
D03*
X269390Y-43799D02*
D03*
X281791D02*
D03*
X-190650Y428642D02*
D03*
X-203051D02*
D03*
X-190650Y437500D02*
D03*
X-203051D02*
D03*
X-190650Y-43799D02*
D03*
X-203051D02*
D03*
X-190650Y-34941D02*
D03*
X-203051D02*
D03*
X190650Y33957D02*
D03*
X203051D02*
D03*
X190650Y25098D02*
D03*
X203051D02*
D03*
X190650Y-428642D02*
D03*
X203051D02*
D03*
X190650Y-437500D02*
D03*
X203051D02*
D03*
X-190650Y349902D02*
D03*
X-203051D02*
D03*
X-190650Y358760D02*
D03*
X-203051D02*
D03*
X-190650Y-122539D02*
D03*
X-203051D02*
D03*
X-190650Y-113681D02*
D03*
X-203051D02*
D03*
X190650Y112697D02*
D03*
X203051D02*
D03*
X190650Y103839D02*
D03*
X203051D02*
D03*
X190650Y-349902D02*
D03*
X203051D02*
D03*
X190650Y-358760D02*
D03*
X203051D02*
D03*
X-190650Y271161D02*
D03*
X-203051D02*
D03*
X-190650Y280020D02*
D03*
X-203051D02*
D03*
X-190650Y-201279D02*
D03*
X-203051D02*
D03*
X-190650Y-192421D02*
D03*
X-203051D02*
D03*
X190650Y191437D02*
D03*
X203051D02*
D03*
X190650Y182579D02*
D03*
X203051D02*
D03*
X190650Y-271161D02*
D03*
X203051D02*
D03*
X190650Y-280020D02*
D03*
X203051D02*
D03*
X-190650Y192421D02*
D03*
X-203051D02*
D03*
X-190650Y201279D02*
D03*
X-203051D02*
D03*
X-190650Y-280020D02*
D03*
X-203051D02*
D03*
X-190650Y-271162D02*
D03*
X-203051D02*
D03*
X190650Y270177D02*
D03*
X203051D02*
D03*
X190650Y261319D02*
D03*
X203051D02*
D03*
X190650Y-192421D02*
D03*
X203051D02*
D03*
X190650Y-201279D02*
D03*
X203051D02*
D03*
X-190650Y113681D02*
D03*
X-203051D02*
D03*
X-190650Y122539D02*
D03*
X-203051D02*
D03*
X-190650Y-358760D02*
D03*
X-203051D02*
D03*
X-190650Y-349902D02*
D03*
X-203051D02*
D03*
X190650Y348917D02*
D03*
X203051D02*
D03*
X190650Y340059D02*
D03*
X203051D02*
D03*
X190650Y-113681D02*
D03*
X203051D02*
D03*
X190650Y-122539D02*
D03*
X203051D02*
D03*
X-190650Y34941D02*
D03*
X-203051D02*
D03*
X-190650Y43799D02*
D03*
X-203051D02*
D03*
X-190650Y-437500D02*
D03*
X-203051D02*
D03*
X-190650Y-428642D02*
D03*
X-203051D02*
D03*
X190650Y427658D02*
D03*
X203051D02*
D03*
X190650Y418799D02*
D03*
X203051D02*
D03*
X190650Y-34941D02*
D03*
X203051D02*
D03*
X190650Y-43799D02*
D03*
X203051D02*
D03*
X-111909Y428642D02*
D03*
X-124311D02*
D03*
X-111909Y437500D02*
D03*
X-124311D02*
D03*
X-111909Y-43799D02*
D03*
X-124311D02*
D03*
X-111909Y-34941D02*
D03*
X-124311D02*
D03*
X111909Y33957D02*
D03*
X124311D02*
D03*
X111909Y25098D02*
D03*
X124311D02*
D03*
X111909Y-428642D02*
D03*
X124311D02*
D03*
X111909Y-437500D02*
D03*
X124311D02*
D03*
X-111909Y349902D02*
D03*
X-124311D02*
D03*
X-111909Y358760D02*
D03*
X-124311D02*
D03*
X-111909Y-122539D02*
D03*
X-124311D02*
D03*
X-111909Y-113681D02*
D03*
X-124311D02*
D03*
X111909Y112697D02*
D03*
X124311D02*
D03*
X111909Y103839D02*
D03*
X124311D02*
D03*
X111909Y-349902D02*
D03*
X124311D02*
D03*
X111909Y-358760D02*
D03*
X124311D02*
D03*
X-111909Y271161D02*
D03*
X-124311D02*
D03*
X-111909Y280020D02*
D03*
X-124311D02*
D03*
X-111909Y-201279D02*
D03*
X-124311D02*
D03*
X-111909Y-192421D02*
D03*
X-124311D02*
D03*
X111909Y191437D02*
D03*
X124311D02*
D03*
X111909Y182579D02*
D03*
X124311D02*
D03*
X111909Y-271161D02*
D03*
X124311D02*
D03*
X111909Y-280020D02*
D03*
X124311D02*
D03*
X-111909Y192421D02*
D03*
X-124311D02*
D03*
X-111909Y201279D02*
D03*
X-124311D02*
D03*
X-111909Y-280020D02*
D03*
X-124311D02*
D03*
X-111909Y-271162D02*
D03*
X-124311D02*
D03*
X111909Y270177D02*
D03*
X124311D02*
D03*
X111909Y261319D02*
D03*
X124311D02*
D03*
X111909Y-192421D02*
D03*
X124311D02*
D03*
X111909Y-201279D02*
D03*
X124311D02*
D03*
X-111909Y113681D02*
D03*
X-124311D02*
D03*
X-111909Y122539D02*
D03*
X-124311D02*
D03*
X-111909Y-358760D02*
D03*
X-124311D02*
D03*
X-111909Y-349902D02*
D03*
X-124311D02*
D03*
X111909Y348917D02*
D03*
X124311D02*
D03*
X111909Y340059D02*
D03*
X124311D02*
D03*
X111909Y-113681D02*
D03*
X124311D02*
D03*
X111909Y-122539D02*
D03*
X124311D02*
D03*
X-111909Y34941D02*
D03*
X-124311D02*
D03*
X-111909Y43799D02*
D03*
X-124311D02*
D03*
X-111909Y-437500D02*
D03*
X-124311D02*
D03*
X-111909Y-428642D02*
D03*
X-124311D02*
D03*
X111909Y427658D02*
D03*
X124311D02*
D03*
X111909Y418799D02*
D03*
X124311D02*
D03*
X111909Y-34941D02*
D03*
X124311D02*
D03*
X111909Y-43799D02*
D03*
X124311D02*
D03*
D82*
X-669291Y430020D02*
D03*
Y436122D02*
D03*
Y-42421D02*
D03*
Y-36319D02*
D03*
X669291Y32579D02*
D03*
Y26476D02*
D03*
Y-430020D02*
D03*
Y-436122D02*
D03*
X-669291Y351279D02*
D03*
Y357382D02*
D03*
Y-121161D02*
D03*
Y-115059D02*
D03*
X669291Y111319D02*
D03*
Y105217D02*
D03*
Y-351279D02*
D03*
Y-357382D02*
D03*
X-669291Y272539D02*
D03*
Y278642D02*
D03*
Y-199902D02*
D03*
Y-193799D02*
D03*
X669291Y190059D02*
D03*
Y183957D02*
D03*
Y-272539D02*
D03*
Y-278642D02*
D03*
X-669291Y193799D02*
D03*
Y199902D02*
D03*
Y-278642D02*
D03*
Y-272539D02*
D03*
X669291Y268799D02*
D03*
Y262697D02*
D03*
Y-193799D02*
D03*
Y-199902D02*
D03*
X-669291Y115059D02*
D03*
Y121161D02*
D03*
Y-357382D02*
D03*
Y-351279D02*
D03*
X669291Y347539D02*
D03*
Y341437D02*
D03*
Y-115059D02*
D03*
Y-121161D02*
D03*
X-669291Y36319D02*
D03*
Y42421D02*
D03*
Y-436122D02*
D03*
Y-430020D02*
D03*
X669291Y426279D02*
D03*
Y420177D02*
D03*
Y-36319D02*
D03*
Y-42421D02*
D03*
X-590551Y430020D02*
D03*
Y436122D02*
D03*
Y-42421D02*
D03*
Y-36319D02*
D03*
X590551Y32579D02*
D03*
Y26476D02*
D03*
Y-430020D02*
D03*
Y-436122D02*
D03*
X-590551Y351279D02*
D03*
Y357382D02*
D03*
Y-121161D02*
D03*
Y-115059D02*
D03*
X590551Y111319D02*
D03*
Y105217D02*
D03*
Y-351279D02*
D03*
Y-357382D02*
D03*
X-590551Y272539D02*
D03*
Y278642D02*
D03*
Y-199902D02*
D03*
Y-193799D02*
D03*
X590551Y190059D02*
D03*
Y183957D02*
D03*
Y-272539D02*
D03*
Y-278642D02*
D03*
X-590551Y193799D02*
D03*
Y199902D02*
D03*
Y-278642D02*
D03*
Y-272539D02*
D03*
X590551Y268799D02*
D03*
Y262697D02*
D03*
Y-193799D02*
D03*
Y-199902D02*
D03*
X-590551Y115059D02*
D03*
Y121161D02*
D03*
Y-357382D02*
D03*
Y-351279D02*
D03*
X590551Y347539D02*
D03*
Y341437D02*
D03*
Y-115059D02*
D03*
Y-121161D02*
D03*
X-590551Y36319D02*
D03*
Y42421D02*
D03*
Y-436122D02*
D03*
Y-430020D02*
D03*
X590551Y426279D02*
D03*
Y420177D02*
D03*
Y-36319D02*
D03*
Y-42421D02*
D03*
X-511811Y430020D02*
D03*
Y436122D02*
D03*
Y-42421D02*
D03*
Y-36319D02*
D03*
X511811Y32579D02*
D03*
Y26476D02*
D03*
Y-430020D02*
D03*
Y-436122D02*
D03*
X-511811Y351279D02*
D03*
Y357382D02*
D03*
Y-121161D02*
D03*
Y-115059D02*
D03*
X511811Y111319D02*
D03*
Y105217D02*
D03*
Y-351279D02*
D03*
Y-357382D02*
D03*
X-511811Y272539D02*
D03*
Y278642D02*
D03*
Y-199902D02*
D03*
Y-193799D02*
D03*
X511811Y190059D02*
D03*
Y183957D02*
D03*
Y-272539D02*
D03*
Y-278642D02*
D03*
X-511811Y193799D02*
D03*
Y199902D02*
D03*
Y-278642D02*
D03*
Y-272539D02*
D03*
X511811Y268799D02*
D03*
Y262697D02*
D03*
Y-193799D02*
D03*
Y-199902D02*
D03*
X-511811Y115059D02*
D03*
Y121161D02*
D03*
Y-357382D02*
D03*
Y-351279D02*
D03*
X511811Y347539D02*
D03*
Y341437D02*
D03*
Y-115059D02*
D03*
Y-121161D02*
D03*
X-511811Y36319D02*
D03*
Y42421D02*
D03*
Y-436122D02*
D03*
Y-430020D02*
D03*
X511811Y426279D02*
D03*
Y420177D02*
D03*
Y-36319D02*
D03*
Y-42421D02*
D03*
X-433071Y430020D02*
D03*
Y436122D02*
D03*
Y-42421D02*
D03*
Y-36319D02*
D03*
X433071Y32579D02*
D03*
Y26476D02*
D03*
Y-430020D02*
D03*
Y-436122D02*
D03*
X-433071Y351279D02*
D03*
Y357382D02*
D03*
Y-121161D02*
D03*
Y-115059D02*
D03*
X433071Y111319D02*
D03*
Y105217D02*
D03*
Y-351279D02*
D03*
Y-357382D02*
D03*
X-433071Y272539D02*
D03*
Y278642D02*
D03*
Y-199902D02*
D03*
Y-193799D02*
D03*
X433071Y190059D02*
D03*
Y183957D02*
D03*
Y-272539D02*
D03*
Y-278642D02*
D03*
X-433071Y193799D02*
D03*
Y199902D02*
D03*
Y-278642D02*
D03*
Y-272539D02*
D03*
X433071Y268799D02*
D03*
Y262697D02*
D03*
Y-193799D02*
D03*
Y-199902D02*
D03*
X-433071Y115059D02*
D03*
Y121161D02*
D03*
Y-357382D02*
D03*
Y-351279D02*
D03*
X433071Y347539D02*
D03*
Y341437D02*
D03*
Y-115059D02*
D03*
Y-121161D02*
D03*
X-433071Y36319D02*
D03*
Y42421D02*
D03*
Y-436122D02*
D03*
Y-430020D02*
D03*
X433071Y426279D02*
D03*
Y420177D02*
D03*
Y-36319D02*
D03*
Y-42421D02*
D03*
X-354331Y430020D02*
D03*
Y436122D02*
D03*
Y-42421D02*
D03*
Y-36319D02*
D03*
X354331Y32579D02*
D03*
Y26476D02*
D03*
Y-430020D02*
D03*
Y-436122D02*
D03*
X-354331Y351279D02*
D03*
Y357382D02*
D03*
Y-121161D02*
D03*
Y-115059D02*
D03*
X354331Y111319D02*
D03*
Y105217D02*
D03*
Y-351279D02*
D03*
Y-357382D02*
D03*
X-354331Y272539D02*
D03*
Y278642D02*
D03*
Y-199902D02*
D03*
Y-193799D02*
D03*
X354331Y190059D02*
D03*
Y183957D02*
D03*
Y-272539D02*
D03*
Y-278642D02*
D03*
X-354331Y193799D02*
D03*
Y199902D02*
D03*
Y-278642D02*
D03*
Y-272539D02*
D03*
X354331Y268799D02*
D03*
Y262697D02*
D03*
Y-193799D02*
D03*
Y-199902D02*
D03*
X-354331Y115059D02*
D03*
Y121161D02*
D03*
Y-357382D02*
D03*
Y-351279D02*
D03*
X354331Y347539D02*
D03*
Y341437D02*
D03*
Y-115059D02*
D03*
Y-121161D02*
D03*
X-354331Y36319D02*
D03*
Y42421D02*
D03*
Y-436122D02*
D03*
Y-430020D02*
D03*
X354331Y426279D02*
D03*
Y420177D02*
D03*
Y-36319D02*
D03*
Y-42421D02*
D03*
X-275591Y430020D02*
D03*
Y436122D02*
D03*
Y-42421D02*
D03*
Y-36319D02*
D03*
X275591Y32579D02*
D03*
Y26476D02*
D03*
Y-430020D02*
D03*
Y-436122D02*
D03*
X-275591Y351279D02*
D03*
Y357382D02*
D03*
Y-121161D02*
D03*
Y-115059D02*
D03*
X275591Y111319D02*
D03*
Y105217D02*
D03*
Y-351279D02*
D03*
Y-357382D02*
D03*
X-275591Y272539D02*
D03*
Y278642D02*
D03*
Y-199902D02*
D03*
Y-193799D02*
D03*
X275591Y190059D02*
D03*
Y183957D02*
D03*
Y-272539D02*
D03*
Y-278642D02*
D03*
X-275591Y193799D02*
D03*
Y199902D02*
D03*
Y-278642D02*
D03*
Y-272539D02*
D03*
X275591Y268799D02*
D03*
Y262697D02*
D03*
Y-193799D02*
D03*
Y-199902D02*
D03*
X-275591Y115059D02*
D03*
Y121161D02*
D03*
Y-357382D02*
D03*
Y-351279D02*
D03*
X275591Y347539D02*
D03*
Y341437D02*
D03*
Y-115059D02*
D03*
Y-121161D02*
D03*
X-275591Y36319D02*
D03*
Y42421D02*
D03*
Y-436122D02*
D03*
Y-430020D02*
D03*
X275591Y426279D02*
D03*
Y420177D02*
D03*
Y-36319D02*
D03*
Y-42421D02*
D03*
X-196850Y430020D02*
D03*
Y436122D02*
D03*
Y-42421D02*
D03*
Y-36319D02*
D03*
X196850Y32579D02*
D03*
Y26476D02*
D03*
Y-430020D02*
D03*
Y-436122D02*
D03*
X-196850Y351279D02*
D03*
Y357382D02*
D03*
Y-121161D02*
D03*
Y-115059D02*
D03*
X196850Y111319D02*
D03*
Y105217D02*
D03*
Y-351279D02*
D03*
Y-357382D02*
D03*
X-196850Y272539D02*
D03*
Y278642D02*
D03*
Y-199902D02*
D03*
Y-193799D02*
D03*
X196850Y190059D02*
D03*
Y183957D02*
D03*
Y-272539D02*
D03*
Y-278642D02*
D03*
X-196850Y193799D02*
D03*
Y199902D02*
D03*
Y-278642D02*
D03*
Y-272539D02*
D03*
X196850Y268799D02*
D03*
Y262697D02*
D03*
Y-193799D02*
D03*
Y-199902D02*
D03*
X-196850Y115059D02*
D03*
Y121161D02*
D03*
Y-357382D02*
D03*
Y-351279D02*
D03*
X196850Y347539D02*
D03*
Y341437D02*
D03*
Y-115059D02*
D03*
Y-121161D02*
D03*
X-196850Y36319D02*
D03*
Y42421D02*
D03*
Y-436122D02*
D03*
Y-430020D02*
D03*
X196850Y426279D02*
D03*
Y420177D02*
D03*
Y-36319D02*
D03*
Y-42421D02*
D03*
X-118110Y430020D02*
D03*
Y436122D02*
D03*
Y-42421D02*
D03*
Y-36319D02*
D03*
X118110Y32579D02*
D03*
Y26476D02*
D03*
Y-430020D02*
D03*
Y-436122D02*
D03*
X-118110Y351279D02*
D03*
Y357382D02*
D03*
Y-121161D02*
D03*
Y-115059D02*
D03*
X118110Y111319D02*
D03*
Y105217D02*
D03*
Y-351279D02*
D03*
Y-357382D02*
D03*
X-118110Y272539D02*
D03*
Y278642D02*
D03*
Y-199902D02*
D03*
Y-193799D02*
D03*
X118110Y190059D02*
D03*
Y183957D02*
D03*
Y-272539D02*
D03*
Y-278642D02*
D03*
X-118110Y193799D02*
D03*
Y199902D02*
D03*
Y-278642D02*
D03*
Y-272539D02*
D03*
X118110Y268799D02*
D03*
Y262697D02*
D03*
Y-193799D02*
D03*
Y-199902D02*
D03*
X-118110Y115059D02*
D03*
Y121161D02*
D03*
Y-357382D02*
D03*
Y-351279D02*
D03*
X118110Y347539D02*
D03*
Y341437D02*
D03*
Y-115059D02*
D03*
Y-121161D02*
D03*
X-118110Y36319D02*
D03*
Y42421D02*
D03*
Y-436122D02*
D03*
Y-430020D02*
D03*
X118110Y426279D02*
D03*
Y420177D02*
D03*
Y-36319D02*
D03*
Y-42421D02*
D03*
D83*
X-47244Y94882D02*
D03*
X-70866D02*
D03*
X-47244Y-101969D02*
D03*
X-70866D02*
D03*
X47244Y141339D02*
D03*
X70866D02*
D03*
X47244Y-55512D02*
D03*
X70866D02*
D03*
X-47244Y35433D02*
D03*
X-70866D02*
D03*
X-47244Y-161417D02*
D03*
X-70866D02*
D03*
X47244Y200787D02*
D03*
X70866D02*
D03*
X47244Y124016D02*
D03*
X70866D02*
D03*
X14173Y-148622D02*
D03*
X-9449D02*
D03*
D84*
X-59055Y78740D02*
D03*
Y-118110D02*
D03*
X59055Y157480D02*
D03*
Y-39370D02*
D03*
D85*
X-51279Y74902D02*
D03*
Y77461D02*
D03*
Y80020D02*
D03*
Y82579D02*
D03*
X-66831Y74902D02*
D03*
Y77461D02*
D03*
Y80020D02*
D03*
Y82579D02*
D03*
X-51279Y-121949D02*
D03*
Y-119390D02*
D03*
Y-116831D02*
D03*
Y-114272D02*
D03*
X-66831Y-121949D02*
D03*
Y-119390D02*
D03*
Y-116831D02*
D03*
Y-114272D02*
D03*
X51279Y161319D02*
D03*
Y158760D02*
D03*
Y156201D02*
D03*
Y153642D02*
D03*
X66831Y161319D02*
D03*
Y158760D02*
D03*
Y156201D02*
D03*
Y153642D02*
D03*
X51279Y-35531D02*
D03*
Y-38091D02*
D03*
Y-40650D02*
D03*
Y-43209D02*
D03*
X66831Y-35531D02*
D03*
Y-38091D02*
D03*
Y-40650D02*
D03*
Y-43209D02*
D03*
D86*
X35236Y-122835D02*
D03*
D87*
X38189Y-128740D02*
D03*
X36220D02*
D03*
X34252D02*
D03*
X32283D02*
D03*
Y-116929D02*
D03*
X34252D02*
D03*
X36220D02*
D03*
X38189D02*
D03*
D88*
X29331Y-125787D02*
D03*
Y-123819D02*
D03*
Y-121850D02*
D03*
Y-119882D02*
D03*
X41142D02*
D03*
Y-121850D02*
D03*
Y-123819D02*
D03*
Y-125787D02*
D03*
D89*
X-35827Y-157087D02*
D03*
Y-180709D02*
D03*
D90*
X45571Y-390158D02*
D03*
Y-385433D02*
D03*
X52658D02*
D03*
Y-390158D02*
D03*
D91*
X-59400Y-347805D02*
D03*
X-55404Y-377805D02*
D03*
X-63396D02*
D03*
D92*
X-49400Y-347805D02*
D03*
X-69400D02*
D03*
X-49400Y-370305D02*
D03*
X-69400D02*
D03*
D93*
X0Y310236D02*
D03*
D94*
X-56890Y-208661D02*
D03*
X-9843D02*
D03*
X56890D02*
D03*
X39370Y423228D02*
D03*
X-39370D02*
D03*
Y344488D02*
D03*
X39370D02*
D03*
D95*
X147638Y-108268D02*
D03*
X-147638D02*
D03*
X196850Y-157480D02*
D03*
X-196850D02*
D03*
X-147638Y187008D02*
D03*
X147638D02*
D03*
X-196850Y236221D02*
D03*
X196850D02*
D03*
X-669291Y393701D02*
D03*
Y-393701D02*
D03*
X669291Y393701D02*
D03*
Y-393701D02*
D03*
D96*
X393701Y393701D02*
D03*
Y-393701D02*
D03*
X-393701Y393701D02*
D03*
Y-393701D02*
D03*
M02*
