%FSLAX25Y25*%
%MOIN*%
G70*
G01*
G75*
G04 Layer_Physical_Order=1*
G04 Layer_Color=255*
%ADD10R,0.04724X0.13386*%
%ADD11R,0.06693X0.07874*%
%ADD12R,0.05315X0.01772*%
%ADD13R,0.01378X0.02165*%
%ADD14R,0.11024X0.04921*%
%ADD15R,0.09252X0.20079*%
%ADD16R,0.06693X0.09843*%
%ADD17R,0.03543X0.02362*%
%ADD18R,0.07087X0.03543*%
%ADD19R,0.07087X0.15354*%
%ADD20R,0.05118X0.21654*%
%ADD21R,0.02362X0.03543*%
%ADD22C,0.00591*%
%ADD23C,0.01772*%
%ADD24C,0.15748*%
%ADD25O,0.15748X0.29134*%
G36*
X-276378Y-120669D02*
Y-196260D01*
X-353543D01*
Y-121457D01*
Y-118701D01*
X-276378D01*
Y-120669D01*
D02*
G37*
G36*
X117323Y-196260D02*
X70669D01*
Y-194488D01*
X73228D01*
Y-193504D01*
X70669D01*
Y-191339D01*
X73228D01*
Y-190157D01*
X70669D01*
Y-124803D01*
X73228D01*
Y-123622D01*
X70669D01*
Y-121457D01*
X73228D01*
Y-120472D01*
X70669D01*
Y-118701D01*
X117323D01*
Y-196260D01*
D02*
G37*
G36*
X-433268Y-169193D02*
X-464370D01*
Y-190157D01*
X-466929D01*
Y-191339D01*
X-464370D01*
Y-193504D01*
X-466929D01*
Y-194488D01*
X-464370D01*
Y-196260D01*
X-490721D01*
Y-118701D01*
X-433268D01*
Y-169193D01*
D02*
G37*
G36*
X-58957Y-162106D02*
X-58563Y-162500D01*
X-49902D01*
X-47835Y-164567D01*
X-44587D01*
X-42224Y-166929D01*
Y-167716D01*
X-42224D01*
Y-178347D01*
Y-188976D01*
X-42224D01*
Y-189764D01*
X-45177Y-192717D01*
X-50197D01*
Y-200787D01*
Y-207283D01*
Y-215130D01*
X-192361D01*
X-192410Y-214633D01*
X-192102Y-214572D01*
X-189830Y-213800D01*
X-187677Y-212739D01*
X-185682Y-211405D01*
X-183878Y-209823D01*
X-182295Y-208019D01*
X-180962Y-206024D01*
X-179901Y-203871D01*
X-179129Y-201599D01*
X-178661Y-199245D01*
X-178543Y-197441D01*
X-178504Y-196850D01*
X-178661Y-194456D01*
X-179129Y-192102D01*
X-179901Y-189830D01*
X-180962Y-187677D01*
X-182295Y-185682D01*
X-183878Y-183878D01*
X-185682Y-182295D01*
X-187677Y-180962D01*
X-189830Y-179901D01*
X-192102Y-179129D01*
X-194456Y-178661D01*
X-196851Y-178504D01*
X-199245Y-178661D01*
X-201599Y-179129D01*
X-203871Y-179901D01*
X-206024Y-180962D01*
X-208019Y-182295D01*
X-209823Y-183878D01*
X-211406Y-185682D01*
X-212739Y-187677D01*
X-213800Y-189830D01*
X-214572Y-192102D01*
X-215040Y-194456D01*
X-215197Y-196850D01*
X-215158Y-197441D01*
X-215040Y-199245D01*
X-214572Y-201599D01*
X-213800Y-203871D01*
X-212739Y-206024D01*
X-211406Y-208019D01*
X-209823Y-209823D01*
X-208019Y-211405D01*
X-206024Y-212739D01*
X-203871Y-213800D01*
X-201599Y-214572D01*
X-201291Y-214633D01*
X-201340Y-215130D01*
X-428581D01*
X-428630Y-214633D01*
X-428323Y-214572D01*
X-426050Y-213800D01*
X-423898Y-212739D01*
X-421902Y-211405D01*
X-420098Y-209823D01*
X-418516Y-208019D01*
X-417182Y-206024D01*
X-416121Y-203871D01*
X-415350Y-201599D01*
X-414882Y-199245D01*
X-414763Y-197441D01*
X-414725Y-196850D01*
X-414882Y-194456D01*
X-415350Y-192102D01*
X-416121Y-189830D01*
X-417182Y-187677D01*
X-418516Y-185682D01*
X-420098Y-183878D01*
X-421902Y-182295D01*
X-423898Y-180962D01*
X-426050Y-179901D01*
X-428323Y-179129D01*
X-430676Y-178661D01*
X-433071Y-178504D01*
X-435466Y-178661D01*
X-437819Y-179129D01*
X-440092Y-179901D01*
X-442244Y-180962D01*
X-444240Y-182295D01*
X-446044Y-183878D01*
X-447626Y-185682D01*
X-448959Y-187677D01*
X-450021Y-189830D01*
X-450792Y-192102D01*
X-451260Y-194456D01*
X-451417Y-196850D01*
X-451379Y-197441D01*
X-451260Y-199245D01*
X-450792Y-201599D01*
X-450021Y-203871D01*
X-448959Y-206024D01*
X-447626Y-208019D01*
X-446044Y-209823D01*
X-444240Y-211405D01*
X-442244Y-212739D01*
X-440092Y-213800D01*
X-437819Y-214572D01*
X-437511Y-214633D01*
X-437561Y-215130D01*
X-484252D01*
X-484280Y-215136D01*
X-485516Y-215014D01*
X-486731Y-214646D01*
X-487851Y-214047D01*
X-488832Y-213242D01*
X-489638Y-212260D01*
X-490236Y-211140D01*
X-490605Y-209925D01*
X-490727Y-208689D01*
X-490721Y-208661D01*
X-490721D01*
X-490721Y-208661D01*
Y-197441D01*
X-479134D01*
Y-197441D01*
X-465748D01*
Y-197441D01*
X-461909D01*
Y-171653D01*
X-404232D01*
Y-197441D01*
X-400394D01*
Y-197441D01*
X-387008D01*
Y-197441D01*
X-321654D01*
Y-197441D01*
X-308268D01*
Y-197441D01*
X-242913D01*
Y-197441D01*
X-229528D01*
Y-197441D01*
X-225689D01*
Y-171653D01*
X-168012D01*
Y-197441D01*
X-164173D01*
Y-197441D01*
X-150787D01*
Y-197441D01*
X-85433D01*
Y-197441D01*
X-72047D01*
Y-197441D01*
X-69685D01*
Y-157874D01*
X-58957D01*
Y-162106D01*
D02*
G37*
G36*
X490721Y-196260D02*
X479134D01*
Y-196260D01*
X465748D01*
Y-196260D01*
X464370D01*
Y-194488D01*
X466929D01*
Y-193504D01*
X464370D01*
Y-191339D01*
X466929D01*
Y-190157D01*
X464370D01*
Y-169193D01*
X433268D01*
Y-118701D01*
X490721D01*
Y-196260D01*
D02*
G37*
G36*
X353543Y-194291D02*
Y-196260D01*
X276378D01*
Y-193504D01*
Y-118701D01*
X353543D01*
Y-194291D01*
D02*
G37*
G36*
X-433260Y33070D02*
Y-38781D01*
X-465748D01*
Y-38780D01*
X-479134D01*
Y-38781D01*
X-490721D01*
Y38778D01*
X-433260D01*
Y33070D01*
D02*
G37*
G36*
X117323Y-117520D02*
X70669D01*
Y-115748D01*
X73228D01*
Y-114764D01*
X70669D01*
Y-112599D01*
X73228D01*
Y-111417D01*
X70669D01*
Y-46063D01*
X73228D01*
Y-44882D01*
X70669D01*
Y-42717D01*
X73228D01*
Y-41732D01*
X70669D01*
Y-39961D01*
X72047D01*
Y-39961D01*
X85433D01*
Y-39961D01*
X117323D01*
Y-117520D01*
D02*
G37*
G36*
X-70669Y37008D02*
X-73228D01*
Y36024D01*
X-70669D01*
Y33858D01*
X-73228D01*
Y32677D01*
X-70669D01*
Y-32677D01*
X-73228D01*
Y-33858D01*
X-70669D01*
Y-36024D01*
X-73228D01*
Y-37008D01*
X-70669D01*
Y-38780D01*
X-72047D01*
Y-38780D01*
X-85433D01*
Y-38780D01*
X-117323D01*
Y38779D01*
X-70669D01*
Y37008D01*
D02*
G37*
G36*
X274803Y-36811D02*
Y-38780D01*
X197638D01*
Y-36024D01*
Y38780D01*
X274803D01*
Y-36811D01*
D02*
G37*
G36*
X196063D02*
Y-38780D01*
X118898D01*
Y-36024D01*
Y38780D01*
X196063D01*
Y-36811D01*
D02*
G37*
G36*
X274803Y118701D02*
X197638D01*
Y169193D01*
X228150D01*
Y190157D01*
D01*
X228150D01*
X228503Y190157D01*
X228503Y190157D01*
Y190157D01*
X230709D01*
Y191339D01*
X228503D01*
X228503Y191339D01*
Y191339D01*
X228150Y191339D01*
X228150Y191339D01*
Y193504D01*
D01*
X228150D01*
X228503Y193504D01*
X228503Y193504D01*
Y193504D01*
X230709D01*
Y194488D01*
X228503D01*
X228503Y194488D01*
Y194488D01*
X228150Y194488D01*
X228150Y194488D01*
Y196260D01*
X229528D01*
Y196260D01*
X242913D01*
Y196260D01*
X274803D01*
Y118701D01*
D02*
G37*
G36*
X165551Y194488D02*
X162992D01*
Y193504D01*
X165551D01*
Y191339D01*
X162992D01*
Y190157D01*
X165551D01*
Y169193D01*
X196063D01*
Y118701D01*
X118898D01*
Y196260D01*
X150787D01*
Y196260D01*
X164173D01*
Y196260D01*
X165551D01*
Y194488D01*
D02*
G37*
G36*
X432283Y-36811D02*
Y-38780D01*
X355118D01*
Y-36024D01*
Y38780D01*
X432283D01*
Y-36811D01*
D02*
G37*
G36*
X-355118Y36811D02*
Y-38780D01*
X-432283D01*
Y36024D01*
Y38780D01*
X-355118D01*
Y36811D01*
D02*
G37*
G36*
X490721Y-38780D02*
X433760D01*
Y-33071D01*
Y38780D01*
X490721D01*
Y-38780D01*
D02*
G37*
G36*
X-118898Y118701D02*
X-196063D01*
Y169193D01*
X-165551D01*
Y190157D01*
D01*
X-165551D01*
X-165198Y190157D01*
X-165198Y190157D01*
Y190157D01*
X-162992D01*
Y191339D01*
X-165198D01*
X-165198Y191339D01*
Y191339D01*
X-165551Y191339D01*
X-165551Y191339D01*
Y193504D01*
D01*
X-165551D01*
X-165198Y193504D01*
X-165198Y193504D01*
Y193504D01*
X-162992D01*
Y194488D01*
X-165198D01*
X-165198Y194488D01*
Y194488D01*
X-165551Y194488D01*
X-165551Y194488D01*
Y196260D01*
X-164173D01*
Y196260D01*
X-150787D01*
Y196260D01*
X-118898D01*
Y118701D01*
D02*
G37*
G36*
X401772Y194488D02*
D01*
X401772D01*
X401418Y194488D01*
X401418Y194488D01*
Y194488D01*
X399213D01*
Y193504D01*
X401418D01*
X401772Y193150D01*
Y191339D01*
D01*
X401772D01*
X401418Y191339D01*
X401418Y191339D01*
Y191339D01*
X399213D01*
Y190157D01*
X401418D01*
X401772Y189804D01*
Y169193D01*
X432283D01*
Y118701D01*
X400394D01*
Y118701D01*
X387008D01*
Y118701D01*
X355118D01*
Y196260D01*
X401772D01*
Y194488D01*
D02*
G37*
G36*
X353543Y-36811D02*
Y-38780D01*
X276378D01*
Y-36024D01*
Y38780D01*
X353543D01*
Y-36811D01*
D02*
G37*
G36*
X-464370Y194488D02*
X-466929D01*
Y193504D01*
X-464370D01*
Y191339D01*
X-466929D01*
Y190157D01*
X-464370D01*
Y169193D01*
X-433268D01*
Y118701D01*
X-490721D01*
Y196260D01*
X-479134D01*
Y196260D01*
X-465748D01*
Y196260D01*
X-464370D01*
Y194488D01*
D02*
G37*
G36*
X-228150D02*
X-230709D01*
Y193504D01*
X-228150D01*
Y191339D01*
X-230709D01*
Y190157D01*
X-228150D01*
Y169193D01*
X-197638D01*
Y118701D01*
X-274803D01*
Y196260D01*
X-242913D01*
Y196260D01*
X-229528D01*
Y196260D01*
X-228150D01*
Y194488D01*
D02*
G37*
G36*
X-355118Y118701D02*
X-432283D01*
Y169193D01*
X-401772D01*
Y190157D01*
D01*
X-401772D01*
X-401418Y190157D01*
X-401418Y190157D01*
Y190157D01*
X-399213D01*
Y191339D01*
X-401418D01*
X-401418Y191339D01*
Y191339D01*
X-401772Y191339D01*
X-401772Y191339D01*
Y193504D01*
D01*
X-401772D01*
X-401418Y193504D01*
X-401418Y193504D01*
Y193504D01*
X-399213D01*
Y194488D01*
X-401418D01*
X-401418Y194488D01*
Y194488D01*
X-401772Y194488D01*
X-401772Y194488D01*
Y196260D01*
X-400394D01*
Y196260D01*
X-387008D01*
Y196260D01*
X-355118D01*
Y118701D01*
D02*
G37*
G36*
X-70669Y-41732D02*
X-73228D01*
Y-42717D01*
X-70669D01*
Y-44882D01*
X-73228D01*
Y-46063D01*
X-70669D01*
Y-111417D01*
X-73228D01*
Y-112598D01*
X-70669D01*
Y-114764D01*
X-73228D01*
Y-115748D01*
X-70669D01*
Y-117520D01*
X-117323D01*
Y-39961D01*
X-85433D01*
Y-39961D01*
X-72047D01*
Y-39961D01*
X-70669D01*
Y-41732D01*
D02*
G37*
G36*
X-197638Y115551D02*
Y39961D01*
X-274803D01*
Y114764D01*
Y117520D01*
X-197638D01*
Y115551D01*
D02*
G37*
G36*
X-276378D02*
Y39961D01*
X-353543D01*
Y114764D01*
Y117520D01*
X-276378D01*
Y115551D01*
D02*
G37*
G36*
X-118898D02*
Y39961D01*
X-196063D01*
Y114764D01*
Y117520D01*
X-118898D01*
Y115551D01*
D02*
G37*
G36*
X274803Y41929D02*
Y39961D01*
X197638D01*
Y42717D01*
Y117520D01*
X274803D01*
Y41929D01*
D02*
G37*
G36*
X196063D02*
Y39961D01*
X118898D01*
Y42717D01*
Y117520D01*
X196063D01*
Y41929D01*
D02*
G37*
G36*
X-355118Y115551D02*
Y39961D01*
X-432283D01*
Y114764D01*
Y117520D01*
X-355118D01*
Y115551D01*
D02*
G37*
G36*
X117323Y-38779D02*
X70669D01*
Y-37008D01*
X73228D01*
Y-36024D01*
X70669D01*
Y-33858D01*
X73228D01*
Y-32677D01*
X70669D01*
Y32677D01*
X73228D01*
Y33858D01*
X70669D01*
Y36024D01*
X73228D01*
Y37008D01*
X70669D01*
Y38780D01*
X72047D01*
Y38780D01*
X85433D01*
Y38780D01*
X117323D01*
Y-38779D01*
D02*
G37*
G36*
X-484252Y215130D02*
X-437560D01*
X-437511Y214633D01*
X-437819Y214572D01*
X-440092Y213800D01*
X-442244Y212739D01*
X-444239Y211406D01*
X-446044Y209823D01*
X-447626Y208019D01*
X-448959Y206024D01*
X-449289Y205356D01*
X-450021Y203871D01*
X-450792Y201599D01*
X-451260Y199245D01*
X-451417Y196850D01*
X-451260Y194456D01*
X-450792Y192102D01*
X-450021Y189830D01*
X-448959Y187677D01*
X-447626Y185682D01*
X-446044Y183878D01*
X-444239Y182295D01*
X-442244Y180962D01*
X-440092Y179901D01*
X-437819Y179129D01*
X-435465Y178661D01*
X-433071Y178504D01*
X-430676Y178661D01*
X-428323Y179129D01*
X-426050Y179901D01*
X-423898Y180962D01*
X-421902Y182295D01*
X-420098Y183878D01*
X-418516Y185682D01*
X-417182Y187677D01*
X-416121Y189830D01*
X-415350Y192102D01*
X-414882Y194456D01*
X-414724Y196850D01*
X-414882Y199245D01*
X-415300Y201349D01*
X-415350Y201599D01*
X-416121Y203871D01*
X-417182Y206024D01*
X-418516Y208019D01*
X-420098Y209823D01*
X-421902Y211406D01*
X-423898Y212739D01*
X-426050Y213800D01*
X-428323Y214572D01*
X-430676Y215040D01*
X-430673Y215130D01*
X-201340D01*
X-201291Y214633D01*
X-201599Y214572D01*
X-203871Y213800D01*
X-206024Y212739D01*
X-208019Y211406D01*
X-209823Y209823D01*
X-211406Y208019D01*
X-212739Y206024D01*
X-213800Y203871D01*
X-214572Y201599D01*
X-214621Y201349D01*
X-215040Y199245D01*
X-215197Y196850D01*
X-215040Y194456D01*
X-214572Y192102D01*
X-213800Y189830D01*
X-212739Y187677D01*
X-211406Y185682D01*
X-209823Y183878D01*
X-208019Y182295D01*
X-206024Y180962D01*
X-203871Y179901D01*
X-201599Y179129D01*
X-199245Y178661D01*
X-196851Y178504D01*
X-194456Y178661D01*
X-192102Y179129D01*
X-189830Y179901D01*
X-187677Y180962D01*
X-185682Y182295D01*
X-183878Y183878D01*
X-182295Y185682D01*
X-180962Y187677D01*
X-179901Y189830D01*
X-179129Y192102D01*
X-178661Y194456D01*
X-178504Y196850D01*
X-178661Y199245D01*
X-179129Y201599D01*
X-179901Y203871D01*
X-179901Y203871D01*
X-180962Y206024D01*
X-182295Y208019D01*
X-183878Y209823D01*
X-185682Y211406D01*
X-187677Y212739D01*
X-189830Y213800D01*
X-192102Y214572D01*
X-194456Y215040D01*
X-194453Y215130D01*
X-40748D01*
Y202084D01*
X-40870Y201941D01*
X-42019Y200066D01*
X-42861Y198033D01*
X-43003Y197441D01*
X-43375Y195894D01*
X-43547Y193701D01*
Y180315D01*
X-43375Y178122D01*
X-42861Y175983D01*
X-42019Y173950D01*
X-40870Y172074D01*
X-40748Y171932D01*
Y-107283D01*
X-45571Y-112106D01*
Y-134055D01*
X-45079D01*
Y-141337D01*
Y-148622D01*
X-44291D01*
X-42323Y-150591D01*
Y-152165D01*
Y-153643D01*
X-43207D01*
Y-154527D01*
X-46457D01*
Y-154528D01*
X-50591D01*
X-52854Y-152264D01*
X-58957D01*
Y-156890D01*
X-59350D01*
Y-157185D01*
X-65059D01*
Y-156890D01*
X-69685D01*
Y197441D01*
X-168012D01*
Y171654D01*
X-225689D01*
Y197441D01*
X-404232D01*
Y171654D01*
X-461909D01*
Y197441D01*
X-490721D01*
Y208661D01*
X-490721Y208661D01*
X-490721D01*
X-490727Y208689D01*
X-490605Y209925D01*
X-490236Y211140D01*
X-489638Y212260D01*
X-488832Y213242D01*
X-487851Y214047D01*
X-486731Y214646D01*
X-485516Y215014D01*
X-484280Y215136D01*
X-484252Y215130D01*
D02*
G37*
G36*
X-433260Y111810D02*
Y39960D01*
X-465748D01*
Y39961D01*
X-479134D01*
Y39960D01*
X-490721D01*
Y117519D01*
X-433260D01*
Y111810D01*
D02*
G37*
G36*
X-70669Y115748D02*
X-73228D01*
Y114764D01*
X-70669D01*
Y112598D01*
X-73228D01*
Y111417D01*
X-70669D01*
Y46063D01*
X-73228D01*
Y44882D01*
X-70669D01*
Y42717D01*
X-73228D01*
Y41732D01*
X-70669D01*
Y39961D01*
X-72047D01*
Y39961D01*
X-85433D01*
Y39961D01*
X-117323D01*
Y117520D01*
X-70669D01*
Y115748D01*
D02*
G37*
G36*
X117323Y39961D02*
X85433D01*
Y39961D01*
X72047D01*
Y39961D01*
X70669D01*
Y41732D01*
X73228D01*
Y42717D01*
X70669D01*
Y44882D01*
X73228D01*
Y46063D01*
X70669D01*
Y111417D01*
X73228D01*
Y112598D01*
X70669D01*
Y114764D01*
X73228D01*
Y115748D01*
X70669D01*
Y117520D01*
X117323D01*
Y39961D01*
D02*
G37*
G36*
X485516Y215014D02*
X486731Y214646D01*
X487851Y214047D01*
X488832Y213242D01*
X489638Y212260D01*
X490236Y211140D01*
X490605Y209925D01*
X490727Y208689D01*
X490721Y208661D01*
Y197441D01*
X461909D01*
Y171653D01*
X404232D01*
Y197441D01*
X225689D01*
Y171654D01*
X168012D01*
Y197441D01*
X69685D01*
Y295D01*
X58957D01*
Y5020D01*
X47835D01*
Y7087D01*
X41238D01*
X40765Y7559D01*
Y10236D01*
X42224D01*
Y20865D01*
Y31496D01*
X40765D01*
Y35236D01*
X44882D01*
Y49803D01*
X40748D01*
Y171932D01*
X40870Y172074D01*
X42019Y173950D01*
X42861Y175983D01*
X43374Y178122D01*
X43547Y180315D01*
Y193701D01*
X43374Y195894D01*
X43003Y197441D01*
X42861Y198033D01*
X42019Y200066D01*
X40870Y201941D01*
X40748Y202084D01*
Y209154D01*
Y215130D01*
X192361D01*
X192410Y214633D01*
X192102Y214572D01*
X189830Y213800D01*
X187677Y212739D01*
X185682Y211406D01*
X183878Y209823D01*
X182295Y208019D01*
X180962Y206024D01*
X179901Y203871D01*
X179129Y201599D01*
X179079Y201349D01*
X178661Y199245D01*
X178504Y196850D01*
X178661Y194456D01*
X179129Y192102D01*
X179901Y189830D01*
X180962Y187677D01*
X182295Y185682D01*
X183878Y183878D01*
X185682Y182295D01*
X187677Y180962D01*
X189830Y179901D01*
X192102Y179129D01*
X194456Y178661D01*
X196850Y178504D01*
X199245Y178661D01*
X201599Y179129D01*
X203871Y179901D01*
X206024Y180962D01*
X208019Y182295D01*
X209823Y183878D01*
X211405Y185682D01*
X212739Y187677D01*
X213800Y189830D01*
X214572Y192102D01*
X215040Y194456D01*
X215197Y196850D01*
X215040Y199245D01*
X214572Y201599D01*
X213800Y203871D01*
X213800Y203871D01*
X212739Y206024D01*
X211405Y208019D01*
X209823Y209823D01*
X208019Y211406D01*
X206024Y212739D01*
X203871Y213800D01*
X201599Y214572D01*
X199245Y215040D01*
X199248Y215130D01*
X428581D01*
X428630Y214633D01*
X428322Y214572D01*
X426050Y213800D01*
X423898Y212739D01*
X421902Y211406D01*
X420098Y209823D01*
X418516Y208019D01*
X417182Y206024D01*
X416121Y203871D01*
X415350Y201599D01*
X415300Y201349D01*
D01*
X414881Y199245D01*
X414724Y196850D01*
X414881Y194456D01*
X415350Y192102D01*
X416121Y189830D01*
X417182Y187677D01*
X418516Y185682D01*
X420098Y183878D01*
X421902Y182295D01*
X423898Y180962D01*
X426050Y179901D01*
X428322Y179129D01*
X430676Y178661D01*
X433071Y178504D01*
X435465Y178661D01*
X437819Y179129D01*
X440092Y179901D01*
X442244Y180962D01*
X444239Y182295D01*
X446044Y183878D01*
X447626Y185682D01*
X448959Y187677D01*
X450021Y189830D01*
X450792Y192102D01*
X451260Y194456D01*
X451417Y196850D01*
X451260Y199245D01*
X450792Y201599D01*
X450021Y203871D01*
X449289Y205356D01*
X448959Y206024D01*
X447626Y208019D01*
X446044Y209823D01*
X444239Y211406D01*
X442244Y212739D01*
X440092Y213800D01*
X437819Y214572D01*
X435465Y215040D01*
X435468Y215130D01*
X484252D01*
X484280Y215136D01*
X485516Y215014D01*
D02*
G37*
G36*
X-276378Y194291D02*
Y118701D01*
X-353543D01*
Y193504D01*
Y196260D01*
X-276378D01*
Y194291D01*
D02*
G37*
G36*
X490721Y118701D02*
X479134D01*
Y118701D01*
X465748D01*
Y118701D01*
X433268D01*
Y169193D01*
X464370D01*
Y190157D01*
X466929D01*
Y191339D01*
X464370D01*
Y193504D01*
X466929D01*
Y194488D01*
X464370D01*
Y196260D01*
X490721D01*
Y118701D01*
D02*
G37*
G36*
X-355118Y-196260D02*
X-401772D01*
Y-194488D01*
D01*
X-401772D01*
X-401418Y-194488D01*
X-401418Y-194488D01*
Y-194488D01*
X-399213D01*
Y-193504D01*
X-401418D01*
X-401418Y-193504D01*
Y-193504D01*
X-401772Y-193504D01*
X-401772Y-193504D01*
Y-191339D01*
D01*
X-401772D01*
X-401418Y-191339D01*
X-401418Y-191339D01*
Y-191339D01*
X-399213D01*
Y-190157D01*
X-401418D01*
X-401418Y-190157D01*
Y-190157D01*
X-401772Y-190157D01*
X-401772Y-190157D01*
Y-169193D01*
X-432283D01*
Y-118701D01*
X-355118D01*
Y-196260D01*
D02*
G37*
G36*
X117323Y118701D02*
X85433D01*
Y118701D01*
X72047D01*
Y118701D01*
X70669D01*
Y120472D01*
X73228D01*
Y121457D01*
X70669D01*
Y123622D01*
X73228D01*
Y124803D01*
X70669D01*
Y190157D01*
X73228D01*
Y191339D01*
X70669D01*
Y193504D01*
X73228D01*
Y194488D01*
X70669D01*
Y196260D01*
X117323D01*
Y118701D01*
D02*
G37*
G36*
X-70669Y194488D02*
X-73228D01*
Y193504D01*
X-70669D01*
Y191339D01*
X-73228D01*
Y190157D01*
X-70669D01*
Y124803D01*
X-73228D01*
Y123622D01*
X-70669D01*
Y121457D01*
X-73228D01*
Y120472D01*
X-70669D01*
Y118701D01*
X-117323D01*
Y196260D01*
X-70669D01*
Y194488D01*
D02*
G37*
G36*
X432283Y41929D02*
Y39961D01*
X355118D01*
Y42717D01*
Y117520D01*
X432283D01*
Y41929D01*
D02*
G37*
G36*
X353543D02*
Y39961D01*
X276378D01*
Y42717D01*
Y117520D01*
X353543D01*
Y41929D01*
D02*
G37*
G36*
X432283Y-169193D02*
X401772D01*
Y-190157D01*
D01*
X401772D01*
X401418Y-190157D01*
X401418Y-190157D01*
Y-190157D01*
X399213D01*
Y-191339D01*
X401418D01*
X401772Y-191692D01*
Y-193504D01*
D01*
X401772D01*
X401418Y-193504D01*
X401418Y-193504D01*
Y-193504D01*
X399213D01*
Y-194488D01*
X401418D01*
X401772Y-194842D01*
Y-196260D01*
X400394D01*
Y-196260D01*
X387008D01*
Y-196260D01*
X355118D01*
Y-118701D01*
X432283D01*
Y-169193D01*
D02*
G37*
G36*
X353543Y120669D02*
Y118701D01*
X276378D01*
Y121457D01*
Y196260D01*
X353543D01*
Y120669D01*
D02*
G37*
G36*
X490721Y39961D02*
X433760D01*
Y45669D01*
Y117520D01*
X490721D01*
Y39961D01*
D02*
G37*
G36*
X-197638Y-41929D02*
Y-117520D01*
X-274803D01*
Y-42717D01*
Y-39961D01*
X-197638D01*
Y-41929D01*
D02*
G37*
G36*
X-276378D02*
Y-117520D01*
X-353543D01*
Y-42717D01*
Y-39961D01*
X-276378D01*
Y-41929D01*
D02*
G37*
G36*
X-355118D02*
Y-117520D01*
X-432283D01*
Y-42717D01*
Y-39961D01*
X-355118D01*
Y-41929D01*
D02*
G37*
G36*
X274803Y-115551D02*
Y-117520D01*
X197638D01*
Y-114764D01*
Y-39961D01*
X274803D01*
Y-115551D01*
D02*
G37*
G36*
X196063D02*
Y-117520D01*
X118898D01*
Y-114764D01*
Y-39961D01*
X196063D01*
Y-115551D01*
D02*
G37*
G36*
X-118898Y-41929D02*
Y-117520D01*
X-196063D01*
Y-42717D01*
Y-39961D01*
X-118898D01*
Y-41929D01*
D02*
G37*
G36*
X-433260Y-45670D02*
Y-117521D01*
X-465748D01*
Y-117520D01*
X-479134D01*
Y-117521D01*
X-490721D01*
Y-39962D01*
X-433260D01*
Y-45670D01*
D02*
G37*
G36*
X-118898Y-196260D02*
X-165551D01*
Y-194488D01*
D01*
X-165551D01*
X-165198Y-194488D01*
X-165198Y-194488D01*
Y-194488D01*
X-162992D01*
Y-193504D01*
X-165198D01*
X-165198Y-193504D01*
Y-193504D01*
X-165551Y-193504D01*
X-165551Y-193504D01*
Y-191339D01*
D01*
X-165551D01*
X-165198Y-191339D01*
X-165198Y-191339D01*
Y-191339D01*
X-162992D01*
Y-190157D01*
X-165198D01*
X-165198Y-190157D01*
Y-190157D01*
X-165551Y-190157D01*
X-165551Y-190157D01*
Y-169193D01*
X-196063D01*
Y-118701D01*
X-164173D01*
Y-118701D01*
X-150787D01*
Y-118701D01*
X-118898D01*
Y-196260D01*
D02*
G37*
G36*
X-197638Y-169193D02*
X-228150D01*
Y-190157D01*
X-230709D01*
Y-191339D01*
X-228150D01*
Y-193504D01*
X-230709D01*
Y-194488D01*
X-228150D01*
Y-196260D01*
X-274803D01*
Y-118701D01*
X-242913D01*
Y-118701D01*
X-229528D01*
Y-118701D01*
X-197638D01*
Y-169193D01*
D02*
G37*
G36*
X69685Y-197441D02*
X168012D01*
Y-171653D01*
X225689D01*
Y-197441D01*
X404232D01*
Y-171654D01*
X461909D01*
Y-197441D01*
X490721D01*
Y-208661D01*
X490727Y-208689D01*
X490605Y-209925D01*
X490236Y-211140D01*
X489638Y-212260D01*
X488832Y-213242D01*
X487851Y-214047D01*
X486731Y-214646D01*
X485516Y-215014D01*
X484280Y-215136D01*
X484252Y-215130D01*
X437561D01*
X437511Y-214633D01*
X437819Y-214572D01*
X440092Y-213800D01*
X442244Y-212739D01*
X444239Y-211405D01*
X446044Y-209823D01*
X447626Y-208019D01*
X448959Y-206024D01*
X450021Y-203871D01*
X450792Y-201599D01*
X451260Y-199245D01*
X451378Y-197441D01*
X451417Y-196850D01*
X451260Y-194456D01*
X450792Y-192102D01*
X450021Y-189830D01*
X448959Y-187677D01*
X447626Y-185682D01*
X446044Y-183878D01*
X444239Y-182295D01*
X442244Y-180962D01*
X440092Y-179901D01*
X437819Y-179129D01*
X435465Y-178661D01*
X433071Y-178504D01*
X430676Y-178661D01*
X428322Y-179129D01*
X426050Y-179901D01*
X423898Y-180962D01*
X421902Y-182295D01*
X420098Y-183878D01*
X418516Y-185682D01*
X417182Y-187677D01*
X416121Y-189830D01*
X415350Y-192102D01*
X414881Y-194456D01*
X414724Y-196850D01*
X414763Y-197441D01*
X414881Y-199245D01*
X415350Y-201599D01*
X416121Y-203871D01*
X417182Y-206024D01*
X418516Y-208019D01*
X420098Y-209823D01*
X421902Y-211405D01*
X423898Y-212739D01*
X426050Y-213800D01*
X428322Y-214572D01*
X428630Y-214633D01*
X428581Y-215130D01*
X201340D01*
X201291Y-214633D01*
X201599Y-214572D01*
X203871Y-213800D01*
X206024Y-212739D01*
X208019Y-211405D01*
X209823Y-209823D01*
X211405Y-208019D01*
X212739Y-206024D01*
X213800Y-203871D01*
X214572Y-201599D01*
X215040Y-199245D01*
X215158Y-197441D01*
X215197Y-196850D01*
X215040Y-194456D01*
X214572Y-192102D01*
X213800Y-189830D01*
X212739Y-187677D01*
X211405Y-185682D01*
X209823Y-183878D01*
X208019Y-182295D01*
X206024Y-180962D01*
X203871Y-179901D01*
X201599Y-179129D01*
X199245Y-178661D01*
X196850Y-178504D01*
X194456Y-178661D01*
X192102Y-179129D01*
X189830Y-179901D01*
X187677Y-180962D01*
X185682Y-182295D01*
X183878Y-183878D01*
X182295Y-185682D01*
X180962Y-187677D01*
X179901Y-189830D01*
X179129Y-192102D01*
X178661Y-194456D01*
X178504Y-196850D01*
X178543Y-197441D01*
X178661Y-199245D01*
X179129Y-201599D01*
X179901Y-203871D01*
X180962Y-206024D01*
X182295Y-208019D01*
X183878Y-209823D01*
X185682Y-211405D01*
X187677Y-212739D01*
X189830Y-213800D01*
X192102Y-214572D01*
X192410Y-214633D01*
X192361Y-215130D01*
X44882D01*
Y-197441D01*
Y-23425D01*
X45079D01*
Y-16143D01*
Y-8858D01*
X44291D01*
X42323Y-6890D01*
Y-5315D01*
X42323D01*
Y-3838D01*
X43208D01*
Y-2953D01*
X46457D01*
Y-2953D01*
X50591D01*
X50591Y-2953D01*
X50984D01*
X53248Y-5217D01*
X58957D01*
Y-591D01*
X69685D01*
Y-197441D01*
D02*
G37*
G36*
X274803Y-196260D02*
X228150D01*
Y-194488D01*
D01*
X228150D01*
X228503Y-194488D01*
X228503Y-194488D01*
Y-194488D01*
X230709D01*
Y-193504D01*
X228503D01*
X228503Y-193504D01*
Y-193504D01*
X228150Y-193504D01*
X228150Y-193504D01*
Y-191339D01*
D01*
X228150D01*
X228503Y-191339D01*
X228503Y-191339D01*
Y-191339D01*
X230709D01*
Y-190157D01*
X228503D01*
X228503Y-190157D01*
Y-190157D01*
X228150Y-190157D01*
X228150Y-190157D01*
Y-169193D01*
X197638D01*
Y-118701D01*
X229528D01*
Y-118701D01*
X242913D01*
Y-118701D01*
X274803D01*
Y-196260D01*
D02*
G37*
G36*
X196063Y-169193D02*
X165551D01*
Y-190157D01*
X162992D01*
Y-191339D01*
X165551D01*
Y-193504D01*
X162992D01*
Y-194488D01*
X165551D01*
Y-196260D01*
X118898D01*
Y-118701D01*
X150787D01*
Y-118701D01*
X164173D01*
Y-118701D01*
X196063D01*
Y-169193D01*
D02*
G37*
G36*
X-70669Y-120472D02*
X-73228D01*
Y-121457D01*
X-70669D01*
Y-123622D01*
X-73228D01*
Y-124803D01*
X-70669D01*
Y-190157D01*
X-73228D01*
Y-191339D01*
X-70669D01*
Y-193504D01*
X-73228D01*
Y-194488D01*
X-70669D01*
Y-196260D01*
X-117323D01*
Y-118701D01*
X-85433D01*
Y-118701D01*
X-72047D01*
Y-118701D01*
X-70669D01*
Y-120472D01*
D02*
G37*
G36*
X353543Y-115551D02*
Y-117520D01*
X276378D01*
Y-114764D01*
Y-39961D01*
X353543D01*
Y-115551D01*
D02*
G37*
G36*
X-276378Y36811D02*
Y-38780D01*
X-353543D01*
Y36024D01*
Y38780D01*
X-276378D01*
Y36811D01*
D02*
G37*
G36*
X-197638D02*
Y-38780D01*
X-274803D01*
Y36024D01*
Y38780D01*
X-197638D01*
Y36811D01*
D02*
G37*
G36*
X-118898D02*
Y-38780D01*
X-196063D01*
Y36024D01*
Y38780D01*
X-118898D01*
Y36811D01*
D02*
G37*
G36*
X-34668Y167316D02*
X-33860Y166981D01*
X-31721Y166468D01*
X-29528Y166295D01*
X-27334Y166468D01*
X-25195Y166981D01*
X-24418Y167304D01*
X24564Y167243D01*
X25195Y166981D01*
X27334Y166468D01*
X29528Y166295D01*
X31721Y166468D01*
X33860Y166981D01*
X34461Y167230D01*
X39370Y167224D01*
Y49803D01*
X38976D01*
Y43986D01*
X38959Y43898D01*
Y7185D01*
X39028Y6839D01*
X39223Y6546D01*
X39961Y5809D01*
Y5217D01*
X39961D01*
Y2362D01*
Y2165D01*
X43210D01*
Y394D01*
X39961D01*
Y-197D01*
Y-394D01*
X43210D01*
Y-2165D01*
X39961D01*
Y-2756D01*
Y-5315D01*
X40551D01*
Y-6693D01*
X44291Y-10433D01*
Y-23308D01*
X44243Y-23425D01*
Y-146358D01*
Y-215130D01*
X-44291D01*
Y-194781D01*
X-39223Y-189713D01*
X-39223Y-189713D01*
X-39028Y-189420D01*
X-39016Y-189363D01*
X-38959Y-189075D01*
X-38959Y-189075D01*
Y-167940D01*
X-39028Y-167594D01*
X-39223Y-167301D01*
X-42305Y-164219D01*
Y-162795D01*
X-39960D01*
Y-162795D01*
Y-160236D01*
Y-159645D01*
X-43209D01*
Y-157874D01*
X-39960D01*
Y-157677D01*
Y-157087D01*
X-43209D01*
Y-155315D01*
X-39960D01*
Y-155118D01*
Y-152165D01*
X-40551D01*
Y-150394D01*
X-41339D01*
X-44291Y-147441D01*
Y-134055D01*
X-44291D01*
Y-133465D01*
X-44882D01*
Y-112402D01*
X-39862Y-107382D01*
Y137066D01*
Y166969D01*
X-39508Y167322D01*
X-34668Y167316D01*
D02*
G37*
G36*
X490721Y-117520D02*
X433760D01*
Y-111811D01*
Y-39961D01*
X490721D01*
Y-117520D01*
D02*
G37*
G36*
X432283Y-115551D02*
Y-117520D01*
X355118D01*
Y-114764D01*
Y-39961D01*
X432283D01*
Y-115551D01*
D02*
G37*
%LPC*%
G36*
X-162992Y-111417D02*
X-165551D01*
Y-112598D01*
X-162992D01*
Y-111417D01*
D02*
G37*
G36*
X244291Y-44882D02*
X241732D01*
Y-46063D01*
X244291D01*
Y-44882D01*
D02*
G37*
G36*
X-228150Y-111417D02*
X-230709D01*
Y-112598D01*
X-228150D01*
Y-111417D01*
D02*
G37*
G36*
X401772Y-114764D02*
X399213D01*
Y-115748D01*
X401772D01*
Y-114764D01*
D02*
G37*
G36*
X388189D02*
X385630D01*
Y-115748D01*
X388189D01*
Y-114764D01*
D02*
G37*
G36*
X244291D02*
X241732D01*
Y-115748D01*
X244291D01*
Y-114764D01*
D02*
G37*
G36*
X151969Y-44882D02*
X149409D01*
Y-46063D01*
X151969D01*
Y-44882D01*
D02*
G37*
G36*
X323031Y-114764D02*
X320472D01*
Y-115748D01*
X323031D01*
Y-114764D01*
D02*
G37*
G36*
X309449D02*
X306890D01*
Y-115748D01*
X309449D01*
Y-114764D01*
D02*
G37*
G36*
X165551Y-44882D02*
X162992D01*
Y-46063D01*
X165551D01*
Y-44882D01*
D02*
G37*
G36*
X-84252Y-111417D02*
X-86811D01*
Y-112598D01*
X-84252D01*
Y-111417D01*
D02*
G37*
G36*
X-149409D02*
X-151969D01*
Y-112598D01*
X-149409D01*
Y-111417D01*
D02*
G37*
G36*
X230709Y-44882D02*
X228150D01*
Y-46063D01*
X230709D01*
Y-44882D01*
D02*
G37*
G36*
X86811D02*
X84252D01*
Y-46063D01*
X86811D01*
Y-44882D01*
D02*
G37*
G36*
X-241732Y-111417D02*
X-244291D01*
Y-112598D01*
X-241732D01*
Y-111417D01*
D02*
G37*
G36*
X-228150Y-114764D02*
X-230709D01*
Y-115748D01*
X-228150D01*
Y-114764D01*
D02*
G37*
G36*
X-162992D02*
X-165551D01*
Y-115748D01*
X-162992D01*
Y-114764D01*
D02*
G37*
G36*
X-149409D02*
X-151969D01*
Y-115748D01*
X-149409D01*
Y-114764D01*
D02*
G37*
G36*
X-241732D02*
X-244291D01*
Y-115748D01*
X-241732D01*
Y-114764D01*
D02*
G37*
G36*
X-385630D02*
X-388189D01*
Y-115748D01*
X-385630D01*
Y-114764D01*
D02*
G37*
G36*
X-320472D02*
X-323031D01*
Y-115748D01*
X-320472D01*
Y-114764D01*
D02*
G37*
G36*
X-306890D02*
X-309449D01*
Y-115748D01*
X-306890D01*
Y-114764D01*
D02*
G37*
G36*
X-84252D02*
X-86811D01*
Y-115748D01*
X-84252D01*
Y-114764D01*
D02*
G37*
G36*
X244291Y-111417D02*
X241732D01*
Y-112599D01*
X244291D01*
Y-111417D01*
D02*
G37*
G36*
X309449D02*
X306890D01*
Y-112599D01*
X309449D01*
Y-111417D01*
D02*
G37*
G36*
X323031D02*
X320472D01*
Y-112599D01*
X323031D01*
Y-111417D01*
D02*
G37*
G36*
X230709D02*
X228150D01*
Y-112599D01*
X230709D01*
Y-111417D01*
D02*
G37*
G36*
X86811D02*
X84252D01*
Y-112599D01*
X86811D01*
Y-111417D01*
D02*
G37*
G36*
X151969D02*
X149409D01*
Y-112599D01*
X151969D01*
Y-111417D01*
D02*
G37*
G36*
X165551D02*
X162992D01*
Y-112599D01*
X165551D01*
Y-111417D01*
D02*
G37*
G36*
X-464370Y-111417D02*
X-466929D01*
Y-112598D01*
X-464370D01*
Y-111417D01*
D02*
G37*
G36*
X-477953D02*
X-480512D01*
Y-112598D01*
X-477953D01*
Y-111417D01*
D02*
G37*
G36*
X480512Y-111417D02*
X477953D01*
Y-112599D01*
X480512D01*
Y-111417D01*
D02*
G37*
G36*
X-399213Y-111417D02*
X-401772D01*
Y-112598D01*
X-399213D01*
Y-111417D01*
D02*
G37*
G36*
X-306890D02*
X-309449D01*
Y-112598D01*
X-306890D01*
Y-111417D01*
D02*
G37*
G36*
X-320472D02*
X-323031D01*
Y-112598D01*
X-320472D01*
Y-111417D01*
D02*
G37*
G36*
X-385630D02*
X-388189D01*
Y-112598D01*
X-385630D01*
Y-111417D01*
D02*
G37*
G36*
X466929Y-111417D02*
X464370D01*
Y-112599D01*
X466929D01*
Y-111417D01*
D02*
G37*
G36*
X-477953Y-114764D02*
X-480512D01*
Y-115748D01*
X-477953D01*
Y-114764D01*
D02*
G37*
G36*
X-464370D02*
X-466929D01*
Y-115748D01*
X-464370D01*
Y-114764D01*
D02*
G37*
G36*
X-399213D02*
X-401772D01*
Y-115748D01*
X-399213D01*
Y-114764D01*
D02*
G37*
G36*
X480512Y-114764D02*
X477953D01*
Y-115748D01*
X480512D01*
Y-114764D01*
D02*
G37*
G36*
X401772Y-111417D02*
X399213D01*
Y-112599D01*
X401772D01*
Y-111417D01*
D02*
G37*
G36*
X388189D02*
X385630D01*
Y-112599D01*
X388189D01*
Y-111417D01*
D02*
G37*
G36*
X466929Y-114764D02*
X464370D01*
Y-115748D01*
X466929D01*
Y-114764D01*
D02*
G37*
G36*
X309449Y-44882D02*
X306890D01*
Y-46063D01*
X309449D01*
Y-44882D01*
D02*
G37*
G36*
X-399213Y-36024D02*
X-401772D01*
Y-37008D01*
X-399213D01*
Y-36024D01*
D02*
G37*
G36*
X-385630D02*
X-388189D01*
Y-37008D01*
X-385630D01*
Y-36024D01*
D02*
G37*
G36*
X-477953D02*
X-480512D01*
Y-37008D01*
X-477953D01*
Y-36024D01*
D02*
G37*
G36*
X-464370D02*
X-466929D01*
Y-37008D01*
X-464370D01*
Y-36024D01*
D02*
G37*
G36*
X-320472D02*
X-323031D01*
Y-37008D01*
X-320472D01*
Y-36024D01*
D02*
G37*
G36*
X-228150D02*
X-230709D01*
Y-37008D01*
X-228150D01*
Y-36024D01*
D02*
G37*
G36*
X-162992D02*
X-165551D01*
Y-37008D01*
X-162992D01*
Y-36024D01*
D02*
G37*
G36*
X-306890D02*
X-309449D01*
Y-37008D01*
X-306890D01*
Y-36024D01*
D02*
G37*
G36*
X-241732D02*
X-244291D01*
Y-37008D01*
X-241732D01*
Y-36024D01*
D02*
G37*
G36*
X480512Y-36024D02*
X477953D01*
Y-37008D01*
X480512D01*
Y-36024D01*
D02*
G37*
G36*
X230709D02*
X228150D01*
Y-37008D01*
X230709D01*
Y-36024D01*
D02*
G37*
G36*
X244291D02*
X241732D01*
Y-37008D01*
X244291D01*
Y-36024D01*
D02*
G37*
G36*
X151969D02*
X149409D01*
Y-37008D01*
X151969D01*
Y-36024D01*
D02*
G37*
G36*
X165551D02*
X162992D01*
Y-37008D01*
X165551D01*
Y-36024D01*
D02*
G37*
G36*
X309449D02*
X306890D01*
Y-37008D01*
X309449D01*
Y-36024D01*
D02*
G37*
G36*
X401772D02*
X399213D01*
Y-37008D01*
X401772D01*
Y-36024D01*
D02*
G37*
G36*
X466929D02*
X464370D01*
Y-37008D01*
X466929D01*
Y-36024D01*
D02*
G37*
G36*
X323031D02*
X320472D01*
Y-37008D01*
X323031D01*
Y-36024D01*
D02*
G37*
G36*
X388189D02*
X385630D01*
Y-37008D01*
X388189D01*
Y-36024D01*
D02*
G37*
G36*
X-149409Y-36024D02*
X-151969D01*
Y-37008D01*
X-149409D01*
Y-36024D01*
D02*
G37*
G36*
X-477953Y-32677D02*
X-480512D01*
Y-33858D01*
X-477953D01*
Y-32677D01*
D02*
G37*
G36*
X-464370D02*
X-466929D01*
Y-33858D01*
X-464370D01*
Y-32677D01*
D02*
G37*
G36*
X466929Y-32677D02*
X464370D01*
Y-33858D01*
X466929D01*
Y-32677D01*
D02*
G37*
G36*
X480512D02*
X477953D01*
Y-33858D01*
X480512D01*
Y-32677D01*
D02*
G37*
G36*
X-399213Y-32677D02*
X-401772D01*
Y-33858D01*
X-399213D01*
Y-32677D01*
D02*
G37*
G36*
X-306890D02*
X-309449D01*
Y-33858D01*
X-306890D01*
Y-32677D01*
D02*
G37*
G36*
X-241732D02*
X-244291D01*
Y-33858D01*
X-241732D01*
Y-32677D01*
D02*
G37*
G36*
X-385630D02*
X-388189D01*
Y-33858D01*
X-385630D01*
Y-32677D01*
D02*
G37*
G36*
X-320472D02*
X-323031D01*
Y-33858D01*
X-320472D01*
Y-32677D01*
D02*
G37*
G36*
X401772Y-32677D02*
X399213D01*
Y-33858D01*
X401772D01*
Y-32677D01*
D02*
G37*
G36*
X151969D02*
X149409D01*
Y-33858D01*
X151969D01*
Y-32677D01*
D02*
G37*
G36*
X165551D02*
X162992D01*
Y-33858D01*
X165551D01*
Y-32677D01*
D02*
G37*
G36*
X-84252Y-36024D02*
X-86811D01*
Y-37008D01*
X-84252D01*
Y-36024D01*
D02*
G37*
G36*
X86811Y-32677D02*
X84252D01*
Y-33858D01*
X86811D01*
Y-32677D01*
D02*
G37*
G36*
X230709D02*
X228150D01*
Y-33858D01*
X230709D01*
Y-32677D01*
D02*
G37*
G36*
X323031D02*
X320472D01*
Y-33858D01*
X323031D01*
Y-32677D01*
D02*
G37*
G36*
X388189D02*
X385630D01*
Y-33858D01*
X388189D01*
Y-32677D01*
D02*
G37*
G36*
X244291D02*
X241732D01*
Y-33858D01*
X244291D01*
Y-32677D01*
D02*
G37*
G36*
X309449D02*
X306890D01*
Y-33858D01*
X309449D01*
Y-32677D01*
D02*
G37*
G36*
X-228150Y-44882D02*
X-230709D01*
Y-46063D01*
X-228150D01*
Y-44882D01*
D02*
G37*
G36*
X-162992D02*
X-165551D01*
Y-46063D01*
X-162992D01*
Y-44882D01*
D02*
G37*
G36*
X-306890D02*
X-309449D01*
Y-46063D01*
X-306890D01*
Y-44882D01*
D02*
G37*
G36*
X-241732D02*
X-244291D01*
Y-46063D01*
X-241732D01*
Y-44882D01*
D02*
G37*
G36*
X-149409D02*
X-151969D01*
Y-46063D01*
X-149409D01*
Y-44882D01*
D02*
G37*
G36*
X151969Y-41732D02*
X149409D01*
Y-42717D01*
X151969D01*
Y-41732D01*
D02*
G37*
G36*
X165551D02*
X162992D01*
Y-42717D01*
X165551D01*
Y-41732D01*
D02*
G37*
G36*
X-84252Y-44882D02*
X-86811D01*
Y-46063D01*
X-84252D01*
Y-44882D01*
D02*
G37*
G36*
X86811Y-41732D02*
X84252D01*
Y-42717D01*
X86811D01*
Y-41732D01*
D02*
G37*
G36*
X-320472Y-44882D02*
X-323031D01*
Y-46063D01*
X-320472D01*
Y-44882D01*
D02*
G37*
G36*
X401772Y-44882D02*
X399213D01*
Y-46063D01*
X401772D01*
Y-44882D01*
D02*
G37*
G36*
X466929D02*
X464370D01*
Y-46063D01*
X466929D01*
Y-44882D01*
D02*
G37*
G36*
X323031D02*
X320472D01*
Y-46063D01*
X323031D01*
Y-44882D01*
D02*
G37*
G36*
X388189D02*
X385630D01*
Y-46063D01*
X388189D01*
Y-44882D01*
D02*
G37*
G36*
X480512D02*
X477953D01*
Y-46063D01*
X480512D01*
Y-44882D01*
D02*
G37*
G36*
X-399213Y-44882D02*
X-401772D01*
Y-46063D01*
X-399213D01*
Y-44882D01*
D02*
G37*
G36*
X-385630D02*
X-388189D01*
Y-46063D01*
X-385630D01*
Y-44882D01*
D02*
G37*
G36*
X-477953D02*
X-480512D01*
Y-46063D01*
X-477953D01*
Y-44882D01*
D02*
G37*
G36*
X-464370D02*
X-466929D01*
Y-46063D01*
X-464370D01*
Y-44882D01*
D02*
G37*
G36*
X230709Y-41732D02*
X228150D01*
Y-42717D01*
X230709D01*
Y-41732D01*
D02*
G37*
G36*
X-306890Y-41732D02*
X-309449D01*
Y-42717D01*
X-306890D01*
Y-41732D01*
D02*
G37*
G36*
X-241732D02*
X-244291D01*
Y-42717D01*
X-241732D01*
Y-41732D01*
D02*
G37*
G36*
X-385630D02*
X-388189D01*
Y-42717D01*
X-385630D01*
Y-41732D01*
D02*
G37*
G36*
X-320472D02*
X-323031D01*
Y-42717D01*
X-320472D01*
Y-41732D01*
D02*
G37*
G36*
X-228150D02*
X-230709D01*
Y-42717D01*
X-228150D01*
Y-41732D01*
D02*
G37*
G36*
X-84252D02*
X-86811D01*
Y-42717D01*
X-84252D01*
Y-41732D01*
D02*
G37*
G36*
X86811Y-36024D02*
X84252D01*
Y-37008D01*
X86811D01*
Y-36024D01*
D02*
G37*
G36*
X-162992Y-41732D02*
X-165551D01*
Y-42717D01*
X-162992D01*
Y-41732D01*
D02*
G37*
G36*
X-149409D02*
X-151969D01*
Y-42717D01*
X-149409D01*
Y-41732D01*
D02*
G37*
G36*
X-399213D02*
X-401772D01*
Y-42717D01*
X-399213D01*
Y-41732D01*
D02*
G37*
G36*
X323031Y-41732D02*
X320472D01*
Y-42717D01*
X323031D01*
Y-41732D01*
D02*
G37*
G36*
X388189D02*
X385630D01*
Y-42717D01*
X388189D01*
Y-41732D01*
D02*
G37*
G36*
X244291D02*
X241732D01*
Y-42717D01*
X244291D01*
Y-41732D01*
D02*
G37*
G36*
X309449D02*
X306890D01*
Y-42717D01*
X309449D01*
Y-41732D01*
D02*
G37*
G36*
X401772D02*
X399213D01*
Y-42717D01*
X401772D01*
Y-41732D01*
D02*
G37*
G36*
X-477953Y-41732D02*
X-480512D01*
Y-42717D01*
X-477953D01*
Y-41732D01*
D02*
G37*
G36*
X-464370D02*
X-466929D01*
Y-42717D01*
X-464370D01*
Y-41732D01*
D02*
G37*
G36*
X466929Y-41732D02*
X464370D01*
Y-42717D01*
X466929D01*
Y-41732D01*
D02*
G37*
G36*
X480512D02*
X477953D01*
Y-42717D01*
X480512D01*
Y-41732D01*
D02*
G37*
G36*
X230709Y-114764D02*
X228150D01*
Y-115748D01*
X230709D01*
Y-114764D01*
D02*
G37*
G36*
X151969Y-193504D02*
X149409D01*
Y-194488D01*
X151969D01*
Y-193504D01*
D02*
G37*
G36*
X244291D02*
X241732D01*
Y-194488D01*
X244291D01*
Y-193504D01*
D02*
G37*
G36*
X-70669Y-199213D02*
X-73228D01*
Y-200197D01*
X-70669D01*
Y-199213D01*
D02*
G37*
G36*
X86811Y-193504D02*
X84252D01*
Y-194488D01*
X86811D01*
Y-193504D01*
D02*
G37*
G36*
X309449D02*
X306890D01*
Y-194488D01*
X309449D01*
Y-193504D01*
D02*
G37*
G36*
X480512D02*
X477953D01*
Y-194488D01*
X480512D01*
Y-193504D01*
D02*
G37*
G36*
X-477953Y-193504D02*
X-480512D01*
Y-194488D01*
X-477953D01*
Y-193504D01*
D02*
G37*
G36*
X323031Y-193504D02*
X320472D01*
Y-194488D01*
X323031D01*
Y-193504D01*
D02*
G37*
G36*
X388189D02*
X385630D01*
Y-194488D01*
X388189D01*
Y-193504D01*
D02*
G37*
G36*
X-320472Y-199213D02*
X-323031D01*
Y-200197D01*
X-320472D01*
Y-199213D01*
D02*
G37*
G36*
X-306890D02*
X-309449D01*
Y-200197D01*
X-306890D01*
Y-199213D01*
D02*
G37*
G36*
X-399213D02*
X-401772D01*
Y-200197D01*
X-399213D01*
Y-199213D01*
D02*
G37*
G36*
X-385630D02*
X-388189D01*
Y-200197D01*
X-385630D01*
Y-199213D01*
D02*
G37*
G36*
X-241732D02*
X-244291D01*
Y-200197D01*
X-241732D01*
Y-199213D01*
D02*
G37*
G36*
X-149409D02*
X-151969D01*
Y-200197D01*
X-149409D01*
Y-199213D01*
D02*
G37*
G36*
X-84252D02*
X-86811D01*
Y-200197D01*
X-84252D01*
Y-199213D01*
D02*
G37*
G36*
X-228150D02*
X-230709D01*
Y-200197D01*
X-228150D01*
Y-199213D01*
D02*
G37*
G36*
X-162992D02*
X-165551D01*
Y-200197D01*
X-162992D01*
Y-199213D01*
D02*
G37*
G36*
X-385630Y-193504D02*
X-388189D01*
Y-194488D01*
X-385630D01*
Y-193504D01*
D02*
G37*
G36*
X480512Y-190157D02*
X477953D01*
Y-191339D01*
X480512D01*
Y-190157D01*
D02*
G37*
G36*
X-477953Y-190157D02*
X-480512D01*
Y-191339D01*
X-477953D01*
Y-190157D01*
D02*
G37*
G36*
X323031Y-190157D02*
X320472D01*
Y-191339D01*
X323031D01*
Y-190157D01*
D02*
G37*
G36*
X388189D02*
X385630D01*
Y-191339D01*
X388189D01*
Y-190157D01*
D02*
G37*
G36*
X-385630Y-190157D02*
X-388189D01*
Y-191339D01*
X-385630D01*
Y-190157D01*
D02*
G37*
G36*
X-241732D02*
X-244291D01*
Y-191339D01*
X-241732D01*
Y-190157D01*
D02*
G37*
G36*
X-149409D02*
X-151969D01*
Y-191339D01*
X-149409D01*
Y-190157D01*
D02*
G37*
G36*
X-320472D02*
X-323031D01*
Y-191339D01*
X-320472D01*
Y-190157D01*
D02*
G37*
G36*
X-306890D02*
X-309449D01*
Y-191339D01*
X-306890D01*
Y-190157D01*
D02*
G37*
G36*
X-241732Y-193504D02*
X-244291D01*
Y-194488D01*
X-241732D01*
Y-193504D01*
D02*
G37*
G36*
X-149409D02*
X-151969D01*
Y-194488D01*
X-149409D01*
Y-193504D01*
D02*
G37*
G36*
X-320472D02*
X-323031D01*
Y-194488D01*
X-320472D01*
Y-193504D01*
D02*
G37*
G36*
X-306890D02*
X-309449D01*
Y-194488D01*
X-306890D01*
Y-193504D01*
D02*
G37*
G36*
X-84252D02*
X-86811D01*
Y-194488D01*
X-84252D01*
Y-193504D01*
D02*
G37*
G36*
X244291Y-190157D02*
X241732D01*
Y-191339D01*
X244291D01*
Y-190157D01*
D02*
G37*
G36*
X309449D02*
X306890D01*
Y-191339D01*
X309449D01*
Y-190157D01*
D02*
G37*
G36*
X86811D02*
X84252D01*
Y-191339D01*
X86811D01*
Y-190157D01*
D02*
G37*
G36*
X151969D02*
X149409D01*
Y-191339D01*
X151969D01*
Y-190157D01*
D02*
G37*
G36*
X-464370Y-199213D02*
X-466929D01*
Y-200197D01*
X-464370D01*
Y-199213D01*
D02*
G37*
G36*
X480512Y-202362D02*
X477953D01*
Y-203543D01*
X480512D01*
Y-202362D01*
D02*
G37*
G36*
X-477953Y-202362D02*
X-480512D01*
Y-203543D01*
X-477953D01*
Y-202362D01*
D02*
G37*
G36*
X401772Y-202362D02*
X399213D01*
Y-203543D01*
X401772D01*
Y-202362D01*
D02*
G37*
G36*
X466929D02*
X464370D01*
Y-203543D01*
X466929D01*
Y-202362D01*
D02*
G37*
G36*
X-464370Y-202362D02*
X-466929D01*
Y-203543D01*
X-464370D01*
Y-202362D01*
D02*
G37*
G36*
X-320472D02*
X-323031D01*
Y-203543D01*
X-320472D01*
Y-202362D01*
D02*
G37*
G36*
X-306890D02*
X-309449D01*
Y-203543D01*
X-306890D01*
Y-202362D01*
D02*
G37*
G36*
X-399213D02*
X-401772D01*
Y-203543D01*
X-399213D01*
Y-202362D01*
D02*
G37*
G36*
X-385630D02*
X-388189D01*
Y-203543D01*
X-385630D01*
Y-202362D01*
D02*
G37*
G36*
X151969Y-202362D02*
X149409D01*
Y-203543D01*
X151969D01*
Y-202362D01*
D02*
G37*
G36*
X165551D02*
X162992D01*
Y-203543D01*
X165551D01*
Y-202362D01*
D02*
G37*
G36*
X73228D02*
X70669D01*
Y-203543D01*
X73228D01*
Y-202362D01*
D02*
G37*
G36*
X86811D02*
X84252D01*
Y-203543D01*
X86811D01*
Y-202362D01*
D02*
G37*
G36*
X230709D02*
X228150D01*
Y-203543D01*
X230709D01*
Y-202362D01*
D02*
G37*
G36*
X323031D02*
X320472D01*
Y-203543D01*
X323031D01*
Y-202362D01*
D02*
G37*
G36*
X388189D02*
X385630D01*
Y-203543D01*
X388189D01*
Y-202362D01*
D02*
G37*
G36*
X244291D02*
X241732D01*
Y-203543D01*
X244291D01*
Y-202362D01*
D02*
G37*
G36*
X309449D02*
X306890D01*
Y-203543D01*
X309449D01*
Y-202362D01*
D02*
G37*
G36*
X-241732Y-202362D02*
X-244291D01*
Y-203543D01*
X-241732D01*
Y-202362D01*
D02*
G37*
G36*
X309449Y-199213D02*
X306890D01*
Y-200197D01*
X309449D01*
Y-199213D01*
D02*
G37*
G36*
X323031D02*
X320472D01*
Y-200197D01*
X323031D01*
Y-199213D01*
D02*
G37*
G36*
X230709D02*
X228150D01*
Y-200197D01*
X230709D01*
Y-199213D01*
D02*
G37*
G36*
X244291D02*
X241732D01*
Y-200197D01*
X244291D01*
Y-199213D01*
D02*
G37*
G36*
X388189D02*
X385630D01*
Y-200197D01*
X388189D01*
Y-199213D01*
D02*
G37*
G36*
X480512D02*
X477953D01*
Y-200197D01*
X480512D01*
Y-199213D01*
D02*
G37*
G36*
X-477953Y-199213D02*
X-480512D01*
Y-200197D01*
X-477953D01*
Y-199213D01*
D02*
G37*
G36*
X401772Y-199213D02*
X399213D01*
Y-200197D01*
X401772D01*
Y-199213D01*
D02*
G37*
G36*
X466929D02*
X464370D01*
Y-200197D01*
X466929D01*
Y-199213D01*
D02*
G37*
G36*
X-149409Y-202362D02*
X-151969D01*
Y-203543D01*
X-149409D01*
Y-202362D01*
D02*
G37*
G36*
X-84252D02*
X-86811D01*
Y-203543D01*
X-84252D01*
Y-202362D01*
D02*
G37*
G36*
X-228150D02*
X-230709D01*
Y-203543D01*
X-228150D01*
Y-202362D01*
D02*
G37*
G36*
X-162992D02*
X-165551D01*
Y-203543D01*
X-162992D01*
Y-202362D01*
D02*
G37*
G36*
X-70669D02*
X-73228D01*
Y-203543D01*
X-70669D01*
Y-202362D01*
D02*
G37*
G36*
X151969Y-199213D02*
X149409D01*
Y-200197D01*
X151969D01*
Y-199213D01*
D02*
G37*
G36*
X165551D02*
X162992D01*
Y-200197D01*
X165551D01*
Y-199213D01*
D02*
G37*
G36*
X73228D02*
X70669D01*
Y-200197D01*
X73228D01*
Y-199213D01*
D02*
G37*
G36*
X86811D02*
X84252D01*
Y-200197D01*
X86811D01*
Y-199213D01*
D02*
G37*
G36*
X-84252Y-190157D02*
X-86811D01*
Y-191339D01*
X-84252D01*
Y-190157D01*
D02*
G37*
G36*
Y-123622D02*
X-86811D01*
Y-124803D01*
X-84252D01*
Y-123622D01*
D02*
G37*
G36*
X86811Y-120472D02*
X84252D01*
Y-121457D01*
X86811D01*
Y-120472D01*
D02*
G37*
G36*
X-162992Y-123622D02*
X-165551D01*
Y-124803D01*
X-162992D01*
Y-123622D01*
D02*
G37*
G36*
X-149409D02*
X-151969D01*
Y-124803D01*
X-149409D01*
Y-123622D01*
D02*
G37*
G36*
X151969Y-120472D02*
X149409D01*
Y-121457D01*
X151969D01*
Y-120472D01*
D02*
G37*
G36*
X244291D02*
X241732D01*
Y-121457D01*
X244291D01*
Y-120472D01*
D02*
G37*
G36*
X309449D02*
X306890D01*
Y-121457D01*
X309449D01*
Y-120472D01*
D02*
G37*
G36*
X165551D02*
X162992D01*
Y-121457D01*
X165551D01*
Y-120472D01*
D02*
G37*
G36*
X230709D02*
X228150D01*
Y-121457D01*
X230709D01*
Y-120472D01*
D02*
G37*
G36*
X-464370Y-123622D02*
X-466929D01*
Y-124803D01*
X-464370D01*
Y-123622D01*
D02*
G37*
G36*
X-399213D02*
X-401772D01*
Y-124803D01*
X-399213D01*
Y-123622D01*
D02*
G37*
G36*
X480512Y-123622D02*
X477953D01*
Y-124803D01*
X480512D01*
Y-123622D01*
D02*
G37*
G36*
X-477953Y-123622D02*
X-480512D01*
Y-124803D01*
X-477953D01*
Y-123622D01*
D02*
G37*
G36*
X-385630D02*
X-388189D01*
Y-124803D01*
X-385630D01*
Y-123622D01*
D02*
G37*
G36*
X-241732D02*
X-244291D01*
Y-124803D01*
X-241732D01*
Y-123622D01*
D02*
G37*
G36*
X-228150D02*
X-230709D01*
Y-124803D01*
X-228150D01*
Y-123622D01*
D02*
G37*
G36*
X-320472D02*
X-323031D01*
Y-124803D01*
X-320472D01*
Y-123622D01*
D02*
G37*
G36*
X-306890D02*
X-309449D01*
Y-124803D01*
X-306890D01*
Y-123622D01*
D02*
G37*
G36*
X323031Y-120472D02*
X320472D01*
Y-121457D01*
X323031D01*
Y-120472D01*
D02*
G37*
G36*
X-228150Y-120472D02*
X-230709D01*
Y-121457D01*
X-228150D01*
Y-120472D01*
D02*
G37*
G36*
X-162992D02*
X-165551D01*
Y-121457D01*
X-162992D01*
Y-120472D01*
D02*
G37*
G36*
X-306890D02*
X-309449D01*
Y-121457D01*
X-306890D01*
Y-120472D01*
D02*
G37*
G36*
X-241732D02*
X-244291D01*
Y-121457D01*
X-241732D01*
Y-120472D01*
D02*
G37*
G36*
X-149409D02*
X-151969D01*
Y-121457D01*
X-149409D01*
Y-120472D01*
D02*
G37*
G36*
X151969Y-114764D02*
X149409D01*
Y-115748D01*
X151969D01*
Y-114764D01*
D02*
G37*
G36*
X165551D02*
X162992D01*
Y-115748D01*
X165551D01*
Y-114764D01*
D02*
G37*
G36*
X-84252Y-120472D02*
X-86811D01*
Y-121457D01*
X-84252D01*
Y-120472D01*
D02*
G37*
G36*
X86811Y-114764D02*
X84252D01*
Y-115748D01*
X86811D01*
Y-114764D01*
D02*
G37*
G36*
X466929Y-120472D02*
X464370D01*
Y-121457D01*
X466929D01*
Y-120472D01*
D02*
G37*
G36*
X480512D02*
X477953D01*
Y-121457D01*
X480512D01*
Y-120472D01*
D02*
G37*
G36*
X388189D02*
X385630D01*
Y-121457D01*
X388189D01*
Y-120472D01*
D02*
G37*
G36*
X401772D02*
X399213D01*
Y-121457D01*
X401772D01*
Y-120472D01*
D02*
G37*
G36*
X-477953Y-120472D02*
X-480512D01*
Y-121457D01*
X-477953D01*
Y-120472D01*
D02*
G37*
G36*
X-385630D02*
X-388189D01*
Y-121457D01*
X-385630D01*
Y-120472D01*
D02*
G37*
G36*
X-320472D02*
X-323031D01*
Y-121457D01*
X-320472D01*
Y-120472D01*
D02*
G37*
G36*
X-464370D02*
X-466929D01*
Y-121457D01*
X-464370D01*
Y-120472D01*
D02*
G37*
G36*
X-399213D02*
X-401772D01*
Y-121457D01*
X-399213D01*
Y-120472D01*
D02*
G37*
G36*
X466929Y-123622D02*
X464370D01*
Y-124803D01*
X466929D01*
Y-123622D01*
D02*
G37*
G36*
X-62894Y-158563D02*
X-64370D01*
Y-159449D01*
X-62894D01*
Y-158563D01*
D02*
G37*
G36*
X-59646D02*
X-61122D01*
Y-159449D01*
X-59646D01*
Y-158563D01*
D02*
G37*
G36*
Y-161220D02*
X-61122D01*
Y-162106D01*
X-59646D01*
Y-161220D01*
D02*
G37*
G36*
X-38583Y-160630D02*
X-39370D01*
Y-162008D01*
X-38583D01*
Y-160630D01*
D02*
G37*
G36*
X-62894Y-155315D02*
X-64370D01*
Y-156201D01*
X-62894D01*
Y-155315D01*
D02*
G37*
G36*
Y-152657D02*
X-64370D01*
Y-153543D01*
X-62894D01*
Y-152657D01*
D02*
G37*
G36*
X-59646D02*
X-61122D01*
Y-153543D01*
X-59646D01*
Y-152657D01*
D02*
G37*
G36*
Y-155315D02*
X-61122D01*
Y-156201D01*
X-59646D01*
Y-155315D01*
D02*
G37*
G36*
X-38583Y-152953D02*
X-39370D01*
Y-154331D01*
X-38583D01*
Y-152953D01*
D02*
G37*
G36*
X-56791Y-166142D02*
X-58268D01*
Y-167028D01*
X-56791D01*
Y-166142D01*
D02*
G37*
G36*
X-53543D02*
X-55020D01*
Y-167028D01*
X-53543D01*
Y-166142D01*
D02*
G37*
G36*
X-48524Y-181496D02*
X-50590D01*
Y-188976D01*
X-48524D01*
Y-181496D01*
D02*
G37*
G36*
Y-167716D02*
X-50590D01*
Y-175197D01*
X-48524D01*
Y-167716D01*
D02*
G37*
G36*
X-147638Y-129291D02*
X-150032Y-129448D01*
X-152386Y-129917D01*
X-154659Y-130688D01*
X-156811Y-131749D01*
X-158806Y-133083D01*
X-160611Y-134665D01*
X-162193Y-136469D01*
X-163526Y-138465D01*
X-164588Y-140617D01*
X-165359Y-142889D01*
X-165827Y-145243D01*
X-165984Y-147638D01*
X-165827Y-150032D01*
X-165359Y-152386D01*
X-164588Y-154659D01*
X-163526Y-156811D01*
X-162193Y-158806D01*
X-160611Y-160611D01*
X-158806Y-162193D01*
X-156811Y-163526D01*
X-154659Y-164588D01*
X-152386Y-165359D01*
X-150032Y-165827D01*
X-147638Y-165984D01*
X-145243Y-165827D01*
X-142889Y-165359D01*
X-140617Y-164588D01*
X-138465Y-163526D01*
X-136469Y-162193D01*
X-134665Y-160611D01*
X-133083Y-158806D01*
X-131749Y-156811D01*
X-130688Y-154659D01*
X-129917Y-152386D01*
X-129448Y-150032D01*
X-129291Y-147638D01*
X-129448Y-145243D01*
X-129917Y-142889D01*
X-130688Y-140617D01*
X-131749Y-138465D01*
X-133083Y-136469D01*
X-134665Y-134665D01*
X-136469Y-133083D01*
X-138465Y-131749D01*
X-140617Y-130688D01*
X-142889Y-129917D01*
X-145243Y-129448D01*
X-147638Y-129291D01*
D02*
G37*
G36*
X-53543Y-163484D02*
X-55020D01*
Y-164370D01*
X-53543D01*
Y-163484D01*
D02*
G37*
G36*
X-62894Y-161220D02*
X-64370D01*
Y-162106D01*
X-62894D01*
Y-161220D01*
D02*
G37*
G36*
X147638Y-129291D02*
X145243Y-129448D01*
X142889Y-129917D01*
X140617Y-130688D01*
X138465Y-131749D01*
X136469Y-133083D01*
X134665Y-134665D01*
X133083Y-136469D01*
X131749Y-138465D01*
X130688Y-140617D01*
X129917Y-142889D01*
X129448Y-145243D01*
X129291Y-147638D01*
X129448Y-150032D01*
X129917Y-152386D01*
X130688Y-154659D01*
X131749Y-156811D01*
X133083Y-158806D01*
X134665Y-160611D01*
X136469Y-162193D01*
X138465Y-163526D01*
X140617Y-164588D01*
X142889Y-165359D01*
X145243Y-165827D01*
X147638Y-165984D01*
X150032Y-165827D01*
X152386Y-165359D01*
X154659Y-164588D01*
X156811Y-163526D01*
X158806Y-162193D01*
X160611Y-160611D01*
X162193Y-158806D01*
X163526Y-156811D01*
X164588Y-154659D01*
X165359Y-152386D01*
X165827Y-150032D01*
X165984Y-147638D01*
X165827Y-145243D01*
X165359Y-142889D01*
X164588Y-140617D01*
X163526Y-138465D01*
X162193Y-136469D01*
X160611Y-134665D01*
X158806Y-133083D01*
X156811Y-131749D01*
X154659Y-130688D01*
X152386Y-129917D01*
X150032Y-129448D01*
X147638Y-129291D01*
D02*
G37*
G36*
X-56791Y-163484D02*
X-58268D01*
Y-164370D01*
X-56791D01*
Y-163484D01*
D02*
G37*
G36*
X-44094Y-152165D02*
X-46457D01*
Y-152756D01*
X-44094D01*
Y-152165D01*
D02*
G37*
G36*
X165551Y-123622D02*
X162992D01*
Y-124803D01*
X165551D01*
Y-123622D01*
D02*
G37*
G36*
X230709D02*
X228150D01*
Y-124803D01*
X230709D01*
Y-123622D01*
D02*
G37*
G36*
X86811D02*
X84252D01*
Y-124803D01*
X86811D01*
Y-123622D01*
D02*
G37*
G36*
X151969D02*
X149409D01*
Y-124803D01*
X151969D01*
Y-123622D01*
D02*
G37*
G36*
X244291D02*
X241732D01*
Y-124803D01*
X244291D01*
Y-123622D01*
D02*
G37*
G36*
X388189D02*
X385630D01*
Y-124803D01*
X388189D01*
Y-123622D01*
D02*
G37*
G36*
X401772D02*
X399213D01*
Y-124803D01*
X401772D01*
Y-123622D01*
D02*
G37*
G36*
X309449D02*
X306890D01*
Y-124803D01*
X309449D01*
Y-123622D01*
D02*
G37*
G36*
X323031D02*
X320472D01*
Y-124803D01*
X323031D01*
Y-123622D01*
D02*
G37*
G36*
X-49409Y-143504D02*
X-50197D01*
Y-148622D01*
X-49409D01*
Y-143504D01*
D02*
G37*
G36*
X-56791Y-147736D02*
X-58268D01*
Y-148622D01*
X-56791D01*
Y-147736D01*
D02*
G37*
G36*
Y-150393D02*
X-58268D01*
Y-151279D01*
X-56791D01*
Y-150393D01*
D02*
G37*
G36*
X-53543D02*
X-55020D01*
Y-151279D01*
X-53543D01*
Y-150393D01*
D02*
G37*
G36*
Y-147736D02*
X-55020D01*
Y-148622D01*
X-53543D01*
Y-147736D01*
D02*
G37*
G36*
X-9646Y-142913D02*
X-12008D01*
Y-143504D01*
X-9646D01*
Y-142913D01*
D02*
G37*
G36*
X-49409Y-134055D02*
X-50197D01*
Y-134999D01*
Y-139173D01*
X-49409D01*
Y-134055D01*
D02*
G37*
G36*
X-6102Y-142913D02*
X-8465D01*
Y-143504D01*
X-6102D01*
Y-142913D01*
D02*
G37*
G36*
X-197D02*
X-2559D01*
Y-143504D01*
X-197D01*
Y-142913D01*
D02*
G37*
G36*
X-228150Y-32677D02*
X-230709D01*
Y-33858D01*
X-228150D01*
Y-32677D01*
D02*
G37*
G36*
Y121457D02*
X-230709D01*
Y120472D01*
X-228150D01*
Y121457D01*
D02*
G37*
G36*
X-162992D02*
X-165551D01*
Y120472D01*
X-162992D01*
Y121457D01*
D02*
G37*
G36*
X-306890D02*
X-309449D01*
Y120472D01*
X-306890D01*
Y121457D01*
D02*
G37*
G36*
X-241732D02*
X-244291D01*
Y120472D01*
X-241732D01*
Y121457D01*
D02*
G37*
G36*
X-149409D02*
X-151969D01*
Y120472D01*
X-149409D01*
Y121457D01*
D02*
G37*
G36*
X151969Y124803D02*
X149409D01*
Y123622D01*
X151969D01*
Y124803D01*
D02*
G37*
G36*
X165551D02*
X162992D01*
Y123622D01*
X165551D01*
Y124803D01*
D02*
G37*
G36*
X-84252Y121457D02*
X-86811D01*
Y120472D01*
X-84252D01*
Y121457D01*
D02*
G37*
G36*
X86811Y124803D02*
X84252D01*
Y123622D01*
X86811D01*
Y124803D01*
D02*
G37*
G36*
X-320472Y121457D02*
X-323031D01*
Y120472D01*
X-320472D01*
Y121457D01*
D02*
G37*
G36*
X401772Y121457D02*
X399213D01*
Y120472D01*
X401772D01*
Y121457D01*
D02*
G37*
G36*
X466929D02*
X464370D01*
Y120472D01*
X466929D01*
Y121457D01*
D02*
G37*
G36*
X323031D02*
X320472D01*
Y120472D01*
X323031D01*
Y121457D01*
D02*
G37*
G36*
X388189D02*
X385630D01*
Y120472D01*
X388189D01*
Y121457D01*
D02*
G37*
G36*
X480512D02*
X477953D01*
Y120472D01*
X480512D01*
Y121457D01*
D02*
G37*
G36*
X-399213Y121457D02*
X-401772D01*
Y120472D01*
X-399213D01*
Y121457D01*
D02*
G37*
G36*
X-385630D02*
X-388189D01*
Y120472D01*
X-385630D01*
Y121457D01*
D02*
G37*
G36*
X-477953D02*
X-480512D01*
Y120472D01*
X-477953D01*
Y121457D01*
D02*
G37*
G36*
X-464370D02*
X-466929D01*
Y120472D01*
X-464370D01*
Y121457D01*
D02*
G37*
G36*
X230709Y124803D02*
X228150D01*
Y123622D01*
X230709D01*
Y124803D01*
D02*
G37*
G36*
X-306890Y124803D02*
X-309449D01*
Y123622D01*
X-306890D01*
Y124803D01*
D02*
G37*
G36*
X-241732D02*
X-244291D01*
Y123622D01*
X-241732D01*
Y124803D01*
D02*
G37*
G36*
X-385630D02*
X-388189D01*
Y123622D01*
X-385630D01*
Y124803D01*
D02*
G37*
G36*
X-320472D02*
X-323031D01*
Y123622D01*
X-320472D01*
Y124803D01*
D02*
G37*
G36*
X-228150D02*
X-230709D01*
Y123622D01*
X-228150D01*
Y124803D01*
D02*
G37*
G36*
X-84252D02*
X-86811D01*
Y123622D01*
X-84252D01*
Y124803D01*
D02*
G37*
G36*
X-147638Y165984D02*
X-150032Y165827D01*
X-152386Y165359D01*
X-154659Y164588D01*
X-156811Y163526D01*
X-158806Y162193D01*
X-160611Y160611D01*
X-162193Y158806D01*
X-163526Y156811D01*
X-164588Y154659D01*
X-165359Y152386D01*
X-165827Y150032D01*
X-165984Y147638D01*
X-165827Y145243D01*
X-165359Y142889D01*
X-164588Y140617D01*
X-163526Y138465D01*
X-162193Y136469D01*
X-160611Y134665D01*
X-158806Y133083D01*
X-156811Y131749D01*
X-154659Y130688D01*
X-152386Y129917D01*
X-150032Y129448D01*
X-147638Y129291D01*
X-145243Y129448D01*
X-142889Y129917D01*
X-140617Y130688D01*
X-138465Y131749D01*
X-136469Y133083D01*
X-134665Y134665D01*
X-133083Y136469D01*
X-131749Y138465D01*
X-130688Y140617D01*
X-129917Y142889D01*
X-129448Y145243D01*
X-129291Y147638D01*
X-129448Y150032D01*
X-129917Y152386D01*
X-130688Y154659D01*
X-131749Y156811D01*
X-133083Y158806D01*
X-134665Y160611D01*
X-136469Y162193D01*
X-138465Y163526D01*
X-140617Y164588D01*
X-142889Y165359D01*
X-145243Y165827D01*
X-147638Y165984D01*
D02*
G37*
G36*
X-162992Y124803D02*
X-165551D01*
Y123622D01*
X-162992D01*
Y124803D01*
D02*
G37*
G36*
X-149409D02*
X-151969D01*
Y123622D01*
X-149409D01*
Y124803D01*
D02*
G37*
G36*
X-399213D02*
X-401772D01*
Y123622D01*
X-399213D01*
Y124803D01*
D02*
G37*
G36*
X323031Y124803D02*
X320472D01*
Y123622D01*
X323031D01*
Y124803D01*
D02*
G37*
G36*
X388189D02*
X385630D01*
Y123622D01*
X388189D01*
Y124803D01*
D02*
G37*
G36*
X244291D02*
X241732D01*
Y123622D01*
X244291D01*
Y124803D01*
D02*
G37*
G36*
X309449D02*
X306890D01*
Y123622D01*
X309449D01*
Y124803D01*
D02*
G37*
G36*
X401772D02*
X399213D01*
Y123622D01*
X401772D01*
Y124803D01*
D02*
G37*
G36*
X-477953Y124803D02*
X-480512D01*
Y123622D01*
X-477953D01*
Y124803D01*
D02*
G37*
G36*
X-464370D02*
X-466929D01*
Y123622D01*
X-464370D01*
Y124803D01*
D02*
G37*
G36*
X466929Y124803D02*
X464370D01*
Y123622D01*
X466929D01*
Y124803D01*
D02*
G37*
G36*
X480512D02*
X477953D01*
Y123622D01*
X480512D01*
Y124803D01*
D02*
G37*
G36*
X151969Y115748D02*
X149409D01*
Y114764D01*
X151969D01*
Y115748D01*
D02*
G37*
G36*
X165551D02*
X162992D01*
Y114764D01*
X165551D01*
Y115748D01*
D02*
G37*
G36*
X-84252Y112598D02*
X-86811D01*
Y111417D01*
X-84252D01*
Y112598D01*
D02*
G37*
G36*
X86811Y115748D02*
X84252D01*
Y114764D01*
X86811D01*
Y115748D01*
D02*
G37*
G36*
X230709D02*
X228150D01*
Y114764D01*
X230709D01*
Y115748D01*
D02*
G37*
G36*
X323031D02*
X320472D01*
Y114764D01*
X323031D01*
Y115748D01*
D02*
G37*
G36*
X388189D02*
X385630D01*
Y114764D01*
X388189D01*
Y115748D01*
D02*
G37*
G36*
X244291D02*
X241732D01*
Y114764D01*
X244291D01*
Y115748D01*
D02*
G37*
G36*
X309449D02*
X306890D01*
Y114764D01*
X309449D01*
Y115748D01*
D02*
G37*
G36*
X-149409Y112598D02*
X-151969D01*
Y111417D01*
X-149409D01*
Y112598D01*
D02*
G37*
G36*
X-399213D02*
X-401772D01*
Y111417D01*
X-399213D01*
Y112598D01*
D02*
G37*
G36*
X-385630D02*
X-388189D01*
Y111417D01*
X-385630D01*
Y112598D01*
D02*
G37*
G36*
X-477953D02*
X-480512D01*
Y111417D01*
X-477953D01*
Y112598D01*
D02*
G37*
G36*
X-464370D02*
X-466929D01*
Y111417D01*
X-464370D01*
Y112598D01*
D02*
G37*
G36*
X-320472D02*
X-323031D01*
Y111417D01*
X-320472D01*
Y112598D01*
D02*
G37*
G36*
X-228150D02*
X-230709D01*
Y111417D01*
X-228150D01*
Y112598D01*
D02*
G37*
G36*
X-162992D02*
X-165551D01*
Y111417D01*
X-162992D01*
Y112598D01*
D02*
G37*
G36*
X-306890D02*
X-309449D01*
Y111417D01*
X-306890D01*
Y112598D01*
D02*
G37*
G36*
X-241732D02*
X-244291D01*
Y111417D01*
X-241732D01*
Y112598D01*
D02*
G37*
G36*
X401772Y115748D02*
X399213D01*
Y114764D01*
X401772D01*
Y115748D01*
D02*
G37*
G36*
X-84252Y115748D02*
X-86811D01*
Y114764D01*
X-84252D01*
Y115748D01*
D02*
G37*
G36*
X86811Y121457D02*
X84252D01*
Y120472D01*
X86811D01*
Y121457D01*
D02*
G37*
G36*
X-162992Y115748D02*
X-165551D01*
Y114764D01*
X-162992D01*
Y115748D01*
D02*
G37*
G36*
X-149409D02*
X-151969D01*
Y114764D01*
X-149409D01*
Y115748D01*
D02*
G37*
G36*
X151969Y121457D02*
X149409D01*
Y120472D01*
X151969D01*
Y121457D01*
D02*
G37*
G36*
X244291D02*
X241732D01*
Y120472D01*
X244291D01*
Y121457D01*
D02*
G37*
G36*
X309449D02*
X306890D01*
Y120472D01*
X309449D01*
Y121457D01*
D02*
G37*
G36*
X165551D02*
X162992D01*
Y120472D01*
X165551D01*
Y121457D01*
D02*
G37*
G36*
X230709D02*
X228150D01*
Y120472D01*
X230709D01*
Y121457D01*
D02*
G37*
G36*
X-228150Y115748D02*
X-230709D01*
Y114764D01*
X-228150D01*
Y115748D01*
D02*
G37*
G36*
X-477953D02*
X-480512D01*
Y114764D01*
X-477953D01*
Y115748D01*
D02*
G37*
G36*
X-464370D02*
X-466929D01*
Y114764D01*
X-464370D01*
Y115748D01*
D02*
G37*
G36*
X466929Y115748D02*
X464370D01*
Y114764D01*
X466929D01*
Y115748D01*
D02*
G37*
G36*
X480512D02*
X477953D01*
Y114764D01*
X480512D01*
Y115748D01*
D02*
G37*
G36*
X-399213Y115748D02*
X-401772D01*
Y114764D01*
X-399213D01*
Y115748D01*
D02*
G37*
G36*
X-306890D02*
X-309449D01*
Y114764D01*
X-306890D01*
Y115748D01*
D02*
G37*
G36*
X-241732D02*
X-244291D01*
Y114764D01*
X-241732D01*
Y115748D01*
D02*
G37*
G36*
X-385630D02*
X-388189D01*
Y114764D01*
X-385630D01*
Y115748D01*
D02*
G37*
G36*
X-320472D02*
X-323031D01*
Y114764D01*
X-320472D01*
Y115748D01*
D02*
G37*
G36*
X147638Y165984D02*
X145243Y165827D01*
X142889Y165359D01*
X140617Y164588D01*
X138465Y163526D01*
X136469Y162193D01*
X134665Y160611D01*
X133083Y158806D01*
X131749Y156811D01*
X130688Y154659D01*
X129917Y152386D01*
X129448Y150032D01*
X129291Y147638D01*
X129448Y145243D01*
X129917Y142889D01*
X130688Y140617D01*
X131749Y138465D01*
X133083Y136469D01*
X134665Y134665D01*
X136469Y133083D01*
X138465Y131749D01*
X140617Y130688D01*
X142889Y129917D01*
X145243Y129448D01*
X147638Y129291D01*
X150032Y129448D01*
X152386Y129917D01*
X154659Y130688D01*
X156811Y131749D01*
X158806Y133083D01*
X160611Y134665D01*
X162193Y136469D01*
X163526Y138465D01*
X164588Y140617D01*
X165359Y142889D01*
X165827Y145243D01*
X165984Y147638D01*
X165827Y150032D01*
X165359Y152386D01*
X164588Y154659D01*
X163526Y156811D01*
X162193Y158806D01*
X160611Y160611D01*
X158806Y162193D01*
X156811Y163526D01*
X154659Y164588D01*
X152386Y165359D01*
X150032Y165827D01*
X147638Y165984D01*
D02*
G37*
G36*
X-149409Y200197D02*
X-151969D01*
Y199213D01*
X-149409D01*
Y200197D01*
D02*
G37*
G36*
X-84252D02*
X-86811D01*
Y199213D01*
X-84252D01*
Y200197D01*
D02*
G37*
G36*
X-228150D02*
X-230709D01*
Y199213D01*
X-228150D01*
Y200197D01*
D02*
G37*
G36*
X-162992D02*
X-165551D01*
Y199213D01*
X-162992D01*
Y200197D01*
D02*
G37*
G36*
X-70669D02*
X-73228D01*
Y199213D01*
X-70669D01*
Y200197D01*
D02*
G37*
G36*
X151969Y203543D02*
X149409D01*
Y202362D01*
X151969D01*
Y203543D01*
D02*
G37*
G36*
X165551D02*
X162992D01*
Y202362D01*
X165551D01*
Y203543D01*
D02*
G37*
G36*
X73228D02*
X70669D01*
Y202362D01*
X73228D01*
Y203543D01*
D02*
G37*
G36*
X86811D02*
X84252D01*
Y202362D01*
X86811D01*
Y203543D01*
D02*
G37*
G36*
X-241732Y200197D02*
X-244291D01*
Y199213D01*
X-241732D01*
Y200197D01*
D02*
G37*
G36*
X480512Y200197D02*
X477953D01*
Y199213D01*
X480512D01*
Y200197D01*
D02*
G37*
G36*
X-477953Y200197D02*
X-480512D01*
Y199213D01*
X-477953D01*
Y200197D01*
D02*
G37*
G36*
X401772Y200197D02*
X399213D01*
Y199213D01*
X401772D01*
Y200197D01*
D02*
G37*
G36*
X466929D02*
X464370D01*
Y199213D01*
X466929D01*
Y200197D01*
D02*
G37*
G36*
X-464370Y200197D02*
X-466929D01*
Y199213D01*
X-464370D01*
Y200197D01*
D02*
G37*
G36*
X-320472D02*
X-323031D01*
Y199213D01*
X-320472D01*
Y200197D01*
D02*
G37*
G36*
X-306890D02*
X-309449D01*
Y199213D01*
X-306890D01*
Y200197D01*
D02*
G37*
G36*
X-399213D02*
X-401772D01*
Y199213D01*
X-399213D01*
Y200197D01*
D02*
G37*
G36*
X-385630D02*
X-388189D01*
Y199213D01*
X-385630D01*
Y200197D01*
D02*
G37*
G36*
X230709Y203543D02*
X228150D01*
Y202362D01*
X230709D01*
Y203543D01*
D02*
G37*
G36*
X-306890Y203543D02*
X-309449D01*
Y202362D01*
X-306890D01*
Y203543D01*
D02*
G37*
G36*
X-241732D02*
X-244291D01*
Y202362D01*
X-241732D01*
Y203543D01*
D02*
G37*
G36*
X-385630D02*
X-388189D01*
Y202362D01*
X-385630D01*
Y203543D01*
D02*
G37*
G36*
X-320472D02*
X-323031D01*
Y202362D01*
X-320472D01*
Y203543D01*
D02*
G37*
G36*
X-228150D02*
X-230709D01*
Y202362D01*
X-228150D01*
Y203543D01*
D02*
G37*
G36*
X-84252D02*
X-86811D01*
Y202362D01*
X-84252D01*
Y203543D01*
D02*
G37*
G36*
X-70669D02*
X-73228D01*
Y202362D01*
X-70669D01*
Y203543D01*
D02*
G37*
G36*
X-162992D02*
X-165551D01*
Y202362D01*
X-162992D01*
Y203543D01*
D02*
G37*
G36*
X-149409D02*
X-151969D01*
Y202362D01*
X-149409D01*
Y203543D01*
D02*
G37*
G36*
X-399213D02*
X-401772D01*
Y202362D01*
X-399213D01*
Y203543D01*
D02*
G37*
G36*
X323031Y203543D02*
X320472D01*
Y202362D01*
X323031D01*
Y203543D01*
D02*
G37*
G36*
X388189D02*
X385630D01*
Y202362D01*
X388189D01*
Y203543D01*
D02*
G37*
G36*
X244291D02*
X241732D01*
Y202362D01*
X244291D01*
Y203543D01*
D02*
G37*
G36*
X309449D02*
X306890D01*
Y202362D01*
X309449D01*
Y203543D01*
D02*
G37*
G36*
X401772D02*
X399213D01*
Y202362D01*
X401772D01*
Y203543D01*
D02*
G37*
G36*
X-477953Y203543D02*
X-480512D01*
Y202362D01*
X-477953D01*
Y203543D01*
D02*
G37*
G36*
X-464370D02*
X-466929D01*
Y202362D01*
X-464370D01*
Y203543D01*
D02*
G37*
G36*
X466929Y203543D02*
X464370D01*
Y202362D01*
X466929D01*
Y203543D01*
D02*
G37*
G36*
X480512D02*
X477953D01*
Y202362D01*
X480512D01*
Y203543D01*
D02*
G37*
G36*
X-306890Y191339D02*
X-309449D01*
Y190157D01*
X-306890D01*
Y191339D01*
D02*
G37*
G36*
X-241732D02*
X-244291D01*
Y190157D01*
X-241732D01*
Y191339D01*
D02*
G37*
G36*
X-385630D02*
X-388189D01*
Y190157D01*
X-385630D01*
Y191339D01*
D02*
G37*
G36*
X-320472D02*
X-323031D01*
Y190157D01*
X-320472D01*
Y191339D01*
D02*
G37*
G36*
X-149409D02*
X-151969D01*
Y190157D01*
X-149409D01*
Y191339D01*
D02*
G37*
G36*
X151969Y194488D02*
X149409D01*
Y193504D01*
X151969D01*
Y194488D01*
D02*
G37*
G36*
X244291D02*
X241732D01*
Y193504D01*
X244291D01*
Y194488D01*
D02*
G37*
G36*
X-84252Y191339D02*
X-86811D01*
Y190157D01*
X-84252D01*
Y191339D01*
D02*
G37*
G36*
X86811Y194488D02*
X84252D01*
Y193504D01*
X86811D01*
Y194488D01*
D02*
G37*
G36*
X-477953Y191339D02*
X-480512D01*
Y190157D01*
X-477953D01*
Y191339D01*
D02*
G37*
G36*
X86811Y191339D02*
X84252D01*
Y190157D01*
X86811D01*
Y191339D01*
D02*
G37*
G36*
X151969D02*
X149409D01*
Y190157D01*
X151969D01*
Y191339D01*
D02*
G37*
G36*
X-18307Y162402D02*
X-26575D01*
Y145866D01*
X-18307D01*
Y162402D01*
D02*
G37*
G36*
X26575D02*
X18307D01*
Y145866D01*
X26575D01*
Y162402D01*
D02*
G37*
G36*
X244291Y191339D02*
X241732D01*
Y190157D01*
X244291D01*
Y191339D01*
D02*
G37*
G36*
X388189D02*
X385630D01*
Y190157D01*
X388189D01*
Y191339D01*
D02*
G37*
G36*
X480512D02*
X477953D01*
Y190157D01*
X480512D01*
Y191339D01*
D02*
G37*
G36*
X309449D02*
X306890D01*
Y190157D01*
X309449D01*
Y191339D01*
D02*
G37*
G36*
X323031D02*
X320472D01*
Y190157D01*
X323031D01*
Y191339D01*
D02*
G37*
G36*
X309449Y194488D02*
X306890D01*
Y193504D01*
X309449D01*
Y194488D01*
D02*
G37*
G36*
X151969Y200197D02*
X149409D01*
Y199213D01*
X151969D01*
Y200197D01*
D02*
G37*
G36*
X165551D02*
X162992D01*
Y199213D01*
X165551D01*
Y200197D01*
D02*
G37*
G36*
X73228D02*
X70669D01*
Y199213D01*
X73228D01*
Y200197D01*
D02*
G37*
G36*
X86811D02*
X84252D01*
Y199213D01*
X86811D01*
Y200197D01*
D02*
G37*
G36*
X230709D02*
X228150D01*
Y199213D01*
X230709D01*
Y200197D01*
D02*
G37*
G36*
X323031D02*
X320472D01*
Y199213D01*
X323031D01*
Y200197D01*
D02*
G37*
G36*
X388189D02*
X385630D01*
Y199213D01*
X388189D01*
Y200197D01*
D02*
G37*
G36*
X244291D02*
X241732D01*
Y199213D01*
X244291D01*
Y200197D01*
D02*
G37*
G36*
X309449D02*
X306890D01*
Y199213D01*
X309449D01*
Y200197D01*
D02*
G37*
G36*
X-84252Y194488D02*
X-86811D01*
Y193504D01*
X-84252D01*
Y194488D01*
D02*
G37*
G36*
X480512Y194488D02*
X477953D01*
Y193504D01*
X480512D01*
Y194488D01*
D02*
G37*
G36*
X-477953Y194488D02*
X-480512D01*
Y193504D01*
X-477953D01*
Y194488D01*
D02*
G37*
G36*
X323031Y194488D02*
X320472D01*
Y193504D01*
X323031D01*
Y194488D01*
D02*
G37*
G36*
X388189D02*
X385630D01*
Y193504D01*
X388189D01*
Y194488D01*
D02*
G37*
G36*
X-385630Y194488D02*
X-388189D01*
Y193504D01*
X-385630D01*
Y194488D01*
D02*
G37*
G36*
X-241732D02*
X-244291D01*
Y193504D01*
X-241732D01*
Y194488D01*
D02*
G37*
G36*
X-149409D02*
X-151969D01*
Y193504D01*
X-149409D01*
Y194488D01*
D02*
G37*
G36*
X-320472D02*
X-323031D01*
Y193504D01*
X-320472D01*
Y194488D01*
D02*
G37*
G36*
X-306890D02*
X-309449D01*
Y193504D01*
X-306890D01*
Y194488D01*
D02*
G37*
G36*
X309449Y37008D02*
X306890D01*
Y36024D01*
X309449D01*
Y37008D01*
D02*
G37*
G36*
X323031D02*
X320472D01*
Y36024D01*
X323031D01*
Y37008D01*
D02*
G37*
G36*
X230709D02*
X228150D01*
Y36024D01*
X230709D01*
Y37008D01*
D02*
G37*
G36*
X244291D02*
X241732D01*
Y36024D01*
X244291D01*
Y37008D01*
D02*
G37*
G36*
X466929D02*
X464370D01*
Y36024D01*
X466929D01*
Y37008D01*
D02*
G37*
G36*
X480512D02*
X477953D01*
Y36024D01*
X480512D01*
Y37008D01*
D02*
G37*
G36*
X388189D02*
X385630D01*
Y36024D01*
X388189D01*
Y37008D01*
D02*
G37*
G36*
X401772D02*
X399213D01*
Y36024D01*
X401772D01*
Y37008D01*
D02*
G37*
G36*
X-162992Y33858D02*
X-165551D01*
Y32677D01*
X-162992D01*
Y33858D01*
D02*
G37*
G36*
X-149409D02*
X-151969D01*
Y32677D01*
X-149409D01*
Y33858D01*
D02*
G37*
G36*
X-241732D02*
X-244291D01*
Y32677D01*
X-241732D01*
Y33858D01*
D02*
G37*
G36*
X-228150D02*
X-230709D01*
Y32677D01*
X-228150D01*
Y33858D01*
D02*
G37*
G36*
X151969Y37008D02*
X149409D01*
Y36024D01*
X151969D01*
Y37008D01*
D02*
G37*
G36*
X165551D02*
X162992D01*
Y36024D01*
X165551D01*
Y37008D01*
D02*
G37*
G36*
X-84252Y33858D02*
X-86811D01*
Y32677D01*
X-84252D01*
Y33858D01*
D02*
G37*
G36*
X86811Y37008D02*
X84252D01*
Y36024D01*
X86811D01*
Y37008D01*
D02*
G37*
G36*
X-477953Y37008D02*
X-480512D01*
Y36024D01*
X-477953D01*
Y37008D01*
D02*
G37*
G36*
X-228150D02*
X-230709D01*
Y36024D01*
X-228150D01*
Y37008D01*
D02*
G37*
G36*
X-162992D02*
X-165551D01*
Y36024D01*
X-162992D01*
Y37008D01*
D02*
G37*
G36*
X-306890D02*
X-309449D01*
Y36024D01*
X-306890D01*
Y37008D01*
D02*
G37*
G36*
X-241732D02*
X-244291D01*
Y36024D01*
X-241732D01*
Y37008D01*
D02*
G37*
G36*
X86811Y42717D02*
X84252D01*
Y41732D01*
X86811D01*
Y42717D01*
D02*
G37*
G36*
X151969D02*
X149409D01*
Y41732D01*
X151969D01*
Y42717D01*
D02*
G37*
G36*
X-149409Y37008D02*
X-151969D01*
Y36024D01*
X-149409D01*
Y37008D01*
D02*
G37*
G36*
X-84252D02*
X-86811D01*
Y36024D01*
X-84252D01*
Y37008D01*
D02*
G37*
G36*
X58268Y-6201D02*
X56791D01*
Y-7087D01*
X58268D01*
Y-6201D01*
D02*
G37*
G36*
X-464370Y37008D02*
X-466929D01*
Y36024D01*
X-464370D01*
Y37008D01*
D02*
G37*
G36*
X61122Y-3937D02*
X59646D01*
Y-4823D01*
X61122D01*
Y-3937D01*
D02*
G37*
G36*
X46457Y-4724D02*
X44094D01*
Y-5315D01*
X46457D01*
Y-4724D01*
D02*
G37*
G36*
X-385630Y37008D02*
X-388189D01*
Y36024D01*
X-385630D01*
Y37008D01*
D02*
G37*
G36*
X-320472D02*
X-323031D01*
Y36024D01*
X-320472D01*
Y37008D01*
D02*
G37*
G36*
X55020Y-6201D02*
X53543D01*
Y-7087D01*
X55020D01*
Y-6201D01*
D02*
G37*
G36*
X-399213Y37008D02*
X-401772D01*
Y36024D01*
X-399213D01*
Y37008D01*
D02*
G37*
G36*
X-306890Y33858D02*
X-309449D01*
Y32677D01*
X-306890D01*
Y33858D01*
D02*
G37*
G36*
X55020Y9547D02*
X53543D01*
Y8661D01*
X55020D01*
Y9547D01*
D02*
G37*
G36*
X58268D02*
X56791D01*
Y8661D01*
X58268D01*
Y9547D01*
D02*
G37*
G36*
X55020Y6890D02*
X53543D01*
Y6004D01*
X55020D01*
Y6890D01*
D02*
G37*
G36*
X58268D02*
X56791D01*
Y6004D01*
X58268D01*
Y6890D01*
D02*
G37*
G36*
X32283Y-3150D02*
X31496D01*
Y-4528D01*
X32283D01*
Y-3150D01*
D02*
G37*
G36*
X64370Y-3937D02*
X62894D01*
Y-4823D01*
X64370D01*
Y-3937D01*
D02*
G37*
G36*
X50590Y17716D02*
X48524D01*
Y10236D01*
X50590D01*
Y17716D01*
D02*
G37*
G36*
X39370Y-3150D02*
X38583D01*
Y-4528D01*
X39370D01*
Y-3150D01*
D02*
G37*
G36*
X61122Y1968D02*
X59646D01*
Y1082D01*
X61122D01*
Y1968D01*
D02*
G37*
G36*
X64370D02*
X62894D01*
Y1082D01*
X64370D01*
Y1968D01*
D02*
G37*
G36*
Y-1280D02*
X62894D01*
Y-2165D01*
X64370D01*
Y-1280D01*
D02*
G37*
G36*
X61122D02*
X59646D01*
Y-2165D01*
X61122D01*
Y-1280D01*
D02*
G37*
G36*
Y4626D02*
X59646D01*
Y3740D01*
X61122D01*
Y4626D01*
D02*
G37*
G36*
X64370D02*
X62894D01*
Y3740D01*
X64370D01*
Y4626D01*
D02*
G37*
G36*
X32283Y4528D02*
X31496D01*
Y3150D01*
X32283D01*
Y4528D01*
D02*
G37*
G36*
X39370D02*
X38583D01*
Y3150D01*
X39370D01*
Y4528D01*
D02*
G37*
G36*
X50590Y31496D02*
X48524D01*
Y24016D01*
X50590D01*
Y31496D01*
D02*
G37*
G36*
X480512Y33858D02*
X477953D01*
Y32677D01*
X480512D01*
Y33858D01*
D02*
G37*
G36*
X-477953Y33858D02*
X-480512D01*
Y32677D01*
X-477953D01*
Y33858D01*
D02*
G37*
G36*
X401772Y33858D02*
X399213D01*
Y32677D01*
X401772D01*
Y33858D01*
D02*
G37*
G36*
X466929D02*
X464370D01*
Y32677D01*
X466929D01*
Y33858D01*
D02*
G37*
G36*
X-385630Y33858D02*
X-388189D01*
Y32677D01*
X-385630D01*
Y33858D01*
D02*
G37*
G36*
X-320472D02*
X-323031D01*
Y32677D01*
X-320472D01*
Y33858D01*
D02*
G37*
G36*
X-464370D02*
X-466929D01*
Y32677D01*
X-464370D01*
Y33858D01*
D02*
G37*
G36*
X-399213D02*
X-401772D01*
Y32677D01*
X-399213D01*
Y33858D01*
D02*
G37*
G36*
X165551Y33858D02*
X162992D01*
Y32677D01*
X165551D01*
Y33858D01*
D02*
G37*
G36*
X230709D02*
X228150D01*
Y32677D01*
X230709D01*
Y33858D01*
D02*
G37*
G36*
X86811D02*
X84252D01*
Y32677D01*
X86811D01*
Y33858D01*
D02*
G37*
G36*
X151969D02*
X149409D01*
Y32677D01*
X151969D01*
Y33858D01*
D02*
G37*
G36*
X323031D02*
X320472D01*
Y32677D01*
X323031D01*
Y33858D01*
D02*
G37*
G36*
X388189D02*
X385630D01*
Y32677D01*
X388189D01*
Y33858D01*
D02*
G37*
G36*
X244291D02*
X241732D01*
Y32677D01*
X244291D01*
Y33858D01*
D02*
G37*
G36*
X309449D02*
X306890D01*
Y32677D01*
X309449D01*
Y33858D01*
D02*
G37*
G36*
X165551Y42717D02*
X162992D01*
Y41732D01*
X165551D01*
Y42717D01*
D02*
G37*
G36*
X-399213Y46063D02*
X-401772D01*
Y44882D01*
X-399213D01*
Y46063D01*
D02*
G37*
G36*
X-385630D02*
X-388189D01*
Y44882D01*
X-385630D01*
Y46063D01*
D02*
G37*
G36*
X-477953D02*
X-480512D01*
Y44882D01*
X-477953D01*
Y46063D01*
D02*
G37*
G36*
X-464370D02*
X-466929D01*
Y44882D01*
X-464370D01*
Y46063D01*
D02*
G37*
G36*
X-320472D02*
X-323031D01*
Y44882D01*
X-320472D01*
Y46063D01*
D02*
G37*
G36*
X-228150D02*
X-230709D01*
Y44882D01*
X-228150D01*
Y46063D01*
D02*
G37*
G36*
X-162992D02*
X-165551D01*
Y44882D01*
X-162992D01*
Y46063D01*
D02*
G37*
G36*
X-306890D02*
X-309449D01*
Y44882D01*
X-306890D01*
Y46063D01*
D02*
G37*
G36*
X-241732D02*
X-244291D01*
Y44882D01*
X-241732D01*
Y46063D01*
D02*
G37*
G36*
X244291Y46063D02*
X241732D01*
Y44882D01*
X244291D01*
Y46063D01*
D02*
G37*
G36*
X309449D02*
X306890D01*
Y44882D01*
X309449D01*
Y46063D01*
D02*
G37*
G36*
X165551D02*
X162992D01*
Y44882D01*
X165551D01*
Y46063D01*
D02*
G37*
G36*
X230709D02*
X228150D01*
Y44882D01*
X230709D01*
Y46063D01*
D02*
G37*
G36*
X323031D02*
X320472D01*
Y44882D01*
X323031D01*
Y46063D01*
D02*
G37*
G36*
X466929D02*
X464370D01*
Y44882D01*
X466929D01*
Y46063D01*
D02*
G37*
G36*
X480512D02*
X477953D01*
Y44882D01*
X480512D01*
Y46063D01*
D02*
G37*
G36*
X388189D02*
X385630D01*
Y44882D01*
X388189D01*
Y46063D01*
D02*
G37*
G36*
X401772D02*
X399213D01*
Y44882D01*
X401772D01*
Y46063D01*
D02*
G37*
G36*
X-149409Y46063D02*
X-151969D01*
Y44882D01*
X-149409D01*
Y46063D01*
D02*
G37*
G36*
X244291Y112598D02*
X241732D01*
Y111417D01*
X244291D01*
Y112598D01*
D02*
G37*
G36*
X309449D02*
X306890D01*
Y111417D01*
X309449D01*
Y112598D01*
D02*
G37*
G36*
X165551D02*
X162992D01*
Y111417D01*
X165551D01*
Y112598D01*
D02*
G37*
G36*
X230709D02*
X228150D01*
Y111417D01*
X230709D01*
Y112598D01*
D02*
G37*
G36*
X323031D02*
X320472D01*
Y111417D01*
X323031D01*
Y112598D01*
D02*
G37*
G36*
X466929D02*
X464370D01*
Y111417D01*
X466929D01*
Y112598D01*
D02*
G37*
G36*
X480512D02*
X477953D01*
Y111417D01*
X480512D01*
Y112598D01*
D02*
G37*
G36*
X388189D02*
X385630D01*
Y111417D01*
X388189D01*
Y112598D01*
D02*
G37*
G36*
X401772D02*
X399213D01*
Y111417D01*
X401772D01*
Y112598D01*
D02*
G37*
G36*
X32087Y102657D02*
X31201D01*
Y101181D01*
X32087D01*
Y102657D01*
D02*
G37*
G36*
X29429Y105905D02*
X28543D01*
Y104429D01*
X29429D01*
Y105905D01*
D02*
G37*
G36*
X-84252Y46063D02*
X-86811D01*
Y44882D01*
X-84252D01*
Y46063D01*
D02*
G37*
G36*
X29429Y102657D02*
X28543D01*
Y101181D01*
X29429D01*
Y102657D01*
D02*
G37*
G36*
X32087Y105905D02*
X31201D01*
Y104429D01*
X32087D01*
Y105905D01*
D02*
G37*
G36*
X86811Y112598D02*
X84252D01*
Y111417D01*
X86811D01*
Y112598D01*
D02*
G37*
G36*
X151969D02*
X149409D01*
Y111417D01*
X151969D01*
Y112598D01*
D02*
G37*
G36*
X-149409Y-32677D02*
X-151969D01*
Y-33858D01*
X-149409D01*
Y-32677D01*
D02*
G37*
G36*
X-162992D02*
X-165551D01*
Y-33858D01*
X-162992D01*
Y-32677D01*
D02*
G37*
G36*
X480512Y42717D02*
X477953D01*
Y41732D01*
X480512D01*
Y42717D01*
D02*
G37*
G36*
X466929D02*
X464370D01*
Y41732D01*
X466929D01*
Y42717D01*
D02*
G37*
G36*
X401772D02*
X399213D01*
Y41732D01*
X401772D01*
Y42717D01*
D02*
G37*
G36*
X8858Y-18110D02*
X6496D01*
Y-18701D01*
X8858D01*
Y-18110D01*
D02*
G37*
G36*
X-477953Y42717D02*
X-480512D01*
Y41732D01*
X-477953D01*
Y42717D01*
D02*
G37*
G36*
X50197Y-18307D02*
X49409D01*
Y-23425D01*
X50197D01*
Y-22481D01*
Y-18307D01*
D02*
G37*
G36*
X12008Y-18110D02*
X9646D01*
Y-18701D01*
X12008D01*
Y-18110D01*
D02*
G37*
G36*
X388189Y42717D02*
X385630D01*
Y41732D01*
X388189D01*
Y42717D01*
D02*
G37*
G36*
X55020Y-8858D02*
X53543D01*
Y-9744D01*
X55020D01*
Y-8858D01*
D02*
G37*
G36*
X58268D02*
X56791D01*
Y-9744D01*
X58268D01*
Y-8858D01*
D02*
G37*
G36*
X230709Y42717D02*
X228150D01*
Y41732D01*
X230709D01*
Y42717D01*
D02*
G37*
G36*
X50197Y-8858D02*
X49409D01*
Y-13976D01*
X50197D01*
Y-8858D01*
D02*
G37*
G36*
X323031Y42717D02*
X320472D01*
Y41732D01*
X323031D01*
Y42717D01*
D02*
G37*
G36*
X309449D02*
X306890D01*
Y41732D01*
X309449D01*
Y42717D01*
D02*
G37*
G36*
X244291D02*
X241732D01*
Y41732D01*
X244291D01*
Y42717D01*
D02*
G37*
G36*
X-84252Y-32677D02*
X-86811D01*
Y-33858D01*
X-84252D01*
Y-32677D01*
D02*
G37*
G36*
X-228150Y42717D02*
X-230709D01*
Y41732D01*
X-228150D01*
Y42717D01*
D02*
G37*
G36*
X-306890D02*
X-309449D01*
Y41732D01*
X-306890D01*
Y42717D01*
D02*
G37*
G36*
X-241732D02*
X-244291D01*
Y41732D01*
X-241732D01*
Y42717D01*
D02*
G37*
G36*
X-162992D02*
X-165551D01*
Y41732D01*
X-162992D01*
Y42717D01*
D02*
G37*
G36*
X86811Y46063D02*
X84252D01*
Y44882D01*
X86811D01*
Y46063D01*
D02*
G37*
G36*
X151969D02*
X149409D01*
Y44882D01*
X151969D01*
Y46063D01*
D02*
G37*
G36*
X-149409Y42717D02*
X-151969D01*
Y41732D01*
X-149409D01*
Y42717D01*
D02*
G37*
G36*
X-84252D02*
X-86811D01*
Y41732D01*
X-84252D01*
Y42717D01*
D02*
G37*
G36*
X-320472D02*
X-323031D01*
Y41732D01*
X-320472D01*
Y42717D01*
D02*
G37*
G36*
X-385630D02*
X-388189D01*
Y41732D01*
X-385630D01*
Y42717D01*
D02*
G37*
G36*
X-464370D02*
X-466929D01*
Y41732D01*
X-464370D01*
Y42717D01*
D02*
G37*
G36*
X-399213D02*
X-401772D01*
Y41732D01*
X-399213D01*
Y42717D01*
D02*
G37*
G36*
X13976Y138994D02*
X-4232D01*
X-4578Y138925D01*
X-4871Y138729D01*
X-6827Y136773D01*
X-7283Y136773D01*
Y136012D01*
X-7301Y135925D01*
Y96634D01*
X-21603Y82332D01*
X-21799Y82038D01*
X-21868Y81693D01*
Y-126693D01*
X-27509Y-132334D01*
X-27704Y-132627D01*
X-27773Y-132972D01*
Y-147165D01*
X-31839Y-151231D01*
X-32035Y-151524D01*
X-32104Y-151870D01*
Y-152165D01*
Y-152953D01*
X-32283D01*
Y-157481D01*
Y-162008D01*
X-32104D01*
Y-163189D01*
Y-188878D01*
X-32104Y-188878D01*
X-32104D01*
X-32035Y-189224D01*
X-31839Y-189517D01*
X-26575Y-194781D01*
Y-207283D01*
X-19094D01*
Y-189370D01*
X1280D01*
Y-146358D01*
X-15551D01*
Y-143504D01*
X-15551D01*
Y-141141D01*
X-13780D01*
Y-139370D01*
X-9645D01*
Y-139370D01*
X-8465D01*
Y-139370D01*
X-197D01*
Y-139370D01*
X1083D01*
Y-18701D01*
X2953D01*
Y-16338D01*
X4723D01*
Y-14567D01*
X8858D01*
Y-14567D01*
X9646D01*
Y-14567D01*
X13780D01*
Y-16338D01*
X15551D01*
Y-18701D01*
X17913D01*
X17913Y-18701D01*
D01*
X17913Y-18701D01*
Y-23425D01*
X20669D01*
Y-23425D01*
X26575D01*
Y-9941D01*
X30709Y-5807D01*
Y-5315D01*
X30906D01*
Y-2756D01*
Y-197D01*
Y2362D01*
Y5315D01*
X30709D01*
Y31102D01*
X30709D01*
Y31496D01*
X21260D01*
Y35236D01*
Y49803D01*
Y49803D01*
X20391Y50672D01*
Y96949D01*
X21850D01*
Y98050D01*
X21899Y98082D01*
X24998Y101181D01*
X26181D01*
Y105905D01*
X26181D01*
Y110728D01*
X25313D01*
Y127657D01*
X25244Y128003D01*
X25048Y128296D01*
X14615Y138729D01*
X14322Y138925D01*
X13976Y138994D01*
D02*
G37*
%LPD*%
G36*
X20276Y24016D02*
X25493D01*
Y20867D01*
X28642D01*
Y10236D01*
X29921D01*
Y5315D01*
X28543D01*
Y3837D01*
X27659D01*
Y2953D01*
X24409D01*
Y2362D01*
Y2165D01*
X27659D01*
Y394D01*
X24409D01*
Y394D01*
X20866D01*
Y6890D01*
X14567Y13189D01*
X4724D01*
Y30906D01*
X20276D01*
Y24016D01*
D02*
G37*
G36*
X-24409Y-157874D02*
X-20866D01*
Y-164764D01*
X-14961Y-170669D01*
X-886D01*
Y-172835D01*
Y-188386D01*
X-20276D01*
Y-181496D01*
X-25493D01*
Y-178347D01*
X-28642D01*
Y-167716D01*
X-30298D01*
Y-162795D01*
X-28543D01*
Y-161318D01*
X-27659D01*
Y-160433D01*
X-24409D01*
Y-160236D01*
Y-159645D01*
X-27659D01*
Y-157874D01*
X-24409D01*
Y-157874D01*
D02*
G37*
G36*
X6299Y112205D02*
X16831D01*
Y111516D01*
X16535D01*
Y109152D01*
Y106791D01*
X16831D01*
Y100886D01*
Y96949D01*
X18585D01*
Y55199D01*
X14764Y51378D01*
Y31890D01*
X3347D01*
Y12598D01*
X4607D01*
X4724Y12550D01*
X14025D01*
X15483Y11092D01*
X15292Y10630D01*
X15292Y10630D01*
X15292D01*
X14370D01*
Y8071D01*
X15354D01*
Y10567D01*
X15679Y10702D01*
X15816Y10759D01*
X18504Y8071D01*
X18504Y1772D01*
X23031Y-2756D01*
X24409D01*
Y-2756D01*
Y-2953D01*
X27659D01*
Y-3838D01*
X28543D01*
Y-5315D01*
X28543D01*
Y-6890D01*
X26575Y-8858D01*
X26575Y-8858D01*
X26575Y-8858D01*
X26575Y-8858D01*
X25787D01*
Y-16143D01*
X23623D01*
Y-18307D01*
X20669D01*
Y-18307D01*
X18406D01*
Y-10433D01*
X98D01*
Y-137598D01*
X-18406D01*
Y-147047D01*
X-886D01*
Y-150197D01*
X-2559D01*
Y-152560D01*
Y-154921D01*
X-886D01*
Y-156496D01*
Y-170030D01*
X-14517D01*
X-18504Y-166043D01*
X-18504Y-159252D01*
X-23031Y-154724D01*
X-24409D01*
Y-154724D01*
Y-154527D01*
X-27659D01*
Y-153643D01*
X-28543D01*
Y-152165D01*
X-29566D01*
X-29757Y-151703D01*
X-26646Y-148592D01*
X-26575Y-148622D01*
Y-148622D01*
X-26575Y-148622D01*
X-25787D01*
Y-141340D01*
Y-134055D01*
X-25787D01*
Y-133167D01*
X-20326Y-127706D01*
X-20130Y-127413D01*
X-20061Y-127067D01*
Y81319D01*
X-5759Y95621D01*
X-5563Y95914D01*
X-5494Y96260D01*
Y135551D01*
X-4825Y136221D01*
X6299D01*
Y112205D01*
D02*
G37*
%LPC*%
G36*
X12008Y-6693D02*
X9646D01*
Y-7284D01*
X12008D01*
Y-6693D01*
D02*
G37*
G36*
X26772Y-4724D02*
X24409D01*
Y-5315D01*
X26772D01*
Y-4724D01*
D02*
G37*
G36*
X17913Y-2559D02*
X15551D01*
Y-3150D01*
X17913D01*
Y-2559D01*
D02*
G37*
G36*
X2953Y-6693D02*
X591D01*
Y-7284D01*
X2953D01*
Y-6693D01*
D02*
G37*
G36*
X12008Y-2559D02*
X9646D01*
Y-3150D01*
X12008D01*
Y-2559D01*
D02*
G37*
G36*
X21457Y-8858D02*
X20669D01*
Y-13976D01*
X21457D01*
Y-8858D01*
D02*
G37*
G36*
X8858Y-2559D02*
X6496D01*
Y-3150D01*
X8858D01*
Y-2559D01*
D02*
G37*
G36*
X17913Y-6693D02*
X15551D01*
Y-7284D01*
X17913D01*
Y-6693D01*
D02*
G37*
G36*
X2953Y-2559D02*
X591D01*
Y-3150D01*
X2953D01*
Y-2559D01*
D02*
G37*
G36*
X8858Y-6693D02*
X6496D01*
Y-7284D01*
X8858D01*
Y-6693D01*
D02*
G37*
G36*
X-6102Y-154331D02*
X-8465D01*
Y-154921D01*
X-6102D01*
Y-154331D01*
D02*
G37*
G36*
X-15551Y-154331D02*
X-17913D01*
Y-154921D01*
X-15551D01*
Y-154331D01*
D02*
G37*
G36*
X-9646D02*
X-12008D01*
Y-154921D01*
X-9646D01*
Y-154331D01*
D02*
G37*
G36*
X-7480Y-157087D02*
X-8465D01*
Y-159646D01*
X-7480D01*
Y-157087D01*
D02*
G37*
G36*
Y-165551D02*
X-8465D01*
Y-168110D01*
X-7480D01*
Y-165551D01*
D02*
G37*
G36*
X-24409Y-162205D02*
X-26772D01*
Y-162795D01*
X-24409D01*
Y-162205D01*
D02*
G37*
G36*
X-14370Y-157087D02*
X-15354D01*
Y-159646D01*
X-14370D01*
Y-157087D01*
D02*
G37*
G36*
X-24409Y-152165D02*
X-26772D01*
Y-152756D01*
X-24409D01*
Y-152165D01*
D02*
G37*
G36*
X-20669Y-134055D02*
X-21456D01*
Y-139173D01*
X-20669D01*
Y-134055D01*
Y-134055D01*
D02*
G37*
G36*
X14764Y108268D02*
X13878D01*
Y106791D01*
X14764D01*
Y108268D01*
D02*
G37*
G36*
Y111516D02*
X13878D01*
Y110039D01*
X14764D01*
Y111516D01*
D02*
G37*
G36*
X-20669Y-143504D02*
X-21456D01*
Y-148622D01*
X-20669D01*
Y-148031D01*
Y-143504D01*
D02*
G37*
G36*
X-6102Y-150197D02*
X-8465D01*
Y-150787D01*
X-6102D01*
Y-150197D01*
D02*
G37*
G36*
X-15551Y-150197D02*
X-17913D01*
Y-150787D01*
X-15551D01*
Y-150197D01*
D02*
G37*
G36*
X-9646D02*
X-12008D01*
Y-150787D01*
X-9646D01*
Y-150197D01*
D02*
G37*
G36*
X22343Y17716D02*
X20276D01*
Y10236D01*
X22343D01*
Y17716D01*
D02*
G37*
G36*
X8465Y17913D02*
X7480D01*
Y15354D01*
X8465D01*
Y17913D01*
D02*
G37*
G36*
X15354D02*
X14370D01*
Y15354D01*
X15354D01*
Y17913D01*
D02*
G37*
G36*
X8465Y10630D02*
X7480D01*
Y8071D01*
X8465D01*
Y10630D01*
D02*
G37*
G36*
Y2165D02*
X7480D01*
Y-394D01*
X8465D01*
Y2165D01*
D02*
G37*
G36*
X15354D02*
X14370D01*
Y-394D01*
X15354D01*
Y2165D01*
D02*
G37*
G36*
X26772Y5315D02*
X24409D01*
Y4724D01*
X26772D01*
Y5315D01*
D02*
G37*
G36*
X8465Y26378D02*
X7480D01*
Y23819D01*
X8465D01*
Y26378D01*
D02*
G37*
G36*
X-7480Y-172835D02*
X-8465D01*
Y-175394D01*
X-7480D01*
Y-172835D01*
D02*
G37*
G36*
X-20276Y-167716D02*
X-22343D01*
Y-175197D01*
X-20276D01*
Y-167716D01*
D02*
G37*
G36*
X-14370Y-165551D02*
X-15354D01*
Y-168110D01*
X-14370D01*
Y-165551D01*
D02*
G37*
G36*
Y-172835D02*
X-15354D01*
Y-175394D01*
X-14370D01*
Y-172835D01*
D02*
G37*
G36*
X15354Y26378D02*
X14370D01*
Y23819D01*
X15354D01*
Y26378D01*
D02*
G37*
G36*
X-14370Y-181299D02*
X-15354D01*
Y-183858D01*
X-14370D01*
Y-181299D01*
D02*
G37*
G36*
X-7480D02*
X-8465D01*
Y-183858D01*
X-7480D01*
Y-181299D01*
D02*
G37*
%LPD*%
D10*
X-23622Y-200000D02*
D03*
X-47244D02*
D03*
X23622Y-16142D02*
D03*
X47244D02*
D03*
X-23622Y-141338D02*
D03*
X-47244D02*
D03*
X41929Y42520D02*
D03*
X18307D02*
D03*
D11*
X35433Y0D02*
D03*
X-35433Y-157480D02*
D03*
D12*
X27657Y3838D02*
D03*
Y1279D02*
D03*
Y-1280D02*
D03*
Y-3839D02*
D03*
X43209Y3838D02*
D03*
Y1279D02*
D03*
Y-1280D02*
D03*
Y-3839D02*
D03*
X-27657Y-161319D02*
D03*
Y-158760D02*
D03*
Y-156201D02*
D03*
Y-153642D02*
D03*
X-43209Y-161319D02*
D03*
Y-158760D02*
D03*
Y-156201D02*
D03*
Y-153642D02*
D03*
D13*
X466240Y201280D02*
D03*
X478642D02*
D03*
X466240Y192421D02*
D03*
X478642D02*
D03*
X-72539Y-201280D02*
D03*
X-84941D02*
D03*
X-72539Y-192421D02*
D03*
X-84941D02*
D03*
X466240Y122539D02*
D03*
X478642D02*
D03*
X466240Y113681D02*
D03*
X478642D02*
D03*
X-72539Y-122539D02*
D03*
X-84941D02*
D03*
X-72539Y-113681D02*
D03*
X-84941D02*
D03*
X466240Y43799D02*
D03*
X478642D02*
D03*
X466240Y34941D02*
D03*
X478642D02*
D03*
X-72539Y-43799D02*
D03*
X-84941D02*
D03*
X-72539Y-34941D02*
D03*
X-84941D02*
D03*
X466240Y-34941D02*
D03*
X478642D02*
D03*
X466240Y-43799D02*
D03*
X478642D02*
D03*
X-72539Y34941D02*
D03*
X-84941D02*
D03*
X-72539Y43799D02*
D03*
X-84941D02*
D03*
X466240Y-113681D02*
D03*
X478642D02*
D03*
X466240Y-122539D02*
D03*
X478642D02*
D03*
X-72539Y113681D02*
D03*
X-84941D02*
D03*
X-72539Y122539D02*
D03*
X-84941D02*
D03*
X466240Y-192421D02*
D03*
X478642D02*
D03*
X466240Y-201280D02*
D03*
X478642D02*
D03*
X-72539Y192421D02*
D03*
X-84941D02*
D03*
X-72539Y201280D02*
D03*
X-84941D02*
D03*
X387500Y201280D02*
D03*
X399902D02*
D03*
X387500Y192421D02*
D03*
X399902D02*
D03*
X-151279Y-201280D02*
D03*
X-163681D02*
D03*
X-151279Y-192421D02*
D03*
X-163681D02*
D03*
X387500Y122539D02*
D03*
X399902D02*
D03*
X387500Y113681D02*
D03*
X399902D02*
D03*
X-151279Y-122539D02*
D03*
X-163681D02*
D03*
X-151279Y-113681D02*
D03*
X-163681D02*
D03*
X387500Y43799D02*
D03*
X399902D02*
D03*
X387500Y34941D02*
D03*
X399902D02*
D03*
X-151279Y-43799D02*
D03*
X-163681D02*
D03*
X-151279Y-34941D02*
D03*
X-163681D02*
D03*
X387500Y-34941D02*
D03*
X399902D02*
D03*
X387500Y-43799D02*
D03*
X399902D02*
D03*
X-151279Y34941D02*
D03*
X-163681D02*
D03*
X-151279Y43799D02*
D03*
X-163681D02*
D03*
X387500Y-113681D02*
D03*
X399902D02*
D03*
X387500Y-122539D02*
D03*
X399902D02*
D03*
X-151279Y113681D02*
D03*
X-163681D02*
D03*
X-151279Y122539D02*
D03*
X-163681D02*
D03*
X387500Y-192421D02*
D03*
X399902D02*
D03*
X387500Y-201280D02*
D03*
X399902D02*
D03*
X-151279Y192421D02*
D03*
X-163681D02*
D03*
X-151279Y201280D02*
D03*
X-163681D02*
D03*
X308760Y201280D02*
D03*
X321162D02*
D03*
X308760Y192421D02*
D03*
X321162D02*
D03*
X-230020Y-201280D02*
D03*
X-242421D02*
D03*
X-230020Y-192421D02*
D03*
X-242421D02*
D03*
X308760Y122539D02*
D03*
X321162D02*
D03*
X308760Y113681D02*
D03*
X321162D02*
D03*
X-230020Y-122539D02*
D03*
X-242421D02*
D03*
X-230020Y-113681D02*
D03*
X-242421D02*
D03*
X308760Y43799D02*
D03*
X321162D02*
D03*
X308760Y34941D02*
D03*
X321162D02*
D03*
X-230020Y-43799D02*
D03*
X-242421D02*
D03*
X-230020Y-34941D02*
D03*
X-242421D02*
D03*
X308760Y-34941D02*
D03*
X321162D02*
D03*
X308760Y-43799D02*
D03*
X321162D02*
D03*
X-230020Y34941D02*
D03*
X-242421D02*
D03*
X-230020Y43799D02*
D03*
X-242421D02*
D03*
X308760Y-113681D02*
D03*
X321162D02*
D03*
X308760Y-122539D02*
D03*
X321162D02*
D03*
X-230020Y113681D02*
D03*
X-242421D02*
D03*
X-230020Y122539D02*
D03*
X-242421D02*
D03*
X308760Y-192421D02*
D03*
X321162D02*
D03*
X308760Y-201280D02*
D03*
X321162D02*
D03*
X-230020Y192421D02*
D03*
X-242421D02*
D03*
X-230020Y201280D02*
D03*
X-242421D02*
D03*
X230020Y201280D02*
D03*
X242421D02*
D03*
X230020Y192421D02*
D03*
X242421D02*
D03*
X-308760Y-201280D02*
D03*
X-321162D02*
D03*
X-308760Y-192421D02*
D03*
X-321162D02*
D03*
X230020Y122539D02*
D03*
X242421D02*
D03*
X230020Y113681D02*
D03*
X242421D02*
D03*
X-308760Y-122539D02*
D03*
X-321162D02*
D03*
X-308760Y-113681D02*
D03*
X-321162D02*
D03*
X230020Y43799D02*
D03*
X242421D02*
D03*
X230020Y34941D02*
D03*
X242421D02*
D03*
X-308760Y-43799D02*
D03*
X-321162D02*
D03*
X-308760Y-34941D02*
D03*
X-321162D02*
D03*
X230020Y-34941D02*
D03*
X242421D02*
D03*
X230020Y-43799D02*
D03*
X242421D02*
D03*
X-308760Y34941D02*
D03*
X-321162D02*
D03*
X-308760Y43799D02*
D03*
X-321162D02*
D03*
X230020Y-113681D02*
D03*
X242421D02*
D03*
X230020Y-122539D02*
D03*
X242421D02*
D03*
X-308760Y113681D02*
D03*
X-321162D02*
D03*
X-308760Y122539D02*
D03*
X-321162D02*
D03*
X230020Y-192421D02*
D03*
X242421D02*
D03*
X230020Y-201280D02*
D03*
X242421D02*
D03*
X-308760Y192421D02*
D03*
X-321162D02*
D03*
X-308760Y201280D02*
D03*
X-321162D02*
D03*
X151279Y201280D02*
D03*
X163681D02*
D03*
X151279Y192421D02*
D03*
X163681D02*
D03*
X-387500Y-201280D02*
D03*
X-399902D02*
D03*
X-387500Y-192421D02*
D03*
X-399902D02*
D03*
X151279Y122539D02*
D03*
X163681D02*
D03*
X151279Y113681D02*
D03*
X163681D02*
D03*
X-387500Y-122539D02*
D03*
X-399902D02*
D03*
X-387500Y-113681D02*
D03*
X-399902D02*
D03*
X151279Y43799D02*
D03*
X163681D02*
D03*
X151279Y34941D02*
D03*
X163681D02*
D03*
X-387500Y-43799D02*
D03*
X-399902D02*
D03*
X-387500Y-34941D02*
D03*
X-399902D02*
D03*
X151279Y-34941D02*
D03*
X163681D02*
D03*
X151279Y-43799D02*
D03*
X163681D02*
D03*
X-387500Y34941D02*
D03*
X-399902D02*
D03*
X-387500Y43799D02*
D03*
X-399902D02*
D03*
X151279Y-113681D02*
D03*
X163681D02*
D03*
X151279Y-122539D02*
D03*
X163681D02*
D03*
X-387500Y113681D02*
D03*
X-399902D02*
D03*
X-387500Y122539D02*
D03*
X-399902D02*
D03*
X151279Y-192421D02*
D03*
X163681D02*
D03*
X151279Y-201280D02*
D03*
X163681D02*
D03*
X-387500Y192421D02*
D03*
X-399902D02*
D03*
X-387500Y201280D02*
D03*
X-399902D02*
D03*
X72539Y201280D02*
D03*
X84941D02*
D03*
X72539Y192421D02*
D03*
X84941D02*
D03*
X-466240Y-201280D02*
D03*
X-478642D02*
D03*
X-466240Y-192421D02*
D03*
X-478642D02*
D03*
X72539Y122539D02*
D03*
X84941D02*
D03*
X72539Y113681D02*
D03*
X84941D02*
D03*
X-466240Y-122539D02*
D03*
X-478642D02*
D03*
X-466240Y-113681D02*
D03*
X-478642D02*
D03*
X72539Y43799D02*
D03*
X84941D02*
D03*
X72539Y34941D02*
D03*
X84941D02*
D03*
X-466240Y-43799D02*
D03*
X-478642D02*
D03*
X-466240Y-34941D02*
D03*
X-478642D02*
D03*
X72539Y-34941D02*
D03*
X84941D02*
D03*
X72539Y-43799D02*
D03*
X84941D02*
D03*
X-466240Y34941D02*
D03*
X-478642D02*
D03*
X-466240Y43799D02*
D03*
X-478642D02*
D03*
X72539Y-113681D02*
D03*
X84941D02*
D03*
X72539Y-122539D02*
D03*
X84941D02*
D03*
X-466240Y113681D02*
D03*
X-478642D02*
D03*
X-466240Y122539D02*
D03*
X-478642D02*
D03*
X72539Y-192421D02*
D03*
X84941D02*
D03*
X72539Y-201280D02*
D03*
X84941D02*
D03*
X-466240Y192421D02*
D03*
X-478642D02*
D03*
X-466240Y201280D02*
D03*
X-478642D02*
D03*
D14*
X472441Y199902D02*
D03*
Y193799D02*
D03*
X-78740Y-199902D02*
D03*
Y-193799D02*
D03*
X472441Y121161D02*
D03*
Y115059D02*
D03*
X-78740Y-121161D02*
D03*
Y-115059D02*
D03*
X472441Y42421D02*
D03*
Y36319D02*
D03*
X-78740Y-42421D02*
D03*
Y-36319D02*
D03*
X472441Y-36319D02*
D03*
Y-42421D02*
D03*
X-78740Y36319D02*
D03*
Y42421D02*
D03*
X472441Y-115059D02*
D03*
Y-121161D02*
D03*
X-78740Y115059D02*
D03*
Y121161D02*
D03*
X472441Y-193799D02*
D03*
Y-199902D02*
D03*
X-78740Y193799D02*
D03*
Y199902D02*
D03*
X393701Y199902D02*
D03*
Y193799D02*
D03*
X-157480Y-199902D02*
D03*
Y-193799D02*
D03*
X393701Y121161D02*
D03*
Y115059D02*
D03*
X-157480Y-121161D02*
D03*
Y-115059D02*
D03*
X393701Y42421D02*
D03*
Y36319D02*
D03*
X-157480Y-42421D02*
D03*
Y-36319D02*
D03*
X393701Y-36319D02*
D03*
Y-42421D02*
D03*
X-157480Y36319D02*
D03*
Y42421D02*
D03*
X393701Y-115059D02*
D03*
Y-121161D02*
D03*
X-157480Y115059D02*
D03*
Y121161D02*
D03*
X393701Y-193799D02*
D03*
Y-199902D02*
D03*
X-157480Y193799D02*
D03*
Y199902D02*
D03*
X314961Y199902D02*
D03*
Y193799D02*
D03*
X-236220Y-199902D02*
D03*
Y-193799D02*
D03*
X314961Y121161D02*
D03*
Y115059D02*
D03*
X-236220Y-121161D02*
D03*
Y-115059D02*
D03*
X314961Y42421D02*
D03*
Y36319D02*
D03*
X-236220Y-42421D02*
D03*
Y-36319D02*
D03*
X314961Y-36319D02*
D03*
Y-42421D02*
D03*
X-236220Y36319D02*
D03*
Y42421D02*
D03*
X314961Y-115059D02*
D03*
Y-121161D02*
D03*
X-236220Y115059D02*
D03*
Y121161D02*
D03*
X314961Y-193799D02*
D03*
Y-199902D02*
D03*
X-236220Y193799D02*
D03*
Y199902D02*
D03*
X236220Y199902D02*
D03*
Y193799D02*
D03*
X-314961Y-199902D02*
D03*
Y-193799D02*
D03*
X236220Y121161D02*
D03*
Y115059D02*
D03*
X-314961Y-121161D02*
D03*
Y-115059D02*
D03*
X236220Y42421D02*
D03*
Y36319D02*
D03*
X-314961Y-42421D02*
D03*
Y-36319D02*
D03*
X236220Y-36319D02*
D03*
Y-42421D02*
D03*
X-314961Y36319D02*
D03*
Y42421D02*
D03*
X236220Y-115059D02*
D03*
Y-121161D02*
D03*
X-314961Y115059D02*
D03*
Y121161D02*
D03*
X236220Y-193799D02*
D03*
Y-199902D02*
D03*
X-314961Y193799D02*
D03*
Y199902D02*
D03*
X157480Y199902D02*
D03*
Y193799D02*
D03*
X-393701Y-199902D02*
D03*
Y-193799D02*
D03*
X157480Y121161D02*
D03*
Y115059D02*
D03*
X-393701Y-121161D02*
D03*
Y-115059D02*
D03*
X157480Y42421D02*
D03*
Y36319D02*
D03*
X-393701Y-42421D02*
D03*
Y-36319D02*
D03*
X157480Y-36319D02*
D03*
Y-42421D02*
D03*
X-393701Y36319D02*
D03*
Y42421D02*
D03*
X157480Y-115059D02*
D03*
Y-121161D02*
D03*
X-393701Y115059D02*
D03*
Y121161D02*
D03*
X157480Y-193799D02*
D03*
Y-199902D02*
D03*
X-393701Y193799D02*
D03*
Y199902D02*
D03*
X78740Y199902D02*
D03*
Y193799D02*
D03*
X-472441Y-199902D02*
D03*
Y-193799D02*
D03*
X78740Y121161D02*
D03*
Y115059D02*
D03*
X-472441Y-121161D02*
D03*
Y-115059D02*
D03*
X78740Y42421D02*
D03*
Y36319D02*
D03*
X-472441Y-42421D02*
D03*
Y-36319D02*
D03*
X78740Y-36319D02*
D03*
Y-42421D02*
D03*
X-472441Y36319D02*
D03*
Y42421D02*
D03*
X78740Y-115059D02*
D03*
Y-121161D02*
D03*
X-472441Y115059D02*
D03*
Y121161D02*
D03*
X78740Y-193799D02*
D03*
Y-199902D02*
D03*
X-472441Y193799D02*
D03*
Y199902D02*
D03*
D15*
X25492Y20866D02*
D03*
X45374D02*
D03*
X-25492Y-178346D02*
D03*
X-45374D02*
D03*
D16*
X11417Y20866D02*
D03*
Y5118D02*
D03*
X-11417Y-178346D02*
D03*
Y-162598D02*
D03*
D17*
X62008Y-3051D02*
D03*
Y2854D02*
D03*
X-62008Y-154429D02*
D03*
Y-160335D02*
D03*
X55905Y7776D02*
D03*
Y1870D02*
D03*
X-55905Y-165256D02*
D03*
Y-159350D02*
D03*
X55905Y-2067D02*
D03*
Y-7973D02*
D03*
X-55905Y-155413D02*
D03*
Y-149508D02*
D03*
X19488Y98721D02*
D03*
Y104626D02*
D03*
D18*
X4724Y-16339D02*
D03*
Y-4921D02*
D03*
X-4331Y-141142D02*
D03*
Y-152559D02*
D03*
X13779Y-16339D02*
D03*
Y-4921D02*
D03*
X-13779Y-141142D02*
D03*
Y-152559D02*
D03*
D19*
X22441Y154134D02*
D03*
X-22441D02*
D03*
D20*
X-9842Y125394D02*
D03*
X-0D02*
D03*
X9843D02*
D03*
D21*
X15650Y109153D02*
D03*
X21555D02*
D03*
X30315Y103543D02*
D03*
X24409D02*
D03*
D22*
X-20965Y-127067D02*
Y81693D01*
X-26870Y-132972D02*
X-20965Y-127067D01*
X-26870Y-147539D02*
Y-132972D01*
X-39862Y-189075D02*
Y-167940D01*
X-47244Y-196457D02*
X-39862Y-189075D01*
X-47244Y-200000D02*
Y-196457D01*
X-43209Y-164594D02*
X-39862Y-167940D01*
X-43209Y-164594D02*
Y-161319D01*
X-23622Y-200000D02*
Y-196457D01*
X-31201Y-188878D02*
X-23622Y-196457D01*
X-31201Y-188878D02*
Y-151870D01*
X39862Y7185D02*
X43209Y3838D01*
X39862Y7185D02*
Y43898D01*
X-31201Y-151870D02*
X-26870Y-147539D01*
X-6398Y135925D02*
X-4232Y138091D01*
X13976D01*
X-6398Y96260D02*
Y135925D01*
X-20965Y81693D02*
X-6398Y96260D01*
X24409Y103543D02*
Y127657D01*
X13976Y138091D02*
X24409Y127657D01*
X19488Y104626D02*
X19488Y104626D01*
Y98721D02*
X21260D01*
X24409Y101870D01*
Y103543D01*
X19488Y43701D02*
Y98721D01*
X18307Y42520D02*
X19488Y43701D01*
X19488Y104626D02*
Y106201D01*
X21555Y108268D01*
Y109153D01*
X9843Y125394D02*
X15354D01*
X21555Y119193D01*
Y109153D02*
Y119193D01*
D23*
X-43209Y-156201D02*
X-36713D01*
Y-158760D02*
X-35433Y-157480D01*
X-43209Y-158760D02*
X-36713D01*
X-55905Y-156201D02*
Y-155413D01*
Y-158760D02*
Y-156201D01*
Y-159350D02*
Y-158760D01*
X43209Y1279D02*
X55315D01*
X55905Y1870D01*
X43209Y-1280D02*
X55118D01*
X55905Y-2067D01*
Y1870D01*
X35433Y0D02*
X36713Y1279D01*
X35433Y0D02*
X36713Y-1280D01*
X-55905Y-158760D02*
X-43209D01*
X-55905Y-156201D02*
X-43209D01*
D24*
X196850Y-196850D02*
D03*
Y196850D02*
D03*
X-196851D02*
D03*
Y-196850D02*
D03*
X-147638Y147638D02*
D03*
Y-147638D02*
D03*
X147638D02*
D03*
Y147638D02*
D03*
X-433071Y196850D02*
D03*
X433071Y196850D02*
D03*
Y-196850D02*
D03*
X-433071D02*
D03*
D25*
X29528Y187008D02*
D03*
X-29528D02*
D03*
M02*
