%FSLAX25Y25*%
%MOIN*%
G70*
G01*
G75*
G04 Layer_Color=255*
%ADD10R,0.04724X0.13386*%
%ADD11R,0.03543X0.02362*%
%ADD12R,0.02362X0.03543*%
%ADD13R,0.05315X0.01772*%
%ADD14R,0.06693X0.07874*%
%ADD15R,0.11024X0.04921*%
%ADD16R,0.01378X0.02165*%
%ADD17R,0.09252X0.20079*%
%ADD18R,0.06693X0.09843*%
%ADD19R,0.03543X0.07087*%
%ADD20R,0.07087X0.03543*%
%ADD21R,0.15354X0.24410*%
%ADD22R,0.12992X0.17323*%
%ADD23R,0.07087X0.15354*%
%ADD24R,0.05118X0.21654*%
%ADD25C,0.00100*%
%ADD26C,0.00591*%
%ADD27C,0.01772*%
%ADD28R,0.03740X0.03150*%
%ADD29C,0.07874*%
%ADD30O,0.15748X0.29134*%
%ADD31C,0.15748*%
%ADD32C,0.23622*%
D29*
X0Y310236D02*
D03*
D30*
X-39370Y423228D02*
D03*
X39370Y344488D02*
D03*
X-39370D02*
D03*
X39370Y423228D02*
D03*
X-29528Y-423228D02*
D03*
X29528D02*
D03*
D31*
X-472441Y-393701D02*
D03*
X472441D02*
D03*
Y393701D02*
D03*
X-472441D02*
D03*
X147638Y147638D02*
D03*
X196850Y196851D02*
D03*
X147638Y-147638D02*
D03*
X196851Y-196850D02*
D03*
X-147638Y-147638D02*
D03*
X-196850Y-196851D02*
D03*
X-147638Y147638D02*
D03*
X-196851Y196850D02*
D03*
D32*
X393701Y-393701D02*
D03*
X-393701D02*
D03*
Y393701D02*
D03*
X393701D02*
D03*
M02*
