%FSLAX25Y25*%
%MOIN*%
G70*
G01*
G75*
%ADD10R,0.04724X0.13386*%
%ADD11R,0.03543X0.02362*%
%ADD12R,0.02362X0.03543*%
%ADD13R,0.05315X0.01772*%
%ADD14R,0.06693X0.07874*%
%ADD15R,0.11024X0.04921*%
%ADD16R,0.01378X0.02165*%
%ADD17R,0.09252X0.20079*%
%ADD18R,0.06693X0.09843*%
%ADD19R,0.03543X0.07087*%
%ADD20R,0.07087X0.03543*%
%ADD21R,0.15354X0.24410*%
%ADD22R,0.12992X0.17323*%
%ADD23R,0.07087X0.15354*%
%ADD24R,0.05118X0.21654*%
%ADD25C,0.00100*%
%ADD26C,0.00591*%
%ADD27C,0.01772*%
%ADD28R,0.03740X0.03150*%
%ADD29C,0.07874*%
%ADD30O,0.15748X0.29134*%
%ADD31C,0.15748*%
%ADD32C,0.23622*%
D10*
X47244Y199213D02*
D03*
X23622D02*
D03*
X47244Y125197D02*
D03*
X23622D02*
D03*
X-47244Y16535D02*
D03*
X-23622D02*
D03*
X-47244Y-220079D02*
D03*
X-23622D02*
D03*
X23622Y-94882D02*
D03*
X47244D02*
D03*
X23622Y141339D02*
D03*
X47244D02*
D03*
X-47244Y75197D02*
D03*
X-23622D02*
D03*
Y-278740D02*
D03*
X-47244D02*
D03*
D11*
X-9744Y-326279D02*
D03*
Y-332185D02*
D03*
X-62008Y-239075D02*
D03*
Y-233169D02*
D03*
Y56201D02*
D03*
Y62106D02*
D03*
X-55905Y-238090D02*
D03*
Y-243996D02*
D03*
Y57185D02*
D03*
Y51279D02*
D03*
Y-228248D02*
D03*
Y-234154D02*
D03*
Y67028D02*
D03*
Y61122D02*
D03*
X55905Y-80807D02*
D03*
Y-86713D02*
D03*
Y-70965D02*
D03*
Y-76870D02*
D03*
Y165256D02*
D03*
Y159350D02*
D03*
X62008Y-81791D02*
D03*
Y-75886D02*
D03*
Y154429D02*
D03*
Y160335D02*
D03*
X55905Y155413D02*
D03*
Y149508D02*
D03*
D12*
X1181Y-326181D02*
D03*
X-4724D02*
D03*
X1181Y-332283D02*
D03*
X-4724D02*
D03*
D13*
X-43209Y-232382D02*
D03*
Y-234941D02*
D03*
Y-237500D02*
D03*
Y-240059D02*
D03*
X-27657Y-232382D02*
D03*
Y-234941D02*
D03*
Y-237500D02*
D03*
Y-240059D02*
D03*
X-43209Y62894D02*
D03*
Y60335D02*
D03*
Y57776D02*
D03*
Y55216D02*
D03*
X-27657Y62894D02*
D03*
Y60335D02*
D03*
Y57776D02*
D03*
Y55216D02*
D03*
X27657Y-74902D02*
D03*
Y-77461D02*
D03*
Y-80020D02*
D03*
Y-82579D02*
D03*
X43209Y-74902D02*
D03*
Y-77461D02*
D03*
Y-80020D02*
D03*
Y-82579D02*
D03*
X27657Y161319D02*
D03*
Y158760D02*
D03*
Y156201D02*
D03*
Y153642D02*
D03*
X43209Y161319D02*
D03*
Y158760D02*
D03*
Y156201D02*
D03*
Y153642D02*
D03*
D14*
X-35433Y-236221D02*
D03*
Y59055D02*
D03*
X35433Y-78740D02*
D03*
Y157480D02*
D03*
D15*
X-78740Y-430020D02*
D03*
Y-436122D02*
D03*
Y42421D02*
D03*
Y36319D02*
D03*
Y-351279D02*
D03*
Y-357382D02*
D03*
Y121161D02*
D03*
Y115059D02*
D03*
Y-272539D02*
D03*
Y-278642D02*
D03*
Y199902D02*
D03*
Y193799D02*
D03*
Y-193799D02*
D03*
Y-199902D02*
D03*
Y278642D02*
D03*
Y272539D02*
D03*
Y-115059D02*
D03*
Y-121161D02*
D03*
Y357382D02*
D03*
Y351279D02*
D03*
Y-36319D02*
D03*
Y-42421D02*
D03*
Y436122D02*
D03*
Y430020D02*
D03*
X-157480Y-430020D02*
D03*
Y-436122D02*
D03*
Y42421D02*
D03*
Y36319D02*
D03*
Y-351279D02*
D03*
Y-357382D02*
D03*
Y121161D02*
D03*
Y115059D02*
D03*
Y-272539D02*
D03*
Y-278642D02*
D03*
Y199902D02*
D03*
Y193799D02*
D03*
Y-193799D02*
D03*
Y-199902D02*
D03*
Y278642D02*
D03*
Y272539D02*
D03*
Y-115059D02*
D03*
Y-121161D02*
D03*
Y357382D02*
D03*
Y351279D02*
D03*
Y-36319D02*
D03*
Y-42421D02*
D03*
Y436122D02*
D03*
Y430020D02*
D03*
X-236221Y-430020D02*
D03*
Y-436122D02*
D03*
Y42421D02*
D03*
Y36319D02*
D03*
Y-351279D02*
D03*
Y-357382D02*
D03*
Y121161D02*
D03*
Y115059D02*
D03*
Y-272539D02*
D03*
Y-278642D02*
D03*
Y199902D02*
D03*
Y193799D02*
D03*
Y-193799D02*
D03*
Y-199902D02*
D03*
Y278642D02*
D03*
Y272539D02*
D03*
Y-115059D02*
D03*
Y-121161D02*
D03*
Y357382D02*
D03*
Y351279D02*
D03*
Y-36319D02*
D03*
Y-42421D02*
D03*
Y436122D02*
D03*
Y430020D02*
D03*
X-314961Y-430020D02*
D03*
Y-436122D02*
D03*
Y42421D02*
D03*
Y36319D02*
D03*
Y-351279D02*
D03*
Y-357382D02*
D03*
Y121161D02*
D03*
Y115059D02*
D03*
Y-272539D02*
D03*
Y-278642D02*
D03*
Y199902D02*
D03*
Y193799D02*
D03*
Y-193799D02*
D03*
Y-199902D02*
D03*
Y278642D02*
D03*
Y272539D02*
D03*
Y-115059D02*
D03*
Y-121161D02*
D03*
Y357382D02*
D03*
Y351279D02*
D03*
Y-36319D02*
D03*
Y-42421D02*
D03*
Y436122D02*
D03*
Y430020D02*
D03*
X-393701Y-430020D02*
D03*
Y-436122D02*
D03*
Y42421D02*
D03*
Y36319D02*
D03*
Y-351279D02*
D03*
Y-357382D02*
D03*
Y121161D02*
D03*
Y115059D02*
D03*
Y-272539D02*
D03*
Y-278642D02*
D03*
Y199902D02*
D03*
Y193799D02*
D03*
Y-193799D02*
D03*
Y-199902D02*
D03*
Y278642D02*
D03*
Y272539D02*
D03*
Y-115059D02*
D03*
Y-121161D02*
D03*
Y357382D02*
D03*
Y351279D02*
D03*
Y-36319D02*
D03*
Y-42421D02*
D03*
Y436122D02*
D03*
Y430020D02*
D03*
X-472441Y-430020D02*
D03*
Y-436122D02*
D03*
Y42421D02*
D03*
Y36319D02*
D03*
Y-351279D02*
D03*
Y-357382D02*
D03*
Y121161D02*
D03*
Y115059D02*
D03*
Y-272539D02*
D03*
Y-278642D02*
D03*
Y199902D02*
D03*
Y193799D02*
D03*
Y-193799D02*
D03*
Y-199902D02*
D03*
Y278642D02*
D03*
Y272539D02*
D03*
Y-115059D02*
D03*
Y-121161D02*
D03*
Y357382D02*
D03*
Y351279D02*
D03*
Y-36319D02*
D03*
Y-42421D02*
D03*
Y436122D02*
D03*
Y430020D02*
D03*
X78740Y-430020D02*
D03*
Y-436122D02*
D03*
Y42421D02*
D03*
Y36319D02*
D03*
Y-351279D02*
D03*
Y-357382D02*
D03*
Y121161D02*
D03*
Y115059D02*
D03*
Y-272539D02*
D03*
Y-278642D02*
D03*
Y199902D02*
D03*
Y193799D02*
D03*
Y-193799D02*
D03*
Y-199902D02*
D03*
Y278642D02*
D03*
Y272539D02*
D03*
Y-115059D02*
D03*
Y-121161D02*
D03*
Y357382D02*
D03*
Y351279D02*
D03*
Y-36319D02*
D03*
Y-42421D02*
D03*
Y436122D02*
D03*
Y430020D02*
D03*
X157480Y-430020D02*
D03*
Y-436122D02*
D03*
Y42421D02*
D03*
Y36319D02*
D03*
Y-351279D02*
D03*
Y-357382D02*
D03*
Y121161D02*
D03*
Y115059D02*
D03*
Y-272539D02*
D03*
Y-278642D02*
D03*
Y199902D02*
D03*
Y193799D02*
D03*
Y-193799D02*
D03*
Y-199902D02*
D03*
Y278642D02*
D03*
Y272539D02*
D03*
Y-115059D02*
D03*
Y-121161D02*
D03*
Y357382D02*
D03*
Y351279D02*
D03*
Y-36319D02*
D03*
Y-42421D02*
D03*
Y436122D02*
D03*
Y430020D02*
D03*
X236221Y-430020D02*
D03*
Y-436122D02*
D03*
Y42421D02*
D03*
Y36319D02*
D03*
Y-351279D02*
D03*
Y-357382D02*
D03*
Y121161D02*
D03*
Y115059D02*
D03*
Y-272539D02*
D03*
Y-278642D02*
D03*
Y199902D02*
D03*
Y193799D02*
D03*
Y-193799D02*
D03*
Y-199902D02*
D03*
Y278642D02*
D03*
Y272539D02*
D03*
Y-115059D02*
D03*
Y-121161D02*
D03*
Y357382D02*
D03*
Y351279D02*
D03*
Y-36319D02*
D03*
Y-42421D02*
D03*
Y436122D02*
D03*
Y430020D02*
D03*
X314961Y-430020D02*
D03*
Y-436122D02*
D03*
Y42421D02*
D03*
Y36319D02*
D03*
Y-351279D02*
D03*
Y-357382D02*
D03*
Y121161D02*
D03*
Y115059D02*
D03*
Y-272539D02*
D03*
Y-278642D02*
D03*
Y199902D02*
D03*
Y193799D02*
D03*
Y-193799D02*
D03*
Y-199902D02*
D03*
Y278642D02*
D03*
Y272539D02*
D03*
Y-115059D02*
D03*
Y-121161D02*
D03*
Y357382D02*
D03*
Y351279D02*
D03*
Y-36319D02*
D03*
Y-42421D02*
D03*
Y436122D02*
D03*
Y430020D02*
D03*
X393701Y-430020D02*
D03*
Y-436122D02*
D03*
Y42421D02*
D03*
Y36319D02*
D03*
Y-351279D02*
D03*
Y-357382D02*
D03*
Y121161D02*
D03*
Y115059D02*
D03*
Y-272539D02*
D03*
Y-278642D02*
D03*
Y199902D02*
D03*
Y193799D02*
D03*
Y-193799D02*
D03*
Y-199902D02*
D03*
Y278642D02*
D03*
Y272539D02*
D03*
Y-115059D02*
D03*
Y-121161D02*
D03*
Y357382D02*
D03*
Y351279D02*
D03*
Y-36319D02*
D03*
Y-42421D02*
D03*
Y436122D02*
D03*
Y430020D02*
D03*
X472441Y-430020D02*
D03*
Y-436122D02*
D03*
Y42421D02*
D03*
Y36319D02*
D03*
Y-351279D02*
D03*
Y-357382D02*
D03*
Y121161D02*
D03*
Y115059D02*
D03*
Y-272539D02*
D03*
Y-278642D02*
D03*
Y199902D02*
D03*
Y193799D02*
D03*
Y-193799D02*
D03*
Y-199902D02*
D03*
Y278642D02*
D03*
Y272539D02*
D03*
Y-115059D02*
D03*
Y-121161D02*
D03*
Y357382D02*
D03*
Y351279D02*
D03*
Y-36319D02*
D03*
Y-42421D02*
D03*
Y436122D02*
D03*
Y430020D02*
D03*
D16*
X-84941Y-428642D02*
D03*
X-72539D02*
D03*
X-84941Y-437500D02*
D03*
X-72539D02*
D03*
X-84941Y43799D02*
D03*
X-72539D02*
D03*
X-84941Y34941D02*
D03*
X-72539D02*
D03*
X-84941Y-349902D02*
D03*
X-72539D02*
D03*
X-84941Y-358760D02*
D03*
X-72539D02*
D03*
X-84941Y122539D02*
D03*
X-72539D02*
D03*
X-84941Y113681D02*
D03*
X-72539D02*
D03*
X-84941Y-271161D02*
D03*
X-72539D02*
D03*
X-84941Y-280020D02*
D03*
X-72539D02*
D03*
X-84941Y201279D02*
D03*
X-72539D02*
D03*
X-84941Y192421D02*
D03*
X-72539D02*
D03*
X-84941Y-192421D02*
D03*
X-72539D02*
D03*
X-84941Y-201279D02*
D03*
X-72539D02*
D03*
X-84941Y280020D02*
D03*
X-72539D02*
D03*
X-84941Y271161D02*
D03*
X-72539D02*
D03*
X-84941Y-113681D02*
D03*
X-72539D02*
D03*
X-84941Y-122539D02*
D03*
X-72539D02*
D03*
X-84941Y358760D02*
D03*
X-72539D02*
D03*
X-84941Y349902D02*
D03*
X-72539D02*
D03*
X-84941Y-34941D02*
D03*
X-72539D02*
D03*
X-84941Y-43799D02*
D03*
X-72539D02*
D03*
X-84941Y437500D02*
D03*
X-72539D02*
D03*
X-84941Y428642D02*
D03*
X-72539D02*
D03*
X-163681Y-428642D02*
D03*
X-151279D02*
D03*
X-163681Y-437500D02*
D03*
X-151279D02*
D03*
X-163681Y43799D02*
D03*
X-151279D02*
D03*
X-163681Y34941D02*
D03*
X-151279D02*
D03*
X-163681Y-349902D02*
D03*
X-151279D02*
D03*
X-163681Y-358760D02*
D03*
X-151279D02*
D03*
X-163681Y122539D02*
D03*
X-151279D02*
D03*
X-163681Y113681D02*
D03*
X-151279D02*
D03*
X-163681Y-271161D02*
D03*
X-151279D02*
D03*
X-163681Y-280020D02*
D03*
X-151279D02*
D03*
X-163681Y201279D02*
D03*
X-151279D02*
D03*
X-163681Y192421D02*
D03*
X-151279D02*
D03*
X-163681Y-192421D02*
D03*
X-151279D02*
D03*
X-163681Y-201279D02*
D03*
X-151279D02*
D03*
X-163681Y280020D02*
D03*
X-151279D02*
D03*
X-163681Y271161D02*
D03*
X-151279D02*
D03*
X-163681Y-113681D02*
D03*
X-151279D02*
D03*
X-163681Y-122539D02*
D03*
X-151279D02*
D03*
X-163681Y358760D02*
D03*
X-151279D02*
D03*
X-163681Y349902D02*
D03*
X-151279D02*
D03*
X-163681Y-34941D02*
D03*
X-151279D02*
D03*
X-163681Y-43799D02*
D03*
X-151279D02*
D03*
X-163681Y437500D02*
D03*
X-151279D02*
D03*
X-163681Y428642D02*
D03*
X-151279D02*
D03*
X-242421Y-428642D02*
D03*
X-230020D02*
D03*
X-242421Y-437500D02*
D03*
X-230020D02*
D03*
X-242421Y43799D02*
D03*
X-230020D02*
D03*
X-242421Y34941D02*
D03*
X-230020D02*
D03*
X-242421Y-349902D02*
D03*
X-230020D02*
D03*
X-242421Y-358760D02*
D03*
X-230020D02*
D03*
X-242421Y122539D02*
D03*
X-230020D02*
D03*
X-242421Y113681D02*
D03*
X-230020D02*
D03*
X-242421Y-271161D02*
D03*
X-230020D02*
D03*
X-242421Y-280020D02*
D03*
X-230020D02*
D03*
X-242421Y201279D02*
D03*
X-230020D02*
D03*
X-242421Y192421D02*
D03*
X-230020D02*
D03*
X-242421Y-192421D02*
D03*
X-230020D02*
D03*
X-242421Y-201279D02*
D03*
X-230020D02*
D03*
X-242421Y280020D02*
D03*
X-230020D02*
D03*
X-242421Y271161D02*
D03*
X-230020D02*
D03*
X-242421Y-113681D02*
D03*
X-230020D02*
D03*
X-242421Y-122539D02*
D03*
X-230020D02*
D03*
X-242421Y358760D02*
D03*
X-230020D02*
D03*
X-242421Y349902D02*
D03*
X-230020D02*
D03*
X-242421Y-34941D02*
D03*
X-230020D02*
D03*
X-242421Y-43799D02*
D03*
X-230020D02*
D03*
X-242421Y437500D02*
D03*
X-230020D02*
D03*
X-242421Y428642D02*
D03*
X-230020D02*
D03*
X-321161Y-428642D02*
D03*
X-308760D02*
D03*
X-321161Y-437500D02*
D03*
X-308760D02*
D03*
X-321161Y43799D02*
D03*
X-308760D02*
D03*
X-321161Y34941D02*
D03*
X-308760D02*
D03*
X-321161Y-349902D02*
D03*
X-308760D02*
D03*
X-321161Y-358760D02*
D03*
X-308760D02*
D03*
X-321161Y122539D02*
D03*
X-308760D02*
D03*
X-321161Y113681D02*
D03*
X-308760D02*
D03*
X-321161Y-271161D02*
D03*
X-308760D02*
D03*
X-321161Y-280020D02*
D03*
X-308760D02*
D03*
X-321161Y201279D02*
D03*
X-308760D02*
D03*
X-321161Y192421D02*
D03*
X-308760D02*
D03*
X-321161Y-192421D02*
D03*
X-308760D02*
D03*
X-321161Y-201279D02*
D03*
X-308760D02*
D03*
X-321161Y280020D02*
D03*
X-308760D02*
D03*
X-321161Y271161D02*
D03*
X-308760D02*
D03*
X-321161Y-113681D02*
D03*
X-308760D02*
D03*
X-321161Y-122539D02*
D03*
X-308760D02*
D03*
X-321161Y358760D02*
D03*
X-308760D02*
D03*
X-321161Y349902D02*
D03*
X-308760D02*
D03*
X-321161Y-34941D02*
D03*
X-308760D02*
D03*
X-321161Y-43799D02*
D03*
X-308760D02*
D03*
X-321161Y437500D02*
D03*
X-308760D02*
D03*
X-321161Y428642D02*
D03*
X-308760D02*
D03*
X-399902Y-428642D02*
D03*
X-387500D02*
D03*
X-399902Y-437500D02*
D03*
X-387500D02*
D03*
X-399902Y43799D02*
D03*
X-387500D02*
D03*
X-399902Y34941D02*
D03*
X-387500D02*
D03*
X-399902Y-349902D02*
D03*
X-387500D02*
D03*
X-399902Y-358760D02*
D03*
X-387500D02*
D03*
X-399902Y122539D02*
D03*
X-387500D02*
D03*
X-399902Y113681D02*
D03*
X-387500D02*
D03*
X-399902Y-271161D02*
D03*
X-387500D02*
D03*
X-399902Y-280020D02*
D03*
X-387500D02*
D03*
X-399902Y201279D02*
D03*
X-387500D02*
D03*
X-399902Y192421D02*
D03*
X-387500D02*
D03*
X-399902Y-192421D02*
D03*
X-387500D02*
D03*
X-399902Y-201279D02*
D03*
X-387500D02*
D03*
X-399902Y280020D02*
D03*
X-387500D02*
D03*
X-399902Y271161D02*
D03*
X-387500D02*
D03*
X-399902Y-113681D02*
D03*
X-387500D02*
D03*
X-399902Y-122539D02*
D03*
X-387500D02*
D03*
X-399902Y358760D02*
D03*
X-387500D02*
D03*
X-399902Y349902D02*
D03*
X-387500D02*
D03*
X-399902Y-34941D02*
D03*
X-387500D02*
D03*
X-399902Y-43799D02*
D03*
X-387500D02*
D03*
X-399902Y437500D02*
D03*
X-387500D02*
D03*
X-399902Y428642D02*
D03*
X-387500D02*
D03*
X-478642Y-428642D02*
D03*
X-466240D02*
D03*
X-478642Y-437500D02*
D03*
X-466240D02*
D03*
X-478642Y43799D02*
D03*
X-466240D02*
D03*
X-478642Y34941D02*
D03*
X-466240D02*
D03*
X-478642Y-349902D02*
D03*
X-466240D02*
D03*
X-478642Y-358760D02*
D03*
X-466240D02*
D03*
X-478642Y122539D02*
D03*
X-466240D02*
D03*
X-478642Y113681D02*
D03*
X-466240D02*
D03*
X-478642Y-271161D02*
D03*
X-466240D02*
D03*
X-478642Y-280020D02*
D03*
X-466240D02*
D03*
X-478642Y201279D02*
D03*
X-466240D02*
D03*
X-478642Y192421D02*
D03*
X-466240D02*
D03*
X-478642Y-192421D02*
D03*
X-466240D02*
D03*
X-478642Y-201279D02*
D03*
X-466240D02*
D03*
X-478642Y280020D02*
D03*
X-466240D02*
D03*
X-478642Y271161D02*
D03*
X-466240D02*
D03*
X-478642Y-113681D02*
D03*
X-466240D02*
D03*
X-478642Y-122539D02*
D03*
X-466240D02*
D03*
X-478642Y358760D02*
D03*
X-466240D02*
D03*
X-478642Y349902D02*
D03*
X-466240D02*
D03*
X-478642Y-34941D02*
D03*
X-466240D02*
D03*
X-478642Y-43799D02*
D03*
X-466240D02*
D03*
X-478642Y437500D02*
D03*
X-466240D02*
D03*
X-478642Y428642D02*
D03*
X-466240D02*
D03*
X72539Y-428642D02*
D03*
X84941D02*
D03*
X72539Y-437500D02*
D03*
X84941D02*
D03*
X72539Y43799D02*
D03*
X84941D02*
D03*
X72539Y34941D02*
D03*
X84941D02*
D03*
X72539Y-349902D02*
D03*
X84941D02*
D03*
X72539Y-358760D02*
D03*
X84941D02*
D03*
X72539Y122539D02*
D03*
X84941D02*
D03*
X72539Y113681D02*
D03*
X84941D02*
D03*
X72539Y-271162D02*
D03*
X84941D02*
D03*
X72539Y-280020D02*
D03*
X84941D02*
D03*
X72539Y201279D02*
D03*
X84941D02*
D03*
X72539Y192421D02*
D03*
X84941D02*
D03*
X72539Y-192421D02*
D03*
X84941D02*
D03*
X72539Y-201279D02*
D03*
X84941D02*
D03*
X72539Y280020D02*
D03*
X84941D02*
D03*
X72539Y271161D02*
D03*
X84941D02*
D03*
X72539Y-113681D02*
D03*
X84941D02*
D03*
X72539Y-122539D02*
D03*
X84941D02*
D03*
X72539Y358760D02*
D03*
X84941D02*
D03*
X72539Y349902D02*
D03*
X84941D02*
D03*
X72539Y-34941D02*
D03*
X84941D02*
D03*
X72539Y-43799D02*
D03*
X84941D02*
D03*
X72539Y437500D02*
D03*
X84941D02*
D03*
X72539Y428642D02*
D03*
X84941D02*
D03*
X151279Y-428642D02*
D03*
X163681D02*
D03*
X151279Y-437500D02*
D03*
X163681D02*
D03*
X151279Y43799D02*
D03*
X163681D02*
D03*
X151279Y34941D02*
D03*
X163681D02*
D03*
X151279Y-349902D02*
D03*
X163681D02*
D03*
X151279Y-358760D02*
D03*
X163681D02*
D03*
X151279Y122539D02*
D03*
X163681D02*
D03*
X151279Y113681D02*
D03*
X163681D02*
D03*
X151279Y-271162D02*
D03*
X163681D02*
D03*
X151279Y-280020D02*
D03*
X163681D02*
D03*
X151279Y201279D02*
D03*
X163681D02*
D03*
X151279Y192421D02*
D03*
X163681D02*
D03*
X151279Y-192421D02*
D03*
X163681D02*
D03*
X151279Y-201279D02*
D03*
X163681D02*
D03*
X151279Y280020D02*
D03*
X163681D02*
D03*
X151279Y271161D02*
D03*
X163681D02*
D03*
X151279Y-113681D02*
D03*
X163681D02*
D03*
X151279Y-122539D02*
D03*
X163681D02*
D03*
X151279Y358760D02*
D03*
X163681D02*
D03*
X151279Y349902D02*
D03*
X163681D02*
D03*
X151279Y-34941D02*
D03*
X163681D02*
D03*
X151279Y-43799D02*
D03*
X163681D02*
D03*
X151279Y437500D02*
D03*
X163681D02*
D03*
X151279Y428642D02*
D03*
X163681D02*
D03*
X230020Y-428642D02*
D03*
X242421D02*
D03*
X230020Y-437500D02*
D03*
X242421D02*
D03*
X230020Y43799D02*
D03*
X242421D02*
D03*
X230020Y34941D02*
D03*
X242421D02*
D03*
X230020Y-349902D02*
D03*
X242421D02*
D03*
X230020Y-358760D02*
D03*
X242421D02*
D03*
X230020Y122539D02*
D03*
X242421D02*
D03*
X230020Y113681D02*
D03*
X242421D02*
D03*
X230020Y-271162D02*
D03*
X242421D02*
D03*
X230020Y-280020D02*
D03*
X242421D02*
D03*
X230020Y201279D02*
D03*
X242421D02*
D03*
X230020Y192421D02*
D03*
X242421D02*
D03*
X230020Y-192421D02*
D03*
X242421D02*
D03*
X230020Y-201279D02*
D03*
X242421D02*
D03*
X230020Y280020D02*
D03*
X242421D02*
D03*
X230020Y271161D02*
D03*
X242421D02*
D03*
X230020Y-113681D02*
D03*
X242421D02*
D03*
X230020Y-122539D02*
D03*
X242421D02*
D03*
X230020Y358760D02*
D03*
X242421D02*
D03*
X230020Y349902D02*
D03*
X242421D02*
D03*
X230020Y-34941D02*
D03*
X242421D02*
D03*
X230020Y-43799D02*
D03*
X242421D02*
D03*
X230020Y437500D02*
D03*
X242421D02*
D03*
X230020Y428642D02*
D03*
X242421D02*
D03*
X308760Y-428642D02*
D03*
X321161D02*
D03*
X308760Y-437500D02*
D03*
X321161D02*
D03*
X308760Y43799D02*
D03*
X321161D02*
D03*
X308760Y34941D02*
D03*
X321161D02*
D03*
X308760Y-349902D02*
D03*
X321161D02*
D03*
X308760Y-358760D02*
D03*
X321161D02*
D03*
X308760Y122539D02*
D03*
X321161D02*
D03*
X308760Y113681D02*
D03*
X321161D02*
D03*
X308760Y-271162D02*
D03*
X321161D02*
D03*
X308760Y-280020D02*
D03*
X321161D02*
D03*
X308760Y201279D02*
D03*
X321161D02*
D03*
X308760Y192421D02*
D03*
X321161D02*
D03*
X308760Y-192421D02*
D03*
X321161D02*
D03*
X308760Y-201279D02*
D03*
X321161D02*
D03*
X308760Y280020D02*
D03*
X321161D02*
D03*
X308760Y271161D02*
D03*
X321161D02*
D03*
X308760Y-113681D02*
D03*
X321161D02*
D03*
X308760Y-122539D02*
D03*
X321161D02*
D03*
X308760Y358760D02*
D03*
X321161D02*
D03*
X308760Y349902D02*
D03*
X321161D02*
D03*
X308760Y-34941D02*
D03*
X321161D02*
D03*
X308760Y-43799D02*
D03*
X321161D02*
D03*
X308760Y437500D02*
D03*
X321161D02*
D03*
X308760Y428642D02*
D03*
X321161D02*
D03*
X387500Y-428642D02*
D03*
X399902D02*
D03*
X387500Y-437500D02*
D03*
X399902D02*
D03*
X387500Y43799D02*
D03*
X399902D02*
D03*
X387500Y34941D02*
D03*
X399902D02*
D03*
X387500Y-349902D02*
D03*
X399902D02*
D03*
X387500Y-358760D02*
D03*
X399902D02*
D03*
X387500Y122539D02*
D03*
X399902D02*
D03*
X387500Y113681D02*
D03*
X399902D02*
D03*
X387500Y-271162D02*
D03*
X399902D02*
D03*
X387500Y-280020D02*
D03*
X399902D02*
D03*
X387500Y201279D02*
D03*
X399902D02*
D03*
X387500Y192421D02*
D03*
X399902D02*
D03*
X387500Y-192421D02*
D03*
X399902D02*
D03*
X387500Y-201279D02*
D03*
X399902D02*
D03*
X387500Y280020D02*
D03*
X399902D02*
D03*
X387500Y271161D02*
D03*
X399902D02*
D03*
X387500Y-113681D02*
D03*
X399902D02*
D03*
X387500Y-122539D02*
D03*
X399902D02*
D03*
X387500Y358760D02*
D03*
X399902D02*
D03*
X387500Y349902D02*
D03*
X399902D02*
D03*
X387500Y-34941D02*
D03*
X399902D02*
D03*
X387500Y-43799D02*
D03*
X399902D02*
D03*
X387500Y437500D02*
D03*
X399902D02*
D03*
X387500Y428642D02*
D03*
X399902D02*
D03*
X466240Y-428642D02*
D03*
X478642D02*
D03*
X466240Y-437500D02*
D03*
X478642D02*
D03*
X466240Y43799D02*
D03*
X478642D02*
D03*
X466240Y34941D02*
D03*
X478642D02*
D03*
X466240Y-349902D02*
D03*
X478642D02*
D03*
X466240Y-358760D02*
D03*
X478642D02*
D03*
X466240Y122539D02*
D03*
X478642D02*
D03*
X466240Y113681D02*
D03*
X478642D02*
D03*
X466240Y-271162D02*
D03*
X478642D02*
D03*
X466240Y-280020D02*
D03*
X478642D02*
D03*
X466240Y201279D02*
D03*
X478642D02*
D03*
X466240Y192421D02*
D03*
X478642D02*
D03*
X466240Y-192421D02*
D03*
X478642D02*
D03*
X466240Y-201279D02*
D03*
X478642D02*
D03*
X466240Y280020D02*
D03*
X478642D02*
D03*
X466240Y271161D02*
D03*
X478642D02*
D03*
X466240Y-113681D02*
D03*
X478642D02*
D03*
X466240Y-122539D02*
D03*
X478642D02*
D03*
X466240Y358760D02*
D03*
X478642D02*
D03*
X466240Y349902D02*
D03*
X478642D02*
D03*
X466240Y-34941D02*
D03*
X478642D02*
D03*
X466240Y-43799D02*
D03*
X478642D02*
D03*
X466240Y437500D02*
D03*
X478642D02*
D03*
X466240Y428642D02*
D03*
X478642D02*
D03*
D17*
X-45374Y-257087D02*
D03*
X-25492D02*
D03*
X-45374Y38189D02*
D03*
X-25492D02*
D03*
X25492Y-57874D02*
D03*
X45374D02*
D03*
X25492Y178347D02*
D03*
X45374D02*
D03*
D18*
X-11417Y-232382D02*
D03*
Y-248130D02*
D03*
Y62795D02*
D03*
Y47047D02*
D03*
X11417Y-57874D02*
D03*
Y-73622D02*
D03*
Y178347D02*
D03*
Y162598D02*
D03*
D19*
X-17913Y-206693D02*
D03*
X-29331D02*
D03*
X-21063Y88189D02*
D03*
X-32480D02*
D03*
X-17913Y-196949D02*
D03*
X-29331D02*
D03*
X-21063Y97933D02*
D03*
X-32480D02*
D03*
D20*
X13780Y-95079D02*
D03*
Y-83661D02*
D03*
Y141142D02*
D03*
Y152559D02*
D03*
X4035Y-95079D02*
D03*
Y-83661D02*
D03*
Y141142D02*
D03*
Y152559D02*
D03*
D21*
X-25394Y295276D02*
D03*
X25394D02*
D03*
D22*
X-2559Y260039D02*
D03*
D23*
X22441Y-390354D02*
D03*
X-22441D02*
D03*
D24*
X-9843Y-361614D02*
D03*
X0D02*
D03*
X9843D02*
D03*
D29*
X0Y310236D02*
D03*
D30*
X-39370Y423228D02*
D03*
X39370Y344488D02*
D03*
X-39370D02*
D03*
X39370Y423228D02*
D03*
X-29528Y-423228D02*
D03*
X29528D02*
D03*
D31*
X-472441Y-393701D02*
D03*
X472441D02*
D03*
Y393701D02*
D03*
X-472441D02*
D03*
X147638Y147638D02*
D03*
X196850Y196851D02*
D03*
X147638Y-147638D02*
D03*
X196851Y-196850D02*
D03*
X-147638Y-147638D02*
D03*
X-196850Y-196851D02*
D03*
X-147638Y147638D02*
D03*
X-196851Y196850D02*
D03*
D32*
X393701Y-393701D02*
D03*
X-393701D02*
D03*
Y393701D02*
D03*
X393701D02*
D03*
M02*
